<svg id="Capa_1" enable-background="new 0 0 511.986 511.986" height="512" viewBox="0 0 511.986 511.986" width="512" xmlns="http://www.w3.org/2000/svg"><path d="m427.986 100.039v70l-85 82-153.11 112.54-34.54-7.89-2.85-.65-5.04-33.89 114.54-152.11 81-85h70c3.89 0 7.43 1.48 10.09 3.91 3.02 2.74 4.91 6.7 4.91 11.09z" fill="#fff1f1"/><path d="m427.986 100.039v70l-85 82-153.11 112.54-34.54-7.89 267.74-267.74c3.02 2.74 4.91 6.7 4.91 11.09z" fill="#ebded9"/><path d="m342.986 85.039v-70c0-8.284-6.716-15-15-15h-85.242c-5.926 0-11.297 3.489-13.705 8.904l-135.378 259.418 8.826 43.796 44.963 9.992z" fill="#ebded9"/><path d="m496.986 170.039h-69l-238.11 194.537 3.611 32.963 50.089 20.736 259.484-134.963c5.427-2.403 8.927-7.78 8.927-13.715v-84.558c-.001-8.284-6.717-15-15.001-15z" fill="#cabbb7"/><path d="m52.009 311.524c-.002.002-.005.006-.008.008-.004.004-.008.009-.012.012.008-.008.014-.013.02-.02z" fill="none"/><path d="m200.415 459.896c.004-.003.007-.007.011-.01.005-.004.01-.009.014-.013-.01.008-.018.016-.025.023z" fill="none"/><path d="m52.048 311.484c-.012.013-.025.026-.039.04.011-.011.024-.024.039-.04z" fill="none"/><path d="m52.208 311.318c-.003.003-.006.006-.009.01-.001.001-.002.002-.004.004.005-.006.009-.01.013-.014z" fill="none"/><path d="m200.439 459.872c.008-.007.015-.015.024-.023.012-.011.024-.023.036-.034.015-.015.03-.029.048-.046-.028.026-.064.061-.108.103z" fill="none"/><path d="m52.195 311.331c-.001.001-.002.002-.003.003-.003.003-.006.006-.009.009.004-.004.008-.008.012-.012z" fill="none"/><path d="m52.09 311.44c-.007.007-.014.014-.02.021-.008.008-.015.016-.022.023.015-.016.03-.031.042-.044z" fill="none"/><path d="m200.637 459.681s-.009.009-.028.027c.01-.009.018-.017.028-.027z" fill="none"/><path d="m200.547 459.768c.012-.012.024-.023.033-.032.002-.002.005-.005.007-.007.009-.008.015-.015.021-.021-.02.021-.043.042-.061.06z" fill="none"/><path d="m52.25 311.759c5.045 4.205 80.736 67.28 80.736 67.28s52.106 62.544 64.682 77.64c1.726 2.072 2.708 3.25 2.708 3.25l-21.132 21.185c-40.968 41.072-107.488 41.115-148.509.094-40.984-40.984-40.98-107.435.004-148.419 12.358-12.358 21.243-21.244 21.247-21.251 0 .001.09.076.264.221z" fill="#fff1f1"/><path d="m179.245 481.115 21.132-21.185s-.981-1.178-2.708-3.25c-12.577-15.096-64.683-77.64-64.683-77.64s-.021-.017-.044-.037l-102.206 102.206c41.02 41.02 107.54 40.978 148.509-.094z" fill="#ebded9"/><path d="m52.183 311.343c-.022.023-.042.043-.059.062-.01.011-.021.022-.033.035.032-.034.065-.068.092-.097z" fill="#fd9000"/><path d="m200.396 459.914c.01-.01.02-.019.03-.029-.004.004-.007.007-.011.01-.007.008-.013.014-.019.019z" fill="#fd9000"/><path d="m52.192 311.334c-.017.018-.041.042-.068.071.018-.019.038-.039.059-.062.003-.003.007-.006.009-.009z" fill="#fd9000"/><path d="m200.425 459.885c.012-.011.025-.024.038-.037-.009.009-.017.016-.024.023-.004.005-.009.01-.014.014z" fill="#fd9000"/><path d="m243.576 418.279-42.94 41.401-.03.029-.06.06-.11.1-.02.03-.04.031-148.39-148.391.06-.06.04-.04.1-.1.01-.01.01-.01 41.45-42.96 75.01 75.01z" fill="#76e2f8"/><path d="m243.576 418.279-21.47 20.7-21.47 20.701-.015.014-.015.015-.03.03-.03.03-.055.05-.055.05-.01.015-.01.015-.02.015-.02.016-37.07-37.071-37.07-37.07 21.215-21.21 21.215-21.21 37.455 37.455z" fill="#4bb9ec"/><g fill="#fd9000"><path d="m200.499 459.814c-.012.012-.024.023-.036.034.011-.009.023-.021.036-.034z"/><path d="m200.588 459.729c-.002.002-.005.005-.007.007.002-.002.004-.005.007-.007z"/><path d="m52.208 311.318c.037-.038.048-.05 0 0z"/><path d="m52.199 311.328-.007.006.003-.003z"/><path d="m52.124 311.405c-.02.021-.038.04-.054.056.006-.007.013-.014.02-.021.012-.013.023-.024.034-.035z"/><path d="m200.378 459.931c.007-.006.012-.011.018-.017.006-.005.012-.011.019-.018-.015.014-.028.026-.037.035z"/><path d="m200.499 459.814c.029-.028.057-.055.081-.078-.009.009-.021.02-.033.032-.018.018-.032.032-.048.046z"/><path d="m52.048 311.484c.007-.007.014-.015.022-.023-.027.028-.05.052-.068.071l.008-.008c.013-.015.026-.028.038-.04z"/><path d="m52.002 311.531c-.005.006-.009.009-.013.013l.001-.001c.004-.003.008-.007.012-.012z"/><path d="m200.378 459.932c.005-.005.011-.01.018-.018-.006.006-.011.011-.018.018z"/><path d="m200.588 459.729c.03-.029.05-.048.05-.048-.01.01-.019.018-.028.027-.007.006-.014.013-.022.021z"/><path d="m200.367 459.942c-.011.01-.009.009 0 0z"/><path d="m51.99 311.544c-.025.025-.021.022 0 0z"/><path d="m200.378 459.931c-.005.005-.008.008-.011.011z"/></g><path d="m147.449 322.15-53.788-53.789z" fill="#ebded9"/><path d="m189.876 364.576 53.699 53.7z" fill="#cabbb7"/><path d="m147.449 322.15 42.427 42.426z" fill="#fff1f1"/></svg>