<svg height="512" viewBox="0 0 52 60" width="512" xmlns="http://www.w3.org/2000/svg"><g id="Page-1" fill="none" fill-rule="evenodd"><g id="036---Trophy" fill-rule="nonzero" transform="translate(-1)"><path id="Shape" d="m15 51h24v7c0 .5522847-.4477153 1-1 1h-22c-.5522847 0-1-.4477153-1-1z" fill="#7facfa"/><path id="Shape" d="m15 51h21v7c0 .5522847-.4477153 1-1 1h-19c-.5522847 0-1-.4477153-1-1z" fill="#a4c2f7"/><path id="Rectangle-path" d="m25 24h4v12.72h-4z" fill="#cad9fc"/><path id="Rectangle-path" d="m25 24h2v12.72h-2z" fill="#e8edfc"/><path id="Shape" d="m23 49v-12h8v12" fill="#7facfa"/><path id="Shape" d="m23 49v-12h5v12" fill="#a4c2f7"/><path id="Shape" d="m27.7775 2.7958 3.8434 7.7342c.1270429.2546813.3710531.4307364.6528.471l8.5941 1.24c.3255491.045086.5968771.2718922.6989804.584286.1021034.3123937.0171003.6556639-.2189804.884314l-6.2187 6.02c-.2041359.1971031-.2975157.4824467-.2494.7621l1.4681 8.5c.0539079.3245017-.0807328.651522-.3474909.8439992-.2667581.1924773-.6195487.2171591-.9105091.0637008l-7.6868-4.0133c-.2528575-.1317927-.5541425-.1317927-.807 0l-7.686 4.0131c-.2909604.1534583-.643751.1287765-.9105091-.0637008-.2667581-.1924772-.4013988-.5194975-.3474909-.8439992l1.4681-8.5c.0481157-.2796533-.0452641-.5649969-.2494-.7621l-6.2187-6.02c-.2361035-.2287185-.3210552-.5720816-.2188358-.8845048.1022193-.3124232.3737002-.5391678.6993358-.5840952l8.5941-1.24c.2817469-.0402636.5257571-.2163187.6528-.471l3.8434-7.7337c.1476307-.29389126.4483701-.47941153.7772575-.47947499.3288874-.00006347.6296984.18534072.7774425.47917499z" fill="#cad9fc"/><path id="Shape" d="m33.39 11.16c-4.02 2.1-11.3 7.25-11.44 17.15l-3.04 1.59c-.2916663.1522514-.644303.1267487-.9110272-.0658854-.2667242-.1926342-.4018032-.5193706-.3489728-.8441146l1.47-8.5c.0463806-.279005-.0470433-.5630139-.25-.76l-6.22-6.02c-.2351835-.2292362-.3195921-.5722376-.2176496-.8844366.1019426-.312199.3725043-.5392916.6976496-.5855634l8.6-1.24c.2796604-.0429765.5215602-.2178887.65-.47l3.84-7.73c.1485713-.29439572.4502391-.48006096.78-.48006096s.6314287.18566524.78.48006096l3.84 7.73c.1284398.2521113.3703396.4270235.65.47z" fill="#e8edfc"/><rect id="Rectangle-path" fill="#cad9fc" height="4" rx="1" width="12" x="21" y="34"/><rect id="Rectangle-path" fill="#e8edfc" height="4" rx="1" width="9" x="21" y="34"/><rect id="Rectangle-path" fill="#cad9fc" height="4" rx="1" width="28" x="13" y="48"/><rect id="Rectangle-path" fill="#e8edfc" height="4" rx="1" width="25" x="13" y="48"/><path id="Shape" d="m26 48v-10h-1c-.5522847 0-1-.4477153-1-1v-2c0-.5522847.4477153-1 1-1h-3c-.5522847 0-1 .4477153-1 1v2c0 .5522847.4477153 1 1 1h1v10z" fill="#fff"/><path id="Shape" d="m28 34v-8l-3 1v7z" fill="#fff"/><path id="Shape" d="m18.87 19.73c.1726745.1765553.2611159.4188221.2428.6651.0042212.0319013.0065586.0640237.007.0962l-.0166.0957-1.4532 8.403c-.0291326.16387-.0092342.332694.0572.4853.2197703.4439276.7530113.6322111 1.2028.4247l1.0068-.5266.7332-.3828v-.0006l1.4532-8.403.0166-.0957c-.0004414-.0321763-.0027788-.0642987-.007-.0962.0183159-.2462779-.0701255-.4885447-.2428-.6651l-6.22-6.02c-.0769913-.0777701-.1383349-.1695989-.1807-.2705-.108913-.2457566-.0967386-.5282881.032911-.7637649.1296496-.2354769.361881-.3968487.627789-.4362351l8.264-1.1915.3323-.048c.1863084-.0610712.3574723-.1611243.5021-.2935.0582533-.0518609.1089767-.1116049.1507-.1775l2.7834-5.6007.3375-.679-.72-1.4493-.0015-.0023-.001-.002c-.1476286-.29402701-.4484923-.47962358-.7775-.47962358s-.6298714.18559657-.7775.47962358l-.001.002-.0015.0023-1.0575 2.1288-2.7834 5.6012c-.1208936.1750584-.2871755.3138917-.481.4016-.0545482.0293639-.1121615.0526372-.1718.0694l-.3323.048-8.264 1.191c-.265908.0393864-.4981394.2007582-.627789.4362351-.1296496.2354768-.141824.5180083-.032911.7637649.0423651.1009011.1037087.1927299.1807.2705z" fill="#fff"/><path id="Shape" d="m18 58v-6h-1c-.5522847 0-1-.4477153-1-1v-2c0-.5522847.4477153-1 1-1h-3c-.5522847 0-1 .4477153-1 1v2c0 .5522847.4477153 1 1 1h1v6c0 .5522847.4477153 1 1 1h3c-.5522847 0-1-.4477153-1-1z" fill="#fff"/><g fill="#428dff"><path id="Shape" d="m31 49c-.5522847 0-1-.4477153-1-1v-9h-6v9c0 .5522847-.4477153 1-1 1s-1-.4477153-1-1v-10c0-.5522847.4477153-1 1-1h8c.5522847 0 1 .4477153 1 1v10c0 .5522847-.4477153 1-1 1z"/><path id="Shape" d="m11.4863 40.8223c-.5522847.0048325-1.0039175-.4389653-1.00875-.99125-.0048324-.5522847.4389653-1.0039175.99125-1.00875.5810001-.0104545 1.1608314-.0561384 1.7363-.1368-.421739-.5498349-.8039002-1.1289247-1.1436-1.7329-.2704814-.4816475-.0992975-1.0913685.38235-1.36185.4816475-.2704814 1.0913685-.0992975 1.36185.38235.5450689.9705561 1.2166047 1.8644352 1.997 2.6582.250626.2552161.3458472.6248632.2497186.9694033-.0961287.3445402-.368966.6114969-.7155186.7000967-1.2531534.3217163-2.5394464.4967233-3.833.5215z"/><path id="Shape" d="m9.7422 37.4189c-.04640622-.0001943-.09274586-.0035353-.1387-.01-1.18974255-.1690787-2.35369375-.4861688-3.4648-.9439-.33628138-.1314766-.57557136-.4340241-.62604883-.7915479-.05047747-.3575239.09569771-.7144938.38243471-.933932.286737-.2194383.66950007-.267262 1.00141412-.1251201.44926299.1842801.90867657.3427712 1.376.4747-.17351849-.6577774-.30950452-1.3248869-.4073-1.9981-.06056309-.3576905.07734419-.7201274.36036554-.9470839.28302134-.2269565.66676192-.2828322 1.00275254-.1460088.33599063.1368234.57152769.4448839.61548192.8049927.1624354 1.1152405.4422899 2.2101892.8349 3.2666.1143283.30689.0711424.650313-.1156085.9193419-.1867509.269029-.4933973.4295664-.8208915.4297581z"/><path id="Shape" d="m6.041 32.6982c-.18057154.0001142-.35778205-.0488286-.5127-.1416-1.0343102-.624082-1.99509116-1.3625972-2.8642-2.2016-.3858112-.3843061-.39319874-1.0066675-.01661851-1.4000233.37658023-.3933559.99867268-.4130829 1.39941851-.0443767.334.3194.6758.6187333 1.0254.898.0381-.6274.1045-1.2495.1982-1.8618.09264203-.5369946.59817206-.9009575 1.13681964-.818468.53864758.0824894.91208782.5810593.83978036 1.121168-.17152856 1.1314697-.2405088 2.2761199-.2061 3.42.00778416.2701706-.09412617.5319866-.28251286.7257988-.1883867.1938123-.44720448.3031133-.71748714.3030012z"/><path id="Shape" d="m3.9844 26.8271c-.30110654-.0001533-.58618793-.1356808-.7764-.3691-.79494007-.9854497-1.49438717-2.044247-2.0889-3.1621-.17961219-.315668-.1739536-.703903.01478216-1.0142023s.53087391-.4938747.89378157-.4795617c.36290766.0143131.68952513.2242642.85323627.548464.23433333.4354667.4804.8554667.7382 1.26.1885-.5219.3946-1.0293.6182-1.518.14224919-.3346664.45496008-.5657344.81664386-.6034337.36168379-.0376994.71532487.1239129.92353299.4220501s.23816148.6858011.07822315 1.0123836c-.45990928 1.0158313-.82888599 2.0704234-1.1026 3.1514-.11390462.4420468-.5122143.7512128-.9687.7519z"/><path id="Shape" d="m3.5732 20.4629c-.0234 0-.0468-.001-.0712-.0025-.3796073-.0272249-.71085373-.2675675-.8545-.62-.49844967-1.2286075-.89052203-2.4977323-1.1719-3.7934-.08471687-.3520078.02745261-.7223139.29326064-.9681442.26580802-.2458302.64373311-.3287837.98806336-.2168771.34433026.1119066.60127836.4011925.671776.7563213.1211.5493.2608 1.09.419 1.6181.2968-.3974.60473333-.7751667.9238-1.1333.36809779-.4120597 1.00054035-.4476978 1.4126-.0796s.44769779 1.0005403.0796 1.4126c-.69191153.7809375-1.3040216 1.6290878-1.8272 2.5318-.17958656.3064564-.50810031.49482-.8633.495z"/><path id="Shape" d="m4.8066 14.2632c-.50873633.0005103-.93648337-.3816236-.9931-.8872-.15174147-1.3457038-.18573714-2.7020842-.1016-4.0537.01966858-.35844772.22996331-.67884985.55099991-.8394958.32103661-.16064595.70355034-.13688376 1.0022364.06226006.29868605.19914383.46770949.54310963.44286369.90123574-.0391.6279-.05 1.2578-.0342 1.8843.39654328-.2675839.80694876-.5140275 1.2295-.7383.31608308-.1704707.69930437-.1583615 1.00399446.0317245.30469009.1900861.48405593.5289564.46991729.8878002-.01413865.3588437-.21961042.6825512-.53831175.8480753-.85263722.4568298-1.64877218 1.0120535-2.3721 1.6543-.18250154.1604609-.41718863.2489752-.6602.249z"/><path id="Shape" d="m7.6855 8.8848c-.2971781-.00033756-.57884892-.13267622-.76881077-.36121382-.18996186-.2285376-.26858136-.52965376-.21458923-.82188618.24695414-1.33178339.63237983-2.63412004 1.15-3.8858.21169076-.51028348.7969665-.75234071 1.30724999-.54064997.51028348.21169074.75234073.79696648.54065001 1.30724997-.25413358.61266669-.47253335 1.23955181-.6541 1.8775.52029734-.11138294 1.0470118-.19033501 1.5771-.2364.2650016-.02679066.529563.05482563.7334142.22625576.2038511.17143014.3296311.41807433.3486858.68374424.047329.55002258-.3600053 1.03434759-.91 1.082-.94679231.08416109-1.87887094.28947112-2.7734.6109-.10789251.03857563-.22161871.05829674-.3362.0583z"/><path id="Shape" d="m15.5293 5.5942c-.0996209-.00021591-.1986611-.01517809-.2939-.0444-1.0030326-.30983003-2.039268-.49962189-3.087-.5654-.3511206-.02156797-.6650836-.22604201-.8267841-.5384581-.1617005-.3124161-.1473524-.68681759.0377841-.9859419.7257139-1.17078306 1.6005438-2.24226068 2.6025-3.1875.4017872-.3791711 1.0348789-.36083716 1.41405.04095s.3608372 1.03487891-.04095 1.41405c-.4835923.45573066-.9336615.94577038-1.3467 1.4663.6200714.11060957 1.2328372.2588502 1.8349.4439.4741775.14461985.7708229.61481217.6971802 1.1050529-.0736426.49024074-.4953403.85252555-.9910802.8514471z"/><path id="Shape" d="m42.5137 40.8223h-.0176c-1.2935536-.0247767-2.5798466-.1997837-3.833-.5215-.3465526-.0885998-.6193899-.3555565-.7155186-.7000967-.0961286-.3445401-.0009074-.7141872.2497186-.9694033.7803953-.7937648 1.4519311-1.6876439 1.997-2.6582.1749708-.3115713.5028719-.5061293.8601859-.5103858.3573141-.0042564.6897568.1824352.8721.48975.1823433.3073149.1868849.6885645.0119141 1.0001358-.3396998.6039753-.721861 1.1830651-1.1436 1.7329.5754686.0806616 1.1552999.1263455 1.7363.1368.5522847.0048325.9960824.4564653.99125 1.00875-.0048325.5522847-.4564653.9960825-1.00875.99125z"/><path id="Shape" d="m44.2578 37.4189c-.3274942-.0001917-.6341406-.1607291-.8208915-.4297581-.1867509-.2690289-.2299368-.6124519-.1156085-.9193419.3926101-1.0564108.6724646-2.1513595.8349-3.2666.0439542-.3601088.2794913-.6681693.6154819-.8049927s.7197312-.0809477 1.0027526.1460088c.2830213.2269565.4209286.5893934.3603655.9470839-.0977955.6732131-.2337815 1.3403226-.4073 1.9981.4673234-.1319288.926737-.2904199 1.376-.4747.3319141-.1421419.7146771-.0943182 1.0014141.1251201.286737.2194382.4329122.5764081.3824347.933932-.0504774.3575238-.2897674.6600713-.6260488.7915479-1.1111062.4577312-2.2750574.7748213-3.4648.9439-.045961.0063644-.0923006.0096051-.1387.0097z"/><path id="Shape" d="m47.959 32.6982c-.2702827.0001121-.5291004-.1091889-.7174871-.3030012-.1883867-.1938122-.2902971-.4556282-.2825129-.7257988.0344088-1.1438801-.0345714-2.2885303-.2061-3.42-.0723075-.5401087.3011328-1.0386786.8397804-1.121168.5386475-.0824895 1.0441776.2814734 1.1368196.818468.0937.6123.16 1.2344.1982 1.8618.3496-.2788.6914-.5781333 1.0254-.898.4007458-.3687062 1.0228383-.3489792 1.3994185.0443767.3765802.3933558.3691927 1.0157172-.0166185 1.4000233-.8691088.8390028-1.8298898 1.577518-2.8642 2.2016-.1549079.0928064-.3321191.141784-.5127.1417z"/><path id="Shape" d="m50.0156 26.8271c-.4564857-.0006872-.8547954-.3098532-.9687-.7519-.273714-1.0809766-.6426907-2.1355687-1.1026-3.1514-.1599383-.3265825-.129985-.7142464.0782232-1.0123836.2082081-.2981372.5618492-.4597495.9235329-.4220501.3616838.0376993.6743947.2687673.8166439.6034337.2236.4887.43.9961.6182 1.518.2578-.4043333.5038667-.8243333.7382-1.26.1637111-.3241998.4903286-.5341509.8532363-.548464.3629076-.014313.7050458.1692624.8937815.4795617.1887358.3102993.1943944.6985343.0147822 1.0142023-.5945237 1.1177838-1.2939706 2.1765137-2.0889 3.1619-.1902121.2334192-.4752935.3689467-.7764.3691z"/><path id="Shape" d="m50.4268 20.4629c-.3551179-.0000967-.6836129-.1882974-.8633-.4946-.5231784-.9027122-1.1352885-1.7508625-1.8272-2.5318-.3680978-.4120597-.3324596-1.0445022.0796-1.4126.4120597-.3680977 1.0445022-.3324596 1.4126.0796.3184.3574.6263333.7351667.9238 1.1333.1582-.5283.2979-1.0688.419-1.6181.0704976-.3551288.3274457-.6444147.671776-.7563213s.7222553-.0289531.9880634.2168771c.265808.2458303.3779775.6161364.2932606.9681442-.281378 1.2956677-.6734503 2.5647925-1.1719 3.7934-.1436463.3524325-.4748927.5927751-.8545.62-.0244.0011-.048.0021-.0712.0021z"/><path id="Shape" d="m49.1934 14.2632c-.2429425-.0000734-.4775502-.0885845-.66-.249-.7233956-.6422244-1.519598-1.1974148-2.3723-1.6542-.4834197-.2607191-.666084-.8625322-.4091398-1.3479689.2569442-.4854366.8573157-.6727848 1.3447398-.4196311.4227215.2242571.8332942.4707009 1.23.7383.0156-.6265.0049-1.2564-.0342-1.8843-.0248458-.35812611.1441776-.70209191.4428637-.90123574.298686-.19914382.6811998-.22290601 1.0022364-.06226006s.5313313.48104808.5509999.8394958c.0841371 1.3516158.0501415 2.7079962-.1016 4.0537-.0566166.5055764-.4843637.8877103-.9931.8872z"/><path id="Shape" d="m46.3145 8.8848c-.1145025.00003799-.2281588-.01961507-.336-.0581-.8945291-.32142888-1.8266077-.52673891-2.7734-.6109-.5499947-.04765241-.957329-.53197742-.91-1.082.0185373-.26587303.1441734-.5128423.3481517-.68437935s.4688353-.25295588.7339483-.22562065c.5300882.04606499 1.0568027.12501706 1.5771.2364-.1816247-.63802016-.4000913-1.26497233-.6543-1.8777-.1369399-.33005982-.0873928-.70810423.1299775-.99172757.2173702-.28362334.5695398-.42973647.92385-.3833.3543101.04643648.6569326.27836775.7938725.60842757.5176202 1.25167996.9030459 2.55401661 1.15 3.8858.0539921.29223242-.0246274.59334858-.2145892.82188618-.1899619.2285376-.4716327.36087626-.7688108.36121382z"/><path id="Shape" d="m38.4707 5.5942c-.4957399.00107845-.9174376-.36120636-.9910802-.8514471-.0736427-.49024073.2230027-.96043305.6971802-1.1050529.6020628-.1850498 1.2148286-.33329043 1.8349-.4439-.4130385-.52052962-.8631077-1.01056934-1.3467-1.4663-.4017872-.37917109-.4201211-1.01226284-.04095-1.41405s1.0122628-.4201211 1.41405-.04095c1.0019562.94523932 1.8767861 2.01671694 2.6025 3.1875.1851365.29912431.1994846.6735258.0377841.9859419-.1617005.31241609-.4756635.51689013-.8267841.5384581-1.047732.06577811-2.0839674.25556997-3.087.5654-.0952389.02922191-.1942791.04418409-.2939.0444z"/><path id="Shape" d="m35.4951 31.0005c-.3021576-.0002355-.599743-.0738082-.8672-.2144l-7.6279-3.9829-7.627 3.9824c-.6280874.3295681-1.3887133.274563-1.9628479-.1419444s-.862502-1.1224972-.7441521-1.8218556l1.4561-8.4253-6.166-5.9683c-.5105417-.4939351-.6950037-1.2356175-.4753211-1.9111648s.8051075-1.1668687 1.5085211-1.2660352l8.5253-1.23 3.8125-7.67c.3166353-.6338793.9643375-1.03435319 1.6729-1.03435319s1.3562647.40047389 1.6729 1.03435319l3.8125 7.67 8.5253 1.23c.7033344.0990942 1.2887215.5903182 1.508408 1.2657712s.0352665 1.4170515-.475208 1.9109288l-6.166 5.9688 1.4561 8.4248c.0913678.5416069-.0602063 1.0959812-.4144304 1.5157566-.3542241.4197755-.8752109.6624239-1.4244696.6634434zm-8.4951-6.2134c.3012626-.0001256.5980916.0725721.8652.2119l7.4512 3.891-1.4219-8.228c-.104447-.6063749.0981453-1.2251239.541-1.6523l6.0118-5.8197-8.3164-1.2c-.6075774-.0869585-1.1334666-.4673054-1.4063-1.0171l-3.7246-7.4944-3.7256 7.4961c-.2728464.5490586-.7983381.9287528-1.4053 1.0154l-8.3164 1.2 6.0127 5.82c.4421047.4266576.6443126 1.0445149.54 1.65l-1.4218 8.23 7.45-3.89c.2674425-.1396989.5646696-.2127363.8664-.2129z"/><path id="Shape" d="m32 39h-10c-1.1040441-.0012675-1.9987325-.8959559-2-2v-2c.0012675-1.1040441.8959559-1.9987325 2-2h10c1.1040441.0012675 1.9987325.8959559 2 2v2c-.0012675 1.1040441-.8959559 1.9987325-2 2zm-10-4v2h10.001l-.001-2z"/><path id="Shape" d="m29 35h-4c-.5522847 0-1-.4477153-1-1v-7.28c0-.5522847.4477153-1 1-1s1 .4477153 1 1v6.28h2v-6.28c0-.5522847.4477153-1 1-1s1 .4477153 1 1v7.28c0 .5522847-.4477153 1-1 1z"/></g><path id="Shape" d="m16 58h13 9v2h-9-13z" fill="#fff"/><path id="Shape" d="m21 59c-.0015928-.5516236-.4483764-.9984072-1-1h-4v2h4c.5516236-.0015928.9984072-.4483764 1-1z" fill="#428dff"/><path id="Shape" d="m38 60v-2h-10c-.5522847 0-1 .4477153-1 1s.4477153 1 1 1z" fill="#428dff"/><path id="Shape" d="m24 58c-.2647108.0039589-.5182135.1075022-.71.29l-.12.15c-.037828.055756-.068092.116284-.09.18-.0288933.0566601-.0491186.117336-.06.18-.0112482.0661287-.0179306.1329534-.02.2.0036835.264767.1072663.5183662.29.71.233753.2427102.575294.3491927.9055634.2823284.3302694-.0668644.6034969-.2978093.7244366-.6123284.051241-.1202223.07842-.2493227.08-.38.0027011-.2660353-.1017882-.5219616-.2899133-.7100867s-.4440514-.2926144-.7100867-.2899133z" fill="#428dff"/><path id="Shape" d="m38 60c-.5522847 0-1-.4477153-1-1s.4477153-1 1-1v-5h-22v5c.5522847 0 1 .4477153 1 1s-.4477153 1-1 1c-1.1040441-.0012675-1.9987325-.8959559-2-2v-6c0-.5522847.4477153-1 1-1h24c.5522847 0 1 .4477153 1 1v6c-.0012675 1.1040441-.8959559 1.9987325-2 2z" fill="#428dff"/><path id="Shape" d="m40 53h-26c-1.1040441-.0012675-1.9987325-.8959559-2-2v-2c.0012675-1.1040441.8959559-1.9987325 2-2h26c1.1040441.0012675 1.9987325.8959559 2 2v2c-.0012675 1.1040441-.8959559 1.9987325-2 2zm-26-4v2h26.001l-.001-2z" fill="#428dff"/></g></g></svg>