<?xml version="1.0"?>
<svg xmlns="http://www.w3.org/2000/svg" id="Layer_1" data-name="Layer 1" viewBox="0 0 512 512" width="512" height="512"><title>graduate boy</title><path d="M193.981,382.457a8.77,8.77,0,0,1-.844-7c1-3.323,3.954-6.481,8.135-8.692.985-.414,4.473-1.613,9.095-3.154l-.536-3.117c-8.876,2.895-16.97,5.6-18.559,6.271-4.181,2.211-7.134,5.369-8.135,8.692a8.77,8.77,0,0,0,.844,7c3.593,6.5,24.755,39.93,40.834,65.2L221.1,426.056C208.574,406.272,196.6,387.2,193.981,382.457Z" style="fill:#d4e1f4"/><path d="M171.529,388.964a23.936,23.936,0,0,1-2.7-9.522l-8.607,3.677C147.17,389.726,138,402.818,137,417.386V474h20V417.386A41.624,41.624,0,0,1,171.529,388.964Z" style="fill:#d4e1f4"/><path d="M276.392,329.934c3.214,0,6.427-.171,9.608-.47v-4.008a94.141,94.141,0,0,1-19.6,3.97C269.691,329.756,273.023,329.934,276.392,329.934Z" style="fill:#d4e1f4"/><path d="M247.609,381.234l-4.731-27.5,1.562-1.563a27.181,27.181,0,0,0,7.907-19.142l.01-3.189A99.435,99.435,0,0,1,232.367,327l-.02,6.03a27.181,27.181,0,0,1-7.907,19.142l-1.562,1.563,4.731,27.5a96.088,96.088,0,0,0,41.5,4.767A96.489,96.489,0,0,1,247.609,381.234Z" style="fill:#d4e1f4"/><path d="M341.53,186.192c6.059,0,11.41-.253,15.831-.584a11.409,11.409,0,0,0-4.565-2.243,6.887,6.887,0,0,1-2.022.7,162.286,162.286,0,0,1-19.247,1.9C335.028,186.123,338.374,186.192,341.53,186.192Z" style="fill:#d4e1f4"/><path d="M191,230.446V218.737a7.072,7.072,0,0,0-5.873-6.895,16.711,16.711,0,0,1-13.852-16.464,17.4,17.4,0,0,1,.248-2.98l-9.749-5.007a14.585,14.585,0,0,1-4.173-3.231,10.466,10.466,0,0,0-5.868,7.224,16.823,16.823,0,0,0,13.394,20.458A7.072,7.072,0,0,1,171,218.737v11.709a85.362,85.362,0,0,0,95.5,84.884A85.607,85.607,0,0,1,191,230.446Z" style="fill:#d4e1f4"/><path d="M192.934,193.122a8.91,8.91,0,0,0,12.949-7.216c0-.044.006-.089.009-.133l1.36-22.329a13.18,13.18,0,0,1,1.054-4.4q-9.087-1.344-18.05-3.215a13.236,13.236,0,0,0-3,7.611l-1.36,22.329c0,.044,0,.089-.009.133a8.945,8.945,0,0,1-.853,3.157Z" style="fill:#d4e1f4"/><path d="M129.958,488H388.222A7.047,7.047,0,0,0,395,480.734V417.083c0-.193.1-.387.087-.581a56.964,56.964,0,0,0-31.085-46c-.126-.063-.226-.122-.355-.177l-17.552-7.5a32.787,32.787,0,0,0-10.462-8.462c-.716-.381-2.6-1.383-29.13-8.645L303.74,342.9a12.852,12.852,0,0,1-3.74-9.192v-13.82a99.823,99.823,0,0,0,56-89.439v-6.419c11-4.492,19.512-15.739,19.512-28.649a30.7,30.7,0,0,0-.692-7.324c-2.233-9.118-9.82-15.914-17.82-18.19V141H343v30.027c-17,1.807-68.233,4.43-109.3-22.371L225.93,160.38c32.812,21.413,70.288,25.812,95.6,25.812a181.542,181.542,0,0,0,29.244-2.126,6.887,6.887,0,0,0,2.022-.7,10.649,10.649,0,0,1,8.151,8.018,16.8,16.8,0,0,1,.475,3.995A16.6,16.6,0,0,1,347.7,211.842a6.921,6.921,0,0,0-5.7,6.895v11.709a85.5,85.5,0,0,1-171,0V218.737a7.072,7.072,0,0,0-5.873-6.895,16.818,16.818,0,0,1-13.393-20.458,10.463,10.463,0,0,1,5.867-7.224,14.585,14.585,0,0,0,4.173,3.231l11.16,5.731a8.91,8.91,0,0,0,12.949-7.216c0-.044.006-.089.009-.133l1.36-22.329a13.243,13.243,0,0,1,5.131-9.679l-8.549-11.086a27.238,27.238,0,0,0-10.556,19.914l-.884,14.515-4.132-2.172a.488.488,0,0,1-.262-.463V141H154v29.586a24.266,24.266,0,0,0-15.786,17.467,30.814,30.814,0,0,0-.85,7.325A30.182,30.182,0,0,0,157,224.027v6.419a99.566,99.566,0,0,0,61.405,91.938l-.019,10.675a13.1,13.1,0,0,1-3.828,9.215l-2.942,2.932c-16.1,5.188-25.1,8.249-26.677,9.079a33.787,33.787,0,0,0-9.328,7.038l-21.1,9.006q-.195.083-.384.177A57,57,0,0,0,123,416.5c-.017.194,0,.388,0,.581v63.651A7.2,7.2,0,0,0,129.958,488ZM243.5,474,230.26,396.837a111.892,111.892,0,0,0,58.66-.243L276.975,474ZM381,417.386V474H295.73c14.7-23,48.1-75.9,52.936-84.647a23.732,23.732,0,0,0,2.86-8.921l6.341,2.721C370.92,389.759,380,402.818,381,417.386Zm-51.7-50.528c4.087,2.2,6.985,5.324,7.967,8.6a8.769,8.769,0,0,1-.854,6.979c-3.645,6.593-25.311,40.922-41.418,66.324l13.588-87.941C318.335,363.531,327.392,366.138,329.3,366.858Zm-72.912-36.924A97.926,97.926,0,0,0,286,325.456v8.249a26.761,26.761,0,0,0,7.843,19.092l1.6,1.632-4.119,26.551a96.053,96.053,0,0,1-63.714.254l-4.731-27.5,1.562-1.563a27.181,27.181,0,0,0,7.907-19.142l.02-6.03A99.6,99.6,0,0,0,256.392,329.934Zm-73.255,45.528c1-3.323,3.954-6.481,8.135-8.692,1.589-.667,9.683-3.376,18.559-6.271l14.984,87.162c-16.079-25.274-37.241-58.706-40.834-65.2A8.77,8.77,0,0,1,183.137,375.462ZM137,417.386c1-14.568,10.17-27.66,23.223-34.267l8.606-3.677a23.939,23.939,0,0,0,2.909,9.927C176.576,398.12,210.071,451,224.825,474H137Z" style="fill:#0635c9"/><path d="M115.544,100.2,152,114.268v25.944a7.109,7.109,0,0,0,4.954,6.658l2.514.8a311.011,311.011,0,0,0,95.67,14.828,310.729,310.729,0,0,0,98.147-15.644A6.943,6.943,0,0,0,358,140.212V114.886l16-6.117v44.394a17.653,17.653,0,0,0-9.907,16.01,17.845,17.845,0,1,0,35.689,0A17.709,17.709,0,0,0,388,152.38v-49l8.309-3.186c8.274-3.183,9.523-8.395,9.523-11.218s-1.228-8.034-9.5-11.218L270.686,29.417c-8.374-3.221-21-3.221-29.377,0L115.661,77.76c-8.273,3.184-9.567,8.395-9.567,11.218S107.271,97.013,115.544,100.2ZM381.97,173.061a3.888,3.888,0,1,1,3.847-3.888A3.872,3.872,0,0,1,381.97,173.061ZM166,119.654l74.028,28.483A296.99,296.99,0,0,1,166,135.115Zm178,15.47a294.052,294.052,0,0,1-72.195,12.926L344,120.273Zm-97.662-92.64c5.057-1.946,14.267-1.945,19.324,0L386.507,88.978l-5.1,1.962c-.117-.006-.233-.018-.351-.018a6.975,6.975,0,0,0-4.959,2.061l-110.436,42.49c-5.057,1.946-14.267,1.945-19.324,0l-120.845-46.5Z" style="fill:#1ae5be"/></svg>
