<svg height="512" viewBox="0 0 61 60" width="512" xmlns="http://www.w3.org/2000/svg"><g id="Page-1" fill="none" fill-rule="evenodd"><g id="018---Water-Level-Increase" fill-rule="nonzero"><g id="Icons" transform="translate(1 1)"><g fill="#a4c2f7"><rect id="Rectangle-path" height="8" rx="2" width="8" x="1" y="50"/><rect id="Rectangle-path" height="12" rx="2" width="8" x="13" y="46"/><rect id="Rectangle-path" height="17" rx="2" width="8" x="25" y="41"/><rect id="Rectangle-path" height="23" rx="2" width="8" x="37" y="35"/><rect id="Rectangle-path" height="33" rx="2" width="8" x="49" y="25"/></g><path id="Shape" d="m55 25h-3c1.1045695 0 2 .8954305 2 2v29c0 1.1045695-.8954305 2-2 2h3c1.1045695 0 2-.8954305 2-2v-29c0-1.1045695-.8954305-2-2-2z" fill="#7facfa"/><path id="Shape" d="m56.68 4.054c.3049693-.10300687.6408778-.05291012.9025199.13460008.2616422.18751019.4170239.4895048.4174801.81139992v9.61c0 .3787721-.2140024.7250352-.5527864.8944272s-.744196.132836-1.0472136-.0944272l-2.81-2.11c-.0333748.0523327-.070119.1024385-.11.15-12.55 14.389-28.612 24.162-51.255 30.517-.51583712.142822-1.05343771-.1419966-1.225-.649l-.947-2.841c-.08571208-.2598826-.06117773-.5435368.0678841-.7848427.12906182-.241306.35137418-.4191792.6151159-.4921573 21.643-6.06 36.989-15.337 48.864-28.886l-2.07-1.55c-.2984355-.22244271-.4486294-.59223076-.3898229-.95977166.0588066-.3675409.316881-.67200603.6698229-.79022834z" fill="#e8edfc"/><path id="Shape" d="m56.68 4.054-1.754.585c.0464872.11481006.0715671.23715943.074.361v9.359l1.4 1.051c.3030176.2272632.7084296.2638192 1.0472136.0944272s.5527864-.5156551.5527864-.8944272v-9.61c-.0004562-.32189512-.1558379-.62388973-.4174801-.81139992-.2616421-.1875102-.5975506-.23760695-.9025199-.13460008z" fill="#cad9fc"/><path id="Shape" d="m25 17.043c-.0271904 5.5432613-4.1695707 10.2027062-9.6715204 10.8787491-5.50194975.676043-10.64912091-2.8419636-12.0174796-8.2137491-2.12-8.908 7.182-17.288 9.939-19.45.4438676-.34610185 1.0669005-.34362294 1.508.006 2.488 1.952 10.242 8.973 10.242 16.779z" fill="#e8edfc"/><path id="Shape" d="m14 25c-.4626176-.0005996-.9244384-.038388-1.381-.113-3.10948096-.5107996-5.6192857-2.8182958-6.389-5.874-.12785392-.5373731.20412694-1.0766461.7415-1.2045s1.07664608.2041269 1.2045.7415c.57760754 2.2735612 2.4494635 3.9874978 4.765 4.363.3500758.0575142.7042313.0866091 1.059.087.5522847 0 1 .4477153 1 1s-.4477153 1-1 1z" fill="#428dff"/></g><g id="Icons_copy_2" fill="#fff" transform="translate(2 1)"><path id="Shape" d="m11.134 27.847c1.1105384.1796499 2.2416784.1924578 3.356.038-.119-.015-.236-.018-.356-.038-4.3009028-.7108015-7.76819808-3.9092959-8.823-8.139-1.956-8.224 5.809-15.986 9.189-18.836-.275-.233-.531-.444-.74-.608-.4410995-.34962294-1.0641324-.35210185-1.508-.006-2.759 2.162-12.061 10.542-9.941 19.45 1.05480192 4.2297041 4.5220972 7.4281985 8.823 8.139z"/><path id="Shape" d="m0 52v4c0 1.1045695.8954305 2 2 2h3c-1.1045695 0-2-.8954305-2-2v-4c0-1.1045695.8954305-2 2-2h-3c-1.1045695 0-2 .8954305-2 2z"/></g><g id="Icons_copy"><path id="Shape" d="m4.126 12.5 1.862.732c-.95133212 2.2909754-1.19512868 4.8142699-.7 7.245l-1.945.462c-.58990394-2.8279435-.31712786-5.7678635.783-8.439z" fill="#fff"/><g fill="#428dff"><path id="Shape" d="m8 50h-4c-1.65685425 0-3 1.3431458-3 3v4c0 1.6568542 1.34314575 3 3 3h4c1.65685425 0 3-1.3431458 3-3v-4c0-1.6568542-1.34314575-3-3-3zm1 7c0 .5522847-.44771525 1-1 1h-4c-.55228475 0-1-.4477153-1-1v-4c0-.5522847.44771525-1 1-1h4c.55228475 0 1 .4477153 1 1z"/><path id="Shape" d="m16 60h4c1.6568542 0 3-1.3431458 3-3v-8c0-1.6568542-1.3431458-3-3-3h-4c-1.6568542 0-3 1.3431458-3 3v8c0 1.6568542 1.3431458 3 3 3zm-1-11c0-.5522847.4477153-1 1-1h4c.5522847 0 1 .4477153 1 1v8c0 .5522847-.4477153 1-1 1h-4c-.5522847 0-1-.4477153-1-1z"/><path id="Shape" d="m28 60h4c1.6568542 0 3-1.3431458 3-3v-13c0-1.6568542-1.3431458-3-3-3h-4c-1.6568542 0-3 1.3431458-3 3v13c0 1.6568542 1.3431458 3 3 3zm-1-16c0-.5522847.4477153-1 1-1h4c.5522847 0 1 .4477153 1 1v13c0 .5522847-.4477153 1-1 1h-4c-.5522847 0-1-.4477153-1-1z"/><path id="Shape" d="m40 60h4c1.6568542 0 3-1.3431458 3-3v-19c0-1.6568542-1.3431458-3-3-3h-4c-1.6568542 0-3 1.3431458-3 3v19c0 1.6568542 1.3431458 3 3 3zm-1-22c0-.5522847.4477153-1 1-1h4c.5522847 0 1 .4477153 1 1v19c0 .5522847-.4477153 1-1 1h-4c-.5522847 0-1-.4477153-1-1z"/><path id="Shape" d="m56 60c1.6568542 0 3-1.3431458 3-3v-29c0-1.6568542-1.3431458-3-3-3h-4c-1.6568542 0-3 1.3431458-3 3v29c0 1.6568542 1.3431458 3 3 3zm-5-3v-29c0-.5522847.4477153-1 1-1h4c.5522847 0 1 .4477153 1 1v29c0 .5522847-.4477153 1-1 1h-4c-.5522847 0-1-.4477153-1-1z"/><path id="Shape" d="m59.166 4.375c-.5219128-.37362405-1.1914357-.47405249-1.8-.27l-8.866 2.959c-.7067496.23501809-1.2243606.84329158-1.3432609 1.57854067-.1189002.7352491.1806088 1.47566253.7772609 1.92145933l1.2.9c-11.817 13.145-26.995 21.985-47.667 27.775-.52952072.1493854-.97540907.5079013-1.235.993-.25443232.4807367-.30209338 1.0443649-.132 1.561l.947 2.841c.27133408.8189703 1.037252 1.3716405 1.9 1.371.18688446.0002369.37292952-.0249952.553-.075 22.139-6.214 38.433-15.822 51.246-30.263l2.063 1.55c.6060353.4545265 1.4168591.5276384 2.0944272.1888544.677568-.338784 1.1055728-1.0313103 1.1055728-1.7888544v-9.617c-.0033807-.64570124-.3170701-1.25038123-.843-1.625zm-3.976 9.125c-.2287153-.1683334-.5177788-.2324912-.7962332-.1767241-.2784544.055767-.5205166.2262951-.6667668.4697241-12.579 14.421-28.711 24.019-50.781 30.207l-.94-2.836c21.484-6.016 37.164-15.292 49.346-29.191.1833776-.2095139.2711026-.4859948.2420639-.7629066-.0290387-.2769119-.1722117-.5291793-.3950639-.6960934l-2.073-1.551 8.874-2.963v9.61z"/><path id="Shape" d="m4.724 13.809c.50779619.1757064 1.06409132-.0782353 1.264-.577.91705182-2.2116602 2.17200553-4.26749026 3.72-6.094 1.5364813-1.87308759 3.2652817-3.57976682 5.158-5.092.0818148-.06134401.1949489-.05886662.274.006 1.009.791 9.86 7.966 9.86 15.991-.000018 2.9196143-1.2849018 5.6912765-3.513 7.578-2.2677622 1.9124322-5.261614 2.7311978-8.187 2.239-3.90199438-.6467593-7.0485542-3.5466533-8.011-7.383-.07363318-.3568347-.33551781-.6453807-.6835655-.7531565-.3480477-.1077758-.72716872-.0177223-.98957334.2350555s-.36655888.6282699-.27186116.980101c1.15163059 4.6209565 4.93644276 8.1174095 9.634 8.9.6611812.10817 1.3300289.1626811 2 .163 3.1813322.0124891 6.2368791-1.2414468 8.4923401-3.4850882 2.2554609-2.2436415 3.5254338-5.2925579 3.5296599-8.4739118 0-8.971-9.537-16.712-10.625-17.565-.8027872-.63505122-1.9359809-.63794413-2.742-.007-2.0076708 1.60351934-3.84139382 3.41344523-5.471 5.4-1.68077485 1.98713068-3.04237054 4.2235078-4.036 6.629-.10109342.2524285-.09436065.5352515.01862986.7825835.1129905.2473321.32237289.4375772.57937014.5264165z"/><path id="Shape" d="m4.113 17.727c-.35726559.0016077-.6882503-.1875057-.8682754-.4961029s-.18174049-.6897951-.0045-1 .50650981-.5022894.8637754-.5038971h.009c.55228475 0 1 .4477153 1 1s-.44771525 1-1 1z"/></g></g></g></g></svg>