<svg height="512" viewBox="0 0 46 60" width="512" xmlns="http://www.w3.org/2000/svg"><g id="Page-1" fill="none" fill-rule="evenodd"><g id="010---Water" fill-rule="nonzero"><g id="Icons" transform="translate(1 1)"><path id="Shape" d="m38 30.14v2.86c.0005447.2258849-.0771987.4449798-.22.62l-2 2.5c-.2649346.3302445-.7091271.4578584-1.1089487.3185947-.3998217-.1392637-.6686131-.5152204-.6710513-.9385947v-7c-.0093024-1.9291303-1.5708697-3.4906976-3.5-3.5-1.9329966 0-3.5 1.5670034-3.5 3.5v11.22c-.0007002.7953814-.3172301 1.5579306-.88 2.12l-.31.32c-1.8549904 1.8527974-3.1064139 4.2231818-3.59 6.8-.14.01-.29.01-.44.01-.4831168-2.5798875-1.7344608-4.9536068-3.59-6.81l-.31-.32c-.5627699-.5620694-.8792998-1.3246186-.88-2.12v-11.22c0-1.9329966-1.5670034-3.5-3.5-3.5-1.9291303.0093024-3.4906976 1.5708697-3.5 3.5v7c-.00243819.4233743-.27122961.799331-.67105128.9385947-.39982166.1392637-.84401411.0116498-1.10894872-.3185947l-2-2.5c-.14280131-.1750202-.22054468-.3941151-.22-.62v-4.4c.36-5.23 2.58-10.45 5.2-14.97 1.3151484 2.2248009 1.9415171 4.7894327 1.8 7.37 0-10.5 7-10.5 7-10.5-1.9749908-.1402003-3.7852872-1.15162098-4.94-2.76 1.9428144-2.64787698 4.0715197-5.15420189 6.37-7.5.1503659-.15268628.3557035-.23866231.57-.23866231s.4196341.08597603.57.23866231c2.84 2.83 15.43 16.49 15.43 29.9z" fill="#a4c2f7"/><path id="Shape" d="m22.57.24c-.1503659-.15268628-.3557035-.23866231-.57-.23866231s-.4196341.08597603-.57.23866231c-.241.241-.562.572-.928.961 3.971 4.206 14.498 16.674 14.498 28.939v2.86c.0005447.2258849-.0771987.4449798-.22.62l-.78.98v.9c.0024382.4233743.2712296.799331.6710513.9385947.3998216.1392637.8440141.0116498 1.1089487-.3185947l2-2.5c.1428013-.1750202.2205447-.3941151.22-.62v-2.86c0-13.41-12.59-27.07-15.43-29.9z" fill="#7facfa"/><g fill="#e8edfc"><path id="Shape" d="m20 10.5s-7 0-7 10.5c.1415171-2.5805673-.4848516-5.1451991-1.8-7.37-1.1355723-1.8123091-3.06694668-2.9748479-5.2-3.13 0 0 7 0 7-10.5 0 3.77.9 6.19 2.06 7.74 1.1547128 1.60837902 2.9650092 2.6197997 4.94 2.76z"/><path id="Shape" d="m22 51.35v4.65c-.0032948 1.1032019-.8967981 1.9967052-2 2h-9c-1.10320187-.0032948-1.9967052-.8967981-2-2v-4.53c-.0031162-.9596691-.27693929-1.8989863-.79-2.71l-6.94-10.78c-.82912158-1.2919925-1.26991333-2.7948494-1.27-4.33v-16.65c0-1.6568542 1.34314575-3 3-3s3 1.3431458 3 3v16c-.00054468.2258849.07719869.4449798.22.62l2 2.5c.26493461.3302445.70912706.4578584 1.10894872.3185947.39982167-.1392637.66861309-.5152204.67105128-.9385947v-5.5c0 .55 1.57 1 3.5 1s3.5-.45 3.5-1v9.72c.0007002.7953814.3172301 1.5579306.88 2.12l.31.32c1.8555392 1.8563932 3.1068832 4.2301125 3.59 6.81.1489076.7845242.2225752 1.5814732.22 2.38z"/><path id="Shape" d="m44 17v16.65c-.0000867 1.5351506-.4408784 3.0380075-1.27 4.33l-6.94 10.78c-.5130607.8110137-.7868838 1.7503309-.79 2.71v4.53c-.0032948 1.1032019-.8967981 1.9967052-2 2h-9c-1.1032019-.0032948-1.9967052-.8967981-2-2v-4.65c-.0025736-.8018384.0710912-1.6021056.22-2.39.4835861-2.5768182 1.7350096-4.9472026 3.59-6.8l.31-.32c.5627699-.5620694.8792998-1.3246186.88-2.12v-9.72c0 .55 1.57 1 3.5 1s3.5-.45 3.5-1v5.5c.0024382.4233743.2712296.799331.6710513.9385947.3998216.1392637.8440141.0116498 1.1089487-.3185947l2-2.5c.1428013-.1750202.2205447-.3941151.22-.62v-16c0-1.6568542 1.3431458-3 3-3s3 1.3431458 3 3z"/></g><path id="Shape" d="m43.12 14.88c-.957737-.9684702-2.4521116-1.1598558-3.623-.464.2266965.1273239.4360801.2832692.623.464.5634227.5616324.8800702 1.3244649.88 2.12v16.65c-.0000867 1.5351506-.4408784 3.0380075-1.27 4.33l-6.94 10.78c-.5130607.8110137-.7868838 1.7503309-.79 2.71v4.53c-.0032948 1.1032019-.8967981 1.9967052-2 2h3c1.1032019-.0032948 1.9967052-.8967981 2-2v-4.53c.0031162-.9596691.2769393-1.8989863.79-2.71l6.94-10.78c.8291216-1.2919925 1.2699133-2.7948494 1.27-4.33v-16.65c.0000702-.7955351-.3165773-1.5583676-.88-2.12z" fill="#cad9fc"/><path id="Shape" d="m34 28.5v1.5c0 .55-1.57 1-3.5 1s-3.5-.45-3.5-1v-1.5c0-1.9329966 1.5670034-3.5 3.5-3.5 1.9291303.0093024 3.4906976 1.5708697 3.5 3.5z" fill="#e8edfc"/><path id="Shape" d="m17 28.5v1.5c0 .55-1.57 1-3.5 1s-3.5-.45-3.5-1v-1.5c.0093024-1.9291303 1.5708697-3.4906976 3.5-3.5 1.9329966 0 3.5 1.5670034 3.5 3.5z" fill="#e8edfc"/></g><g id="Icons_copy_2" fill="#fff" transform="translate(1 15)"><path id="Shape" d="m8.21 34.76c.51306071.8110137.7868838 1.7503309.79 2.71v4.53c.0032948 1.1032019.89679813 1.9967052 2 2h3c-1.1032019-.0032948-1.9967052-.8967981-2-2v-4.53c-.0031162-.9596691-.2769393-1.8989863-.79-2.71l-6.94-10.78c-.82912158-1.2919925-1.26991333-2.7948494-1.27-4.33v-16.65c.00358024-1.06715302.57509034-2.05167442 1.5-2.584-.4541802-.2694249-.97192755-.4130135-1.5-.416-1.65685425 0-3 1.34314575-3 3v16.65c.00008667 1.5351506.44087842 3.0380075 1.27 4.33z"/></g><g id="Icons_copy"><path id="Rectangle-path" d="m0 18h2v8h-2z" fill="#fff"/><g fill="#428dff"><path id="Shape" d="m1.02 23c-.55228475.0027614-1.00223858-.4427153-1.005-.995s.44271525-1.0022386.995-1.005h.01c.55228475 0 1 .4477153 1 1s-.44771525 1-1 1z"/><path id="Shape" d="m8.365 50.305c.41484222.6454977.63527131 1.3966922.635 2.164v4.531c0 1.6568542 1.3431458 3 3 3h9c.740399-.0026037 1.4533329-.2806479 2-.78.5466671.4993521 1.259601.7773963 2 .78h9c1.6568542 0 3-1.3431458 3-3v-4.531c-.0000795-.7669676.2203418-1.5177885.635-2.163l6.936-10.789c.9338927-1.4514151 1.4299986-3.1410914 1.429-4.867v-16.65c0-2.209139-1.790861-4-4-4s-4 1.790861-4 4v3.074c-3.951-10.551-12.492-19.315-13.723-20.541-.3423473-.34470339-.8091942-.53684966-1.295-.533-.4741836.00153917-.9278505.19359989-1.259.533-1.9884615 2.0267331-3.8496806 4.17449907-5.573 6.431-.8336132-1.87413669-1.2270001-3.91427556-1.15-5.964 0-.55228475-.4477153-1-1-1s-1 .44771525-1 1c0 9.3-5.751 9.5-6.007 9.5h-.011c-.55228474.0030376-.99753755.4532153-.99449999 1.0055.00303757.5522847.45321525.9975376 1.00549999.9945 1.59362715.1321742 3.0547303.939329 4.015 2.218-1.15865095 2.0343544-2.16410128 4.1522178-3.008 6.336v-3.054c0-2.209139-1.790861-4-4-4s-4 1.790861-4 4c0 .5522847.44771525 1 1 1s1-.4477153 1-1c0-1.1045695.8954305-2 2-2s2 .8954305 2 2v16c.00001408.4539776.15447689.8944435.438 1.249l2 2.5c.53050317.6634146 1.42219456.9193491 2.2237864.6382744.8015919-.2810748 1.3381872-1.0378319 1.3382136-1.8872744v-3.769c1.6473717.3586542 3.3526283.3586542 5 0v7.992c-.0030299 1.0617186.4190233 2.0804803 1.172 2.829l.313.313c2.2579383 2.2457335 3.5236405 5.3014232 3.515 8.486v4.649c0 .5522847-.4477153 1-1 1h-9c-.5522847 0-1-.4477153-1-1v-4.531c.0011968-1.1508337-.3297056-2.2775685-.953-3.245l-6.935-10.788c-.72641686-1.1290882-1.11245408-2.4434199-1.112-3.786v-8.65c0-.5522847-.44771525-1-1-1s-1 .4477153-1 1v8.65c-.00094911 1.726357.49551865 3.4164305 1.43 4.868zm31.635-32.305c0-1.1045695.8954305-2 2-2s2 .8954305 2 2v16.65c.0003576 1.3424234-.3852982 2.6566384-1.111 3.786l-6.936 10.788c-.6232944.9674315-.9541968 2.0941663-.953 3.245v4.531c0 .5522847-.4477153 1-1 1h-9c-.5522847 0-1-.4477153-1-1v-4.649c-.0086405-3.1845768 1.2570617-6.2402665 3.515-8.486l.313-.313c.7529767-.7485197 1.1750299-1.7672814 1.172-2.829v-7.992c1.6473717.3586542 3.3526283.3586542 5 0v3.769c.0000264.8494425.5366217 1.6061996 1.3382136 1.8872744.8015918.2810747 1.6932832.0251402 2.2237864-.6382744l2-2.5c.2835231-.3545565.4379859-.7950224.438-1.249zm-6 12.64c-.8053965.2672811-1.6519132.3891795-2.5.36-.8480868.0291795-1.6946035-.0927189-2.5-.36v-1.14c.0000001-1.3807118 1.1192882-2.4999999 2.5-2.4999999s2.4999999 1.1192881 2.5 2.4999999zm-23.723-19.14c1.7227459-1.0088576 3.039439-2.58726243 3.723-4.463.3016164.77179704.6997857 1.50227813 1.185 2.174.0263823.0429639.056143.08375942.089.122.6592664.882472 1.4928386 1.6200591 2.449 2.167-1.7234477 1.009411-3.040261 2.589021-3.723 4.466-.2497083-.6303914-.5633458-1.2335405-.936-1.8-.0347017-.0678057-.0773336-.13125-.127-.189-.6882135-1.015965-1.5976389-1.8628246-2.66-2.477zm4.223 19.5c-.8480868.0291795-1.6946035-.0927189-2.5-.36v-1.14c0-1.3807119 1.1192881-2.5 2.5-2.5s2.5 1.1192881 2.5 2.5v1.14c-.8053965.2672811-1.6519132.3891795-2.5.36zm5.086 11.138c-.3763756-.3745401-.5873698-.8840226-.586-1.415v-11.223c0-2.4852814-2.0147186-4.5-4.5-4.5s-4.5 2.0147186-4.5 4.5v7l-2-2.5v-4.349c.47242296-4.5360477 1.88877257-8.9230527 4.158-12.879.6016074 1.6755883.8871057 3.4482548.842 5.228 0 .5522847.4477153 1 1 1s1-.4477153 1-1c0-9.305 5.762-9.5 6-9.5.5522847 0 1-.4477153 1-1s-.4477153-1-1-1c-1.4109756-.0878144-2.7308858-.72675864-3.675-1.779 1.7488793-2.33022646 3.6443819-4.54671203 5.675-6.636 2.074 2.092 15 15.678 15 29.055 0 .216-.01.442-.019.657.0042229.0396442.0105653.0790339.019.118v2.085l-2 2.5v-7c0-2.4852814-2.0147186-4.5-4.5-4.5s-4.5 2.0147186-4.5 4.5v11.223c.0013698.5309774-.2096244 1.0404599-.586 1.415l-.313.313c-1.3416871 1.3399715-2.3964506 2.9391291-3.1 4.7-.7035494-1.7608709-1.7583129-3.3600285-3.1-4.7z"/></g></g></g></g></svg>