<svg height="512" viewBox="0 0 60 60" width="512" xmlns="http://www.w3.org/2000/svg"><g id="Page-1" fill="none" fill-rule="evenodd"><g id="049---Water-Tanks" fill-rule="nonzero" transform="translate(0 -1)"><g id="Icons" transform="translate(1 2)"><path id="Shape" d="m58 36v12c0 2.209139-1.790861 4-4 4h-5v-6h2c.5522847 0 1-.4477153 1-1v-2c0-.5522847-.4477153-1-1-1h-3c-1.6568542 0-3 1.3431458-3 3v8c0 .5522847-.4477153 1-1 1h-30c-.5522847 0-1-.4477153-1-1v-8c0-1.6568542-1.3431458-3-3-3h-3c-.55228475 0-1 .4477153-1 1v2c0 .5522847.44771525 1 1 1h2v6h-5c-2.209139 0-4-1.790861-4-4v-12c0-2.209139 1.790861-4 4-4h5v1c0 2.7614237 2.2385763 5 5 5h30c2.7614237 0 5-2.2385763 5-5v-1h5c2.209139 0 4 1.790861 4 4z" fill="#a4c2f7"/><path id="Shape" d="m54 32h-3c2.209139 0 4 1.790861 4 4v12c0 2.209139-1.790861 4-4 4h3c2.209139 0 4-1.790861 4-4v-12c0-2.209139-1.790861-4-4-4z" fill="#7facfa"/><path id="Shape" d="m52 43v2c0 .5522847-.4477153 1-1 1h-2v7c0 2.7614237-2.2385763 5-5 5h-30c-2.7614237 0-5-2.2385763-5-5v-7h-2c-.55228475 0-1-.4477153-1-1v-2c0-.5522847.44771525-1 1-1h3c1.6568542 0 3 1.3431458 3 3v8c0 .5522847.4477153 1 1 1h30c.5522847 0 1-.4477153 1-1v-8c0-1.6568542 1.3431458-3 3-3h3c.5522847 0 1 .4477153 1 1z" fill="#e8edfc"/><path id="Shape" d="m51 42h-3c.5522847 0 1 .4477153 1 1v2c0 .5522847-.4477153 1-1 1h-2v7c0 2.7614237-2.2385763 5-5 5h3c2.7614237 0 5-2.2385763 5-5v-7h2c.5522847 0 1-.4477153 1-1v-2c0-.5522847-.4477153-1-1-1z" fill="#cad9fc"/><path id="Shape" d="m45 46v7c0 .5522847-.4477153 1-1 1h-30c-.5522847 0-1-.4477153-1-1v-7c2.67 0 2.67 2 5.33 2s2.67-2 5.33-2 2.67 2 5.33 2 2.67-2 5.34-2 2.66 2 5.33 2 2.67-2 5.34-2z" fill="#e8edfc"/><path id="Shape" d="m52 23v2c0 .5522847-.4477153 1-1 1h-2v7c0 2.7614237-2.2385763 5-5 5h-30c-2.7614237 0-5-2.2385763-5-5v-7h-2c-.55228475 0-1-.4477153-1-1v-2c0-.5522847.44771525-1 1-1h3c1.6568542 0 3 1.3431458 3 3v8c0 .5522847.4477153 1 1 1h30c.5522847 0 1-.4477153 1-1v-8c0-1.6568542 1.3431458-3 3-3h3c.5522847 0 1 .4477153 1 1z" fill="#e8edfc"/><path id="Shape" d="m51 22h-3c.5522847 0 1 .4477153 1 1v2c0 .5522847-.4477153 1-1 1h-2v7c0 2.7614237-2.2385763 5-5 5h3c2.7614237 0 5-2.2385763 5-5v-7h2c.5522847 0 1-.4477153 1-1v-2c0-.5522847-.4477153-1-1-1z" fill="#cad9fc"/><path id="Shape" d="m45 26v7c0 .5522847-.4477153 1-1 1h-30c-.5522847 0-1-.4477153-1-1v-7c2.67 0 2.67 2 5.33 2s2.67-2 5.33-2 2.67 2 5.33 2 2.67-2 5.34-2 2.66 2 5.33 2 2.67-2 5.34-2z" fill="#e8edfc"/><path id="Shape" d="m38 14c-.0019766 4.5469998-3.3923502 8.3796252-7.9051436 8.9363175-4.5127935.5566923-8.7329304-2.3371105-9.8398564-6.7473175-1.735-7.321 5.875-14.201 8.131-15.977.3634452-.28258413.8728567-.28052006 1.234.005 2.036 1.604 8.38 7.371 8.38 13.783z" fill="#e8edfc"/><path id="Shape" d="m29.62.217c-.3611433-.28552006-.8705548-.28758413-1.234-.005-.238.187-.546.443-.886.739 2.559 2.235 7.5 7.388 7.5 13.049-.0009657 4.3974981-3.1796124 8.1503901-7.517 8.875 2.614609.4453329 5.2925721-.2846115 7.3195528-1.9951234s3.1968125-4.2276132 3.1974472-6.8798766c0-6.412-6.344-12.179-8.38-13.783z" fill="#cad9fc"/><path id="Shape" d="m29 20c-3.812 0-5.579-3.8-5.98-5.8-.0917161-.5335055.2577499-1.0431302.7884648-1.1498147s1.0499667.2283102 1.1715352.7558147c.036.171.9 4.2 4.02 4.2.5522847 0 1 .4477153 1 1s-.4477153 1-1 1z" fill="#428dff"/></g><g id="Icons_copy_2" fill="#fff" transform="translate(1 34)"><path id="Shape" d="m3 16v-12c0-2.209139 1.790861-4 4-4h-3c-2.209139 0-4 1.790861-4 4v12c0 2.209139 1.790861 4 4 4h3c-2.209139 0-4-1.790861-4-4z"/></g><g id="Icons_copy"><path id="Rectangle-path" d="m0 38h2v8h-2z" fill="#fff"/><g fill="#428dff"><path id="Shape" d="m28.311 25.86c.5508994.0922045 1.1084385.1390284 1.667.14 2.6564617.0074431 5.2065855-1.0430306 7.0870578-2.9193749 1.8804722-1.8763443 2.9365475-4.4241535 2.9349422-7.0806251 0-7.451-7.864-13.862-8.76-14.568-.7232486-.57547105-1.7474303-.57754177-2.473-.005-1.761 1.386-10.445 8.724-8.485 16.992.9547321 3.8585026 4.1091577 6.7819154 8.029 7.441zm1.689-22.86c.819.645 8 6.49 8 13-.0018778 4.0397738-3.0124274 7.4455798-7.0214269 7.9432733-4.0089995.4976934-7.7609483-2.0685886-8.7505731-5.9852733-1.715-7.235 6.8-14.191 7.772-14.958z"/><path id="Shape" d="m1.02 43c-.55228473.0027614-1.00223852-.4427153-1.00499994-.995-.00276143-.5522847.44271521-1.0022385.99499994-1.005h.01c.55228475 0 1 .4477153 1 1s-.44771525 1-1 1z"/><path id="Shape" d="m55 33h-4v-4h1c1.1045695 0 2-.8954305 2-2v-2c0-1.1045695-.8954305-2-2-2h-3c-2.209139 0-4 1.790861-4 4v.094c-.8358266.1763216-1.61521.5562237-2.269 1.106-1.1726982 1.0667523-2.9643018 1.0667523-4.137 0-1.8845971-1.5998192-4.6504029-1.5998192-6.535 0-1.1703531 1.0668697-2.9606469 1.0668697-4.131 0-1.8833221-1.6002005-4.6486779-1.6002005-6.532 0-1.1700228 1.0667329-2.9599772 1.0667329-4.13 0-.6527495-.549615-1.431125-.9295282-2.266-1.106v-.094c0-2.209139-1.790861-4-4-4h-3c-1.1045695 0-2 .8954305-2 2v2c0 1.1045695.8954305 2 2 2h1v4h-4c-2.76005315.0033061-4.99669388 2.2399468-5 5 0 .5522847.44771525 1 1 1s1-.4477153 1-1c0-1.6568542 1.34314575-3 3-3h4c.00330738 3.3123376 2.6876624 5.9966926 6 6h30c3.3123376-.0033074 5.9966926-2.6876624 6-6h4c1.6568542 0 3 1.3431458 3 3v12c0 1.6568542-1.3431458 3-3 3h-4v-4h1c1.1045695 0 2-.8954305 2-2v-2c0-1.1045695-.8954305-2-2-2h-3c-2.209139 0-4 1.790861-4 4v.094c-.8358266.1763216-1.61521.5562237-2.269 1.106-1.1726982 1.0667523-2.9643018 1.0667523-4.137 0-1.8845971-1.5998192-4.6504029-1.5998192-6.535 0-1.1703531 1.0668697-2.9606469 1.0668697-4.131 0-1.8833221-1.6002005-4.6486779-1.6002005-6.532 0-1.1700228 1.0667329-2.9599772 1.0667329-4.13 0-.6527495-.549615-1.431125-.9295282-2.266-1.106v-.094c0-2.209139-1.790861-4-4-4h-3c-1.1045695 0-2 .8954305-2 2v2c0 1.1045695.8954305 2 2 2h1v4h-4c-1.65685425 0-3-1.3431458-3-3v-4c0-.5522847-.44771525-1-1-1s-1 .4477153-1 1v4c.00330612 2.7600532 2.23994685 4.9966939 5 5h4c.00330738 3.3123376 2.6876624 5.9966926 6 6h30c3.3123376-.0033074 5.9966926-2.6876624 6-6h4c2.7600532-.0033061 4.9966939-2.2399468 5-5v-12c-.0033061-2.7600532-2.2399468-4.9966939-5-5zm-38.936-3.2c1.8837982 1.5999345 4.6492018 1.5999345 6.533 0 1.1700228-1.0667329 2.9599772-1.0667329 4.13 0 1.882999 1.6000504 4.648001 1.6000504 6.531 0 1.1726982-1.0667523 2.9643018-1.0667523 4.137 0 1.8852251 1.5991389 4.6507749 1.5991389 6.536 0 .3222427-.2633697.6827065-.4761411 1.069-.631v5.831h-30v-5.83c.3845451.1548636.7433109.3672907 1.064.63zm32.936 5.2c0 2.209139-1.790861 4-4 4h-30c-2.209139 0-4-1.790861-4-4v-7c0-.5522847-.4477153-1-1-1h-2v-2h3c1.1045695 0 2 .8954305 2 2v8c0 1.1045695.8954305 2 2 2h30c1.1045695 0 2-.8954305 2-2v-8c0-1.1045695.8954305-2 2-2h3v2h-2c-.5522847 0-1 .4477153-1 1zm-32.936 14.8c1.8837982 1.5999345 4.6492018 1.5999345 6.533 0 1.1700228-1.0667329 2.9599772-1.0667329 4.13 0 1.882999 1.6000504 4.648001 1.6000504 6.531 0 1.1726982-1.0667523 2.9643018-1.0667523 4.137 0 1.8852251 1.5991389 4.6507749 1.5991389 6.536 0 .3222427-.2633697.6827065-.4761411 1.069-.631v5.831h-30v-5.83c.3845451.1548636.7433109.3672907 1.064.63zm32.936 5.2c0 2.209139-1.790861 4-4 4h-30c-2.209139 0-4-1.790861-4-4v-7c0-.5522847-.4477153-1-1-1h-2v-2h3c1.1045695 0 2 .8954305 2 2v8c0 1.1045695.8954305 2 2 2h30c1.1045695 0 2-.8954305 2-2v-8c0-1.1045695.8954305-2 2-2h3v2h-2c-.5522847 0-1 .4477153-1 1z"/></g></g></g></g></svg>