<svg height="512" viewBox="0 0 60 60" width="512" xmlns="http://www.w3.org/2000/svg"><g id="Page-1" fill="none" fill-rule="evenodd"><g id="045---Drink" fill-rule="nonzero"><g id="Icons" transform="translate(1 1)"><path id="Shape" d="m57.57 44.53-9.02 7.22c-.4641238.368443-1.1329557.3206693-1.54-.11l-12.55-13.26c-.2199785-.2299416-.3333238-.5416691-.3124086-.8592006.0209153-.3175315.1741698-.6116984.4224086-.8107994l.67-.53c5.32-.21 7.12 2.43 11.49 3.56 2.72.7 5.46-.91 7.28-2.38l3.8 5.65c.3266002.4921703.2223532 1.1524013-.24 1.52z" fill="#a4c2f7"/><path id="Shape" d="m57.81 43.01-3.8-5.65c-.6462364.5235491-1.3353278.9918637-2.06 1.4l2.86 4.253c.3266002.4921703.2223532 1.1524013-.24 1.52l-8.13 6.508.57.6c.4070443.4306693 1.0758762.478443 1.54.11l9.02-7.22c.4629356-.3676932.5672249-1.0286266.24-1.521z" fill="#7facfa"/><path id="Shape" d="m54.01 37.36c-1.82 1.47-4.56 3.08-7.28 2.38-4.37-1.13-6.17-3.77-11.49-3.56l10.73-8.58c.2467965-.1997196.5662259-.2864043.8801278-.2388434s.5933156.2249794.7698722.4888434z" fill="#e8edfc"/><path id="Shape" d="m47.62 27.85c-.1765566-.263864-.4559703-.4412825-.7698722-.4888434s-.6333313.0391238-.8801278.2388434l-.987.79 6.027 8.97c-1.2803885 1.0863913-2.7781722 1.8865958-4.393 2.347.038.011.074.023.113.033 2.72.7 5.46-.91 7.28-2.38z" fill="#cad9fc"/><path id="Shape" d="m29.5 31.24c.0161094.6618713.2322604 1.3033519.62 1.84.93 1.23 1.79 1.8 1.38 2.34s-1.56 1.84-1.56 1.84 1.63 1.38 1.02 2.04c-.75.81-1.82 1.34-1.87 2.59-.08 1.8 1.46 2.29 1.06 5.38-.0632683 1.7453274-1.5035791 3.1235941-3.25 3.11-3.6114553-.1170857-7.2136459-.4342387-10.79-.95-2.28 1.67-3.22 5.29-3.6 7.73-.0786569.4852851-.4983838.841417-.99.84h-10.52c-.55228475 0-1-.4477153-1-1v-56c0-.55228475.44771525-1 1-1h16.84c.6319973-.00873384 1.2301873.28478798 1.61.79.3.42.59.84.86 1.28.7304196 1.24260911 1.3849499 2.52829371 1.96 3.85.99 2.14 3.09 4.1 3.18 5.4.12 1.66-2.15 2.86-1.82 4.53.1013847.3641971.2862779.6997439.54.98 2.0457625 2.7018857 4.3795024 5.1731016 6.96 7.37 2.49 2.03 2.16 2.59.93 3.98-.78.88-2.58 1.75-2.56 3.06z" fill="#e8edfc"/></g><g id="Icons_copy_2" fill="#fff" transform="translate(1 1)"><path id="Shape" d="m1 58h3c-.55228475 0-1-.4477153-1-1v-56c0-.55228475.44771525-1 1-1h-3c-.55228475 0-1 .44771525-1 1v56c0 .5522847.44771525 1 1 1z"/></g><g id="Icons_copy"><path id="Rectangle-path" d="m0 2h2v8h-2z" fill="#fff"/><g fill="#428dff"><path id="Shape" d="m49.451 28.292c-.3333101-.4960298-.8590133-.8299169-1.4496858-.9207311-.5906724-.0908142-1.1923938.0697345-1.6593142.4427311l-11.393 9.116c-.4666995.373163-.7557515.9247547-.7969877 1.5208743s.1691141 1.1822572.5799877 1.6161257l12.554 13.265c.7613644.8134877 2.0217699.9007734 2.888.2l9.024-7.22c.8629325-.6973581 1.0531459-1.9369948.439-2.861zm-1.859 1.084c.0237121-.0193709.0533815-.0299671.084-.03h.022c.0380691.0053043.0719818.0268188.093.059l5.862 8.725c-1.593 1.14-3.681 2.154-5.67 1.639-1.3835342-.3891544-2.7194323-.9311608-3.983-1.616-1.5847052-.8848581-3.3044205-1.502469-5.09-1.828zm10.357 15.374-9.023 7.22c-.0560069.0456625-.1378501.0399729-.187-.013l-12.554-13.265c-.026344-.0275247-.0399342-.0648378-.0374629-.1028576.0024712-.0380198.0207774-.0732596.0504629-.0971424l.393-.314c2.2894217-.0092031 4.5387564.6006396 6.51 1.765 1.3899054.751692 2.8602114 1.3441082 4.383 1.766.5226902.1342678 1.0603421.2014743 1.6.2 2.0660278-.1112564 4.0489505-.8501428 5.684-2.118l3.209 4.775c.0396541.0593454.0275119.1391364-.028.184z"/><path id="Shape" d="m0 58c0 1.1045695.8954305 2 2 2h10.522c.9864376.0069123 1.8285904-.7109186 1.978-1.686.3-1.9 1.081-5.214 2.94-6.834 3.4694425.4894554 6.9629327.7898989 10.465.9 2.2506049.0229115 4.1192217-1.7323622 4.237-3.98.2325563-1.4000191-.0010794-2.8376693-.665-4.092-.2500405-.4153573-.3840339-.890205-.388-1.375.019-.48.327-.774.913-1.293.238-.211.476-.425.692-.658.2850572-.3080447.429857-.7203621.4-1.139-.0889353-.6094308-.3637737-1.1765686-.787-1.624.352-.408.767-.9.99-1.192.785-1.033-.051-1.987-.662-2.684-.215-.245-.463-.528-.72-.867-.2571365-.366532-.4010815-.8004534-.414-1.248-.007-.424.7-1 1.274-1.455.3696512-.2803202.7158009-.5903499 1.035-.927.7169914-.6131515 1.1460446-1.4973491 1.184-2.44-.084-1.034-.916-1.906-2.233-2.979-2.5208787-2.1498289-4.8009043-4.5669913-6.8-7.209-.1478443-.164699-.2653279-.3542979-.347-.56-.082-.413.219-.87.722-1.574.7019104-.7773073 1.098073-1.7828141 1.115-2.83-.2655904-1.191452-.835059-2.2938716-1.653-3.2-.6180961-.79941198-1.1607514-1.65440367-1.621-2.554l-.192-.412c-.5357813-1.21895842-1.1459302-2.40385614-1.827-3.548-.286-.45666667-.5876667-.90266667-.905-1.338-.5656135-.76161385-1.4603496-1.20805338-2.409-1.202h-16.844c-1.1045695 0-2 .8954305-2 2 0 .55228475.44771525 1 1 1s1-.44771525 1-1h16.844c.3096191-.00617083.6038299.1348129.793.38.2886667.396.563.802.823 1.218.6378521 1.07364511 1.209258 2.18539866 1.711 3.329l.191.413c.5116881 1.01611223 1.1180378 1.98171831 1.811 2.884.549105.6433834.9822161 1.3773036 1.28 2.169-.0906947.5711627-.3505482 1.1020163-.746 1.524-.784913.8391622-1.1710471 1.9753435-1.06 3.119.1289796.526533.3839599 1.0138437.743 1.42 2.0921651 2.7548545 4.4752717 5.2760928 7.108 7.52 1.363 1.111 1.494 1.5 1.5 1.589.013.16-.5.736-.687.952-.2465351.2523785-.5112448.4863391-.792.7-.909.731-2.041 1.642-2.02 3.059.0222334.8692106.308985 1.7109765.822 2.413.286.378.566.7.808.973.121.139.26.3.362.425-.4.484-1.043 1.223-1.3 1.516-.1776756.2009631-.2671635.4648829-.2483592.7324669.0188042.267584.1443237.5163944.3483592.6905331.2762812.2366558.5209575.5078835.728.807-.112.107-.229.209-.345.312-.9007116.6247402-1.4802329 1.6147558-1.584 2.706-.0145081.8072582.1841753 1.6040612.576 2.31.4982014.9124444.6710103 1.9672839.49 2.991-.0238226 1.2313774-1.0244212 2.2195571-2.256 2.228-3.5671272-.1257891-7.1251006-.4402286-10.659-.942h-.008c-1.188-.148-2.275-.292-3.163-.409-.986-.13-1.729-.227-2.1-.264-5.278-.534-6.664-2.158-6.9-3.426-.10537306-.5373127-.62326813-.8899667-1.16182099-.7911271-.53855286.0988397-.89747066.6124136-.80517901 1.1521271.52 2.825 3.435 4.526 8.664 5.055.36.036 1.082.132 2.039.258l1.194.156c-1.3344073 2.0590871-2.1818755 4.3952675-2.478 6.831h-10.522v-48c0-.55228475-.44771525-1-1-1s-1 .44771525-1 1z"/><path id="Shape" d="m1.02 7c-.55228474.00276141-1.00223856-.44271526-1.00499998-.995s.44271524-1.00223856.99499998-1.005h.01c.55228475 0 1 .44771525 1 1s-.44771525 1-1 1z"/></g></g></g></g></svg>