<?xml version="1.0" encoding="iso-8859-1"?>
<!-- Generator: Adobe Illustrator 19.0.0, SVG Export Plug-In . SVG Version: 6.00 Build 0)  -->
<svg version="1.1" id="Capa_1" xmlns="http://www.w3.org/2000/svg" xmlns:xlink="http://www.w3.org/1999/xlink" x="0px" y="0px"
	 viewBox="0 0 512.069 512.069" style="enable-background:new 0 0 512.069 512.069;" xml:space="preserve">
<g transform="translate(-1)">
	<g transform="translate(2 1)">
		<path style="fill:#E3E7F2;" d="M194.623,177.251c14.593,2.96,28.572,8.398,41.328,16.079
			c30.931,17.934,50.291,42.362,43.238,54.629c-7.053,12.268-37.799,7.645-68.73-10.289c-13.016-7.265-24.694-16.702-34.53-27.903
			h-63.432c-9.866,11.219-21.573,20.672-34.618,27.954c-31.003,17.975-61.807,22.631-68.86,10.364s12.365-36.729,43.367-54.704
			c12.785-7.698,26.792-13.153,41.416-16.13l31.716-55.166c-4.751-14.948-7.047-30.568-6.798-46.251
			c0-37.717,11.387-68.267,25.492-68.267c14.106,0,25.492,30.549,25.492,68.267c0.249,15.683-2.047,31.303-6.798,46.251
			L194.623,177.251z"/>
		<rect x="144.105" y="400.101" style="fill:#7FACFA;" width="145.067" height="34.133"/>
		<g>
			<rect x="127.039" y="201.915" style="fill:#E3E7F2;" width="34.133" height="282.453"/>
			<path style="fill:#E3E7F2;" d="M434.239,286.846v-31.811c0-4.713,3.821-8.533,8.533-8.533h17.067c4.713,0,8.533,3.82,8.533,8.533
				v67.328L434.239,286.846z"/>
		</g>
		<path style="fill:#7FACFA;" d="M477.247,331.493l-0.341,0.341v153.6c-0.028,9.414-7.653,17.039-17.067,17.067H289.172
			c-9.414-0.028-17.039-7.653-17.067-17.067v-153.6l-0.341-0.341l85.931-88.491l10.752-11.008c1.591-1.637,3.776-2.56,6.059-2.56
			c2.282,0,4.468,0.923,6.059,2.56L477.247,331.493z"/>
		<path style="fill:#E3E7F2;" d="M357.695,243.003l93.952,96.683v145.749c-0.028,9.414-7.652,17.039-17.067,17.067H289.172
			c-9.414-0.028-17.039-7.653-17.067-17.067v-153.6l-0.341-0.341L357.695,243.003z"/>
		<g>
			<path style="fill:#7FACFA;" d="M84.372,468.368h119.467c9.426,0,17.067,7.641,17.067,17.067l0,0
				c0,9.426-7.641,17.067-17.067,17.067H84.372c-9.426,0-17.067-7.641-17.067-17.067l0,0
				C67.305,476.009,74.946,468.368,84.372,468.368z"/>
			<circle style="fill:#7FACFA;" cx="144.105" cy="169.701" r="51.2"/>
		</g>
		<g>
			<ellipse style="fill:#E3E7F2;" cx="131.305" cy="169.701" rx="38.4" ry="51.2"/>
			<circle style="fill:#E3E7F2;" cx="144.105" cy="169.701" r="17.067"/>
			<path style="fill:#E3E7F2;" d="M357.439,417.168h34.133c4.713,0,8.533,3.82,8.533,8.533v76.8h-51.2v-76.8
				C348.905,420.988,352.726,417.168,357.439,417.168z"/>
		</g>
		<circle style="fill:#A4C2F7;" cx="374.505" cy="340.368" r="25.6"/>
	</g>
	<path style="fill:#FFFFFF;" d="M316.26,503.501h-25.088c-9.414-0.028-17.039-7.653-17.067-17.067v-153.6l25.088-25.6v179.2
		C299.221,495.849,306.846,503.474,316.26,503.501z"/>
	<g>
		<path style="fill:#428DFF;" d="M146.105,196.301c14.138,0,25.6-11.462,25.6-25.6c0-14.138-11.462-25.6-25.6-25.6
			s-25.6,11.462-25.6,25.6C120.521,184.833,131.973,196.286,146.105,196.301z M146.105,162.168c4.713,0,8.533,3.821,8.533,8.533
			c0,4.713-3.821,8.533-8.533,8.533s-8.533-3.821-8.533-8.533C137.578,165.991,141.395,162.174,146.105,162.168z"/>
		<path style="fill:#428DFF;" d="M478.905,319.867v-63.833c-0.009-9.422-7.645-17.057-17.067-17.067h-17.067
			c-9.422,0.009-17.057,7.645-17.067,17.067v11.179l-39.046-40.154c-6.734-6.655-17.568-6.657-24.304-0.004L242.389,352.485
			c-2.144,2.182-2.957,5.345-2.129,8.29c0.827,2.945,3.168,5.222,6.135,5.968c2.967,0.746,6.106-0.154,8.228-2.357l10.95-11.276
			v39.459h-93.867V224.589c1.703-0.812,3.359-1.7,4.968-2.662c9.377,9.415,19.974,17.53,31.507,24.129
			c16.882,10.649,36.145,16.938,56.058,18.3c3.56,0.041,7.111-0.38,10.562-1.254c5.752-1.274,10.733-4.847,13.783-9.887
			c11.154-19.392-14.875-48.017-46.354-66.267c-11.41-6.705-23.665-11.853-36.439-15.309c0.005-0.315,0.047-0.621,0.047-0.936
			c-0.02-21.685-11.787-41.658-30.745-52.186c3.501-13.614,5.23-27.624,5.145-41.681c0-38.167-11.688-76.8-34.025-76.8
			c-22.342,0-34.029,38.633-34.029,76.8c-0.084,14.019,1.635,27.99,5.113,41.571c-19.061,10.502-30.907,30.534-30.925,52.296
			c0,0.334,0.044,0.657,0.05,0.989c-12.729,3.475-24.941,8.622-36.317,15.307c-31.537,18.287-57.633,46.946-46.483,66.342
			c3.047,5.034,8.021,8.602,13.767,9.875c3.449,0.874,6.997,1.295,10.554,1.254c19.97-1.372,39.287-7.682,56.217-18.363
			c11.528-6.596,22.126-14.7,31.512-24.097c1.568,0.933,3.179,1.794,4.834,2.581v236.245H86.372c-14.138,0-25.6,11.462-25.6,25.6
			c0,14.138,11.462,25.6,25.6,25.6h119.467c14.138,0,25.6-11.462,25.6-25.6c0-14.138-11.462-25.6-25.6-25.6h-34.133v-17.067h93.867
			v42.667c0.015,14.132,11.468,25.585,25.6,25.6h170.667c14.132-0.015,25.585-11.468,25.6-25.6V353.124l10.95,11.261
			c2.122,2.204,5.261,3.103,8.228,2.357c2.967-0.746,5.307-3.023,6.135-5.968c0.827-2.945,0.015-6.108-2.129-8.29L478.905,319.867z
			 M444.772,256.035h17.067v46.282l-17.067-17.551V256.035z M233.672,201.714c32.083,18.6,42.662,38.567,40.121,42.992
			c-0.876,1.017-2.083,1.693-3.408,1.908c-8.954,2.392-29.575-1.367-53.642-15.325c-9.748-5.56-18.755-12.327-26.807-20.143
			c6.015-6.471,10.517-14.198,13.183-22.621C213.814,191.629,224.078,196.06,233.672,201.714z M129.251,76.835
			c0-38.8,12.042-59.733,16.962-59.733c4.921,0,16.958,20.933,16.958,59.733c0.082,11.987-1.285,23.94-4.073,35.599
			c-8.486-1.937-17.296-1.954-25.79-0.051C130.532,100.74,129.169,88.804,129.251,76.835z M130.311,131.145l0.015-0.002l0.009-0.006
			c16.769-6.718,35.951-2.142,47.882,11.422c11.93,13.565,14.02,33.174,5.215,48.948c-8.804,15.774-26.592,24.289-44.4,21.255
			c-17.808-3.034-31.772-16.96-34.856-34.759c0.042-0.405,0.053-0.812,0.033-1.218c-0.035-0.198-0.163-0.347-0.21-0.54
			c-0.309-1.833-0.497-3.685-0.56-5.543C103.473,153.264,114.113,137.602,130.311,131.145z M75.601,231.339
			c-24.158,14.004-44.812,17.796-53.796,15.387c-1.316-0.214-2.515-0.884-3.388-1.892c-2.546-4.429,8.079-24.421,40.246-43.071
			c9.565-5.636,19.792-10.066,30.447-13.187c2.683,8.452,7.214,16.2,13.266,22.682C94.324,219.044,85.329,225.79,75.601,231.339z
			 M214.372,486.435c-0.006,4.71-3.823,8.527-8.533,8.533H86.372c-4.713,0-8.533-3.82-8.533-8.533s3.821-8.533,8.533-8.533h119.467
			C210.549,477.907,214.366,481.724,214.372,486.435z M137.572,460.835V229.753c5.653,0.908,11.414,0.908,17.067,0v231.081H137.572z
			 M171.705,426.701v-17.067h93.867v17.067H171.705z M359.439,494.968v-68.267h34.133v68.267H359.439z M470.372,486.435
			c-0.006,4.71-3.823,8.527-8.533,8.533h-51.2v-68.267c-0.009-9.422-7.645-17.057-17.067-17.067h-34.133
			c-9.422,0.009-17.057,7.645-17.067,17.067v68.267h-51.2c-4.71-0.006-8.527-3.823-8.533-8.533V335.533l93.783-96.578l87.85,90.344
			l0.152,0.156l5.948,6.118V486.435z"/>
		<path style="fill:#428DFF;" d="M376.505,307.235c-18.851,0-34.133,15.282-34.133,34.133c0,18.851,15.282,34.133,34.133,34.133
			c18.851,0,34.133-15.282,34.133-34.133C410.617,322.526,395.348,307.256,376.505,307.235z M376.505,358.435
			c-9.426,0-17.067-7.641-17.067-17.067c0-9.426,7.641-17.067,17.067-17.067s17.067,7.641,17.067,17.067
			C393.562,350.79,385.927,358.425,376.505,358.435z"/>
	</g>
</g>
<g>
</g>
<g>
</g>
<g>
</g>
<g>
</g>
<g>
</g>
<g>
</g>
<g>
</g>
<g>
</g>
<g>
</g>
<g>
</g>
<g>
</g>
<g>
</g>
<g>
</g>
<g>
</g>
<g>
</g>
</svg>
