<svg height="512" viewBox="0 0 46 60" width="512" xmlns="http://www.w3.org/2000/svg"><g id="Page-1" fill="none" fill-rule="evenodd"><g id="032---Gas-Cost" fill-rule="nonzero"><path id="Shape" d="m23.971 59c-2.5432821.0003912-5.0766221-.3174101-7.541-.946-4.4339421-1.0411261-8.44895398-3.3998628-11.517-6.766-3.677-4.309-4.872-12.355-3.113-18.762l1.052-3.847c.09713748-.3533386.379757-.6252464.73658338-.7086658.35682639-.0834194.73070009.0350125.97441662.3086658l2.602 2.921c.93250269 1.0859527 2.17810448 1.8568565 3.566 2.207.3882726.0897397.7854917.1350308 1.184.135 1.3239228.0136386 2.5989298-.499746 3.544-1.427 1.0134978-1.0407205 1.4230152-2.5281934 1.085-3.941-.3263451-1.2681938-.8711587-2.4698293-1.61-3.551-.619156-.9386108-1.1158445-1.9524871-1.478-3.017-1.022-3.443-.007-7.12 3.017-10.925 2.7-3.4 6.065-6.286 9.1-9.383.2811971-.28701416.7068727-.37784863 1.0807332-.23061654.3738604.1472321.6232895.50393334.6332668.90561654-.1085157 2.35069458-.0188656 4.70635259.268 7.042.722971 3.0672147 2.4085015 5.8225839 4.81 7.863 7.524 7.022 14.127 17.091 12.048 27.922-.4360367 2.3728297-1.4027939 4.6164039-2.828 6.563-3.629 4.855-10.047 7.637-17.614 7.637z" fill="#e8edfc"/><path id="Shape" d="m32.364 16.882c-2.4014985-2.0404161-4.087029-4.7957853-4.81-7.863-.2868656-2.33564741-.3765157-4.69130542-.268-7.042-.0092007-.40204481-.2583434-.75946296-.632374-.9071985-.3740307-.14773554-.8001697-.05704192-1.081626.2301985-.421.43-.849.854-1.279 1.278-.1149289 2.1497702-.0275446 4.30558429.261 6.439.722971 3.0672147 2.4085015 5.8225839 4.81 7.863 7.525 7.02 14.128 17.089 12.049 27.92-.4360367 2.3728297-1.4027939 4.6164039-2.828 6.563-3.372 4.512-9.156 7.23-16.03 7.592.472.022.945.045 1.416.045 7.567 0 13.985-2.782 17.614-7.637 1.4252061-1.9465961 2.3919633-4.1901703 2.828-6.563 2.079-10.831-4.524-20.9-12.049-27.918z" fill="#cad9fc"/><path id="Shape" d="m7.913 51.288c-3.677-4.309-4.872-12.355-3.118-18.762l.833-3.047-1.07-1.2c-.24371653-.2736533-.61759023-.3920852-.97441662-.3086658-.35682638.0834194-.6394459.3553272-.73658338.7086658l-1.047 3.847c-1.754 6.407-.559 14.453 3.118 18.762 4.608 5.4 12.736 8.078 20.454 7.691-6.762-.348-13.446-2.989-17.459-7.691z" fill="#fff"/><path id="Shape" d="m27.293 2.578c0-.2 0-.4-.007-.6-.0088113-.4022257-.2578106-.7600031-.6319267-.90799067-.374116-.14798757-.8004876-.05736388-1.0820733.22999067-5.883 6.008-14.455 12.43-12.116 20.31.708 2.388 2.586 4.1 3.088 6.568.5248809 2.2792999-.8635207 4.5613546-3.129 5.143 3.473.988 6.869-1.5 6.129-5.143-.5-2.465-2.38-4.18-3.088-6.568-2.175-7.325 5.079-13.39 10.837-19.032z" fill="#fff"/><path id="Shape" d="m.614 44.312 1.952-.436c.49279408 2.4663884 1.55731199 4.7827767 3.108 6.763l-1.522 1.3c-1.76380338-2.2280568-2.97608316-4.8414141-3.538-7.627z" fill="#fff"/><g fill="#428dff"><path id="Shape" d="m2.842 48.9c-.55228475.0027614-1.00223858-.4427153-1.005-.995s.44271525-1.0022386.995-1.005h.01c.55228475 0 1 .4477153 1 1s-.44771525 1-1 1z"/><path id="Shape" d="m33.045 16.151c-2.2509181-1.8935959-3.8322848-4.4616514-4.51-7.324-.2460902-1.55375903-.3302077-3.12886868-.251-4.7.01-.728.02-1.455 0-2.18-.0215031-.80238043-.5206236-1.51417263-1.2676582-1.80779841-.7470345-.29362578-1.5972414-.11219365-2.1593418.46079841-.948.968-1.929 1.915-2.912 2.864-2.2255873 2.06204895-4.3146656 4.26670468-6.254 6.6-3.24 4.076-4.315 8.057-3.191 11.836.384661 1.1484513.9171315 2.2419655 1.584 3.253.6766021.9828956 1.1783132 2.0752929 1.483 3.229.2742069 1.0861029-.0342642 2.2367189-.815 3.04-1.0122939.9541493-2.4355516 1.3371896-3.79 1.02-1.18733385-.3038803-2.25162834-.9675362-3.047-1.9l-2.615-2.93c-.48743306-.5473066-1.23518046-.7841704-1.94883323-.6173317-.71365278.1668388-1.27889181.7106545-1.47316677 1.4173317l-1.047 3.85c-1.02229763 3.9432873-1.09631698 8.0726078-.216 12.05.05559306.2640173.21674074.4938141.44602321.6360296.22928246.1422156.50675161.1844769.76797679.1169704.52421926-.1354235.84927834-.6591298.738-1.189-.80825268-3.6594398-.74212979-7.4579087.193-11.087l1.052-3.846 2.607 2.926c1.06825985 1.2393188 2.49375962 2.1178123 4.081 2.515 2.032399.4714887 4.1653831-.1165964 5.669-1.563 1.2510506-1.2754342 1.7613351-3.1029472 1.352-4.842-.3486396-1.3827521-.9365013-2.6938496-1.737-3.874-.5731638-.8650044-1.034499-1.7990992-1.373-2.78-.924-3.112.033-6.482 2.842-10.018 1.886114-2.26226864 3.9166929-4.40007166 6.079-6.4 1-.962 1.99-1.923 2.952-2.9.017.7.007 1.4 0 2.1-.0823066 1.70805076.0142183 3.42002627.288 5.108.7533597 3.2776129 2.5457519 6.2240109 5.11 8.4 5.363 5 14.022 15.155 11.75 27-.4114852 2.223023-1.3159872 4.3255547-2.647 6.153-3.437 4.595-9.566 7.232-16.814 7.232-2.4582827.0006099-4.9069781-.3064429-7.289-.914-4.2355869-.9895572-8.07288925-3.2369307-11.008-6.447-.35898509-.4202887-.99071131-.4699851-1.411-.111s-.46998509.9907113-.111 1.411c3.20085933 3.5226508 7.3941529 5.9925346 12.027 7.084 2.5464113.6494193 5.1640815.9776359 7.792.977 7.885 0 14.6-2.93 18.417-8.04 1.5131605-2.0689058 2.5424765-4.451164 3.012-6.971 2.45-12.789-6.689-23.557-12.355-28.838z"/><path id="Shape" d="m32.911 51.277c-.5261705.0625671-.9121947.5247016-.8800836 1.0536052.032111.5289035.4712084.9409429 1.0010836.9393948.0411241-.0001749.0821997-.0028465.123-.008 2.404748-.3313353 4.5658236-1.6412974 5.972-3.62 2.1566388-3.0154868 3.0314082-6.76229 2.433-10.421-.0474152-.3587172-.2849117-.6638389-.6210182-.7978485-.3361066-.1340097-.7183876-.0760004-.9996087.1516856-.281221.2276861-.417509.5895278-.3563731.9461629.5208384 3.1246608-.2165598 6.3284418-2.051 8.911-1.0821682 1.5449224-2.7542804 2.5743877-4.621 2.845z"/><path id="Shape" d="m18 47.5c0-.5522847-.4477153-1-1-1s-1 .4477153-1 1c0 2.765 2.613 5.054 6 5.437v1.063c0 .5522847.4477153 1 1 1s1-.4477153 1-1v-1.063c3.387-.383 6-2.672 6-5.437s-2.613-5.054-6-5.437v-6.989c2.251.335 4 1.768 4 3.426 0 .5522847.4477153 1 1 1s1-.4477153 1-1c0-2.765-2.613-5.054-6-5.437v-1.063c0-.5522847-.4477153-1-1-1s-1 .4477153-1 1v1.063c-3.387.383-6 2.672-6 5.437s2.613 5.054 6 5.437v6.989c-2.251-.335-4-1.768-4-3.426zm10 0c0 1.658-1.749 3.091-4 3.426v-6.852c2.251.335 4 1.768 4 3.426zm-10-9c0-1.658 1.749-3.091 4-3.426v6.852c-2.251-.335-4-1.768-4-3.426z"/><path id="Shape" d="m21.6 12.8c.4418278-.3313709.5313708-.9581722.2-1.4-.3313709-.4418278-.9581722-.5313708-1.4-.2-.18.135-4.4 3.351-4.4 7.8 0 .5522847.4477153 1 1 1s1-.4477153 1-1c0-3.44 3.565-6.174 3.6-6.2z"/></g></g></g></svg>