<svg height="512" viewBox="0 0 60 60" width="512" xmlns="http://www.w3.org/2000/svg"><g id="Page-1" fill="none" fill-rule="evenodd"><g id="025---Write-Post" fill-rule="nonzero"><g id="color_copy" transform="translate(1 1)"><path id="Shape" d="m33 4v27.83c-4.5347328 4.0497104-6.1706706 10.4393514-4.14 16.17h-24.86c-2.209139 0-4-1.790861-4-4v-40c.0065896-2.20640373 1.79359627-3.9934104 4-4h25c2.2064037.0065896 3.9934104 1.79359627 4 4z" fill="#fff"/><path id="Shape" d="m29 0h-3c2.2064037.0065896 3.9934104 1.79359627 4 4v27.83c-4.5347328 4.0497104-6.1706706 10.4393514-4.14 16.17h3c-2.0306706-5.7306486-.3947328-12.1202896 4.14-16.17v-27.83c-.0065896-2.20640373-1.7935963-3.9934104-4-4z" fill="#e8edfc"/><path id="Shape" d="m45 11v17.14c-.6626711-.0924394-1.330913-.1392164-2-.14-3.692317-.0041536-7.2551293 1.3604035-10 3.83v-24.83h8c2.2064037.0065896 3.9934104 1.79359627 4 4z" fill="#e8edfc"/><path id="Shape" d="m41 7h-3c2.2064037.0065896 3.9934104 1.79359627 4 4v17.047c.332-.022.663-.047 1-.047.669087.0007836 1.3373289.0475606 2 .14v-17.14c-.0065896-2.20640373-1.7935963-3.9934104-4-4z" fill="#cad9fc"/><rect id="Rectangle-path" fill="#e8edfc" height="10" rx="1" width="10" x="4" y="4"/><path id="Shape" d="m13 4h-3c.5522847 0 1 .44771525 1 1v8c0 .5522847-.4477153 1-1 1h3c.5522847 0 1-.4477153 1-1v-8c0-.55228475-.4477153-1-1-1z" fill="#cad9fc"/><rect id="Rectangle-path" fill="#e8edfc" height="10" rx="1" width="10" x="19" y="18"/><path id="Shape" d="m28 18h-3c.5522847 0 1 .4477153 1 1v8c0 .5522847-.4477153 1-1 1h3c.5522847 0 1-.4477153 1-1v-8c0-.5522847-.4477153-1-1-1z" fill="#cad9fc"/><rect id="Rectangle-path" fill="#e8edfc" height="10" rx="1" width="10" x="4" y="32"/><path id="Shape" d="m13 32h-3c.5522847 0 1 .4477153 1 1v8c0 .5522847-.4477153 1-1 1h3c.5522847 0 1-.4477153 1-1v-8c0-.5522847-.4477153-1-1-1z" fill="#cad9fc"/><path id="Shape" d="m58 43c-.0029373 7.3031955-5.2652841 13.5428416-12.4632885 14.7779145-7.1980045 1.2350728-14.2393755-2.8934344-16.6767115-9.7779145-1.6186359-4.5905678-.9105721-9.681026 1.8994412-13.6555851s7.3729853-6.3395972 12.2405588-6.3444149c.669087.0007836 1.3373289.0475606 2 .14 7.4435014.9983144 13.000027 7.3498505 13 14.86z" fill="#e8edfc"/><path id="Shape" d="m45 28.14c-.6626711-.0924394-1.330913-.1392164-2-.14-.5140671.0018467-1.027716.0295484-1.539.083.18.019.362.032.539.057 7.5226406 1.0228609 13.0949834 7.504947 12.9772271 15.0958956s-5.8884791 13.8970729-13.4392271 14.6861044c.482.046.968.078 1.462.078 7.8781279-.023178 14.3958418-6.136943 14.9223354-13.9974926s-5.1176688-14.7889078-12.9223354-15.8625074z" fill="#cad9fc"/></g><g id="color" fill="#fff" transform="translate(1 1)"><path id="Shape" d="m7 48c-2.209139 0-4-1.790861-4-4v-40c.0065896-2.20640373 1.79359627-3.9934104 4-4h-3c-2.20640373.0065896-3.9934104 1.79359627-4 4v40c0 2.209139 1.790861 4 4 4z"/></g><g id="outline"><path id="Rectangle-path" d="m0 5h2v8h-2z" fill="#fff"/><g fill="#428dff"><path id="Shape" d="m1.02 10c-.55228475.0027614-1.00223858-.44271525-1.005-.995s.44271525-1.00223858.995-1.005h.01c.55228475 0 1 .44771525 1 1s-.44771525 1-1 1z"/><path id="Shape" d="m14 4h-8c-1.1045695 0-2 .8954305-2 2v8c0 1.1045695.8954305 2 2 2h8c1.1045695 0 2-.8954305 2-2v-8c0-1.1045695-.8954305-2-2-2zm-8 10v-8h8v8z"/><path id="Shape" d="m31 28v-8c0-1.1045695-.8954305-2-2-2h-8c-1.1045695 0-2 .8954305-2 2v8c0 1.1045695.8954305 2 2 2h8c1.1045695 0 2-.8954305 2-2zm-10-8h8v8h-8z"/><path id="Shape" d="m19 8h1c.5522847 0 1-.44771525 1-1s-.4477153-1-1-1h-1c-.5522847 0-1 .44771525-1 1s.4477153 1 1 1z"/><path id="Shape" d="m30 6h-6c-.5522847 0-1 .44771525-1 1s.4477153 1 1 1h6c.5522847 0 1-.44771525 1-1s-.4477153-1-1-1z"/><path id="Shape" d="m19 16h1c.5522847 0 1-.4477153 1-1s-.4477153-1-1-1h-1c-.5522847 0-1 .4477153-1 1s.4477153 1 1 1z"/><path id="Shape" d="m30 14h-6c-.5522847 0-1 .4477153-1 1s.4477153 1 1 1h6c.5522847 0 1-.4477153 1-1s-.4477153-1-1-1z"/><path id="Shape" d="m30 10h-1c-.5522847 0-1 .4477153-1 1s.4477153 1 1 1h1c.5522847 0 1-.4477153 1-1s-.4477153-1-1-1z"/><path id="Shape" d="m19 12h6c.5522847 0 1-.4477153 1-1s-.4477153-1-1-1h-6c-.5522847 0-1 .4477153-1 1s.4477153 1 1 1z"/><path id="Shape" d="m4 42c0 1.1045695.8954305 2 2 2h8c1.1045695 0 2-.8954305 2-2v-8c0-1.1045695-.8954305-2-2-2h-8c-1.1045695 0-2 .8954305-2 2zm2-8h8v8h-8z"/><path id="Shape" d="m19 36h1c.5522847 0 1-.4477153 1-1s-.4477153-1-1-1h-1c-.5522847 0-1 .4477153-1 1s.4477153 1 1 1z"/><path id="Shape" d="m24 34c-.5522847 0-1 .4477153-1 1s.4477153 1 1 1h4c.5522847 0 1-.4477153 1-1s-.4477153-1-1-1z"/><path id="Shape" d="m19 44h1c.5522847 0 1-.4477153 1-1s-.4477153-1-1-1h-1c-.5522847 0-1 .4477153-1 1s.4477153 1 1 1z"/><path id="Shape" d="m19 40h6c.5522847 0 1-.4477153 1-1s-.4477153-1-1-1h-6c-.5522847 0-1 .4477153-1 1s.4477153 1 1 1z"/><path id="Shape" d="m5 22h1c.55228475 0 1-.4477153 1-1s-.44771525-1-1-1h-1c-.55228475 0-1 .4477153-1 1s.44771525 1 1 1z"/><path id="Shape" d="m16 20h-6c-.55228475 0-1 .4477153-1 1s.44771525 1 1 1h6c.5522847 0 1-.4477153 1-1s-.4477153-1-1-1z"/><path id="Shape" d="m5 30h1c.55228475 0 1-.4477153 1-1s-.44771525-1-1-1h-1c-.55228475 0-1 .4477153-1 1s.44771525 1 1 1z"/><path id="Shape" d="m16 28h-6c-.55228475 0-1 .4477153-1 1s.44771525 1 1 1h6c.5522847 0 1-.4477153 1-1s-.4477153-1-1-1z"/><path id="Shape" d="m16 24h-1c-.5522847 0-1 .4477153-1 1s.4477153 1 1 1h1c.5522847 0 1-.4477153 1-1s-.4477153-1-1-1z"/><path id="Shape" d="m5 26h6c.5522847 0 1-.4477153 1-1s-.4477153-1-1-1h-6c-.55228475 0-1 .4477153-1 1s.44771525 1 1 1z"/><path id="Shape" d="m47 28.292v-16.292c-.0033061-2.76005315-2.2399468-4.99669388-5-5h-7v-2c-.0033061-2.76005315-2.2399468-4.99669388-5-5h-25c-2.76005315.00330612-4.99669388 2.23994685-5 5 0 .35726559.19059892.68739261.5.8660254.30940108.1786328.69059892.1786328 1 0 .30940108-.17863279.5-.50875981.5-.8660254 0-1.65685425 1.34314575-3 3-3h25c1.6568542 0 3 1.34314575 3 3v27.411c-2.6811758 2.5374949-4.3991551 5.9264485-4.861 9.589h-4.139c-.5522847 0-1 .4477153-1 1s.4477153 1 1 1h4c.0051578 1.3502982.1822489 2.6944432.527 4h-23.527c-1.65685425 0-3-1.3431458-3-3v-32c0-.5522847-.44771525-1-1-1s-1 .4477153-1 1v32c.00330612 2.7600532 2.23994685 4.9966939 5 5h24.178c2.8732567 7.104072 10.3816035 11.1719317 17.9017994 9.6988074 7.520196-1.4731243 12.9388041-8.0732334 12.9193334-15.7363309-.0194706-7.6630975-5.4715481-14.2355861-12.9991328-15.6704765zm-12-19.292h7c1.6568542 0 3 1.3431458 3 3v16.051c-.332-.021-.662-.051-1-.051-3.2121405-.0030524-6.3498833.9668588-9 2.782zm9 49c-5.6624714 0-10.7673795-3.4109905-12.9343135-8.6424319-2.166934-5.2314415-.9691534-11.2530911 3.0348186-15.257063 4.0039719-4.003972 10.0256215-5.2017526 15.257063-3.0348186 5.2314414 2.166934 8.6424319 7.2718421 8.6424319 12.9343135-.0082673 7.7285595-6.2714405 13.9917327-14 14z"/><path id="Shape" d="m46 39h2v2c0 .5522847.4477153 1 1 1s1-.4477153 1-1v-2h2c.5522847 0 1-.4477153 1-1s-.4477153-1-1-1h-2v-2c0-.5522847-.4477153-1-1-1s-1 .4477153-1 1v2h-2c-.5522847 0-1 .4477153-1 1s.4477153 1 1 1z"/><path id="Shape" d="m35 41h7c.5522847 0 1-.4477153 1-1s-.4477153-1-1-1h-7c-.5522847 0-1 .4477153-1 1s.4477153 1 1 1z"/><path id="Shape" d="m53 44h-18c-.5522847 0-1 .4477153-1 1s.4477153 1 1 1h18c.5522847 0 1-.4477153 1-1s-.4477153-1-1-1z"/><path id="Shape" d="m51 49h-14c-.5522847 0-1 .4477153-1 1s.4477153 1 1 1h14c.5522847 0 1-.4477153 1-1s-.4477153-1-1-1z"/></g></g></g></g></svg>