<svg height="512pt" viewBox="0 0 512 512" width="512pt" xmlns="http://www.w3.org/2000/svg"><path d="m116.976562 315.671875c0-79.496094-17.988281-143.941406-40.175781-143.941406s-40.175781 64.445312-40.175781 143.941406 17.988281 143.941406 40.175781 143.941406 40.175781-64.445312 40.175781-143.941406zm0 0" fill="#e8edfc"/><path d="m102.398438 426.605469h-32.851563c10.835937-73.558594 10.835937-148.308594 0-221.867188h32.851563c10.839843 73.558594 10.839843 148.308594 0 221.867188zm0 0" fill="#cad9fc"/><path d="m236.066406 315.671875c0-79.496094-17.988281-143.941406-40.175781-143.941406s-40.175781 64.445312-40.175781 143.941406 17.988281 143.941406 40.175781 143.941406 40.175781-64.445312 40.175781-143.941406zm0 0" fill="#e8edfc"/><path d="m221.492188 426.605469h-32.855469c10.839843-73.558594 10.839843-148.308594 0-221.867188h32.855469c10.835937 73.558594 10.835937 148.308594 0 221.867188zm0 0" fill="#cad9fc"/><path d="m355.15625 315.671875c0-79.496094-17.984375-143.941406-40.175781-143.941406-22.1875 0-40.171875 64.445312-40.171875 143.941406s17.984375 143.941406 40.171875 143.941406c22.191406 0 40.175781-64.445312 40.175781-143.941406zm0 0" fill="#e8edfc"/><path d="m340.582031 426.605469h-32.851562c10.835937-73.558594 10.835937-148.308594 0-221.867188h32.851562c10.835938 73.558594 10.835938 148.308594 0 221.867188zm0 0" fill="#cad9fc"/><path d="m474.25 315.671875c0-79.496094-17.988281-143.941406-40.175781-143.941406s-40.175781 64.445312-40.175781 143.941406 17.988281 143.941406 40.175781 143.941406 40.175781-64.445312 40.175781-143.941406zm0 0" fill="#e8edfc"/><g fill="#cad9fc"><path d="m459.671875 426.605469h-32.851563c10.835938-73.558594 10.835938-148.308594 0-221.867188h32.851563c10.839844 73.558594 10.839844 148.308594 0 221.867188zm0 0"/><path d="m34.132812 163.964844h85.332032v32.238281c0 9.425781-7.640625 17.066406-17.066406 17.066406h-51.199219c-9.425781 0-17.066407-7.640625-17.066407-17.066406zm0 0"/><path d="m153.601562 163.964844h85.332032v32.238281c0 9.425781-7.640625 17.066406-17.066406 17.066406h-51.199219c-9.425781 0-17.066407-7.640625-17.066407-17.066406zm0 0"/><path d="m273.066406 163.964844h85.332032v32.238281c0 9.425781-7.640626 17.066406-17.066407 17.066406h-51.199219c-9.425781 0-17.066406-7.640625-17.066406-17.066406zm0 0"/><path d="m392.535156 163.964844h85.332032v32.238281c0 9.425781-7.640626 17.066406-17.066407 17.066406h-51.199219c-9.425781 0-17.066406-7.640625-17.066406-17.066406zm0 0"/></g><path d="m34.132812 163.964844h59.734376v32.238281c0 9.425781-7.640626 17.066406-17.066407 17.066406h-25.601562c-9.425781 0-17.066407-7.640625-17.066407-17.066406zm0 0" fill="#e8edfc"/><path d="m153.601562 163.964844h59.730469v32.238281c0 9.425781-7.640625 17.066406-17.066406 17.066406h-25.597656c-9.425781 0-17.066407-7.640625-17.066407-17.066406zm0 0" fill="#e8edfc"/><path d="m273.066406 163.964844h59.734375v32.238281c0 9.425781-7.640625 17.066406-17.066406 17.066406h-25.601563c-9.425781 0-17.066406-7.640625-17.066406-17.066406zm0 0" fill="#e8edfc"/><path d="m392.535156 163.964844h59.730469v32.238281c0 9.425781-7.640625 17.066406-17.066406 17.066406h-25.597657c-9.425781 0-17.066406-7.640625-17.066406-17.066406zm0 0" fill="#e8edfc"/><path d="m25.601562 119.40625h460.796876v34.132812c0 9.425782-7.640626 17.066407-17.066407 17.066407h-426.664062c-9.425781 0-17.066407-7.640625-17.066407-17.066407zm0 0" fill="#cad9fc"/><path d="m25.601562 119.40625h435.199219v34.132812c0 9.425782-7.640625 17.066407-17.066406 17.066407h-401.066406c-9.425781 0-17.066407-7.640625-17.066407-17.066407zm0 0" fill="#e8edfc"/><path d="m499.199219 98.070312h-486.398438l215.464844-80.296874 22.1875-8.277344c3.585937-1.28125 7.507813-1.28125 11.09375 0zm0 0" fill="#cad9fc"/><path d="m443.734375 98.070312h-430.933594l215.464844-80.296874zm0 0" fill="#e8edfc"/><path d="m17.066406 93.804688h477.867188c4.710937 0 8.53125 3.820312 8.53125 8.535156v17.066406c0 4.710938-3.820313 8.53125-8.53125 8.53125h-477.867188c-4.710937 0-8.53125-3.820312-8.53125-8.53125v-17.066406c0-4.714844 3.820313-8.535156 8.53125-8.535156zm0 0" fill="#cad9fc"/><path d="m17.066406 93.804688h452.265625c4.714844 0 8.535157 3.820312 8.535157 8.535156v17.066406c0 4.710938-3.820313 8.53125-8.535157 8.53125h-452.265625c-4.710937 0-8.53125-3.820312-8.53125-8.53125v-17.066406c0-4.714844 3.820313-8.535156 8.53125-8.535156zm0 0" fill="#e8edfc"/><path d="m486.398438 435.136719v34.132812h-460.796876v-34.132812c.027344-9.414063 7.652344-17.039063 17.066407-17.066407h426.664062c9.414063.027344 17.039063 7.652344 17.066407 17.066407zm0 0" fill="#cad9fc"/><path d="m503.464844 477.804688v25.601562h-494.929688v-25.601562c0-9.425782 7.640625-17.066407 17.066406-17.066407h460.796876c9.414062.027344 17.039062 7.652344 17.066406 17.066407zm0 0" fill="#cad9fc"/><path d="m460.800781 435.136719v34.132812h-449.964843c3.046874-5.273437 8.671874-8.523437 14.765624-8.53125v-25.601562c.027344-9.414063 7.652344-17.039063 17.066407-17.066407h401.066406c9.414063.027344 17.039063 7.652344 17.066406 17.066407zm0 0" fill="#e8edfc"/><path d="m477.867188 477.804688v25.601562h-469.332032v-25.601562c0-9.425782 7.640625-17.066407 17.066406-17.066407h435.199219c9.425781 0 17.066407 7.640625 17.066407 17.066407zm0 0" fill="#e8edfc"/><path d="m36.4375 469.269531c3.046875-5.273437 8.671875-8.523437 14.761719-8.53125v-25.601562c.027343-9.414063 7.652343-17.039063 17.066406-17.066407h7.460937c-9.414062-67.976562-9.414062-136.929687 0-204.910156-8.972656-.539062-15.976562-7.96875-15.992187-16.957031v-27.960937c-5.265625-3.027344-8.515625-8.632813-8.535156-14.703126v-25.601562h-8.53125c-4.714844 0-8.535157-3.820312-8.535157-8.53125v-17.066406c0-4.714844 3.820313-8.535156 8.535157-8.535156h7.183593l204.015626-76.03125 14.933593-5.574219-7.253906-2.703125c-3.585937-1.28125-7.507813-1.28125-11.09375 0l-22.1875 8.277344-204.015625 76.03125h-7.183594c-4.710937 0-8.53125 3.820312-8.53125 8.535156v17.066406c0 4.710938 3.820313 8.53125 8.53125 8.53125h8.535156v25.601562c.015626 6.070313 3.265626 11.675782 8.53125 14.703126v27.960937c.015626 8.996094 7.03125 16.425781 16.007813 16.957031-9.417969 67.980469-9.421875 136.929688-.015625 204.910156h-7.457031c-9.414063.027344-17.039063 7.652344-17.066407 17.066407v25.601562c-9.425781 0-17.066406 7.640625-17.066406 17.066407v25.601562h25.597656v-25.601562c.003907-2.996094.800782-5.941407 2.304688-8.535157zm0 0" fill="#fff"/><path d="m253.242188 17.515625-104.746094 36.523437-137.15625 47.820313-5.613282-16.109375 137.15625-47.828125 104.746094-36.523437zm0 0" fill="#fff"/><path d="m189.703125 24.214844c-1.023437-.457032-2.128906-.71875-3.25-.765625-3.429687-.167969-6.636719 1.695312-8.191406 4.761719-.460938 1.019531-.71875 2.121093-.769531 3.242187-.070313 1.113281.074218 2.234375.429687 3.292969 1.121094 3.277344 4.117187 5.550781 7.578125 5.75 3.457031.199218 6.695312-1.710938 8.191406-4.835938l.542969-1.546875c.152344-.554687.226563-1.128906.222656-1.707031.085938-.535156.085938-1.082031 0-1.621094-.089843-.578125-.226562-1.148437-.402343-1.707031-.785157-2.109375-2.339844-3.847656-4.351563-4.863281zm0 0" fill="#428dff"/><path d="m511.480469 91.246094c-.117188-.40625-.265625-.804688-.445313-1.1875-.285156-.546875-.632812-1.0625-1.03125-1.535156-.253906-.332032-.523437-.648438-.8125-.949219-.476562-.402344-.996094-.75-1.550781-1.039063-.355469-.234375-.726563-.445312-1.109375-.632812-.09375 0-.164062-.101563-.257812-.136719l-241.917969-84.375c-5.417969-1.855469-11.292969-1.855469-16.710938 0l-32.246093 11.246094c-4.453126 1.550781-6.804688 6.414062-5.253907 10.867187 1.550781 4.449219 6.417969 6.800782 10.867188 5.25l32.207031-11.230468c1.792969-.621094 3.742188-.621094 5.539062 0l194.363282 67.746093h-394.199219l97.628906-34.039062c4.453125-1.550781 6.804688-6.414063 5.253907-10.867188-1.550782-4.449219-6.414063-6.800781-10.867188-5.25l-145.210938 50.636719v.085938c-3.414062 1.160156-5.7148432 4.363281-5.726562 7.96875v34.132812c0 4.714844 3.820312 8.535156 8.535156 8.535156h8.53125v17.066406c.023438 7.238282 3.125 14.128907 8.535156 18.941407v23.722656c.015626 10.449219 6.378907 19.839844 16.074219 23.722656-9.472656 62.886719-9.554687 126.832031-.238281 189.742188-13.605469.652343-24.320312 11.847656-24.371094 25.46875v18.636719c-10.191406 3.605468-17.0234372 13.222656-17.066406 24.03125v25.601562c0 4.710938 3.820312 8.53125 8.535156 8.53125h494.929688c4.714844 0 8.535156-3.820312 8.535156-8.53125v-25.601562c-.042969-10.808594-6.875-20.425782-17.066406-24.03125v-18.636719c-.050782-13.621094-10.765625-24.816407-24.371094-25.46875 9.316406-62.910157 9.234375-126.855469-.238281-189.742188 9.695312-3.882812 16.058593-13.273437 16.074219-23.722656v-23.722656c5.410156-4.8125 8.511718-11.703125 8.535156-18.941407v-17.066406h8.53125c4.714844 0 8.535156-3.820312 8.535156-8.535156v-34.132812c0-.246094-.121094-.453126-.136719-.691407-.058593-.636719-.1875-1.261719-.382812-1.867187zm-366.414063 87.890625v17.066406c.015625 10.449219 6.378906 19.839844 16.078125 23.722656-9.472656 62.84375-9.558593 126.746094-.257812 189.613281h-48.707031c9.300781-62.867187 9.214843-126.769531-.257813-189.613281 9.699219-3.882812 16.0625-13.273437 16.078125-23.722656v-17.066406zm119.46875 0v17.066406c.015625 10.449219 6.378906 19.839844 16.074219 23.722656-9.46875 62.84375-9.558594 126.746094-.253906 189.613281h-48.710938c9.304688-62.867187 9.214844-126.769531-.253906-189.613281 9.695313-3.882812 16.058594-13.273437 16.074219-23.722656v-17.066406zm119.464844 0v17.066406c.015625 10.449219 6.378906 19.839844 16.078125 23.722656-9.472656 62.84375-9.558594 126.746094-.257813 189.613281h-48.707031c9.300781-62.867187 9.214844-126.769531-.257812-189.613281 9.699219-3.882812 16.0625-13.273437 16.078125-23.722656v-17.066406zm69.375 230.402343h-36.351562c-9.394532-62.226562-9.394532-125.507812 0-187.734374h36.351562c9.394531 62.226562 9.394531 125.507812 0 187.734374zm-155.816406-187.734374h36.351562c9.394532 62.226562 9.394532 125.507812 0 187.734374h-36.351562c-9.394532-62.226562-9.394532-125.507812 0-187.734374zm52.308594-25.601563c0 4.714844-3.820313 8.535156-8.535157 8.535156h-51.199219c-4.710937 0-8.53125-3.820312-8.53125-8.535156v-17.066406h68.265626zm-171.777344 25.601563h36.351562c9.394532 62.226562 9.394532 125.507812 0 187.734374h-36.351562c-9.394532-62.226562-9.394532-125.507812 0-187.734374zm52.308594-25.601563c0 4.714844-3.820313 8.535156-8.53125 8.535156h-51.199219c-4.714844 0-8.535157-3.820312-8.535157-8.535156v-17.066406h68.265626zm-171.773438 25.601563h36.351562c9.394532 62.226562 9.394532 125.507812 0 187.734374h-36.351562c-9.394531-62.226562-9.394531-125.507812 0-187.734374zm52.308594-25.601563c0 4.714844-3.820313 8.535156-8.535156 8.535156h-51.199219c-4.710938 0-8.53125-3.820312-8.53125-8.535156v-17.066406h68.265625zm384 298.667969h-477.867188v-17.066406c0-4.710938 3.820313-8.535157 8.535156-8.535157h460.796876c4.714843 0 8.535156 3.824219 8.535156 8.535157zm-17.066406-59.734375v17.066406h-443.734376v-17.066406c0-4.710938 3.820313-8.53125 8.535157-8.53125h426.664062c4.714844 0 8.535157 3.820312 8.535157 8.53125zm-8.535157-238.933594c0 4.714844-3.820312 8.535156-8.53125 8.535156h-51.199219c-4.714843 0-8.535156-3.820312-8.535156-8.535156v-17.066406h68.265625zm8.535157-42.664063c0 4.710938-3.820313 8.53125-8.535157 8.53125h-426.664062c-4.714844 0-8.535157-3.820312-8.535157-8.53125v-17.066406h443.734376zm17.066406-34.132812h-477.867188v-17.066406h477.867188zm0 0" fill="#428dff"/></svg>