<?xml version="1.0" encoding="iso-8859-1"?>
<!-- Generator: Adobe Illustrator 19.0.0, SVG Export Plug-In . SVG Version: 6.00 Build 0)  -->
<svg version="1.1" id="Capa_1" xmlns="http://www.w3.org/2000/svg" xmlns:xlink="http://www.w3.org/1999/xlink" x="0px" y="0px"
	 viewBox="0 0 511.433 511.433" style="enable-background:new 0 0 511.433 511.433;" xml:space="preserve">
<g>
	<g transform="translate(1 1)">
		<path style="fill:#D4E1F4;" d="M357.117,209.971v22.613c-0.003,8.51-3.379,16.672-9.387,22.699
			c-4.545,4.576-7.633,10.396-8.875,16.725c-4.047,17.598-11.816,34.125-22.784,48.469c-1.04,1.442-1.607,3.171-1.621,4.949v26.539
			c-0.028,1.497,0.356,2.973,1.109,4.267l-1.109,9.131l-59.733,25.6l-12.8-5.461l-46.933-20.139l-1.109-9.131
			c0.754-1.294,1.137-2.77,1.109-4.267v-26.539c-0.015-1.778-0.581-3.507-1.621-4.949c-10.968-14.345-18.737-30.872-22.784-48.469
			c-1.242-6.329-4.33-12.149-8.875-16.725c-6.008-6.027-9.383-14.189-9.387-22.699V202.29c0.005-4.979,1.174-9.889,3.413-14.336
			l1.707-3.584c2.239-4.447,3.408-9.357,3.413-14.336v-43.605c0-1.792,0.085-3.499,0.171-5.205c0.085-0.597,0.085-1.195,0.171-1.792
			c0.171-1.877,0.512-3.755,0.853-5.547c0.171-1.365,0.512-2.645,0.768-3.925h0.085l0.512-2.048
			c0.512-1.707,1.024-3.328,1.621-4.949c0.085-0.256,0.256-0.597,0.341-0.853c0.683-1.792,1.451-3.584,2.218-5.291
			c0.085-0.085,0.171-0.171,0.171-0.256c0.853-1.792,1.877-3.584,2.901-5.291c2.001-3.442,4.346-6.673,6.998-9.643v-0.085
			l0.427-0.427c1.134-1.362,2.36-2.645,3.669-3.84l2.304-2.048c0.939-0.853,1.963-1.707,2.901-2.475
			c0.853-0.597,1.536-1.195,2.389-1.792h0.085c1.024-0.768,2.133-1.451,3.157-2.133c0.853-0.597,1.792-1.109,2.646-1.621
			c1.109-0.683,2.218-1.195,3.328-1.792c1.024-0.512,1.963-0.939,2.901-1.365c1.195-0.512,2.389-0.939,3.584-1.451
			c0.171-0.085,0.427-0.171,0.597-0.256c0.256-0.085,0.512-0.171,0.853-0.256c0.427-0.171,0.939-0.341,1.451-0.512
			c1.756-0.63,3.552-1.143,5.376-1.536c0.471-0.163,0.957-0.278,1.451-0.341c0.256-0.085,0.597-0.085,0.853-0.171
			c0.427-0.085,0.939-0.171,1.365-0.256c0.768-0.085,1.536-0.256,2.304-0.341c0.853-0.085,1.707-0.256,2.56-0.341
			c1.024-0.085,1.963-0.171,2.987-0.256c1.451-0.085,2.816-0.171,4.267-0.171h51.2c1.792,0,3.584,0.085,5.291,0.256
			c0.57-0.014,1.141,0.014,1.707,0.085c0.094-0.012,0.188,0.02,0.256,0.085h0.341c0.733,0.155,1.473,0.269,2.219,0.341h0.256
			c0.362,0.098,0.734,0.156,1.109,0.171c0.304,0.098,0.62,0.155,0.939,0.171c0.748,0.093,1.489,0.235,2.219,0.427
			c0.171,0,0.341,0.085,0.512,0.085c0.341,0.085,0.683,0.171,0.939,0.256l1.28,0.256c1.109,0.341,2.133,0.597,3.243,0.939
			c1.109,0.341,2.133,0.683,3.157,1.109c1.024,0.341,1.963,0.683,2.987,1.109c0.341,0.171,0.768,0.341,1.195,0.597
			c0.512,0.256,1.024,0.427,1.536,0.683c0.171,0,0.256,0.085,0.427,0.171c0.189,0.083,0.363,0.199,0.513,0.341
			c0.128,0.021,0.247,0.081,0.341,0.171h0.085l0.512,0.256c0.946,0.447,1.858,0.96,2.731,1.536h0.085
			c0.427,0.256,0.768,0.427,1.195,0.683c0.128,0.021,0.247,0.081,0.341,0.171c0.276,0.172,0.533,0.372,0.768,0.597
			c0.128,0.021,0.247,0.081,0.341,0.171l0.768,0.512c0.768,0.512,1.621,1.024,2.389,1.621h0.085
			c0.853,0.597,1.536,1.195,2.389,1.792c0.939,0.768,1.963,1.621,2.901,2.475c0.427,0.427,0.939,0.768,1.365,1.195
			c0.149,0.167,0.321,0.31,0.512,0.427c0.171,0.171,0.256,0.341,0.427,0.427l0.939,0.939c0.512,0.597,1.025,1.195,1.621,1.792h0.085
			c0.19,0.124,0.339,0.302,0.427,0.512h0.085c0.167,0.148,0.311,0.321,0.427,0.512l0.085,0.085l0.427,0.427v0.085l5.632,28.331
			l0.597,3.157l9.472,47.872l1.109,5.717l3.499,17.92L357.117,209.971z"/>
		<g>
			<path style="fill:#A4C2F7;" d="M241.917,385.501l12.8,5.461l59.733-25.6l1.109-9.131c-0.754-1.294-1.138-2.77-1.109-4.267
				v-26.539c0.015-1.778,0.581-3.507,1.621-4.949c10.968-14.345,18.737-30.872,22.784-48.469c1.242-6.329,4.33-12.149,8.875-16.725
				c6.008-6.027,9.383-14.189,9.387-22.699V202.29c-0.005-4.979-1.174-9.889-3.413-14.336l-1.707-3.584
				c-2.239-4.447-3.408-9.357-3.413-14.336v-43.605c0.005-18.107-7.186-35.474-19.989-48.277s-30.17-19.994-48.277-19.989h-25.6
				c18.107-0.005,35.474,7.186,48.277,19.989c12.804,12.804,19.994,30.17,19.989,48.277v43.605
				c0.005,4.979,1.174,9.889,3.413,14.336l1.707,3.584c2.239,4.447,3.408,9.357,3.413,14.336v30.293
				c-0.003,8.51-3.379,16.672-9.387,22.699c-4.545,4.576-7.633,10.396-8.875,16.725c-4.047,17.598-11.816,34.125-22.784,48.469
				c-1.04,1.442-1.607,3.171-1.621,4.949v26.539c-0.028,1.497,0.356,2.973,1.109,4.267l-1.109,9.131L241.917,385.501z"/>
			<path style="fill:#A4C2F7;" d="M442.45,467.421v34.475H66.983v-34.475c0.008-20.978,11.021-40.413,29.013-51.2l56.32-33.792
				l2.731-1.621h199.339l2.731,1.621l56.32,33.792C431.429,427.008,442.442,446.443,442.45,467.421z"/>
		</g>
		<path style="fill:#E3E7F2;" d="M416.85,467.421v34.475H66.983v-34.475c0.008-20.978,11.021-40.413,29.013-51.2l56.32-33.792
			l2.731-1.621h173.739l2.731,1.621l56.32,33.792C405.829,427.008,416.842,446.443,416.85,467.421z"/>
		<g>
			<path style="fill:#FFFFFF;" d="M254.717,382.429l-34.133,34.133l-65.536-35.755l35.755-21.504
				c1.282-0.728,2.344-1.79,3.072-3.072l1.109,0.597L254.717,382.429z"/>
			<path style="fill:#FFFFFF;" d="M354.386,380.808l-65.536,35.755l-34.133-34.133l59.733-25.6l1.109-0.597
				c0.728,1.283,1.789,2.344,3.072,3.072L354.386,380.808z"/>
		</g>
		<polygon style="fill:#E3E7F2;" points="288.85,501.896 220.583,501.896 246.183,433.629 263.25,433.629 		"/>
		<polygon style="fill:#FFFFFF;" points="246.183,433.629 220.583,501.896 152.317,382.429 155.047,380.808 220.583,416.563 
			227.922,409.224 		"/>
		<polygon style="fill:#E3E7F2;" points="281.511,409.224 263.25,433.629 246.183,433.629 227.922,409.224 254.717,382.429 		"/>
		<polygon style="fill:#FFFFFF;" points="357.117,382.429 288.85,501.896 263.25,433.629 281.511,409.224 288.85,416.563 
			354.386,380.808 		"/>
		<path style="fill:#A4C2F7;" d="M348.583,126.429v34.133l-1.109,0.427l-24.405,10.069l-47.957,19.627
			c-4.237,1.724-8.685,2.872-13.227,3.413c-9.328,1.341-18.844,0.162-27.563-3.413l-73.472-30.123v-34.133
			c0-1.792,0.085-3.499,0.171-5.205c0.085-0.597,0.085-1.195,0.171-1.792c0.171-1.877,0.512-3.755,0.853-5.547
			c0.256-1.365,0.512-2.645,0.853-3.925l0.512-2.048c0.512-1.707,1.024-3.328,1.621-4.949c0.085-0.256,0.256-0.597,0.341-0.853
			c0.683-1.792,1.451-3.584,2.218-5.291c0.085-0.085,0.171-0.171,0.171-0.256c0.853-1.792,1.877-3.584,2.901-5.291
			c2.03-3.423,4.373-6.651,6.998-9.643v-0.085l0.427-0.427l1.109-1.109c0.853-0.939,1.707-1.877,2.56-2.731l2.304-2.048
			c0.939-0.853,1.963-1.707,2.901-2.475c0.853-0.597,1.536-1.195,2.389-1.792h0.085c1.024-0.768,2.133-1.451,3.157-2.133
			c0.814-0.574,1.67-1.088,2.56-1.536c0-0.023,0.008-0.045,0.024-0.061c0.016-0.016,0.038-0.025,0.061-0.024
			c1.109-0.683,2.218-1.195,3.328-1.792c1.024-0.512,1.963-0.939,2.901-1.365c1.195-0.512,2.389-0.939,3.584-1.451
			c0.171-0.085,0.427-0.171,0.597-0.256c0.256-0.085,0.512-0.171,0.853-0.256c0.427-0.171,0.939-0.341,1.451-0.512
			c1.28-0.427,2.56-0.768,3.925-1.109c0.494-0.102,0.98-0.245,1.451-0.427c0.471-0.163,0.957-0.278,1.451-0.341
			c0.256-0.085,0.597-0.085,0.853-0.171c0.427-0.085,0.939-0.171,1.365-0.256c0.768-0.085,1.536-0.256,2.304-0.341
			c0.853-0.085,1.707-0.256,2.56-0.341c1.024-0.085,1.963-0.171,2.987-0.256c1.451-0.085,2.816-0.171,4.267-0.171h51.2
			c1.792,0,3.584,0.085,5.291,0.256c0.657,0.014,1.313,0.071,1.963,0.171h0.341c0.733,0.155,1.473,0.269,2.219,0.341h0.256
			c0.362,0.098,0.734,0.156,1.109,0.171c0.304,0.098,0.62,0.155,0.939,0.171c0.748,0.093,1.489,0.235,2.219,0.427
			c0.171,0,0.341,0.085,0.512,0.085c0.341,0.085,0.683,0.171,0.939,0.256c0.471,0.182,0.956,0.324,1.451,0.427
			c1.365,0.341,2.645,0.683,3.925,1.109c0.784,0.204,1.554,0.461,2.304,0.768c0.171,0.085,0.427,0.171,0.597,0.256
			c0.171,0.085,0.256,0.085,0.427,0.171c1.024,0.427,2.133,0.853,3.157,1.28c0.512,0.256,1.024,0.427,1.536,0.683
			c0.303,0.189,0.616,0.36,0.939,0.512c0.128,0.021,0.247,0.081,0.341,0.171h0.085l0.512,0.256c0.946,0.447,1.858,0.96,2.731,1.536
			h0.085c0.427,0.256,0.768,0.427,1.195,0.683c0.341,0.256,0.768,0.512,1.109,0.768c0.128,0.021,0.247,0.081,0.341,0.171
			l0.768,0.512c0.768,0.512,1.621,1.024,2.389,1.621h0.085c0.853,0.597,1.537,1.195,2.389,1.792
			c0.939,0.768,1.963,1.621,2.901,2.475c0.427,0.427,0.939,0.768,1.365,1.195c0.149,0.167,0.321,0.31,0.512,0.427
			c0.171,0.171,0.256,0.341,0.427,0.427l0.939,0.939c0.512,0.597,1.025,1.195,1.621,1.792l0.512,0.512l0.512,0.512l0.085,0.085
			l0.427,0.427v0.085c2.625,2.992,4.967,6.22,6.997,9.643c1.024,1.707,2.048,3.499,2.901,5.291c0,0.085,0.085,0.171,0.171,0.256
			c0.768,1.707,1.536,3.499,2.219,5.291c0.085,0.256,0.256,0.597,0.341,0.853c0.427,1.28,0.939,2.56,1.28,3.925
			c0.085,0.341,0.256,0.683,0.341,1.024l0.512,2.048c0.341,1.28,0.597,2.56,0.853,3.925c0.341,1.792,0.683,3.669,0.853,5.547
			c0.085,0.597,0.085,1.195,0.171,1.792C348.498,122.931,348.583,124.637,348.583,126.429z"/>
		<path style="fill:#E3E7F2;" d="M322.983,134.963v34.133l-1.109,0.427l-24.405,10.069l-35.584,14.507
			c-9.328,1.341-18.844,0.162-27.563-3.413l-73.472-30.123v-34.133c0-1.792,0.085-3.499,0.171-5.205
			c0.085-0.597,0.085-1.195,0.171-1.792c0.171-1.877,0.512-3.755,0.853-5.547c0.256-1.365,0.512-2.645,0.853-3.925l0.512-2.048
			c0.512-1.707,1.024-3.328,1.621-4.949c0.085-0.256,0.256-0.597,0.341-0.853c0.683-1.792,1.451-3.584,2.218-5.291
			c0.085-0.085,0.171-0.171,0.171-0.256c0.853-1.792,1.877-3.584,2.901-5.291c2.03-3.423,4.373-6.651,6.998-9.643v-0.085
			l0.427-0.427l1.109-1.109c0.853-0.939,1.707-1.877,2.56-2.731l2.304-2.048c0.939-0.853,1.963-1.707,2.901-2.475
			c0.853-0.597,1.536-1.195,2.389-1.792h0.085c1.024-0.768,2.133-1.451,3.157-2.133c0.814-0.574,1.67-1.088,2.56-1.536
			c0.362-0.098,0.734-0.156,1.109-0.171c1.024-0.085,1.963-0.171,2.987-0.256c1.451-0.085,2.816-0.171,4.267-0.171h51.2
			c1.792,0,3.584,0.085,5.291,0.256c0.657,0.014,1.313,0.071,1.963,0.171h0.341c0.733,0.155,1.473,0.269,2.219,0.341h0.256
			c0.362,0.098,0.734,0.156,1.109,0.171c0.304,0.098,0.62,0.155,0.939,0.171c0.748,0.093,1.489,0.235,2.219,0.427
			c0.171,0,0.341,0.085,0.512,0.085c0.341,0.085,0.683,0.171,0.939,0.256c0.471,0.182,0.956,0.324,1.451,0.427
			c1.365,0.341,2.645,0.683,3.925,1.109c0.784,0.204,1.554,0.461,2.304,0.768c0.171,0.085,0.427,0.171,0.597,0.256
			c0.171,0.085,0.256,0.085,0.427,0.171c1.024,0.427,2.133,0.853,3.157,1.28c0.512,0.256,1.024,0.427,1.536,0.683
			c0.303,0.189,0.616,0.36,0.939,0.512c0.128,0.021,0.247,0.081,0.341,0.171h0.085l0.512,0.256c0.946,0.447,1.858,0.96,2.731,1.536
			h0.085c0.427,0.256,0.768,0.427,1.195,0.683c0.341,0.256,0.768,0.512,1.109,0.768c0.128,0.021,0.247,0.081,0.341,0.171
			l0.768,0.512c0.768,0.512,1.621,1.024,2.389,1.621h0.085c0.853,0.597,1.536,1.195,2.389,1.792
			c0.939,0.768,1.963,1.621,2.901,2.475c0.427,0.427,0.939,0.768,1.365,1.195c0.149,0.167,0.321,0.31,0.512,0.427
			c0.171,0.171,0.256,0.341,0.427,0.427l0.939,0.939c0.512,0.597,1.025,1.195,1.621,1.792l0.512,0.512l0.512,0.512l0.085,0.085
			l0.427,0.427v0.085c2.625,2.992,4.967,6.22,6.997,9.643c1.024,1.707,2.048,3.499,2.901,5.291c0,0.085,0.085,0.171,0.171,0.256
			c0.768,1.707,1.536,3.499,2.219,5.291c0.085,0.256,0.256,0.597,0.341,0.853c0.427,1.28,0.939,2.56,1.28,3.925
			c0.085,0.341,0.256,0.683,0.341,1.024l0.512,2.048c0.341,1.28,0.597,2.56,0.853,3.925c0.341,1.792,0.683,3.669,0.853,5.547
			c0.085,0.597,0.085,1.195,0.171,1.792C322.898,131.464,322.983,133.171,322.983,134.963z"/>
		<path style="fill:#A4C2F7;" d="M419.751,83.25l-73.131,26.709h-0.085l-8.533,3.157l-15.445,5.632l-64.853,23.637
			c-1.933,0.683-4.041,0.683-5.973,0l-1.621-0.597l-87.211-31.829h-0.085L89.682,83.25c-3.38-1.22-5.632-4.428-5.632-8.021
			s2.252-6.801,5.632-8.021L225.106,17.8l26.624-9.728c1.933-0.683,4.041-0.683,5.973,0l162.048,59.136
			c3.38,1.22,5.632,4.428,5.632,8.021S423.131,82.03,419.751,83.25z"/>
		<path style="fill:#E3E7F2;" d="M385.618,92.296l-39.851,14.592h-0.085l-8.277,3.072l-15.275,5.547l-72.021,26.283l-87.211-31.829
			h-0.085L89.682,83.25c-3.38-1.22-5.632-4.428-5.632-8.021s2.252-6.801,5.632-8.021L225.106,17.8l160.512,58.539
			c3.376,1.2,5.632,4.395,5.632,7.979C391.25,87.9,388.994,91.096,385.618,92.296z"/>
		<path style="fill:#FFFFFF;" d="M92.583,467.421c0.008-20.978,11.021-40.413,29.013-51.2l56.32-33.792l2.731-1.621l35.755-21.504
			c2.621-1.507,4.221-4.315,4.181-7.339v-26.539c-0.015-1.778-0.581-3.507-1.621-4.949c-10.968-14.345-18.737-30.872-22.784-48.469
			c-1.242-6.329-4.33-12.149-8.875-16.725c-6.008-6.027-9.383-14.189-9.387-22.699V202.29c0.005-4.979,1.174-9.889,3.413-14.336
			l1.707-3.584c2.239-4.447,3.408-9.357,3.413-14.336v-43.605c0-1.792,0.085-3.499,0.171-5.205c0.085-0.597,0.085-1.195,0.171-1.792
			c0.171-1.877,0.512-3.755,0.853-5.547c0.171-1.365,0.512-2.645,0.768-3.925L115.282,83.25c-3.38-1.22-5.632-4.428-5.632-8.021
			s2.252-6.801,5.632-8.021L250.706,17.8l16.816-6.144l-9.819-3.584c-1.933-0.683-4.041-0.683-5.973,0L225.106,17.8L89.682,67.208
			c-3.38,1.22-5.632,4.428-5.632,8.021s2.252,6.801,5.632,8.021l73.131,26.709c-0.256,1.28-0.597,2.56-0.768,3.925
			c-0.341,1.792-0.683,3.669-0.853,5.547c-0.085,0.597-0.085,1.195-0.171,1.792c-0.085,1.707-0.171,3.413-0.171,5.205v43.605
			c-0.005,4.979-1.174,9.889-3.413,14.336l-1.707,3.584c-2.239,4.447-3.408,9.357-3.413,14.336v30.293
			c0.003,8.51,3.379,16.672,9.387,22.699c4.545,4.576,7.633,10.396,8.875,16.725c4.047,17.598,11.816,34.125,22.784,48.469
			c1.04,1.442,1.607,3.171,1.621,4.949v26.539c0.04,3.023-1.56,5.831-4.181,7.339l-35.755,21.504l-2.731,1.621l-56.32,33.792
			c-17.992,10.787-29.006,30.222-29.013,51.2v34.475h25.6V467.421z"/>
	</g>
	<g>
		<polygon style="fill:#FFFFFF;" points="255.623,17.085 151.422,55.143 93.635,76.246 87.781,60.212 145.568,39.109 249.769,1.05 
					"/>
		<g>
			<path style="fill:#428DFF;" d="M92.596,409.908c-20.493,12.393-33.053,34.564-33.146,58.513v34.475
				c0,4.713,3.821,8.533,8.533,8.533H221.56l0.023,0.004l0.028-0.004h68.212l0.028,0.004l0.023-0.004H443.45
				c4.713,0,8.533-3.821,8.533-8.533v-34.475c-0.094-23.952-12.657-46.125-33.154-58.517l-94.846-56.938l-0.009-26.479
				c11.702-15.338,19.978-33.008,24.271-51.817c0.906-4.666,3.17-8.961,6.508-12.346c7.642-7.601,11.926-17.943,11.896-28.721
				v-30.333c-0.006-6.305-1.474-12.524-4.288-18.167l-1.762-3.521c-1.631-3.271-2.481-6.875-2.483-10.529v-54.873l65.533-23.935
				c6.758-2.427,11.266-8.835,11.267-16.015s-4.505-13.589-11.263-16.018L261.667,1.05c-3.843-1.4-8.057-1.4-11.9,0l-0.004,0.003
				L217.706,12.76c-2.874,1.039-4.973,3.534-5.503,6.543c-0.531,3.009,0.588,6.072,2.933,8.031c2.345,1.959,5.559,2.514,8.425,1.456
				l31.921-11.658c0.108-0.034,0.219-0.01,0.326-0.049l161.987,59.129l-162.171,59.162L93.633,76.246l0.002-0.001l65.803-24.033
				c4.427-1.617,6.705-6.516,5.088-10.943s-6.516-6.705-10.943-5.088L87.779,60.214l0.001,0.001
				c-6.774,2.404-11.291,8.826-11.262,16.014v59.733c0,4.713,3.821,8.533,8.533,8.533s8.533-3.821,8.533-8.533V94.366l59.733,21.817
				v54.872c-0.003,3.656-0.854,7.262-2.487,10.533l-1.754,3.512c-2.816,5.644-4.285,11.864-4.292,18.171v30.333
				c-0.028,10.786,4.262,21.135,11.913,28.738c3.33,3.381,5.588,7.67,6.492,12.329c4.284,18.791,12.558,36.441,24.262,51.754
				l-0.042,26.563L92.596,409.908z M196.088,367.683c0.163-0.095,0.28-0.239,0.44-0.339l44.244,18.962l-20.709,20.706
				l-46.881-25.577L196.088,367.683z M314.892,367.351c0.127,0.079,0.22,0.194,0.35,0.27l23.01,13.815l-46.881,25.577
				l-20.709-20.705L314.892,367.351z M259.979,426.096h-8.525l-11.272-15.066l15.534-15.534l15.534,15.534L259.979,426.096z
				 M221.579,426.096c2.265,0.001,4.437-0.898,6.038-2.5l0.372-0.372l9.564,12.78l-17.579,46.878l-46.889-82.056l44.411,24.229
				C218.749,425.737,220.152,426.095,221.579,426.096z M253.098,443.163h5.236l19.2,51.2h-43.636L253.098,443.163z M273.881,436.004
				l9.564-12.78l0.372,0.372c2.677,2.677,6.797,3.271,10.121,1.458l44.411-24.229l-46.889,82.056L273.881,436.004z M76.517,468.421
				c-0.06-17.998,9.399-34.688,24.871-43.883l48.838-29.321l56.654,99.145H76.516L76.517,468.421z M434.917,468.421l0,25.941
				H304.554l56.654-99.145l48.83,29.316C425.514,433.728,434.976,450.42,434.917,468.421z M249.767,151.408
				c3.843,1.4,8.057,1.4,11.9,0l79.383-28.994v33.423l-68.154,27.913c-11.004,4.533-23.354,4.533-34.358,0l-68.154-27.913v-33.423
				L249.767,151.408z M179.913,271.279c-1.566-7.955-5.452-15.27-11.167-21.021c-4.429-4.408-6.912-10.405-6.896-16.654v-30.333
				c0.003-3.656,0.854-7.262,2.487-10.533l1.754-3.512c2.323-4.697,3.717-9.798,4.107-15.023l61.872,25.34
				c15.146,6.244,32.146,6.244,47.292,0l61.872-25.34c0.39,5.224,1.783,10.323,4.103,15.019l1.762,3.521
				c1.631,3.271,2.481,6.875,2.483,10.529v30.333c0.015,6.257-2.474,12.26-6.913,16.671c-5.707,5.748-9.586,13.056-11.15,21.004
				c-3.857,16.439-11.159,31.872-21.425,45.279c-2.057,2.88-3.168,6.328-3.179,9.867v25.779l-51.2,21.942l-51.2-21.942v-25.779
				c-0.017-3.579-1.154-7.062-3.25-9.962C191.033,303.081,183.755,287.681,179.913,271.279L179.913,271.279z"/>
			<path style="fill:#428DFF;" d="M184.96,40.255c4.293,1.946,9.353,0.098,11.381-4.157l0.524-1.553
				c0.141-0.558,0.207-1.133,0.196-1.708c0.065-0.539,0.048-1.085-0.05-1.619c-0.103-0.562-0.245-1.117-0.424-1.659
				c-0.805-2.111-2.378-3.84-4.403-4.842c-4.296-1.86-9.296-0.034-11.381,4.157c-0.444,1.03-0.688,2.135-0.718,3.257
				c-0.059,1.115,0.101,2.23,0.472,3.283C181.364,37.523,182.936,39.252,184.96,40.255z"/>
		</g>
	</g>
</g>
<g>
</g>
<g>
</g>
<g>
</g>
<g>
</g>
<g>
</g>
<g>
</g>
<g>
</g>
<g>
</g>
<g>
</g>
<g>
</g>
<g>
</g>
<g>
</g>
<g>
</g>
<g>
</g>
<g>
</g>
</svg>
