<svg id="Capa_1" enable-background="new 0 0 512 512" height="512" viewBox="0 0 512 512" width="512" xmlns="http://www.w3.org/2000/svg"><g><g><g><g><g><g><g><path d="m434.672 222.109c0-98.627-79.994-178.579-178.672-178.579s-178.672 79.952-178.672 178.579c0 77.35 49.202 143.212 140.17 168.03v35.485h77.004v-35.485c90.968-24.819 140.17-90.681 140.17-168.03z" fill="#fff7bf"/></g><g><g><path d="m217.498 425.624h77.004v45.427h-77.004z" fill="#c193dc"/></g></g></g></g></g></g><g><g><path d="m148.639 237.477 13.404 2.935c2.312 9.246 5.963 17.961 10.746 25.924l-7.092 12.033c3.702 5.392 7.953 10.52 12.742 15.31 4.789 4.789 9.917 9.04 15.31 12.743l12.033-7.092c7.963 4.783 16.677 8.434 25.924 10.746l2.935 13.404c13.465 2.57 27.327 2.57 40.792 0l2.935-13.404c9.246-2.313 17.961-5.963 25.924-10.746l12.033 7.092c5.392-3.703 10.52-7.953 15.31-12.743 4.789-4.789 9.04-9.917 12.743-15.31l-7.092-12.033c4.783-7.963 8.434-16.677 10.746-25.924l13.404-2.935c2.57-13.465 2.57-27.327 0-40.792l-13.404-2.935c-2.312-9.246-5.963-17.961-10.746-25.924l7.092-12.033c-3.703-5.392-7.953-10.52-12.743-15.31-4.789-4.789-9.917-9.04-15.31-12.743l-12.033 7.092c-7.963-4.783-16.677-8.434-25.924-10.746l-2.935-13.404c-13.465-2.57-27.327-2.57-40.791 0l-2.935 13.404c-9.247 2.312-17.961 5.963-25.924 10.746l-12.033-7.092c-5.392 3.703-10.52 7.953-15.31 12.743-4.789 4.789-9.04 9.917-12.743 15.31l7.092 12.033c-4.783 7.963-8.434 16.677-10.746 25.924l-13.404 2.935z" fill="#ff7d97"/></g><g><circle cx="256" cy="217.081" fill="#faf7f5" r="53.766"/></g></g></g><g><g><g><path d="m100.437 69.367c-2.563 0-5.125-.979-7.078-2.936l-18.385-18.418c-3.901-3.909-3.896-10.24.013-14.142 3.908-3.901 10.241-3.896 14.142.013l18.385 18.418c3.901 3.909 3.896 10.24-.013 14.142-1.952 1.949-4.508 2.923-7.064 2.923z"/></g><g><path d="m429.948 399.484c-2.563 0-5.124-.979-7.077-2.936l-18.385-18.418c-3.902-3.909-3.896-10.24.013-14.142 3.909-3.9 10.24-3.896 14.142.013l18.385 18.418c3.902 3.909 3.896 10.24-.013 14.142-1.952 1.949-4.509 2.923-7.065 2.923z"/></g></g><g><g><path d="m411.563 69.367c-2.557 0-5.112-.974-7.064-2.922-3.909-3.902-3.915-10.233-.013-14.142l18.385-18.418c3.9-3.91 10.233-3.914 14.142-.013 3.909 3.902 3.915 10.233.013 14.142l-18.385 18.418c-1.953 1.956-4.516 2.935-7.078 2.935z"/></g><g><path d="m82.052 399.484c-2.557 0-5.112-.974-7.064-2.922-3.909-3.902-3.915-10.233-.013-14.142l18.385-18.418c3.902-3.909 10.234-3.914 14.142-.013 3.909 3.902 3.915 10.233.013 14.142l-18.385 18.418c-1.954 1.956-4.516 2.935-7.078 2.935z"/></g></g><g><g><path d="m502 225.216h-26c-5.522 0-10-4.477-10-10s4.478-10 10-10h26c5.522 0 10 4.477 10 10s-4.478 10-10 10z"/></g><g><path d="m36 225.216h-26c-5.523 0-10-4.477-10-10s4.477-10 10-10h26c5.523 0 10 4.477 10 10s-4.477 10-10 10z"/></g></g><path d="m256 280.847c-35.161 0-63.766-28.605-63.766-63.766s28.605-63.766 63.766-63.766c35.16 0 63.766 28.605 63.766 63.766s-28.606 63.766-63.766 63.766zm0-107.532c-24.133 0-43.766 19.633-43.766 43.766s19.633 43.766 43.766 43.766 43.766-19.633 43.766-43.766c0-24.132-19.633-43.766-43.766-43.766z"/><path d="m255.036 335.417c-7.441 0-14.882-.706-22.271-2.116-3.932-.75-7.038-3.773-7.894-7.684l-1.653-7.55c-5.977-1.88-11.768-4.29-17.315-7.202l-7.077 4.171c-3.346 1.975-7.534 1.829-10.738-.371-5.94-4.078-11.566-8.76-16.721-13.916-5.157-5.156-9.838-10.782-13.916-16.721-2.199-3.203-2.344-7.39-.371-10.737l4.171-7.078c-2.913-5.548-5.322-11.338-7.202-17.315l-7.551-1.653c-4.59-1.005-7.861-5.07-7.861-9.769v-40.792c0-4.699 3.271-8.764 7.861-9.769l7.551-1.653c1.88-5.977 4.289-11.767 7.202-17.315l-4.171-7.077c-1.973-3.348-1.828-7.535.372-10.738 4.078-5.939 8.759-11.564 13.916-16.721 5.155-5.155 10.78-9.836 16.721-13.915 3.202-2.201 7.39-2.345 10.738-.371l7.077 4.171c5.548-2.913 11.338-5.321 17.315-7.202l1.653-7.551c.856-3.91 3.961-6.933 7.893-7.684 14.776-2.822 29.762-2.821 44.542 0 3.932.75 7.037 3.773 7.894 7.684l1.653 7.551c5.977 1.88 11.769 4.29 17.315 7.202l7.077-4.171c3.348-1.974 7.536-1.828 10.737.371 5.94 4.079 11.566 8.761 16.721 13.916 5.152 5.151 9.834 10.777 13.915 16.72 2.2 3.203 2.345 7.391.372 10.738l-4.172 7.077c2.913 5.548 5.322 11.339 7.202 17.315l7.551 1.653c3.91.856 6.934 3.961 7.684 7.894 2.821 14.778 2.821 29.764 0 44.542-.75 3.932-3.773 7.038-7.684 7.894l-7.551 1.653c-1.88 5.976-4.289 11.767-7.202 17.315l4.172 7.077c1.973 3.348 1.828 7.535-.372 10.738-4.081 5.943-8.763 11.568-13.916 16.721-5.153 5.154-10.779 9.836-16.72 13.915-3.203 2.199-7.39 2.344-10.737.372l-7.077-4.171c-5.547 2.913-11.339 5.322-17.315 7.202l-1.653 7.551c-.856 3.91-3.962 6.933-7.894 7.683-7.389 1.41-14.83 2.116-22.271 2.116zm-12.088-20.749c8.044.996 16.134.996 24.176 0l1.475-6.732c.813-3.71 3.657-6.64 7.342-7.562 8.174-2.044 15.979-5.28 23.2-9.618 3.144-1.888 7.068-1.905 10.227-.042l6.353 3.744c3.088-2.428 6.047-5.055 8.842-7.85s5.422-5.754 7.851-8.842l-3.744-6.352c-1.861-3.159-1.846-7.083.043-10.227 4.339-7.223 7.574-15.028 9.617-23.199.921-3.686 3.852-6.531 7.563-7.343l6.732-1.474c.997-8.043.997-16.133 0-24.176l-6.732-1.474c-3.711-.813-6.642-3.658-7.563-7.343-2.043-8.171-5.278-15.977-9.617-23.199-1.889-3.144-1.904-7.068-.043-10.228l3.744-6.352c-2.429-3.088-5.055-6.047-7.85-8.841-2.796-2.796-5.755-5.423-8.843-7.851l-6.353 3.744c-3.158 1.863-7.083 1.846-10.227-.042-7.22-4.337-15.026-7.573-23.201-9.618-3.685-.922-6.529-3.852-7.342-7.563l-1.474-6.731c-8.044-.997-16.134-.997-24.176 0l-1.474 6.732c-.813 3.71-3.658 6.641-7.343 7.562-8.173 2.044-15.979 5.279-23.2 9.617-3.143 1.889-7.068 1.905-10.227.042l-6.352-3.744c-3.087 2.428-6.047 5.055-8.842 7.851-2.796 2.796-5.423 5.755-7.851 8.842l3.744 6.352c1.862 3.159 1.846 7.083-.042 10.227-4.338 7.222-7.574 15.028-9.618 23.201-.921 3.685-3.852 6.53-7.562 7.342l-5.543 1.214v24.697l5.543 1.214c3.71.813 6.641 3.657 7.562 7.342 2.044 8.173 5.28 15.979 9.618 23.201 1.888 3.143 1.904 7.067.042 10.226l-3.744 6.353c2.427 3.086 5.054 6.046 7.85 8.842 2.795 2.796 5.755 5.423 8.842 7.851l6.352-3.744c3.159-1.862 7.083-1.846 10.227.042 7.221 4.337 15.027 7.573 23.201 9.618 3.685.921 6.53 3.852 7.342 7.563z"/><g><path d="m434.54 225.22c-4.174 0-8.008-2.694-9.405-6.631-1.375-3.874-.212-8.326 2.936-10.99 3.283-2.778 8.093-3.124 11.746-.864 3.501 2.166 5.337 6.398 4.533 10.436-.921 4.621-5.098 8.049-9.81 8.049z"/></g><path d="m432.712 250.356c-5.396-1.218-10.74 2.168-11.955 7.555-13.35 59.196-60.327 103.875-128.887 122.581-4.351 1.187-7.368 5.138-7.368 9.647v25.485h-57.004v-25.485c0-4.509-3.018-8.46-7.368-9.647-83.157-22.688-132.802-81.896-132.802-158.383 0-92.955 75.666-168.579 168.672-168.579 74.679 0 139.511 47.907 161.327 119.211 1.616 5.282 7.214 8.252 12.488 6.637 5.281-1.616 8.253-7.207 6.637-12.488-11.565-37.801-35.436-71.763-67.213-95.63-32.863-24.684-72.021-37.731-113.239-37.731-104.034 0-188.672 84.596-188.672 188.579 0 41.101 13.209 79.141 38.2 110.007 24.333 30.054 59.477 52.617 101.97 65.546v17.963h-.128c-5.523 0-10 4.477-10 10s4.477 10 10 10h.128v35.427c0 5.523 4.477 10 10 10h77.004c5.522 0 10-4.477 10-10v-35.427h.129c5.522 0 10-4.477 10-10s-4.478-10-10-10h-.129v-17.963c71.938-21.884 121.226-70.876 135.765-135.351 1.214-5.387-2.167-10.739-7.555-11.954zm-148.21 210.696h-57.004v-25.427h57.004z"/></g></g></svg>