<svg height="512" viewBox="0 0 60 60" width="512" xmlns="http://www.w3.org/2000/svg"><g id="Page-1" fill="none" fill-rule="evenodd"><g id="024---Lake" fill-rule="nonzero"><g id="Icons" transform="translate(1 1)"><path id="Shape" d="m42 11.45c.0277923 2.481486-1.9585769 4.5170671-4.44 4.55h-1.78c-1.5003514-2.9812284-3.5930019-5.6251136-6.15-7.77-.3628289-.30991526-.8971711-.30991526-1.26 0-2.5598838 2.1420799-4.6530427 4.7866076-6.15 7.77h-1.78c-2.3556769-.0598128-4.2776012-1.9049848-4.4333155-4.2562705-.1557143-2.35128568 1.5060989-4.4337913 3.8333155-4.8037295.5405799-1.52522842 1.9720168-2.55394904 3.59-2.58.3022346-2.23090926 2.0487021-3.99006882 4.2773644-4.30844915 2.2286623-.31838034 4.3978358.88140194 5.3126356 2.93844915.4941562-.19214748 1.0198012-.29049397 1.55-.29 2.4093392.03181776 4.3422908 2.00048203 4.33 4.41 1.8635362.62352798 3.1145663 2.37497021 3.1 4.34z" fill="#e8edfc"/><path id="Rectangle-path" d="m4 20h4v8h-4z" fill="#a4c2f7"/><path id="Shape" d="m8.4 14 2.69 4.49c.1832455.3090648.1865957.6926808.0087761 1.004899-.1778196.3122181-.5094712.5050383-.8687761.505101h-8.46c-.35930486-.0000627-.69095652-.1928829-.86877613-.505101-.17781961-.3122182-.17446936-.6958342.00877613-1.004899l2.69-4.49h-.8c-.36209254-.0028888-.69433503-.2012967-.8686008-.5187094-.17426577-.3174126-.16332588-.7042344.0286008-1.0112906l4.04-6.47 4.04 6.47c.1919267.3070562.2028666.693878.0286008 1.0112906-.17426577.3174127-.50650826.5158206-.8686008.5187094z" fill="#e8edfc"/><path id="Rectangle-path" d="m50 20h4v8h-4z" fill="#a4c2f7"/><path id="Shape" d="m54.4 14 2.69 4.49c.1832455.3090648.1865957.6926808.0087761 1.004899-.1778196.3122181-.5094712.5050383-.8687761.505101h-8.46c-.3593049-.0000627-.6909565-.1928829-.8687761-.505101-.1778196-.3122182-.1744694-.6958342.0087761-1.004899l2.69-4.49h-.8c-.3620925-.0028888-.694335-.2012967-.8686008-.5187094-.1742658-.3174126-.1633259-.7042344.0286008-1.0112906l4.04-6.47 4.04 6.47c.1919267.3070562.2028666.693878.0286008 1.0112906-.1742658.3174127-.5065083.5158206-.8686008.5187094z" fill="#e8edfc"/><path id="Shape" d="m57.09 18.49-2.69-4.49h.8c.3620925-.0028888.694335-.2012967.8686008-.5187094.1742658-.3174126.1633259-.7042344-.0286008-1.0112906l-4.04-6.47-1.5 2.4 2.54 4.068c.1929901.3071496.2045138.6947253.0301134 1.0127985-.1744004.3180731-.5073737.5167602-.8701134.5192015h-.8l2.69 4.49c.1832455.3090648.1865957.6926808.0087761 1.004899-.1778196.3122181-.5094712.5050383-.8687761.505101h3c.3593049-.0000627.6909565-.1928829.8687761-.505101.1778196-.3122182.1744694-.6958342-.0087761-1.004899z" fill="#cad9fc"/><path id="Shape" d="m58 56c-.0004893.1139722-.0105244.2277031-.03.34-.2004221.9878744-1.0823995 1.6883923-2.09 1.66h-21.88c-1.8832817.0010458-3.6868367-.7600544-5-2.11-1.3131633 1.3499456-3.1167183 2.1110458-5 2.11h-22c-1.10320187-.0032948-1.9967052-.8967981-2-2 .00048934-.1139722.01052443-.2277031.03-.34.20042215-.9878744 1.08239948-1.6883923 2.09-1.66h21.88c1.6548028-.0049422 2.9950578-1.3451972 3-3v-1c0-.5522847-.4477153-1-1-1h-5.12c-1.7225935.0013079-3.2512308-1.1038283-3.79-2.74l-3.8-11.38c1.33-.41 1.58-1.88 3.35-1.88 2.06 0 2.06 2 4.11 2s2.06-2 4.12-2 2.06 2 4.12 2 2.06-2 4.12-2 2.06 2 4.11 2 2.06-2 4.12-2c1.77 0 2.02 1.48 3.37 1.89l-3.8 11.37c-.5387692 1.6361717-2.0674065 2.7413079-3.79 2.74h-5.12c-.5522847 0-1 .4477153-1 1v1c.0049422 1.6548028 1.3451972 2.9950578 3 3h22c1.1032019.0032948 1.9967052.8967981 2 2z" fill="#a4c2f7"/><path id="Shape" d="m56 54h-3c1.1032019.0032948 1.9967052.8967981 2 2-.0004893.1139722-.0105244.2277031-.03.34-.2004221.9878744-1.0823995 1.6883923-2.09 1.66h3c1.0076005.0283923 1.8895779-.6721256 2.09-1.66.0194756-.1122969.0295107-.2260278.03-.34-.0032948-1.1032019-.8967981-1.9967052-2-2z" fill="#7facfa"/><path id="Shape" d="m58 29v27c-.0032948-1.1032019-.8967981-1.9967052-2-2h-22c-1.6548028-.0049422-2.9950578-1.3451972-3-3v-1c0-.5522847.4477153-1 1-1h5.12c1.7225935.0013079 3.2512308-1.1038283 3.79-2.74l3.8-11.37 1.38-4.15c.5387692-1.6361717 2.0674065-2.7413079 3.79-2.74h7.12c.5522847 0 1 .4477153 1 1z" fill="#e8edfc"/><path id="Shape" d="m57 28h-3c.5522847 0 1 .4477153 1 1v25h1c1.1032019.0032948 1.9967052.8967981 2 2v-27c0-.5522847-.4477153-1-1-1z" fill="#cad9fc"/><path id="Shape" d="m27 50v1c-.0049422 1.6548028-1.3451972 2.9950578-3 3h-21.88c-1.00760052-.0283923-1.88957785.6721256-2.09 1.66-.01947557.1122969-.02951066.2260278-.03.34v-27c0-.5522847.44771525-1 1-1h7.12c1.72259346-.0013079 3.2512308 1.1038283 3.79 2.74l1.38 4.14 3.8 11.38c.5387692 1.6361717 2.0674065 2.7413079 3.79 2.74h5.12c.5522847 0 1 .4477153 1 1z" fill="#e8edfc"/><path id="Shape" d="m37 21c0 4.418278-3.581722 8-8 8s-8-3.581722-8-8c.0317072-1.7364051.4483923-3.4441307 1.22-5 1.4969573-2.9833924 3.5901162-5.6279201 6.15-7.77.3628289-.30991526.8971711-.30991526 1.26 0 2.5569981 2.1448864 4.6496486 4.7887716 6.15 7.77.7716077 1.5558693 1.1882928 3.2635949 1.22 5z" fill="#e8edfc"/><path id="Shape" d="m29 26h-.114c-2.7237138-.0459892-4.9028315-2.27595-4.886-5 0-.5522847.4477153-1 1-1s1 .4477153 1 1c-.0117835 1.6321779 1.292057 2.9699075 2.924 3 .5603327.0095161 1.0131977.4597328 1.026 1.02.0056268.2564079-.0916854.5043861-.2701963.6885342s-.4233448.2891206-.6798037.2914658z" fill="#428dff"/></g><g id="Icons_copy_2" fill="#fff" transform="translate(1 7)"><path id="Shape" d="m2 52h3c-1.10320187-.0032948-1.9967052-.8967981-2-2v-27c0-.5522847.44771525-1 1-1h-3c-.55228475 0-1 .4477153-1 1v27c.0032948 1.1032019.89679813 1.9967052 2 2z"/><path id="Shape" d="m7 14h-2.23c-.35930486-.0000627-.69095652-.1928829-.86877613-.505101-.17781961-.3122182-.17446936-.6958342.00877613-1.004899l2.69-4.49h-.8c-.36209254-.00288878-.69433503-.20129671-.8686008-.51870937-.17426577-.31741265-.16332588-.70423444.0286008-1.01129063l2.54-4.07-1.5-2.4-4.04 6.47c-.19192668.30705619-.20286657.69387798-.0286008 1.01129063.17426577.31741266.50650826.51582059.8686008.51870937h.8l-2.69 4.49c-.18324549.3090648-.18659574.6926808-.00877613 1.004899.17781961.3122181.50947127.5050383.86877613.505101h2.23v8h3z"/></g><g id="Icons_copy"><path id="Rectangle-path" d="m0 30h2v8h-2z" fill="#fff"/><g fill="#428dff"><circle id="Oval" cx="8" cy="42" r="1"/><circle id="Oval" cx="14" cy="48" r="1"/><circle id="Oval" cx="6" cy="50" r="1"/><circle id="Oval" cx="5" cy="36" r="1"/><circle id="Oval" cx="52" cy="42" r="1"/><circle id="Oval" cx="46" cy="48" r="1"/><circle id="Oval" cx="54" cy="50" r="1"/><circle id="Oval" cx="55" cy="36" r="1"/><path id="Shape" d="m44 12.45c.0178466-2.1481058-1.2094962-4.11232199-3.148-5.038-.3381744-2.66866158-2.592194-4.67944162-5.282-4.712-.3563683-.00016906-.7118413.03567978-1.061.107-1.1075237-1.73633806-3.0195621-2.7930602-5.079-2.807-2.7036383.03698164-5.064857 1.83824841-5.815 4.436-1.5046225.2852825-2.7908541 1.25439151-3.48 2.622-2.6783873.71166067-4.4249719 3.2856046-4.0967756 6.0374234.3281962 2.7518187 2.6311435 4.8427944 5.4017756 4.9045766h.3c-.4728886 1.2813994-.7231624 2.6342311-.74 4-.0320178 4.8990466 3.8836409 8.9119057 8.782 9h.218c4.9705627 0 9-4.0294373 9-9-.0158764-1.3655948-.2651346-2.7184212-.737-4h.3c3.0325226-.0346113 5.4647677-2.517407 5.437-5.55zm-9.11 14.558c-2.0148279 1.9670467-5.0121536 2.5353468-7.6071752 1.4423385-2.5950217-1.0930083-4.2825101-3.6345252-4.2828248-6.4503385.0345647-1.5854652.4143849-3.1443317 1.113-4.568.011-.024.024-.046.034-.071 1.4514171-2.8107782 3.4375573-5.3112021 5.847-7.361 2.4170769 2.0466375 4.4078814 4.5488196 5.859 7.364.0099173.0236711.0212718.046714.034.069.6984437 1.4233747 1.0782585 2.9818779 1.113 4.567.0063179 1.8866809-.7554435 3.6946907-2.11 5.008zm-3.618-18.548c-.7377879-.61351144-1.8082121-.61351144-2.546 0-2.4865113 2.1169761-4.562972 4.6727243-6.126 7.54h-1.16c-1.8274033-.0622689-3.3104886-1.4987751-3.4310199-3.3232619-.1205312-1.8244869 1.1606897-3.44361169 2.9640199-3.7457381.367932-.04934462.6782513-.29844715.806-.647.4012051-1.13053775 1.4587094-1.89601488 2.658-1.924.4894979-.00330941.9046478-.36048219.981-.844.3022083-1.99287968 1.996697-3.47788026 4.012-3.516 1.5912068.01824318 3.0274536.95753767 3.682 2.408.2210377.4799701.7773538.70512482 1.27.514.3787922-.14708184.7816547-.22236422 1.188-.222 1.857398.03822048 3.3402286 1.56023694 3.33 3.418.0033283.43116246.2826422.81164203.693.944 1.6258532.55891289 2.6216876 2.1980546 2.3685008 3.8985483s-1.6833452 2.9784289-3.4015008 3.0394517h-1.16c-1.5637182-2.8673786-3.6408527-5.4231219-6.128-7.54z"/><path id="Shape" d="m1.02 35c-.55228475.0027614-1.00223858-.4427153-1.005-.995s.44271525-1.0022386.995-1.005h.01c.55228475 0 1 .4477153 1 1s-.44771525 1-1 1z"/><path id="Shape" d="m58 28h-2v-6h1.23c.7191946-.0002037 1.3829018-.3865389 1.7382511-1.0118131.3553494-.6252742.347617-1.393195-.0202511-2.0111869l-1.906-3.177c.3794891-.1732168.6945001-.4619769.9-.825.3522077-.6367745.330761-1.4146008-.056-2.031l-4.04-6.47c0-.008-.013-.011-.018-.019-.1887921-.2714633-.4973584-.4346904-.828-.438-.3428314-.00935365-.665169.16283851-.848.453l-4.039 6.469c-.3874668.6164605-.4092998 1.3947882-.057 2.032.2054999.3630231.5205109.6517832.9.825l-1.9 3.175c-.3706307.6177107-.3804336 1.3870125-.0256632 2.0139667.3547704.6269543 1.0192928 1.0146801 1.7396632 1.0150333h1.23v6.083c-1.8034511.3180165-3.2860984 1.6016456-3.859 3.341l-.975 2.92c-.025-.024-.047-.041-.073-.066-.6847553-.8125899-1.6935298-1.2811444-2.756164-1.2801802-1.0626341.0009643-2.0705566.4713489-2.753836 1.2851802-.5.484-.765.717-1.363.717s-.856-.232-1.352-.715c-.684013-.814989-1.6935071-1.2856548-2.7575-1.2856548s-2.073487.4706658-2.7575 1.2856548c-.5.484-.765.717-1.363.717s-.864-.233-1.363-.717c-.6840142-.814633-1.693279-1.2850592-2.757-1.2850592s-2.0729858.4704262-2.757 1.2850592c-.5.484-.765.717-1.363.717s-.856-.232-1.352-.715c-.6842746-.8134711-1.6926069-1.283584-2.7556053-1.2847406-1.0629984-.0011567-2.0723514.4667606-2.7583947 1.2787406-.02.019-.036.031-.056.05l-.968-2.9c-.5715012-1.7419726-2.0547353-3.0284668-3.86-3.348v-6.083h1.23c.7191946-.0002037 1.3829018-.3865389 1.7382511-1.0118131.3553494-.6252742.347617-1.393195-.0202511-2.0111869l-1.906-3.177c.3794891-.1732168.6945001-.4619769.9-.825.3522077-.6367745.330761-1.4146008-.056-2.031l-4.038-6.474c-.15029174-.32295155-.49600455-.50763067-.848-.453-.34806061-.03335387-.68221068.14514846-.848.453l-4.039 6.469c-.38746683.6164605-.40929984 1.3947882-.057 2.032.20549989.3630231.52051092.6517832.9.825l-1.9 3.175c-.37063071.6177107-.38043363 1.3870125-.02566323 2.0139667.35477041.6269543 1.01929282 1.0146801 1.73966323 1.0150333h1.23v6h-2c-1.1045695 0-2 .8954305-2 2 0 .5522847.44771525 1 1 1s1-.4477153 1-1h7.12c1.2926624-.0023252 2.4397258.8281955 2.841 2.057l1.373 4.112v.005.006l3.8 11.393c.6727373 2.0497166 2.5887159 3.4332097 4.746 3.427h5.12v1c0 1.1045695-.8954305 2-2 2h-21.878c-.38295442-.0010073-.76298031.0667335-1.122.2v-16.2c0-.5522847-.44771525-1-1-1s-1 .4477153-1 1v19h.013c-.00479916.794857.30794239 1.5587351.86877967 2.1220132.56083728.5632782 1.32334995.8793341 2.11822033.8779868h22c1.8193732.0052011 3.5850358-.6163121 5-1.76 1.4149642 1.1436879 3.1806268 1.7652011 5 1.76h21.878c.810676.0361365 1.6012027-.2588914 2.1899872-.8173126.5887844-.5584212.9252161-1.3322349.9320128-2.1436874v-27.039c0-1.1045695-.8954305-2-2-2zm-55.232-8 2.69-4.49c.21208864-.3692526.16926117-.8319493-.107-1.156-.19296258-.2136256-.46341645-.3411099-.751-.354h-.792l3.192-5.113 3.2 5.113h-.8c-.28754778.0164134-.55718828.1449504-.751.358-.26957151.3268402-.31200063.7852332-.107 1.156l2.688 4.486h-4.23-1.991-.009-.009zm3.232 8v-6h2v6zm42.768-8 2.69-4.49c.2379875-.3632083.1936106-.8426446-.107-1.156-.1777018-.2333151-.4579409-.3654118-.751-.354h-.792l3.192-5.113 3.2 5.113h-.8c-.3559906.0095944-.6809714.2048746-.8565533.514701-.1755819.3098263-.1761308.6889656-.0014467.999299l2.688 4.486h-4.23-1.991-.009-.009zm4.232 2h1v6h-2v-6zm5 35v.007c-.0002465.0566546-.0052642.1131877-.015.169-.1293952.5007595-.5901697.8437389-1.107.824h-21.878c-1.6146419.0034924-3.1613472-.6494807-4.285-1.809-.3990074-.3847991-1.0309926-.3847991-1.43 0-1.1236528 1.1595193-2.6703581 1.8124924-4.285 1.809h-22c-.29611721.0001806-.57708707-.1308856-.76722574-.3578938s-.26989095-.5266113-.21777426-.8181062c.12939515-.5007595.59016974-.8437389 1.107-.824h21.878c2.209139 0 4-1.790861 4-4v-1c0-1.1045695-.8954305-2-2-2h-5.12c-1.2926624.0023252-2.4397258-.8281955-2.841-2.057l-3.529-10.572c.2719421-.198098.5277441-.4174524.765-.656.5-.483.765-.715 1.365-.715s.865.233 1.363.718c.6828781.8115646 1.6893589 1.2800562 2.75 1.2800562s2.0671219-.4684916 2.75-1.2800562c.5-.484.765-.717 1.363-.717s.864.233 1.363.717c.6840142.814633 1.693279 1.2850592 2.757 1.2850592s2.0729858-.4704262 2.757-1.2850592c.5-.485.765-.718 1.363-.718s.865.233 1.363.718c.6830688.8112467 1.6894793 1.2795033 2.75 1.2795033s2.0669312-.4682566 2.75-1.2795033c.5-.485.765-.718 1.363-.718s.863.232 1.363.716c.2425161.2431603.5043766.4662266.783.667l-3.518 10.564c-.4025594 1.2268719-1.5487747 2.0554564-2.84 2.053h-5.12c-1.1045695 0-2 .8954305-2 2v1c0 2.209139 1.790861 4 4 4h22c.5463083.0031711.9902341.4417698 1 .988zm0-2.828c-.3211491-.1136977-.6593185-.1718628-1-.172h-22c-1.1045695 0-2-.8954305-2-2v-1h5.12c2.1540081.0039145 4.0662805-1.3777316 4.739-3.424l3.8-11.371c0-.009.01-.015.013-.024s0-.014 0-.021l1.371-4.107c.4022163-1.2258201 1.5468793-2.0541574 2.837-2.053l7.12-.0000012z"/></g></g></g></g></svg>