<svg height="512pt" viewBox="0 0 512.00049 512" width="512pt" xmlns="http://www.w3.org/2000/svg"><path d="m196.265625 156.84375v17.832031c1.285156 21.632813 18.1875 39.082031 39.765625 41.046875l34.21875 3.5c20.996094 2.164063 36.953125 19.851563 36.949219 40.957032v40.109374c0 8.53125-6.914063 15.445313-15.445313 15.445313h-267.773437c-8.53125 0-15.445313-6.914063-15.445313-15.445313v-40.109374c-.003906-21.105469 15.953125-38.792969 36.949219-40.957032l28.5-3.5c21.007813-2.207031 36.957031-19.921875 36.949219-41.046875v-17.832031zm0 0" fill="#a4c2f7"/><path d="m153.601562 8.535156h10.324219c27.632813.832032 49.558594 23.550782 49.40625 51.199219v6.3125c5.035157-2.558594 3.757813-2.984375 8.535157-1.023437 10.835937 4.695312 14.421874 20.738281 7.9375 35.839843-5.121094 11.949219-8.277344 19.882813-17.496094 20.308594-4.863282 29.101563-28.160156 58.027344-58.707032 58.027344-30.550781 0-53.847656-28.925781-58.710937-58.027344-9.214844-.425781-12.371094-8.359375-17.492187-20.308594-6.484376-15.101562-2.902344-31.144531 7.933593-35.839843 4.78125-1.960938 3.5-1.535157 8.535157 1.023437v-6.3125c-.152344-27.648437 21.773437-50.367187 49.40625-51.199219zm0 0" fill="#d4e1f4"/><path d="m307.199219 260.179688v40.109374c0 8.53125-6.914063 15.445313-15.445313 15.445313h-267.773437c-8.53125 0-15.445313-6.914063-15.445313-15.445313v-40.109374c-.003906-21.105469 15.953125-38.792969 36.949219-40.957032l21.84375-2.644531c14.421875 18.175781 47.617187 30.890625 86.273437 30.890625 38.996094 0 72.363282-12.972656 86.613282-31.320312l30.035156 3.074218c20.996094 2.164063 36.953125 19.851563 36.949219 40.957032zm0 0" fill="#d4e1f4"/><path d="m392.535156 156.84375v17.832031c1.28125 21.632813 18.183594 39.082031 39.765625 41.046875l34.21875 3.5c20.992188 2.164063 36.949219 19.851563 36.949219 40.957032v40.109374c0 4.09375-1.628906 8.023438-4.527344 10.921876-2.894531 2.894531-6.824218 4.523437-10.917968 4.523437h-267.777344c-8.53125 0-15.445313-6.914063-15.445313-15.445313v-40.109374c-.003906-21.105469 15.953125-38.792969 36.949219-40.957032l28.5-3.5c21.007812-2.207031 36.957031-19.921875 36.949219-41.046875v-17.832031zm0 0" fill="#a4c2f7"/><path d="m426.070312 100.863281c-5.121093 11.949219-8.277343 19.882813-17.492187 20.308594-4.867187 29.101563-28.160156 58.027344-58.710937 58.027344-3.304688.027343-6.597657-.347657-9.8125-1.109375-25.6875-5.289063-44.546876-31.058594-48.898438-56.917969-9.214844-.425781-12.371094-8.359375-17.492188-20.308594-6.484374-15.101562-2.902343-31.144531 7.9375-35.839843 4.777344-1.960938 3.496094-1.535157 8.53125 1.023437v-6.3125c-.152343-27.648437 21.773438-50.367187 49.410157-51.199219h20.648437c27.632813.832032 49.558594 23.550782 49.410156 51.199219v6.3125c5.035157-2.558594 3.753907-2.984375 8.53125-1.023437 10.839844 4.695312 14.421876 20.738281 7.9375 35.839843zm0 0" fill="#a4c2f7"/><path d="m406.359375 100.863281c-5.121094 11.949219-8.277344 19.882813-17.496094 20.308594-4.351562 25.859375-23.210937 51.542969-48.808593 56.917969-25.6875-5.289063-44.546876-31.058594-48.898438-56.917969-9.214844-.425781-12.371094-8.359375-17.492188-20.308594-6.484374-15.101562-2.902343-31.144531 7.9375-35.839843 4.777344-1.960938 3.496094-1.535157 8.53125 1.023437v-6.3125c-.152343-27.648437 21.773438-50.367187 49.410157-51.199219h.9375c27.632812.832032 49.558593 23.550782 49.40625 51.199219v6.3125c5.035156-2.558594 3.757812-2.984375 8.535156-1.023437 10.835937 4.695312 14.421875 20.738281 7.9375 35.839843zm0 0" fill="#d4e1f4"/><path d="m503.46875 260.179688v40.109374c0 4.09375-1.628906 8.023438-4.527344 10.921876-2.894531 2.894531-6.824218 4.523437-10.917968 4.523437h-267.777344c-8.53125 0-15.445313-6.914063-15.445313-15.445313v-40.109374c-.007812-20.609376 15.238281-38.046876 35.667969-40.789063.425781-.082031.855469-.082031 1.28125-.167969l21.84375-2.644531c12.800781 16.125 40.449219 27.988281 73.558594 30.375 4.097656.34375 8.363281.515625 12.714844.515625 37.203124 0 69.375-11.863281 84.480468-28.929688.800782-.710937 1.515625-1.511718 2.132813-2.390624l30.039062 3.074218c20.992188 2.164063 36.949219 19.851563 36.949219 40.957032zm0 0" fill="#d4e1f4"/><path d="m477.867188 260.179688v40.109374c0 4.09375-1.628907 8.023438-4.523438 10.921876-2.898438 2.894531-6.824219 4.523437-10.921875 4.523437h-267.777344c-8.527343 0-15.445312-6.914063-15.445312-15.445313v-40.109374c0-21.105469 15.957031-38.792969 36.949219-40.957032l21.847656-2.644531c.773437.976563 1.601562 1.917969 2.472656 2.8125 15.445312 16.640625 47.191406 28.078125 83.796875 28.078125 4.351563 0 8.707031-.171875 12.886719-.515625 4.097656.34375 8.363281.515625 12.714844.515625 37.203124 0 69.375-11.863281 84.480468-28.929688l6.570313.683594c20.992187 2.164063 36.949219 19.851563 36.949219 40.957032zm0 0" fill="#e3e7f2"/><path d="m303.105469 339.542969v2.730469c-.003907 24.128906 18.234375 44.359374 42.238281 46.847656l22.015625 4.09375c24.003906 2.488281 42.242187 22.71875 42.242187 46.847656v45.742188c.019532 4.6875-1.835937 9.195312-5.152343 12.511718-3.316407 3.316406-7.820313 5.171875-12.511719 5.152344h-271.875c-4.6875.019531-9.195312-1.835938-12.511719-5.152344-3.316406-3.316406-5.171875-7.824218-5.152343-12.511718v-45.742188c0-24.128906 18.238281-44.359375 42.242187-46.847656l22.015625-4.09375c24.003906-2.488282 42.242188-22.71875 42.238281-46.847656v-2.730469zm0 0" fill="#a4c2f7"/><path d="m409.601562 440.0625v45.742188c.019532 4.6875-1.835937 9.195312-5.152343 12.511718-3.316407 3.316406-7.820313 5.171875-12.511719 5.152344h-127.402344v-42.667969c9.414063-.027343 17.035156-7.652343 17.066406-17.066406v-8.535156c.003907-1.921875-.339843-3.832031-1.023437-5.632813-2.339844-6.746094-8.648437-11.3125-15.789063-11.433594l8.875-14.675781 9.644532 23.636719 6.824218 16.640625 56.320313-49.75 4.265625-3.839844 16.640625 3.070313c24.003906 2.488281 42.242187 22.71875 42.242187 46.847656zm0 0" fill="#7facfa"/><path d="m384 440.0625v45.742188c.019531 4.6875-1.832031 9.195312-5.152344 12.511718-3.316406 3.316406-7.820312 5.171875-12.511718 5.152344h-101.800782v-42.667969c9.414063-.027343 17.035156-7.652343 17.066406-17.066406v-8.535156c.003907-1.921875-.339843-3.832031-1.023437-5.632813l2.730469-2.472656 41.8125-36.949219 16.640625 3.070313c1.578125.167968 3.144531.421875 4.691406.769531 21.851563 4.523437 37.53125 23.765625 37.546875 46.078125zm0 0" fill="#a4c2f7"/><path d="m264.535156 460.800781v42.667969h-144.472656c-4.6875.019531-9.195312-1.835938-12.511719-5.152344-3.316406-3.316406-5.171875-7.824218-5.152343-12.511718v-45.742188c0-24.128906 18.238281-44.359375 42.242187-46.847656l16.640625-3.070313 60.585938 53.589844 16.46875-40.277344 8.875 14.675781c-9.3125.167969-16.785157 7.753907-16.8125 17.066407v8.535156c.03125 9.414063 7.65625 17.039063 17.070312 17.066406zm0 0" fill="#a4c2f7"/><path d="m238.933594 401.066406 17.066406 34.132813 17.066406-34.132813 17.066406 42.667969v59.734375h-68.265624v-59.734375zm0 0" fill="#d4e1f4"/><path d="m247.46875 418.132812h17.066406c9.425782 0 17.066406 7.640626 17.066406 17.066407v8.535156c0 9.425781-7.640624 17.066406-17.066406 17.066406h-17.066406c-9.425781 0-17.070312-7.640625-17.070312-17.066406v-8.535156c0-9.425781 7.644531-17.066407 17.070312-17.066407zm0 0" fill="#e3e7f2"/><path d="m285.441406 503.46875-16.214844-43.351562h-26.453124l-16.214844 43.351562zm0 0" fill="#d4e1f4"/><path d="m187.734375 290.988281c-.023437 37.703125 30.519531 68.285157 68.222656 68.308594s68.285157-30.523437 68.308594-68.226563c14.070313-6.285156 23.796875-19.511718 25.601563-34.8125 0-23.722656-14.335938-25.6875-25.601563-19.457031v-23.46875c0-28.277343-22.921875-51.199219-51.199219-51.199219h-34.132812c-28.277344 0-51.199219 22.921876-51.199219 51.199219v23.382813c-11.433594-6.144532-25.601563-4.011719-25.601563 19.285156 1.894532 15.3125 11.578126 28.550781 25.601563 34.988281zm0 0" fill="#d4e1f4"/><path d="m324.265625 213.332031v22.785157c-4.65625-4.175782-10.832031-6.246094-17.066406-5.71875-32.085938 0-34.132813-34.132813-34.132813-34.132813s-36.179687 34.132813-68.265625 34.132813c-6.234375-.527344-12.410156 1.542968-17.066406 5.71875v-22.785157c0-28.277343 22.921875-51.199219 51.199219-51.199219h34.132812c28.277344 0 51.199219 22.921876 51.199219 51.199219zm0 0" fill="#a4c2f7"/><path d="m350.71875 390.144531-60.585938 53.589844-17.066406-42.667969 44.375-25.003906c7.542969 7.402344 17.386719 12.007812 27.902344 13.058594zm0 0" fill="#d4e1f4"/><path d="m238.933594 401.066406-17.066406 42.667969-60.585938-53.589844 5.375-1.023437c10.515625-1.050782 20.359375-5.65625 27.902344-13.058594zm0 0" fill="#d4e1f4"/><path d="m23.980469 315.734375h25.597656c-8.53125 0-15.445313-6.914063-15.445313-15.445313v-40.109374c0-21.105469 15.957032-38.792969 36.949219-40.957032l28.503907-3.5c21.003906-2.207031 36.953124-19.921875 36.949218-41.046875v-17.808593c-8.273437-10.355469-13.792968-22.632813-16.042968-35.695313-9.21875-.425781-12.375-8.359375-17.496094-20.308594-6.484375-15.101562-2.898438-31.144531 7.9375-35.839843 4.777344-1.960938 3.5-1.535157 8.535156 1.023437v-6.3125c-.089844-26.664063 20.355469-48.90625 46.929688-51.0625-.851563-.042969-1.636719-.136719-2.472657-.136719h-20.652343c-27.632813.832032-49.558594 23.550782-49.40625 51.199219v6.3125c-5.035157-2.558594-3.753907-2.984375-8.535157-1.023437-10.835937 4.695312-14.417969 20.738281-7.933593 35.839843 5.121093 11.949219 8.277343 19.882813 17.492187 20.308594 2.253906 13.0625 7.773437 25.339844 16.042969 35.695313v17.808593c.007812 21.125-15.941406 38.839844-36.949219 41.046875l-28.5 3.5c-20.996094 2.164063-36.953125 19.851563-36.949219 40.957032v40.109374c0 4.09375 1.625 8.023438 4.523438 10.921876 2.894531 2.894531 6.824218 4.523437 10.921875 4.523437zm0 0" fill="#fff"/><path d="m467.378906 210.773438-34.175781-3.5c-17.214844-1.597657-30.78125-15.359376-32.136719-32.597657v-14.8125c6.945313-9.425781 11.957032-20.132812 14.746094-31.503906 9.265625-3.5 13.398438-13.140625 17.714844-23.246094l.382812-.851562c8.457032-19.703125 3.015625-40.363281-12.796875-47.214844-1.007812-.429687-2.035156-.808594-3.082031-1.136719-1.894531-30.800781-26.992188-55.0625-57.839844-55.910156h-20.648437c-30.839844.855469-55.921875 25.109375-57.816407 55.902344-1.199218.363281-2.382812.789062-3.539062 1.269531-15.402344 6.667969-20.847656 27.308594-12.390625 47.019531l.382813.898438c4.320312 10.101562 8.449218 19.746094 17.714843 23.242187 2.738281 11.121094 7.597657 21.605469 14.3125 30.882813-7.867187-3.695313-16.449219-5.609375-25.140625-5.613282h-34.132812c-12.214844-.003906-24.136719 3.761719-34.132813 10.785157v-4.523438c6.941407-9.425781 11.953125-20.132812 14.746094-31.503906 9.265625-3.5 13.394531-13.140625 17.714844-23.246094l.382812-.851562c8.457031-19.703125 3.011719-40.363281-12.800781-47.214844-1.003906-.429687-2.035156-.808594-3.078125-1.136719-1.894531-30.800781-26.992187-55.0625-57.839844-55.910156h-20.652343c-30.835938.871094-55.898438 25.152344-57.742188 55.945312-1.226562.339844-2.433594.75-3.609375 1.226563-15.363281 6.667969-20.847656 27.308594-12.390625 47.019531l.382812.898438c4.316407 10.101562 8.449219 19.746094 17.714844 23.242187 2.796875 11.382813 7.816406 22.097657 14.769532 31.53125v14.8125c.007812 16.832031-12.75 30.921875-29.496094 32.582031l-28.28125 3.515626c-25.382813 2.511718-44.699219 23.902343-44.621094 49.40625v40.109374c.0195312 13.234376 10.742188 23.960938 23.980469 23.976563h163.351562c3.394531 6.777344 7.773438 13.019531 12.988281 18.519531-.289062 19.800782-15.492187 36.183594-35.21875 37.945313l-21.332031 3.996093c-28.394531 2.863282-49.980469 26.800782-49.902343 55.335938v45.742188c.015624 14.460937 11.734374 26.179687 26.195312 26.195312h271.875c14.460938-.015625 26.183594-11.734375 26.195312-26.195312v-45.742188c.144532-28.289062-21.101562-52.117188-49.21875-55.207031l-22.699218-4.199219c-19.488282-1.972656-34.367188-18.292969-34.535156-37.878906 5.203124-5.503906 9.566406-11.738282 12.953124-18.511719h163.390626c13.234374-.015625 23.957031-10.742187 23.976562-23.976563v-40.109374c.082031-25.503907-19.238281-46.894532-44.621094-49.40625zm-48.988281 10.308593c-19.121094 11.480469-40.992187 17.578125-63.292969 17.636719-1.851562-4.359375-5.007812-8.039062-9.035156-10.527344-4.023438-2.285156-8.660156-3.257812-13.261719-2.78125v-12.078125c.011719-11.371093-3.25-22.507812-9.386719-32.082031 8.171876 4.242188 17.242188 6.464844 26.453126 6.484375 12.289062-.03125 24.261718-3.910156 34.234374-11.09375 1.722657 20.257813 15.132813 37.636719 34.289063 44.441406zm-85.734375 174.011719-38.257812 35.082031-10.035157-23.367187 32.136719-20.113282c4.875 3.6875 10.335938 6.527344 16.15625 8.398438zm-137.242188-8.441406 32.210938 20.15625-10.023438 23.367187-38.324218-35.082031c5.808594-1.902344 11.261718-4.753906 16.136718-8.441406zm69.121094 40.015625c4.710938 0 8.53125 3.820312 8.53125 8.53125v8.535156c0 4.710937-3.820312 8.53125-8.53125 8.53125h-17.066406c-4.714844 0-8.535156-3.820313-8.535156-8.53125v-8.535156c0-4.710938 3.820312-8.53125 8.535156-8.53125zm-16.09375 42.664062h15.121094l9.574219 25.601563h-34.269531zm20.699219-73.113281c-.238281.15625-.367187.429688-.585937.605469-.652344.484375-1.226563 1.058593-1.707032 1.707031-.15625.207031-.394531.316406-.523437.53125l-6.347657 10.539062h-7.953124l-6.390626-10.566406c-.128906-.210937-.367187-.324218-.519531-.527344-.484375-.652343-1.058593-1.226562-1.707031-1.707031-.222656-.179687-.351562-.453125-.589844-.605469l-35.40625-22.1875c3.925782-5.648437 6.765625-11.976562 8.371094-18.664062 24.574219 15.386719 55.773438 15.386719 80.34375 0 1.609375 6.695312 4.441406 13.035156 8.351562 18.699219zm52.96875-113.398438c-.199219.050782-.34375.1875-.53125.257813-.554687.195313-1.082031.457031-1.578125.773437-.457031.246094-.886719.53125-1.289062.855469-.394532.371094-.753907.78125-1.074219 1.21875-.34375.410157-.648438.847657-.90625 1.316407-.214844.472656-.390625.96875-.519531 1.476562-.179688.550781-.300782 1.125-.359376 1.703125 0 .191406-.117187.351563-.117187.539063-.011719 21.339843-11.40625 41.054687-29.894531 51.714843-18.484375 10.664063-41.257813 10.652344-59.730469-.027343-18.476563-10.679688-29.851563-30.40625-29.84375-51.746094 0-.171875-.09375-.316406-.101563-.488282-.058593-.5625-.175781-1.121093-.347656-1.664062-.457031-2.109375-1.820312-3.914062-3.730468-4.921875-.496094-.324219-1.027344-.597656-1.578126-.8125-.148437-.085937-.304687-.164063-.460937-.230469-10.34375-5.347656-17.535156-15.285156-19.378906-26.785156 0-6.742188 1.449219-11.628906 3.882812-13.089844.714844-.363281 1.507813-.546875 2.3125-.539062 1.238281 7.117187 3.707031 13.960937 7.304688 20.226562 1.417969 2.761719 4.226562 4.535156 7.328125 4.628906 3.105468.09375 6.015625-1.503906 7.601562-4.175781 1.582032-2.671875 1.589844-5.992187.019532-8.671875-2.113282-3.855468-3.785157-7.941406-4.976563-12.175781.148437-.171875.242187-.375.378906-.554687.132813-.179688.363281-.386719.5-.617188 5.960938-1.648438 12.136719-2.355469 18.3125-2.097656 22.964844 0 43.265625-14.746094 55.203125-25.710938 6.054688 15.964844 21.601563 26.304688 38.664063 25.710938 3.117187-.261719 6.25.140625 9.199219 1.175781.070312.15625.195312.257813.273437.402344.035156.140625.078125.28125.128906.417969l.085938.101562c-.179688 5.734375-1.589844 11.363281-4.140625 16.503906-1.703125 4.398438.480468 9.34375 4.878906 11.046875 4.394531 1.703125 9.339844-.480469 11.046875-4.875 2.957031-6.761719 4.742187-13.976562 5.28125-21.335937 1.160156-.195313 2.351563-.027344 3.414063.480468 2.472656 1.457032 3.949218 6.457032 3.949218 13.371094-1.824218 11.410156-8.953125 21.277344-19.207031 26.597656zm-30.550781-170.179687c-3.21875-.144531-4.847656-2.996094-9.660156-14.242187l-.390626-.914063c-4.855468-11.304687-2.21875-21.863281 3.359376-24.574219.417968.230469.855468.476563 1.390624.734375 2.644532 1.34375 5.800782 1.222657 8.332032-.328125 2.53125-1.546875 4.074218-4.300781 4.078125-7.269531v-6.3125c-.179688-22.945313 17.941406-41.863281 40.875-42.667969h20.648437c22.933594.804688 41.054688 19.722656 40.875 42.667969v6.3125c0 2.96875 1.542969 5.726563 4.074219 7.277344s5.6875 1.675781 8.332031.328125c.496094-.25.941406-.488282 1.402344-.734375 5.519531 2.558593 8.242188 13.175781 3.351562 24.585937l-.390624.902344c-4.8125 11.246094-6.445313 14.097656-9.660157 14.242188-4.015625.191406-7.351562 3.15625-8.011719 7.117187-4.21875 25.019531-24.152343 50.902344-50.296874 50.902344-26.144532 0-46.082032-25.882813-50.296876-50.902344-.65625-3.964844-3.996093-6.933594-8.011718-7.125zm-52.625 58.027344h34.132812c23.554688.027343 42.640625 19.113281 42.667969 42.664062v9.105469c-2.828125-.398438-5.679687-.589844-8.535156-.570312-23.039063 0-25.417969-23.398438-25.597657-26.136719 0-.0625 0-.113281 0-.171875-.105468-.914063-.355468-1.804688-.742187-2.636719-.042969-.171875-.09375-.339844-.15625-.503906-.445313-.824219-1.019531-1.570313-1.707031-2.210938-.125-.117187-.203125-.28125-.332032-.390625-.128906-.113281-.074218-.121094-.136718-.171875-.953125-.5-1.910156-1.003906-2.867188-1.5-.449218-.101562-.90625-.160156-1.363281-.179687-.570313-.148438-1.15625-.226563-1.742187-.230469-.066407 0-.121094.042969-.195313.050781-.582031.09375-1.152344.242188-1.707031.441406-.515625.109376-1.023438.261719-1.511719.460938-.328125.222656-.644531.464844-.945313.726562-.59375.382813-1.140624.832032-1.628906 1.339844 0 .050782-.105468.070313-.136718.121094-.257813.304688-25.601563 30.976562-53.113282 30.976562-5.714844-.082031-11.425781.335938-17.066406 1.246094v-9.765625c.027344-23.558593 19.125-42.644531 42.683594-42.664062zm-143.640625-58.027344c-3.21875-.144531-4.847657-2.996094-9.660157-14.242187l-.394531-.914063c-4.855469-11.304687-2.21875-21.863281 3.363281-24.574219.417969.230469.855469.476563 1.390626.734375 2.644531 1.34375 5.796874 1.222657 8.328124-.328125 2.53125-1.546875 4.078126-4.300781 4.078126-7.269531v-6.3125c-.179688-22.945313 17.945312-41.863281 40.875-42.667969h20.652343c22.933594.804688 41.054688 19.722656 40.875 42.667969v6.3125c0 2.96875 1.542969 5.726563 4.074219 7.277344s5.6875 1.675781 8.332031.328125c.496094-.25.9375-.488282 1.398438-.734375 5.523437 2.558593 8.246093 13.175781 3.355469 24.585937l-.394532.902344c-4.8125 11.246094-6.441406 14.097656-9.65625 14.242188-4.015625.191406-7.351562 3.15625-8.015625 7.117187-4.214843 25.019531-24.148437 50.902344-50.292969 50.902344-26.148437 0-46.082031-25.882813-50.296874-50.902344-.660157-3.964844-3.996094-6.933594-8.011719-7.125zm23.996093 63.929687c20.445313 14.84375 48.117188 14.84375 68.5625 0 .066407 1.71875.234376 3.425782.503907 5.121094-5.980469 9.46875-9.15625 20.441406-9.15625 31.640625v12.09375c-4.65625-.480469-9.34375.511719-13.40625 2.839844-4.011719 2.503906-7.148438 6.1875-8.976563 10.546875-1.074218 0-2.132812.121094-3.214844.121094-23.746093.632812-47.203124-5.351563-67.738281-17.289063 19.402344-6.644531 32.695313-24.566406 33.425781-45.0625zm-95.308593 130.628907c-1.835938 0-3.59375-.726563-4.890625-2.023438-1.292969-1.296875-2.023438-3.054687-2.023438-4.886719v-40.109374c-.039062-16.800782 12.714844-30.871094 29.441406-32.484376l17.613282-2.167968c17.695312 18.585937 51.933594 30.472656 89.480468 30.472656 1.769532 16.898438 11.378907 31.984375 25.949219 40.730469.289063 3.523437.824219 7.019531 1.59375 10.46875zm86.953125 178.605469v-45.742188c.035156-20.011719 15.332031-36.691406 35.269531-38.457031l12.414063-2.332031 56.320312 51.601562c1.574219 1.441406 3.628906 2.242188 5.761719 2.246094.601562 0 1.203125-.0625 1.789062-.1875.351563-.144532.695313-.308594 1.027344-.496094 1.695313 4.65625 4.710937 8.71875 8.675781 11.691406l-11.554687 30.804688h-100.574219c-2.425781.023437-4.765625-.929688-6.484375-2.644532-1.714844-1.71875-2.667969-4.058593-2.644531-6.484374zm290.132812-45.742188v45.742188c.027344 2.425781-.929687 4.765624-2.644531 6.484374-1.71875 1.714844-4.054687 2.667969-6.484375 2.644532h-100.574219l-11.53125-30.804688c3.96875-2.972656 6.984375-7.035156 8.679688-11.691406.332031.1875.671875.351562 1.023437.496094.589844.125 1.191406.1875 1.792969.1875 2.132813-.003906 4.1875-.804688 5.761719-2.246094l56.320312-51.589844 13.097656 2.421875c19.667969 2 34.613282 18.589844 34.558594 38.355469zm93.867188-139.773438c0 1.832032-.726563 3.589844-2.023438 4.886719s-3.054687 2.023438-4.886718 2.023438h-157.175782c.761719-3.398438 1.292969-6.84375 1.585938-10.316407 14.640625-8.625 24.285156-23.71875 25.964844-40.625 0-.222656 0-.394531 0-.617187 34.503906-1.644531 65.144531-13.140625 81.417968-30.574219l25.863282 2.644532c16.65625 1.683593 29.3125 15.730468 29.253906 32.46875zm0 0" fill="#428dff"/></svg>