<?xml version="1.0" encoding="iso-8859-1"?>
<!-- Generator: Adobe Illustrator 19.0.0, SVG Export Plug-In . SVG Version: 6.00 Build 0)  -->
<svg version="1.1" id="Capa_1" xmlns="http://www.w3.org/2000/svg" xmlns:xlink="http://www.w3.org/1999/xlink" x="0px" y="0px"
	 viewBox="0 0 512.058 512.058" style="enable-background:new 0 0 512.058 512.058;" xml:space="preserve">
<g transform="translate(0 -1)">
	<g transform="translate(0 2)">
		<path style="fill:#A4C2F7;" d="M460.829,135.562l42.667,51.2h-128c-4.707-0.014-8.519-3.826-8.533-8.533V84.362h136.533
			L460.829,135.562z"/>
		<g>
			<path style="fill:#E3E7F2;" d="M435.229,135.562l42.667,51.2h-102.4c-4.707-0.014-8.519-3.826-8.533-8.533V84.362h110.933
				L435.229,135.562z"/>
			<path style="fill:#E3E7F2;" d="M409.629,152.629h-102.4v-102.4h102.4c4.713,0,8.533,3.821,8.533,8.533v85.333
				C418.162,148.808,414.341,152.629,409.629,152.629z"/>
		</g>
		<path style="fill:#A4C2F7;" d="M247.495,472.117v21.845H8.562v-21.845c-0.001-13.325,6.998-25.67,18.432-32.512l36.693-21.931
			l11.776-7.083l11.861-7.083c1.421-0.81,2.394-2.224,2.645-3.84c0.071-0.279,0.099-0.566,0.085-0.853v-16.811
			c-0.016-1.145-0.405-2.254-1.109-3.157c-6.957-9.128-11.901-19.627-14.507-30.805c-0.742-4.005-2.675-7.693-5.547-10.581h-0.085
			c-3.803-3.839-5.948-9.017-5.973-14.421v-19.2c0.005-3.176,0.766-6.306,2.219-9.131l1.109-2.219
			c1.387-2.845,2.116-5.966,2.133-9.131v-27.648c0.007-11.51,4.588-22.545,12.734-30.676s19.191-12.69,30.701-12.674h32.597
			c11.51-0.016,22.554,4.543,30.701,12.674c8.147,8.131,12.728,19.166,12.734,30.676v27.648c0.017,3.165,0.746,6.286,2.133,9.131
			l1.109,2.219c1.453,2.825,2.214,5.954,2.219,9.131v19.2c-0.025,5.404-2.17,10.582-5.973,14.421h-0.085
			c-2.872,2.889-4.805,6.576-5.547,10.581c-2.605,11.178-7.549,21.677-14.507,30.805c-0.704,0.903-1.093,2.012-1.109,3.157v16.811
			c-0.014,0.259,0.015,0.518,0.085,0.768c0.214,1.652,1.194,3.107,2.645,3.925l22.955,13.739l37.376,22.357
			C240.497,446.446,247.497,458.792,247.495,472.117z"/>
		<path style="fill:#D4E1F4;" d="M221.895,472.117v21.845H8.562v-21.845c-0.001-13.325,6.998-25.67,18.432-32.512l36.693-21.931
			l11.776-7.083l11.861-7.083c1.421-0.81,2.394-2.224,2.645-3.84c0.071-0.279,0.099-0.566,0.085-0.853v-16.811
			c-0.016-1.145-0.405-2.254-1.109-3.157c-6.957-9.128-11.901-19.627-14.507-30.805c-0.742-4.005-2.675-7.693-5.547-10.581h-0.085
			c-3.803-3.839-5.948-9.017-5.973-14.421v-19.2c0.005-3.176,0.766-6.306,2.219-9.131l1.109-2.219
			c1.387-2.845,2.116-5.966,2.133-9.131v-27.648c0.007-11.51,4.588-22.545,12.734-30.676s19.191-12.69,30.701-12.674h6.997
			c11.51-0.016,22.554,4.543,30.701,12.674c8.147,8.131,12.728,19.166,12.734,30.676v27.648c0.017,3.165,0.746,6.286,2.133,9.131
			l1.109,2.219c1.453,2.825,2.214,5.954,2.219,9.131v19.2c-0.025,5.404-2.17,10.582-5.973,14.421h-0.085
			c-2.872,2.889-4.805,6.576-5.547,10.581c-2.605,11.178-7.549,21.677-14.507,30.805c-0.704,0.903-1.093,2.012-1.109,3.157v16.811
			c-0.014,0.259,0.015,0.518,0.085,0.768c0.214,1.652,1.194,3.107,2.645,3.925l22.955,13.739l37.376,22.357
			C214.897,446.446,221.897,458.792,221.895,472.117z"/>
		<path style="fill:#A4C2F7;" d="M247.495,478.589v23.906H8.562v-23.906c-0.203-14.198,6.717-27.555,18.432-35.579l36.693-24
			l11.776-7.751l11.861-7.751l27.563,15.596l12.629,7.097l27.307-15.035l13.909-7.658l22.955,15.035l37.376,24.466
			C240.778,451.035,247.698,464.391,247.495,478.589z"/>
		<path style="fill:#E3E7F2;" d="M221.895,478.589v23.906H8.562v-23.906c-0.203-14.198,6.717-27.555,18.432-35.579l36.693-24
			l11.776-7.751l26.453,14.941l12.971-7.097l12.629,7.097l27.307-15.035l11.264,7.378l37.376,24.466
			C215.178,451.034,222.098,464.391,221.895,478.589z"/>
		<g>
			<path style="fill:#FFFFFF;" d="M191.687,417.248l-1.024,1.621l-25.6,20.139c-4.794,3.748-11.186,4.749-16.896,2.645
				c-2.272-0.706-4.346-1.933-6.059-3.584l-14.592-13.824l34.133-24.149l4.437-0.512c0.214,1.652,1.194,3.107,2.645,3.925
				L191.687,417.248z"/>
			<path style="fill:#FFFFFF;" d="M127.517,424.245l-14.592,13.824c-1.712,1.651-3.787,2.878-6.059,3.584
				c-5.71,2.104-12.102,1.103-16.896-2.645l-25.6-20.139l-0.683-1.195l23.637-14.165c1.421-0.81,2.394-2.224,2.645-3.84l3.413,0.427
				L127.517,424.245z"/>
		</g>
		<g>
			<path style="fill:#E3E7F2;" d="M148.167,441.653l-12.117,18.176h-17.067l-12.117-18.176c2.272-0.706,4.346-1.933,6.059-3.584
				l14.592-13.824l14.592,13.824C143.821,439.72,145.896,440.947,148.167,441.653z"/>
			<polygon style="fill:#E3E7F2;" points="152.178,500.149 152.178,502.496 102.855,502.496 102.855,500.149 118.983,459.829 
				136.05,459.829 			"/>
			<path style="fill:#E3E7F2;" d="M298.84,502.496h-0.29c-9.346,0-16.922-7.576-16.922-16.922V24.484
				c0-9.346,7.576-16.922,16.922-16.922h0.29c9.346,0,16.922,7.576,16.922,16.922v461.09
				C315.762,494.92,308.186,502.496,298.84,502.496z"/>
		</g>
	</g>
	<path style="fill:#FFFFFF;" d="M34.162,495.962v-21.845c-0.001-13.325,6.998-25.67,18.432-32.512l36.693-21.931l11.776-7.083
		l11.861-7.083c1.421-0.81,2.394-2.224,2.645-3.84c0.071-0.279,0.099-0.566,0.085-0.853v-16.811
		c-0.016-1.145-0.405-2.254-1.109-3.157c-6.957-9.128-11.901-19.627-14.507-30.805c-0.742-4.005-2.675-7.693-5.547-10.581h-0.085
		c-3.803-3.839-5.948-9.017-5.973-14.421v-19.2c0.005-3.176,0.766-6.306,2.219-9.131l1.109-2.219
		c1.387-2.845,2.116-5.966,2.133-9.131v-27.648c0.007-11.51,4.588-22.545,12.734-30.676c8.147-8.131,19.191-12.69,30.701-12.674
		l-25.6,0c-11.51-0.016-22.554,4.543-30.701,12.674c-8.147,8.131-12.728,19.166-12.734,30.676v27.648
		c-0.017,3.165-0.746,6.286-2.133,9.131l-1.109,2.219c-1.453,2.825-2.214,5.954-2.219,9.131v19.2
		c0.025,5.404,2.17,10.582,5.973,14.421h0.085c2.871,2.889,4.805,6.576,5.547,10.581c2.605,11.178,7.549,21.677,14.507,30.805
		c0.704,0.903,1.093,2.012,1.109,3.157v16.811c0.014,0.287-0.015,0.575-0.085,0.853c-0.251,1.616-1.225,3.03-2.645,3.84
		l-11.861,7.083l-11.776,7.083l-36.693,21.931C15.56,448.446,8.56,460.792,8.562,474.117l0,30.379h25.6V495.962z"/>
	<g>
		<polygon style="fill:#FFFFFF;" points="290.162,26.484 290.162,137.417 290.162,487.574 273.095,487.574 273.095,137.417 
			273.095,26.484 		"/>
		<g>
			<path style="fill:#428DFF;" d="M273.095,487.574L273.095,487.574c0.065,14.094,11.508,25.485,25.602,25.484
				s25.536-11.394,25.598-25.487V163.162h34.133v17.067c0.011,9.421,7.645,17.056,17.067,17.067h128
				c3.312,0,6.325-1.916,7.729-4.916c1.404-2.999,0.946-6.54-1.175-9.084l-38.112-45.733l38.112-45.733
				c2.121-2.544,2.579-6.085,1.175-9.084c-1.404-2.999-4.417-4.916-7.729-4.916h-76.8V60.762
				c-0.011-9.421-7.645-17.056-17.067-17.067h-85.333V26.487C324.233,12.394,312.791,1.001,298.697,1
				c-14.094-0.001-25.537,11.39-25.601,25.484h-0.001v34.133c0,4.713,3.821,8.533,8.533,8.533s8.533-3.821,8.533-8.533v-34.13
				c0.078-4.657,3.876-8.392,8.533-8.392c4.658,0,8.455,3.735,8.533,8.392v461.083c-0.078,4.657-3.876,8.392-8.533,8.392
				c-4.658,0-8.455-3.735-8.533-8.392V128.884c0-4.713-3.82-8.533-8.533-8.533s-8.533,3.821-8.533,8.533V487.574z M485.274,94.896
				l-31,37.2c-2.638,3.167-2.638,7.766,0,10.933l31,37.2H375.495v-17.067h34.133c9.421-0.011,17.056-7.645,17.067-17.067v-51.2
				H485.274z M409.629,60.762l0.004,25.581l-0.004,0.019l0.004,0.019l0.009,59.715h-85.346V60.762H409.629z"/>
			<path style="fill:#428DFF;" d="M281.629,103.284c3.45-0.014,6.556-2.096,7.879-5.282c1.323-3.187,0.606-6.856-1.82-9.31
				l-1.279-1.025c-0.476-0.324-0.993-0.583-1.538-0.771c-0.484-0.245-1.002-0.417-1.537-0.508c-0.564-0.096-1.133-0.153-1.705-0.171
				c-2.259,0.031-4.423,0.915-6.059,2.475c-2.07,1.994-2.979,4.908-2.409,7.726s2.539,5.149,5.222,6.183
				C279.409,103.038,280.512,103.27,281.629,103.284z"/>
			<path style="fill:#428DFF;" d="M17.095,513.029h221.867c9.421-0.011,17.056-7.646,17.067-17.067v-21.875
				c-0.068-16.31-8.64-31.403-22.612-39.817l-58.842-35.233v-14.025c7.403-9.887,12.643-21.222,15.379-33.267
				c0.455-2.359,1.598-4.53,3.283-6.242c5.453-5.399,8.51-12.76,8.488-20.433v-19.258c-0.005-4.488-1.053-8.912-3.063-12.925
				l-1.112-2.225c-0.822-1.643-1.251-3.455-1.254-5.292v-27.567c-0.033-28.691-23.284-51.942-51.975-51.975h-32.7
				c-28.627,0.033-51.826,23.231-51.859,51.858v27.683c-0.003,1.833-0.43,3.641-1.246,5.283l-1.125,2.233
				c-2.006,4.014-3.053,8.438-3.058,12.925v19.258c-0.02,7.677,3.04,15.041,8.496,20.442c1.687,1.713,2.827,3.888,3.275,6.25
				c2.743,12.038,7.982,23.365,15.379,33.25v14.025l-58.85,35.242c-13.969,8.412-22.538,23.502-22.604,39.808v21.875
				C0.039,505.383,7.674,513.018,17.095,513.029z M127.517,437.999l8.682,8.223l-4.716,7.073h-7.933l-4.714-7.071L127.517,437.999z
				 M124.822,470.362h5.512l10.548,25.6H114.89L124.822,470.362z M238.962,474.087l0,21.875h-79.618l-13.672-33.183l6.416-9.623
				c0.689,0.054,1.371,0.19,2.062,0.19c5.879,0.014,11.588-1.973,16.188-5.633l22.606-17.779l31.698,18.979
				C233.539,454.173,238.987,463.751,238.962,474.087z M177.268,420.548l-17.531,13.789c-3.513,2.714-8.467,2.521-11.758-0.458
				l-7.042-6.675l21.939-15.522c0.455,0.404,0.938,0.776,1.444,1.114L177.268,420.548z M74.87,333.421
				c-2.227-2.207-3.477-5.215-3.471-8.35v-19.258c0.004-1.831,0.43-3.636,1.246-5.275l1.129-2.242
				c2.001-4.015,3.046-8.439,3.054-12.925v-27.683c0.022-19.206,15.586-34.769,34.792-34.792h32.7
				c19.271,0.021,34.888,15.637,34.909,34.908v27.567c0.008,4.49,1.056,8.917,3.063,12.933l1.117,2.233
				c0.819,1.638,1.247,3.444,1.25,5.275v19.258c0.005,3.139-1.248,6.15-3.479,8.358c-4.064,4.078-6.83,9.268-7.95,14.916
				c-2.354,9.96-6.795,19.308-13.029,27.425c-1.733,2.384-2.675,5.252-2.692,8.2v10.81c-0.268,0.102-0.531,0.218-0.788,0.348
				l-29.204,20.663l-28.967-20.494v-11.327c-0.017-2.952-0.962-5.823-2.7-8.208c-6.226-8.112-10.664-17.45-13.021-27.4
				C81.71,342.705,78.941,337.506,74.87,333.421z M91.624,412.862c0.393-0.228,0.692-0.551,1.056-0.81l21.415,15.152l-7.029,6.667
				c-3.312,3-8.302,3.179-11.821,0.425l-17.037-13.399L91.624,412.862z M17.095,474.087c-0.027-10.333,5.418-19.908,14.313-25.167
				l31.126-18.638l22.112,17.388c4.617,3.681,10.35,5.679,16.254,5.667c0.684,0,1.359-0.135,2.041-0.188l6.485,9.728l-12.837,33.085
				H17.095L17.095,474.087z"/>
		</g>
	</g>
</g>
<g>
</g>
<g>
</g>
<g>
</g>
<g>
</g>
<g>
</g>
<g>
</g>
<g>
</g>
<g>
</g>
<g>
</g>
<g>
</g>
<g>
</g>
<g>
</g>
<g>
</g>
<g>
</g>
<g>
</g>
</svg>
