<?xml version="1.0" encoding="iso-8859-1"?>
<!-- Generator: Adobe Illustrator 19.0.0, SVG Export Plug-In . SVG Version: 6.00 Build 0)  -->
<svg version="1.1" id="Capa_1" xmlns="http://www.w3.org/2000/svg" xmlns:xlink="http://www.w3.org/1999/xlink" x="0px" y="0px"
	 viewBox="0 0 512 512" style="enable-background:new 0 0 512 512;" xml:space="preserve">
<path style="fill:#EDF2FA;" d="M225.942,345.993H502v156H225.942c-43.078,0-78-34.922-78-78l0,0
	C147.942,380.915,182.863,345.993,225.942,345.993z"/>
<polygon style="fill:#FFB9B7;" points="434,460.993 400,441.993 366,460.993 366,345.993 434,345.993 "/>
<path style="fill:#FF5D5D;" d="M147.942,423.993L147.942,423.993c0-43.078,34.922-78,78-78H88c-43.078,0-78,34.922-78,78l0,0
	c0,43.078,34.922,78,78,78h137.942C182.863,501.993,147.942,467.071,147.942,423.993z"/>
<path style="fill:#FFFFFF;" d="M240.935,201.993H502v144H240.935c-39.764,0-72-32.235-72-72l0,0
	C168.935,234.228,201.171,201.993,240.935,201.993z"/>
<path style="fill:#FFC66C;" d="M168.935,273.993L168.935,273.993c0-39.765,32.235-72,72-72H136c-39.764,0-72,32.235-72,72l0,0
	c0,39.764,32.235,72,72,72h104.935C201.171,345.993,168.935,313.758,168.935,273.993z"/>
<path style="fill:#62CD4D;" d="M283.459,123.308l0.016-0.016c-0.043-0.244-5.7-56.762,25.701-87.58
	c31.42-30.82,86.966-25.354,87.21-25.332l0.008-0.008l-0.012,0.012l0.007-0.007l-0.009,0.009c0.044,0.47,6.988,58.162-24.362,88.928
	C340.542,130.21,283.459,123.308,283.459,123.308z"/>
<path style="fill:#A0E557;" d="M193.981,99.315c-31.35-30.766-24.406-88.458-24.362-88.928l-0.009-0.009l0.007,0.007l-0.012-0.012
	l0.008,0.008c0.245-0.023,55.791-5.488,87.21,25.332c31.401,30.818,25.744,87.336,25.701,87.58l0.016,0.016
	C282.541,123.308,225.458,130.21,193.981,99.315z"/>
<path d="M287.25,439.993h-61.321c-5.523,0-10,4.477-10,10s4.477,10,10,10h61.321c5.523,0,10-4.477,10-10
	S292.773,439.993,287.25,439.993z"/>
<path d="M324.97,439.993c-2.63,0-5.21,1.07-7.07,2.93c-1.86,1.86-2.93,4.44-2.93,7.07s1.07,5.21,2.93,7.07s4.44,2.93,7.07,2.93
	s5.21-1.07,7.07-2.93c1.86-1.86,2.93-4.44,2.93-7.07s-1.07-5.21-2.93-7.07C330.18,441.063,327.6,439.993,324.97,439.993z"/>
<path d="M502,191.993H293v-58.065c1.383,0.037,2.873,0.059,4.463,0.059c20.547,0,57.291-3.714,81.56-27.536
	c32.663-32.054,28.237-88.136,27.354-96.641c-0.136-2.401-1.135-4.762-2.987-6.577c-1.774-1.738-4.032-2.681-6.332-2.833
	c-4.974-0.435-61.507-4.566-94.886,28.174C293.475,37.11,287.329,47.256,283,57.71c-4.33-10.454-10.476-20.601-19.173-29.136
	c-33.22-32.585-89.379-28.645-94.786-28.181c-2.333,0.133-4.629,1.081-6.428,2.844c-1.808,1.771-2.8,4.063-2.972,6.407
	c-0.829,7.789-5.583,64.503,27.335,96.809c24.272,23.824,61.015,27.537,81.561,27.536c1.59,0,3.08-0.023,4.462-0.059v58.065h-17
	h-15.065H136c-45.215,0-82,36.785-82,82c0,24.84,11.118,47.119,28.621,62.169C36.594,338.952,0,377.276,0,423.993
	c0,48.523,39.477,88,88,88h414c5.523,0,10-4.477,10-10v-156v-144C512,196.47,507.523,191.993,502,191.993z M316.178,42.851
	c20.827-20.428,55.011-22.922,70.8-22.826c0.485,16.22-1.101,51.677-21.965,72.153c-20.913,20.527-55.972,22.156-71.965,21.711
	C292.886,98.095,295.147,63.493,316.178,42.851z M272.951,113.908c-15.959,0.468-50.961-1.114-71.964-21.729l0,0
	c-20.864-20.475-22.449-55.934-21.964-72.154C194.8,19.96,228.99,22.418,249.82,42.85C270.861,63.5,273.116,98.122,272.951,113.908z
	 M376,355.993h48v87.956l-19.122-10.686c-1.516-0.847-3.197-1.271-4.878-1.271s-3.362,0.423-4.878,1.271L376,443.949V355.993z
	 M492,355.993v32h-48v-32H492z M444,407.993h48v32h-48V407.993z M256,211.993h236v28H242c-5.523,0-10,4.477-10,10s4.477,10,10,10
	h250v76H240.935c-34.187,0-62-27.813-62-62s27.813-62,62-62L256,211.993L256,211.993z M74,273.993c0-34.187,27.813-62,62-62h51.361
	c-17.39,15.048-28.426,37.252-28.426,62s11.035,46.952,28.426,62H136C101.813,335.993,74,308.18,74,273.993z M88,491.993
	c-37.495,0-68-30.505-68-68s30.505-68,68-68h82.146c-19.65,16.152-32.205,40.637-32.205,68s12.555,51.848,32.205,68H88z
	 M256,491.993h-30.059c-37.495,0-68-30.505-68-68s30.505-68,68-68H356v32H225.929c-5.523,0-10,4.477-10,10s4.477,10,10,10H356v53
	c0,3.548,1.879,6.83,4.939,8.625s6.841,1.835,9.939,0.104L400,453.449l29.122,16.274c1.517,0.848,3.198,1.271,4.878,1.271
	c1.75,0,3.5-0.459,5.061-1.375c3.06-1.795,4.939-5.077,4.939-8.625v-1h48v32L256,491.993L256,491.993z"/>
<path d="M242,307.993h169.498c5.523,0,10-4.477,10-10s-4.477-10-10-10H242c-5.523,0-10,4.477-10,10S236.477,307.993,242,307.993z"/>
<path d="M456.5,307.993c2.63,0,5.21-1.07,7.07-2.93c1.87-1.86,2.93-4.44,2.93-7.07s-1.06-5.21-2.93-7.07
	c-1.86-1.86-4.44-2.93-7.07-2.93s-5.21,1.07-7.07,2.93c-1.86,1.86-2.93,4.44-2.93,7.07s1.07,5.21,2.93,7.07
	C451.29,306.923,453.87,307.993,456.5,307.993z"/>
<g>
</g>
<g>
</g>
<g>
</g>
<g>
</g>
<g>
</g>
<g>
</g>
<g>
</g>
<g>
</g>
<g>
</g>
<g>
</g>
<g>
</g>
<g>
</g>
<g>
</g>
<g>
</g>
<g>
</g>
</svg>
