<?xml version="1.0" encoding="iso-8859-1"?>
<!-- Generator: Adobe Illustrator 21.0.0, SVG Export Plug-In . SVG Version: 6.00 Build 0)  -->
<svg version="1.1" id="Capa_1" xmlns="http://www.w3.org/2000/svg" xmlns:xlink="http://www.w3.org/1999/xlink" x="0px" y="0px"
	 viewBox="0 0 512.152 512.152" style="enable-background:new 0 0 512.152 512.152;" xml:space="preserve">
<g transform="translate(-1)">
	<g transform="translate(2 1)">
		<path style="fill:#A4C2F7;" d="M366.042,260.777v14.677c0.023,1.358-0.495,2.669-1.439,3.646c-0.944,0.976-2.238,1.537-3.596,1.56
			H149.21c-1.358-0.022-2.651-0.583-3.596-1.56c-0.944-0.976-1.462-2.288-1.439-3.646v-15.701
			c-0.046-15.055,8.004-28.972,21.077-36.437l44.971-25.088c5.936-3.393,9.588-9.717,9.557-16.555v-13.739
			c-8.676-11.516-14.865-24.708-18.176-38.741c-4.171-2.962-6.525-7.863-6.229-12.971V95.486c-0.272-4.245,1.28-8.405,4.267-11.435
			V54.099c0,0-5.12-39.765,42.667-45.739c4.245-0.537,8.521-0.794,12.8-0.768c61.44,0,55.467,46.507,55.467,46.507v29.952
			c2.987,3.029,4.539,7.189,4.267,11.435v20.736c0.332,6.596-3.739,12.615-9.984,14.763c-3.385,10.993-8.42,21.409-14.933,30.891
			c-1.621,2.389-3.243,4.437-4.523,6.059v14.165c-0.035,7.086,3.881,13.602,10.155,16.896l48.128,24.661
			C357.495,230.873,366.121,245.195,366.042,260.777z"/>
		<g>
			<path style="fill:#E3E7F2;" d="M340.442,260.777v14.677c0.023,1.358-0.495,2.669-1.439,3.646
				c-0.944,0.976-2.238,1.537-3.596,1.56H149.21c-1.358-0.022-2.651-0.583-3.596-1.56c-0.944-0.976-1.462-2.288-1.439-3.646v-15.701
				c-0.046-15.055,8.004-28.972,21.077-36.437l44.971-25.088c5.936-3.393,9.588-9.717,9.557-16.555v-13.739
				c-8.676-11.516-14.865-24.708-18.176-38.741c-4.171-2.962-6.525-7.863-6.229-12.971V95.486c-0.272-4.245,1.28-8.405,4.267-11.435
				V54.099c0,0-5.12-39.765,42.667-45.739c47.787,5.973,42.667,45.739,42.667,45.739v29.952c2.987,3.029,4.539,7.189,4.267,11.435
				v20.736c0.332,6.596-3.739,12.615-9.984,14.763c-3.385,10.993-8.42,21.409-14.933,30.891c-1.621,2.389-3.243,4.437-4.523,6.059
				v14.165c-0.035,7.086,3.881,13.602,10.155,16.896l48.128,24.661C331.895,230.873,340.521,245.195,340.442,260.777z"/>
			<path style="fill:#E3E7F2;" d="M165.509,425.726c0,42.415-34.385,76.8-76.8,76.8c-4.287,0.005-8.568-0.337-12.8-1.024
				c-36.957-6.273-63.998-38.29-63.998-75.776s27.041-69.503,63.998-75.776c4.232-0.687,8.513-1.029,12.8-1.024
				C131.124,348.926,165.509,383.311,165.509,425.726z"/>
			<ellipse style="fill:#E3E7F2;" cx="75.909" cy="425.726" rx="64" ry="75.776"/>
		</g>
		<path style="fill:#A4C2F7;" d="M353.242,408.659c0.014,24.899-9.872,48.782-27.478,66.389
			c-17.606,17.606-41.49,27.491-66.389,27.478c-4.285,0.033-8.566-0.281-12.8-0.939c-46.442-6.371-81.05-46.051-81.05-92.928
			s34.608-86.557,81.05-92.928c4.234-0.658,8.515-0.972,12.8-0.939c24.899-0.014,48.782,9.872,66.389,27.478
			C343.37,359.877,353.256,383.76,353.242,408.659z"/>
		<ellipse style="fill:#E3E7F2;" cx="246.575" cy="408.659" rx="81.067" ry="92.928"/>
		<path style="fill:#A4C2F7;" d="M506.842,425.726c0.017,25.647-12.794,49.603-34.133,63.829
			c-5.076,3.463-10.585,6.246-16.384,8.277c-5.718,2.133-11.681,3.537-17.749,4.181c-5.668,0.683-11.398,0.683-17.067,0
			c-1.451-0.171-2.816-0.341-4.267-0.597c-4.598-0.762-9.113-1.962-13.483-3.584c-5.799-2.032-11.308-4.814-16.384-8.277
			c-26.18-17.477-39.045-49.16-32.46-79.942c6.585-30.781,31.287-54.428,62.327-59.664c4.232-0.687,8.513-1.029,12.8-1.024
			C472.457,348.926,506.842,383.311,506.842,425.726z"/>
		<path style="fill:#E3E7F2;" d="M481.242,425.726c0.017,25.647-12.794,49.603-34.133,63.829
			c-5.076,3.463-10.585,6.246-16.384,8.277c-4.37,1.622-8.884,2.822-13.483,3.584c-4.598-0.762-9.113-1.962-13.483-3.584
			c-5.799-2.032-11.308-4.814-16.384-8.277c-26.18-17.477-39.045-49.16-32.46-79.942c6.585-30.781,31.287-54.428,62.327-59.664
			C454.198,356.225,481.238,388.241,481.242,425.726z"/>
		<g>
			<path style="fill:#FFFFFF;" d="M37.509,425.726c0.008-37.346,26.86-69.281,63.65-75.699c-4.113-0.705-8.277-1.073-12.45-1.101
				c-4.287-0.005-8.568,0.337-12.8,1.024c-36.957,6.273-63.998,38.29-63.998,75.776s27.041,69.503,63.998,75.776
				c4.232,0.687,8.513,1.029,12.8,1.024c4.173-0.028,8.337-0.396,12.45-1.101C64.369,495.007,37.517,463.072,37.509,425.726z"/>
			<path style="fill:#FFFFFF;" d="M169.775,275.454v-15.701c-0.046-15.055,8.004-28.972,21.077-36.437l44.971-25.088
				c5.936-3.393,9.588-9.717,9.557-16.555v-13.739c-8.676-11.516-14.865-24.708-18.176-38.741
				c-4.171-2.962-6.525-7.863-6.229-12.971V95.486c-0.272-4.245,1.28-8.405,4.267-11.435V54.099c0,0-5.12-39.612,42.428-45.653
				c-4.165-0.546-8.36-0.831-12.561-0.853c-4.279-0.026-8.555,0.231-12.8,0.768c-47.787,5.973-42.667,45.739-42.667,45.739v29.952
				c-2.987,3.029-4.539,7.189-4.267,11.435v20.736c-0.295,5.108,2.058,10.008,6.229,12.971c3.311,14.033,9.5,27.226,18.176,38.741
				v13.739c0.031,6.837-3.621,13.162-9.557,16.555l-44.971,25.088c-13.073,7.466-21.123,21.383-21.077,36.437v15.701
				c-0.023,1.358,0.495,2.669,1.439,3.646c0.944,0.976,2.238,1.537,3.596,1.56h25.6c-1.358-0.022-2.651-0.583-3.596-1.56
				C170.27,278.123,169.752,276.812,169.775,275.454z"/>
		</g>
	</g>
	<g>
		<path style="fill:#FFFFFF;" d="M151.594,276.488c-0.307,0-0.247,0.077-0.384,0.264v-0.119
			c-0.949,16.508-14.856,29.266-31.385,28.792c-16.528-0.475-29.681-14.01-29.681-30.545c0-16.535,13.152-30.071,29.681-30.545
			c16.528-0.475,30.436,12.284,31.385,28.792h211.789v17.067H153.599c-1.781,0.082-3.566-0.027-5.325-0.324
			c-6.226-1.442-10.634-6.989-10.633-13.38H151.594z"/>
		<g>
			<path style="fill:#428DFF;" d="M208.221,289.51c3.183,1.288,6.825,0.586,9.301-1.792c0.771-0.816,1.38-1.772,1.792-2.816
				c0.437-1.026,0.669-2.128,0.683-3.243c0.02-3.467-2.059-6.601-5.261-7.931c-3.202-1.329-6.89-0.59-9.331,1.872l-1.024,1.28
				c-0.323,0.476-0.581,0.992-0.768,1.536c-0.247,0.484-0.419,1.001-0.512,1.536c-0.095,0.564-0.152,1.135-0.171,1.707
				c0.033,2.259,0.917,4.422,2.475,6.059C206.221,288.489,207.177,289.098,208.221,289.51z"/>
			<path style="fill:#428DFF;" d="M83.029,406.818h20.48c4.713,0,8.533-3.821,8.533-8.533c0-4.713-3.821-8.533-8.533-8.533h-5.12
				v-5.692c0-4.713-3.82-8.533-8.533-8.533c-4.713,0-8.533,3.821-8.533,8.533v5.871c-11.944,1.194-20.899,11.472-20.448,23.467
				c0.452,11.995,10.154,21.57,22.154,21.863h6.827c2.916,0.299,5.134,2.756,5.134,5.687s-2.217,5.388-5.134,5.687h-20.48
				c-4.713,0-8.533,3.821-8.533,8.533c0,4.713,3.82,8.533,8.533,8.533h11.947v5.692c0,4.713,3.821,8.533,8.533,8.533
				c4.713,0,8.533-3.821,8.533-8.533v-7.45c8.329-3.65,13.694-11.899,13.653-20.992c0.142-12.405-9.782-22.585-22.187-22.758h-6.827
				c-2.916-0.299-5.134-2.756-5.134-5.687S80.112,407.117,83.029,406.818z"/>
			<path style="fill:#428DFF;" d="M282.709,401.126h-17.067v-34.133c0-4.713-3.82-8.533-8.533-8.533s-8.533,3.82-8.533,8.533v42.667
				c0,4.713,3.821,8.533,8.533,8.533h25.6c4.713,0,8.533-3.821,8.533-8.533C291.242,404.947,287.421,401.126,282.709,401.126z"/>
			<path style="fill:#428DFF;" d="M436.309,341.828v-68.702c0-9.426-7.641-17.067-17.067-17.067h-43.059
				c-1.734-16.643-11.737-31.291-26.607-38.963l-48.162-24.704c-3.418-1.825-5.544-5.393-5.521-9.267v-11.187
				c0.964-1.246,1.988-2.645,3.055-4.181c6.267-9.138,11.27-19.081,14.874-29.559c7.375-4.382,11.798-12.416,11.554-20.992V96.486
				c0.164-5.199-1.33-10.316-4.267-14.609V55.526c1.014-13.242-3.215-26.352-11.776-36.506
				c-11.085-12.57-28.655-18.961-52.224-18.961s-41.148,6.391-52.233,18.995c-8.556,10.142-12.782,23.241-11.767,36.471v26.377
				c-2.931,4.286-4.425,9.393-4.267,14.583v20.693c-0.187,6.66,2.386,13.101,7.108,17.801c3.522,13.198,9.393,25.654,17.331,36.77
				v10.923c0.039,3.755-1.955,7.238-5.214,9.105l-44.988,25.165c-14.298,8.114-23.691,22.74-25.122,39.117H94.975
				c-9.426,0-17.067,7.641-17.067,17.067v68.702c-41.919,4.16-74.531,38.286-76.785,80.35s26.524,79.48,67.759,88.096
				c41.234,8.615,82.586-14.148,97.363-53.596c17.53,34.029,52.601,55.414,90.88,55.414s73.35-21.385,90.88-55.414
				c7.631,20.194,22.604,36.764,41.924,46.396c0.232,0.13,0.471,0.247,0.717,0.35c23.437,11.514,50.888,11.514,74.325,0
				c0.245-0.103,0.485-0.22,0.717-0.35c34.096-16.862,52.895-54.273,46.076-91.695C504.947,373.957,474.161,345.581,436.309,341.828
				z M419.242,341.828c-26.251,2.681-49.784,17.356-63.744,39.748c-11.725-40.883-47.478-70.279-89.856-73.882v-17.502h97.357
				c7.531-0.042,13.605-6.174,13.577-13.705v-3.362h42.667V341.828z M137.642,273.126v3.362c-0.002,3.797,1.567,7.427,4.335,10.027
				c2.125,2.001,4.84,3.262,7.74,3.593l1.442,0.085h26.172c4.713,0,8.533-3.821,8.533-8.533s-3.82-8.533-8.533-8.533h-22.622V260.77
				c-0.08-11.966,6.31-23.041,16.708-28.962l44.988-25.165c8.636-4.885,13.966-14.048,13.943-23.97v-13.756
				c-0.006-1.958-0.68-3.854-1.911-5.376c-7.867-10.472-13.501-22.446-16.555-35.183c-0.483-2.151-1.779-4.032-3.618-5.248
				c-1.7-1.467-2.579-3.671-2.355-5.905V96.486c-0.207-1.874,0.347-3.752,1.536-5.214c1.741-1.614,2.73-3.881,2.731-6.255V55.151
				c0-0.324,0-0.708-0.06-1.033c-0.617-8.657,2.134-17.217,7.68-23.893c7.74-8.704,20.966-13.099,39.313-13.099
				s31.573,4.395,39.253,13.039c5.555,6.673,8.321,15.232,7.723,23.893c-0.044,0.362-0.067,0.727-0.068,1.092v29.892
				c0,2.374,0.99,4.641,2.731,6.255c1.192,1.452,1.754,3.32,1.562,5.188v20.693c0.258,2.845-1.358,5.529-3.994,6.63
				c-2.652,0.84-4.728,2.919-5.564,5.572c-3.154,10.192-7.823,19.852-13.85,28.655c-1.25,1.836-2.591,3.607-4.019,5.308
				c-1.325,1.545-2.054,3.512-2.057,5.547v14.208c-0.066,10.286,5.654,19.736,14.797,24.448l48.171,24.704
				c11.004,5.714,17.855,17.136,17.715,29.534v11.341H245.597c-4.713,0-8.533,3.82-8.533,8.533s3.821,8.533,8.533,8.533h2.978
				v17.502c-42.378,3.602-78.131,32.999-89.856,73.882c-13.96-22.392-37.493-37.067-63.744-39.748v-68.702H137.642z M86.442,494.993
				c-37.703,0-68.267-30.564-68.267-68.267s30.564-68.267,68.267-68.267s68.267,30.564,68.267,68.267
				C154.666,464.411,124.127,494.95,86.442,494.993z M257.109,494.993c-47.128,0-85.333-38.205-85.333-85.333
				s38.205-85.333,85.333-85.333s85.333,38.205,85.333,85.333C342.39,456.766,304.215,494.941,257.109,494.993z M470.442,479.931
				v-44.672c0-4.713-3.821-8.533-8.533-8.533c-4.713,0-8.533,3.82-8.533,8.533v54.707c-5.472,2.214-11.209,3.706-17.067,4.437
				v-59.145c0-4.713-3.821-8.533-8.533-8.533s-8.533,3.82-8.533,8.533v59.145c-5.857-0.732-11.595-2.223-17.067-4.437v-29.107
				c0-4.713-3.82-8.533-8.533-8.533s-8.533,3.82-8.533,8.533v19.072c-22.628-18.117-31.348-48.549-21.747-75.9
				c9.6-27.351,35.427-45.657,64.414-45.657s54.814,18.306,64.414,45.657C501.789,431.383,493.07,461.814,470.442,479.931z"/>
			<path style="fill:#428DFF;" d="M455.876,386.56l-11.034,11.034l-11.034-11.034c-3.332-3.331-8.734-3.331-12.066,0l-34.133,34.133
				c-2.218,2.143-3.108,5.315-2.327,8.299c0.781,2.983,3.111,5.314,6.094,6.094c2.983,0.781,6.156-0.109,8.299-2.327l28.1-28.1
				l11.034,11.034c3.332,3.331,8.734,3.331,12.066,0l17.067-17.067c3.234-3.348,3.188-8.671-0.104-11.962
				C464.546,383.372,459.224,383.326,455.876,386.56z"/>
		</g>
	</g>
</g>
<g>
</g>
<g>
</g>
<g>
</g>
<g>
</g>
<g>
</g>
<g>
</g>
<g>
</g>
<g>
</g>
<g>
</g>
<g>
</g>
<g>
</g>
<g>
</g>
<g>
</g>
<g>
</g>
<g>
</g>
</svg>
