<svg height="512" viewBox="0 0 52 60" width="512" xmlns="http://www.w3.org/2000/svg"><g id="Page-1" fill="none" fill-rule="evenodd"><g id="031---World-Location" fill-rule="nonzero" transform="translate(0 -1)"><path id="Shape" d="m31.55 58.72c-5.7046314 1.9876257-11.9623791 1.6499516-17.42-.94l.82-.47c2.6204854-1.4926723 5.6753646-2.0365468 8.65-1.54.9287249.152039 1.8376499.4069405 2.71.76l3.69 1.47s.68.3 1.55.72z" fill="#e8edfc"/><path id="Shape" d="m47 37c.00379 4.6367942-1.3978155 9.165863-4.02 12.99-1.0150946-.8791914-2.2747291-1.4270103-3.61-1.57-.7439861-.1909337-1.5159252-.2484906-2.28-.17-1.122298.2994557-2.1707948.8271083-3.08 1.55-1.15.73-2.55 1.45-2.68 2.97-.1322689 1.4336699.7956242 2.7513628 2.19 3.11l2.61.65c-1.4356071.9068911-2.9728159 1.6419319-4.58 2.19-.87-.42-1.55-.72-1.55-.72l-3.69-1.47c-.8723501-.3530595-1.7812751-.607961-2.71-.76-2.9746354-.4965468-6.0295146.0473277-8.65 1.54l-.82.47c-1.0913031-.5223563-2.1410343-1.1274561-3.14-1.81.6501455-.7071159 1.1592652-1.5318898 1.5-2.43.6753953-1.8878879.8240446-3.9240375.43-5.89-.92-4.15-5.62-5.74-7.2-9.46-.62-1.45.48-3.2 2.14-2.54.57939027.2956488 1.13445857.6367149 1.66 1.02.8349584.4903098 1.8881045.402214 2.63-.22.3453943-.3924711.5152112-.9091481.47-1.43-.04-.77-.38-1.48-.41-2.25-.03-1.09.8-1.68 1.45-2.42 1-1.14 2.9-2.6 2.11-4.33-.49-1.08-1.81-1.32-2.81-1.73-1.0125279-.3887858-1.9867196-.87086-2.91-1.44-.89-.58-1.74-1.21-2.59-1.83 1.22292964-1.2630062 2.5849389-2.3834769 4.06-3.34l1.92 1.28c1.7834776 1.1854715 3.8784804 1.8153643 6.02 1.81.5895816.0034995 1.1783859-.0433372 1.76-.14l2.13-.36c.4918204 2.8919642 1.4332105 5.6891412 2.79 8.29-.0880122.0220795-.1747993.0487833-.26.08-1.8057166.6101097-3.3042304 1.8971108-4.18 3.59-.99 2.2-.01 3.29 1.45 4.84 1.3043564 1.4309579 2.1658051 3.2094326 2.48 5.12.31 1.76-.34 3.95 2.05 4.43 2.47.5 3.12-2.24 3.53-4.06.3460916-1.7999851.803639-3.5767384 1.37-5.32 1.3569383 1.3840518 2.8363002 2.6425135 4.42 3.76 3.6234747-2.6083946 6.7382556-5.8587481 9.19-9.59.03-.04.06-.09.09-.13.4790819 1.8688982.7209837 3.7906739.72 5.72z" fill="#a4c2f7"/><g fill="#7facfa"><path id="Shape" d="m34 41s.583-.39 1.5-1.13c-1.0198435-.8239812-1.9949019-1.7019009-2.921-2.63-.2529334.7094796-.4682331 1.4318183-.645 2.164 1.243 1.046 2.066 1.596 2.066 1.596z"/><path id="Shape" d="m9.15 36.45.01-.013c-.40252897-.3101376-.83859104-.5741229-1.3-.787-.71580664-.3397408-1.57259936-.0853333-1.987.59.213.149.424.3.647.43.83495836.4903098 1.88810447.402214 2.63-.22z"/><path id="Shape" d="m23.14 28.56c-.0880122.0220795-.1747993.0487833-.26.08-1.8057166.6101097-3.3042304 1.8971108-4.18 3.59-.99 2.2-.01 3.29 1.45 4.84 1.3043564 1.4309579 2.1658051 3.2094326 2.48 5.12.31 1.76-.34 3.95 2.05 4.43.6799292.1756621 1.4028032.008845 1.937-.447-1.113-.854-.736-2.559-.987-3.983-.3141949-1.9105674-1.1756436-3.6890421-2.48-5.12-1.46-1.55-2.44-2.64-1.45-4.84.8757696-1.6928892 2.3742834-2.9798903 4.18-3.59.0852007-.0312167.1719878-.0579205.26-.08-1.3567895-2.6008588-2.2981796-5.3980358-2.79-8.29l-2.13.36c-.256.044-.515.073-.774.1.5092386 2.7279695 1.4169529 5.3662037 2.694 7.83z"/><path id="Shape" d="m10.44 18.96c1.7834776 1.1854715 3.8784804 1.8153643 6.02 1.81.5019054-.0010141 1.0031263-.037102 1.5-.108-.3844447-.048532-.7657514-.1193175-1.142-.212-1.2047162-.2964056-2.3485158-.800625-3.38-1.49l-1.92-1.28c-.5.324-.98.673-1.451 1.032z"/><path id="Shape" d="m46.28 31.28c-.03.04-.06.09-.09.13-.7180262 1.0922037-1.4955318 2.144123-2.329 3.151.5484236 4.9415291-.5406772 9.9264486-3.1 14.189.829021.2257361 1.5899536.6515287 2.216 1.24 3.7420876-5.4708276 4.944665-12.2890771 3.3-18.71z"/><path id="Shape" d="m31.33 52.77c.13-1.52 1.53-2.24 2.68-2.97.7533198-.547024 1.566987-1.0056974 2.425-1.367l-.065-.013c-.7439861-.1909337-1.5159252-.2484906-2.28-.17-1.122298.2994557-2.1707948.8271083-3.08 1.55-1.15.73-2.55 1.45-2.68 2.97-.1322689 1.4336699.7956242 2.7513628 2.19 3.11l2.61.65c-.9428747.5905463-1.9290139 1.1090215-2.95 1.551.256.115.764.346 1.37.639 1.6071841-.5480681 3.1443929-1.2831089 4.58-2.19l-2.61-.65c-1.3943758-.3586372-2.3222689-1.6763301-2.19-3.11z"/><path id="Shape" d="m12.6 56.975c.5.284 1.007.554 1.528.8l.82-.47c1.5353598-.8696752 3.2299707-1.4216225 4.983-1.623-2.5172867-.2869911-5.0637848.1621457-7.331 1.293z"/></g><path id="Shape" d="m13.66 30.35c-.65.74-1.48 1.33-1.45 2.42.03.77.37 1.48.41 2.25.0452112.5208519-.1246057 1.0375289-.47 1.43-.7418955.622214-1.7950416.7103098-2.63.22-.52554143-.3832851-1.08060973-.7243512-1.66-1.02-1.66-.66-2.76 1.09-2.14 2.54 1.58 3.72 6.28 5.31 7.2 9.46.3940446 1.9659625.2453953 4.0021121-.43 5.89-.3407348.8981102-.8498545 1.7228841-1.5 2.43-5.58191093-3.8285612-9.19400225-9.9214999-9.87419235-16.65596-.6801901-6.73446 1.64058727-13.4266269 6.34419235-18.29404.85.62 1.7 1.25 2.59 1.83.9232804.56914 1.8974721 1.0512142 2.91 1.44 1 .41 2.32.65 2.81 1.73.79 1.73-1.11 3.19-2.11 4.33z" fill="#cad9fc"/><path id="Shape" d="m23.35 20.27-2.13.36c-.5816141.0966628-1.1704184.1434995-1.76.14-2.1415196.0053643-4.2365224-.6245285-6.02-1.81l-1.92-1.28c3.4716808-2.2470979 7.487195-3.5118812 11.62-3.66-.0920935.6560005-.138871 1.3175677-.14 1.98-.0022749 1.4305896.1147977 2.8588757.35 4.27z" fill="#cad9fc"/><path id="Shape" d="m42.98 49.99c-1.8015668 2.6344402-4.1350087 4.8622811-6.85 6.54l-2.61-.65c-1.3943758-.3586372-2.3222689-1.6763301-2.19-3.11.13-1.52 1.53-2.24 2.68-2.97.9092052-.7228917 1.957702-1.2505443 3.08-1.55.7640748-.0784906 1.5360139-.0209337 2.28.17 1.3352709.1429897 2.5949054.6908086 3.61 1.57z" fill="#cad9fc"/><path id="Shape" d="m32.58 37.24c-.566361 1.7432616-1.0239084 3.5200149-1.37 5.32-.41 1.82-1.06 4.56-3.53 4.06-2.39-.48-1.74-2.67-2.05-4.43-.3141949-1.9105674-1.1756436-3.6890421-2.48-5.12-1.46-1.55-2.44-2.64-1.45-4.84.8757696-1.6928892 2.3742834-2.9798903 4.18-3.59.0852007-.0312167.1719878-.0579205.26-.08.42.81.86 1.58 1.32 2.31.11.19.23.36.35.54 1.3855649 2.1019894 2.9840035 4.0556365 4.77 5.83z" fill="#cad9fc"/><path id="Shape" d="m27.81 31.41c-.12-.18-.24-.35-.35-.54-.46-.7333333-.9-1.5033333-1.32-2.31-.0880122.0220795-.1747993.0487833-.26.08-.7413401.2776421-1.4411732.6554847-2.08 1.123.2173333.3786667.4386667.7476667.664 1.107.11.19.23.36.35.54 1.3855649 2.1019894 2.9840035 4.0556365 4.77 5.83-.566361 1.7432616-1.0239084 3.5200149-1.37 5.32-.271 1.2-.652 2.809-1.593 3.613.3154121.2284642.6791026.381399 1.063.447 2.47.5 3.12-2.24 3.53-4.06.3460916-1.7999851.803639-3.5767384 1.37-5.32-1.7873912-1.7741672-3.3871759-3.7278213-4.774-5.83z" fill="#a4c2f7"/><path id="Shape" d="m49.76 10.25c-2.2598941-5.02077755-7.2540642-8.24961694-12.76-8.24961694s-10.5001059 3.22883939-12.76 8.24961694c-.5462078 1.197173-.9166967 2.4669398-1.1 3.77-.0920935.6560005-.138871 1.3175677-.14 1.98-.0022749 1.4305896.1147977 2.8588757.35 4.27.4918204 2.8919642 1.4332105 5.6891412 2.79 8.29.42.81.86 1.58 1.32 2.31.11.19.23.36.35.54 1.3855649 2.1019894 2.9840035 4.0556365 4.77 5.83 1.3569383 1.3840518 2.8363002 2.6425135 4.42 3.76 3.6234747-2.6083946 6.7382556-5.8587481 9.19-9.59.03-.04.06-.09.09-.13.09-.13.18-.27.26-.41 2.8666459-4.4334622 4.4134684-9.5906932 4.46-14.87.0047019-1.9835079-.4182379-3.9447208-1.24-5.75zm-12.76 14.75c-4.9705627 0-9-4.0294373-9-9s4.0294373-9 9-9 9 4.0294373 9 9c0 2.3869484-.9482116 4.6761336-2.636039 6.363961s-3.9770126 2.636039-6.363961 2.636039z" fill="#e8edfc"/><path id="Shape" d="m49.76 10.25c-2.4606114-5.54296808-8.2343796-8.84729643-14.26-8.161 4.9362451.52778874 9.222189 3.63414646 11.26 8.161.8217621 1.8052792 1.2447019 3.7664921 1.24 5.75-.0465316 5.2793068-1.5933541 10.4365378-4.46 14.87-.08.14-.17.28-.26.41-.03.04-.06.09-.09.13-2.1174234 3.1952575-4.7106876 6.0481854-7.69 8.46.916.738 1.5 1.13 1.5 1.13 3.6234747-2.6083946 6.7382556-5.8587481 9.19-9.59.03-.04.06-.09.09-.13.09-.13.18-.27.26-.41 2.8666459-4.4334622 4.4134684-9.5906932 4.46-14.87.0047019-1.9835079-.4182379-3.9447208-1.24-5.75z" fill="#cad9fc"/><circle id="Oval" cx="37" cy="16" fill="#e8edfc" r="9"/><path id="Shape" d="m37 7c-.5028835.00322243-1.0046224.04837892-1.5.135 4.3297277.72670886 7.5010833 4.4747098 7.5010833 8.865s-3.1713556 8.1382911-7.5010833 8.865c3.3570875.5877651 6.7581917-.7711782 8.7859125-3.5104942 2.0277208-2.7393161 2.334161-6.389019.7916126-9.4281058-1.5425485-3.0390868-4.6694296-4.94613967-8.0775251-4.9264z" fill="#cad9fc"/><path id="Shape" d="m23.14 14.02c-12.3534127.4720641-22.12807118 10.6175768-22.14 22.98.00812455 6.3561182 2.64202111 12.4264468 7.27835862 16.7743979 4.63633748 4.347951 10.86308668 6.587124 17.20664138 6.1876021-11.8010072-.7912635-21.07968064-10.4008868-21.45704445-22.22237-.37736382-11.8214833 8.26952915-22.0033241 19.99604445-23.54563z" fill="#fff"/><path id="Shape" d="m1.458 28.826 1.88.682c-.86922686 2.4029605-1.32173035 4.9367095-1.338 7.492h-2c.01591417-2.7879109.50903822-5.5525172 1.458-8.174z" fill="#fff"/><path id="Shape" d="m1.381 34.019c-.55228473.0027614-1.00223852-.4427153-1.00499994-.995-.00276143-.5522847.44271521-1.0022385.99499994-1.005h.01c.55228473 0 .99999994.4477153.99999994 1s-.44771521 1-.99999994 1z" fill="#428dff"/><path id="Shape" d="m52 16c.0069946-2.125102-.4460432-4.2265421-1.328-6.16-2.4202956-5.37919036-7.7699575-8.83923665-13.6685606-8.84053111-5.8986031-.00129445-11.2497831 3.45640354-13.6724394 8.83453111-.4721646 1.0409968-.8205467 2.1338022-1.038 3.256-2.0935075.1652292-4.159799.5798303-6.155 1.235-1.7520699.6298379-3.4289658 1.4518522-5 2.451-.1118035.0469918-.2136216.1148706-.3.2-.327.213-.656.421-.973.649-1.03816646.7687531-2.01448888 1.6176855-2.92 2.539-.11541459.0689268-.21574708.1604164-.295.269-.019.027-.023.058-.04.086-2.28125339 2.3775292-4.03722374 5.2080689-5.154 8.308-.09918448.2491842-.09100129.5282765.02261278.7712212.11361406.2429448.32256105.4281491.57738722.5117788.51719589.1665978 1.07510343-.0955358 1.277-.6.94446468-2.6365396 2.39726072-5.0620567 4.276-7.139.613.446 1.239.9 1.892 1.322.9744307.6047743 2.0040443 1.1157305 3.075 1.526.214.088.442.169.673.25.839.3 1.4.524 1.606.97.349.763-.344 1.568-1.36 2.623-.212.22-.415.431-.591.631-.116.133-.239.259-.361.386-.8214027.6740491-1.3093276 1.6717953-1.337 2.734.0301036.4564201.108884.9083179.235 1.348.0860567.2939386.1446413.5952312.175.9.0291198.2489383-.0385446.499547-.189.7-.416754.2875564-.9619716.3089756-1.4.055-.182-.107-.356-.23-.529-.351-.39231772-.2955998-.81870123-.5430365-1.27-.737-.97772302-.4331802-2.12156828-.2148496-2.871.548-.82678654.8930798-1.0455154 2.1913161-.557 3.306.88149076 1.7564087 2.13363665 3.3006082 3.67 4.526 1.562 1.438 3.038 2.8 3.473 4.759.3564299 1.7851488.2181119 3.6337686-.4 5.346-.1809021.4925147-.4314486.9565645-.744 1.378-5.53917723-4.1511359-8.79939424-10.6689762-8.799-17.591 0-.5522847-.44771525-1-1-1s-1 .4477153-1 1c.00284382 7.8601055 3.85655339 15.2200743 10.315 19.7.009.008.013.02.022.028.0320559.0214564.0654582.0408296.1.058 10.8753791 7.4763238 25.749101 4.7487594 33.264-6.1 3.902143-5.5906881 5.2278878-12.5829635 3.643-19.214.012-.02.03-.044.041-.064 2.9754871-4.5911423 4.5767097-9.9371093 4.615-15.408zm-26.848-5.338c2.0974268-4.66423071 6.7358777-7.66425259 11.85-7.66425259s9.7525732 3.00002188 11.85 7.66425259c.7636372 1.6755599 1.155283 3.4966446 1.148 5.338-.0425402 5.1044662-1.5435178 10.0903765-4.326 14.37-.073.128-.153.245-.234.364l-.086.128c-2.2667699 3.4160176-5.0906381 6.4274901-8.354 8.909-3.264919-2.4837786-6.0901123-5.4975885-8.358-8.916l-.082-.12c-.081-.119-.161-.236-.253-.395-2.7726017-4.2720176-4.2669137-9.247275-4.307-14.34-.0062812-1.8416774.3867437-3.662829 1.152-5.338zm1.442 20.71c.1.17.2.326.31.483l.07.1c1.3089251 1.9868882 2.803278 3.845203 4.463 5.55-.4 1.219-.682 2.479-.952 3.708-.083.381-.165.756-.251 1.125-.608 2.7-1.2 3.537-2.357 3.3-.947-.19-1.067-.611-1.136-2.186-.0518779-2.6283712-1.0712499-5.1452906-2.863-7.069-1.484-1.575-1.961-2.2-1.265-3.746.6551339-1.2775818 1.7428003-2.2809 3.069-2.831.29.527.588 1.049.912 1.566zm-9.8-15.156c1.7049708-.5596583 3.4667309-.9285782 5.253-1.1-.018.297-.047.584-.047.884.0045138 1.1520801.0820023 2.3027174.232 3.445l-1.182.2c-1.327496.2101288-2.6835524.1536973-3.989-.166-1.0911896-.2682367-2.1271063-.7251095-3.061-1.35l-.569-.379c1.0777295-.6006382 2.2020206-1.1136253 3.362-1.534zm-.335 41.454c2.1859669-.9876767 4.6157912-1.3047162 6.982-.911.8566921.1399985 1.6951719.3747728 2.5.7l2.651 1.056c-4.0431845.8631741-8.2477474.5699775-12.132-.846zm19.494-2.213-2.19-.546c-.9171865-.2411086-1.5249341-1.110831-1.436-2.055.069-.817.756-1.3 1.881-2l.336-.211c.184-.116.365-.236.547-.356.6372913-.496604 1.3713056-.8545849 2.155-1.051.6496317-.0570964 1.3042441-.001615 1.935.164.8445345.1201546 1.6615252.3871826 2.414.789-1.5587863 2.0712789-3.4683018 3.8535385-5.642 5.266zm6.772-6.923c-.9753802-.5586839-2.0469123-.9294293-3.159-1.093-.8605565-.2168895-1.7531673-.2768485-2.635-.177-1.0687512.2327241-2.0736033.6965808-2.944 1.359-.17.112-.34.225-.513.334l-.322.2c-1.122.7-2.658 1.652-2.818 3.522-.1693709 1.92306 1.0753994 3.6870483 2.944 4.172l.13.032c-.5846667.278-1.1846667.5306667-1.8.758-.7-.332-1.214-.558-1.242-.57l-3.683-1.471c-.9389584-.3803131-1.9173072-.6550021-2.917-.819-3.2027312-.5320099-6.4909953.0537551-9.313 1.659l-.346.2c-.565-.286-1.118-.593-1.654-.925.4114397-.5646382.7413434-1.184386.98-1.841.7381147-2.0647528.8982096-4.2919048.463-6.441-.571-2.577-2.351-4.215-4.072-5.8-1.31962211-1.038977-2.40468011-2.3452042-3.184-3.833-.1725774-.3748194-.11379108-.8155222.151-1.132.109-.113.3-.245.7-.084.30465071.1394836.59276993.3125564.859.516.216.151.433.3.671.442 1.2271439.708927 2.7699079.5551738 3.833-.382.5495329-.5902401.8260011-1.3840885.762-2.188-.0344851-.4400483-.1128749-.8755469-.234-1.3-.0889083-.3014631-.1478604-.6109619-.176-.924-.011-.438.259-.74.779-1.279.143-.149.286-.3.424-.454.157-.179.339-.367.528-.563 1.067-1.108 2.681-2.781 1.741-4.84-.5904874-1.0366864-1.5940028-1.773325-2.76-2.026-.2-.071-.4-.14-.582-.216-.9521401-.3660333-1.8680999-.8199958-2.736-1.356-.528-.344-1.048-.714-1.562-1.085.63736989-.6018249 1.3091686-1.1661091 2.012-1.69.165-.118.337-.223.5-.336l1.333.889c1.9482537 1.2958444 4.2371551 1.9845681 6.577 1.979.6455713.0043003 1.2903055-.047225 1.927-.154l1.17-.2c.4663615 2.2835197 1.2088164 4.5018177 2.211 6.606-1.7309851.7611236-3.1396366 2.1060673-3.98 3.8-1.28 2.843.2 4.415 1.634 5.936 1.1735875 1.2869741 1.9461582 2.8884162 2.223 4.608.0584164.3897973.091818.7829347.1 1.177.061 1.41.153 3.541 2.739 4.06.2631844.0546965.5311945.0828376.8.084 2.8 0 3.565-3.387 3.907-4.9.085-.371.169-.753.254-1.142.186-.851.382-1.718.612-2.56 1.0661612.9967377 2.2024069 1.91576 3.4 2.75.3351182.222425.7708818.222425 1.106 0 3.1376427-2.24451 5.9044863-4.9664768 8.2-8.067.1579647 1.0697487.2371776 2.1496513.237 3.231.0041751 4.0746922-1.1301274 8.0695151-3.275 11.534z" fill="#428dff"/><path id="Shape" d="m37 26c5.5228475 0 10-4.4771525 10-10s-4.4771525-10-10-10-10 4.4771525-10 10c.0060624 5.5203344 4.4796656 9.9939376 10 10zm0-18c4.418278 0 8 3.581722 8 8s-3.581722 8-8 8-8-3.581722-8-8c.0049599-4.4162219 3.5837781-7.99504012 8-8z" fill="#428dff"/></g></g></svg>