<svg height="512" viewBox="0 0 60 60" width="512" xmlns="http://www.w3.org/2000/svg"><g id="Page-1" fill="none" fill-rule="evenodd"><g id="022---Male-Teacher" fill-rule="nonzero"><path id="Shape" d="m8.02 27.6c0 .81-.05 1.6-.07 2.37-1.87282993-.9507001-3.2488313-2.657961-3.78-4.69 0 0-.68-4.65.69-5.16.16974885-.0644263.34863276-.1015532.53-.11.62022139-.0121837 1.22983361.1619912 1.75.5.28 3.48.88 4.73.88 7.09z" fill="#cad9fc"/><path id="Shape" d="m35.83 25.28c-.5311687 2.032039-1.9071701 3.7392999-3.78 4.69-.02-.77-.07-1.56-.07-2.37 0-2.36.6-3.61.88-7.08v-.01c.3954426-.2408269.8333169-.4037569 1.29-.48.3322423-.0558021.673267-.0247999.99.09 1.37.51.69 5.16.69 5.16z" fill="#cad9fc"/><path id="Shape" d="m34.15 20.03c-.4566831.0762431-.8945574.2391731-1.29.48 0 0 1.14-9.51-5.86-9.51-1.7489097-.0770769-3.4890727.2874632-5.06 1.06-1.2091268.6600216-2.6708732.6600216-3.88 0-1.5709273-.7725368-3.3110903-1.1370769-5.06-1.06-7 0-5.86 9.51-5.86 9.51-.52016639-.3380088-1.12977861-.5121837-1.75-.5-4.06-9.92 1.31-19.01 9.54-19.01 8.05 0 11.07 3 11.07 3s7-1 9 5c1.14 3.43-.05 7.56-.85 11.03z" fill="#a4c2f7"/><path id="Shape" d="m35 9c-2-6-9-5-9-5s-3.02-3-11.07-3c-.35 0-.686.039-1.025.071 6.564.435 9.095 2.929 9.095 2.929s7-1 9 5c.533669 1.8825892.6213198 3.8636353.256 5.786.5873454 1.8473086.7915112 3.7950503.6 5.724.3954426-.2408269.8333169-.4037569 1.29-.48.804-3.47 1.994-7.6.854-11.03z" fill="#7facfa"/><path id="Shape" d="m32.86 20.51v.01c-.28 3.47-.88 4.72-.88 7.08 0 .81.05 1.6.07 2.37.11 2.63.02 5.09-2.83 7.86-.08.08-.15.15-.22.23-3.47 3.51-3.55 6.94-7.16 6.94h-3.68c-3.61 0-3.69-3.43-7.16-6.94-.07-.08-.14-.15-.22-.23-2.85-2.77-2.94-5.23-2.83-7.86.02-.77.07-1.56.07-2.37 0-2.36-.6-3.61-.88-7.09 0 0-1.14-9.51 5.86-9.51 1.7489097-.0770769 3.4890727.2874632 5.06 1.06 1.2091268.6600216 2.6708732.6600216 3.88 0 1.5709273-.7725368 3.3110903-1.1370769 5.06-1.06 7 0 5.86 9.51 5.86 9.51z" fill="#e8edfc"/><path id="Shape" d="m15.06 12.06c1.0595128.5761601 2.3208561.649494 3.44.2-.150511-.0578633-.2974383-.1246484-.44-.2-1.5709273-.7725368-3.3110903-1.1370769-5.06-1.06-.4023466-.0012268-.8039806.0339162-1.2.105 1.1377105.10708 2.2443469.4312633 3.26.955z" fill="#cad9fc"/><path id="Shape" d="m27 11c-.6015645-.0011908-1.2026541.0338728-1.8.105 5.668 1.026 4.665 9.405 4.665 9.405v.01c-.28 3.47-.88 4.72-.88 7.08 0 .81.05 1.6.07 2.37.11 2.63.02 5.09-2.83 7.86-.08.08-.15.15-.22.23-3.475 3.51-3.555 6.94-7.165 6.94h3c3.61 0 3.69-3.43 7.16-6.94.07-.08.14-.15.22-.23 2.85-2.77 2.94-5.23 2.83-7.86-.02-.77-.07-1.56-.07-2.37 0-2.36.6-3.61.88-7.08v-.01s1.14-9.51-5.86-9.51z" fill="#cad9fc"/><path id="Shape" d="m59 33v24c-.0032948 1.1032019-.8967981 1.9967052-2 2h-15v-28h15c1.1032019.0032948 1.9967052.8967981 2 2z" fill="#cad9fc"/><path id="Shape" d="m57 31h-3c1.1032019.0032948 1.9967052.8967981 2 2v24c-.0032948 1.1032019-.8967981 1.9967052-2 2h3c1.1032019-.0032948 1.9967052-.8967981 2-2v-24c-.0032948-1.1032019-.8967981-1.9967052-2-2z" fill="#a4c2f7"/><path id="Shape" d="m42 31v28h-3c-1.1032019-.0032948-1.9967052-.8967981-2-2v-24c.0032948-1.1032019.8967981-1.9967052 2-2z" fill="#e8edfc"/><rect id="Rectangle-path" fill="#fff" height="5" rx="1" width="9" x="46" y="36"/><path id="Shape" d="m54 36h-3c.5522847 0 1 .4477153 1 1v3c0 .5522847-.4477153 1-1 1h3c.5522847 0 1-.4477153 1-1v-3c0-.5522847-.4477153-1-1-1z" fill="#e8edfc"/><path id="Shape" d="m20 51-3 4s-8.99 0-6-9.99c1.9124206 3.2808722 5.2351858 5.492357 9 5.99z" fill="#fff"/><path id="Shape" d="m23 55-3-4c3.7668157-.4995875 7.090067-2.7150883 9-6 3 10-6 10-6 10z" fill="#fff"/><path id="Shape" d="m39 59h-36c-1.10320187-.0032948-1.9967052-.8967981-2-2v-8.78c-.00130036-.9897162.72148047-1.8315433 1.7-1.98l8.3-1.24v.01c-2.99 9.99 6 9.99 6 9.99l3-4 3 4s9 0 6-10l8 1.2v10.8c.0032948 1.1032019.8967981 1.9967052 2 2z" fill="#e8edfc"/><path id="Shape" d="m37 57v-10.8l-8-1.2c.048.161.085.313.127.469l4.873.731v10.8c.0032948 1.1032019.8967981 1.9967052 2 2h3c-1.1032019-.0032948-1.9967052-.8967981-2-2z" fill="#cad9fc"/><path id="Shape" d="m29 38.06v6.94c-1.909933 3.2849117-5.2331843 5.5004125-9 6-3.7648142-.497643-7.0875794-2.7091278-9-5.99v-6.95c3.47 3.51 3.55 6.94 7.16 6.94h3.68c3.61 0 3.69-3.43 7.16-6.94z" fill="#cad9fc"/><path id="Shape" d="m3 59h3c-1.10320187-.0032948-1.9967052-.8967981-2-2v-8.78c-.00130036-.9897162.72148047-1.8315433 1.7-1.98l8.3-1.24v-6.94c-.07-.08-.14-.15-.22-.23-2.85-2.77-2.94-5.23-2.83-7.86-1.87282993-.9507001-3.2488313-2.657961-3.78-4.69 0 0-.68-4.65.69-5.16.16974885-.0644263.34863276-.1015532.53-.11-3.89-9.499.879-18.21 8.515-18.939-.626-.041-1.275-.071-1.975-.071-.35 0-.686.039-1.025.071-7.636.729-12.405 9.44-8.515 18.939-.18136724.0084468-.36025115.0455737-.53.11-1.37.51-.69 5.16-.69 5.16.5311687 2.032039 1.90717007 3.7392999 3.78 4.69-.11 2.63-.02 5.09 2.83 7.86.08.08.15.15.22.23v6.94l-8.3 1.24c-.97851953.1484567-1.70130036.9902838-1.7 1.98v8.78c.0032948 1.1032019.89679813 1.9967052 2 2z" fill="#fff"/><path id="Shape" d="m3.067 12.122 2 .143c-.15688685 2.5191556.27199283 5.0404068 1.253 7.366l-1.85.758c-1.10015236-2.610244-1.58038335-5.4399443-1.403-8.267z" fill="#fff"/><g fill="#4590ff"><path id="Shape" d="m8 5.043c.89548482-.94302656 1.96076279-1.70873751 3.14-2.257 1.2035242-.49520547 2.488804-.7617569 3.79-.786v-2c-1.5780511.02401233-3.1371173.34811075-4.594.955-1.43376027.658822-2.7278145 1.58658963-3.812 2.733-1.03548552 1.16712612-1.86619218 2.50092253-2.457 3.945-.5633975 1.43563819-.90073973 2.9499675-1 4.489-.03338387.2721636.05208038.5455191.23454813.750197.18246776.2046779.44425603.3208428.71845187.318803.53016098-.0043153.97543234-.4000171 1.042-.926.08457312-1.3327745.37536327-2.64436619.862-3.888.50191639-1.2189777 1.20353301-2.34575507 2.076-3.334z"/><path id="Shape" d="m4.3 17.179c-.35726559.0017863-.6883456-.187162-.8685254-.4956699s-.18208579-.6897057-.005-1c.17708579-.3102942.50625981-.5025438.8635254-.5043301h.01c.55228475 0 1 .4477153 1 1s-.44771525 1-1 1z"/><path id="Shape" d="m57 30h-18c-1.6568542 0-3 1.3431458-3 3v12.039l-6-.9v-5.676c2.1953554-2.0257671 3.3286591-4.9541144 3.069-7.93 1.878749-1.1375609 3.2279077-2.9756547 3.75-5.109.3-2.035.521-5.552-1.326-6.239-.033-.013-.073-.023-.109-.035.794-3.344 1.679-7.124.565-10.466-1.7-5.088-6.8-5.972-9.637-5.726-1.092-.839-4.528-2.958-11.382-2.958v2c7.451 0 10.343 2.688 10.37 2.709.2218916.22052861.5342004.3245082.844.281.253-.035 6.205-.8 7.912 4.326.776 2.328.343 5.121-.244 7.768-.1517597-1.8517781-.8514917-3.6164258-2.01-5.069-1.2208014-1.353153-2.9811549-2.09182698-4.802-2.015-1.915346-.07264331-3.8186277.3328952-5.538 1.18-.9086988.5071359-2.0153012.5071359-2.924 0-1.7195524-.8465852-3.6227013-1.25209544-5.538-1.18-1.8201567-.07622333-3.57965215.6623982-4.8 2.015-1.824 2.059-2.129 5.185-2.13 7.042-.52166611-.0965889-1.05961627-.0531112-1.559.126-1.851.689-1.628 4.206-1.324 6.281.53133775 2.1172684 1.87728204 3.9390553 3.745 5.069-.25974739 2.9754052.87317508 5.9033524 3.068 7.929v5.676l-7.451 1.114c-1.46972715.2174181-2.55603828 1.4822951-2.549 2.968v8.78c0 1.6568542 1.34314575 3 3 3h54c1.6568542 0 3-1.3431458 3-3v-24c0-1.6568542-1.3431458-3-3-3zm-23.671-5.517c.162-.91.34-1.949.472-3.318.2872772-.1433034.6136732-.188275.929-.128.31.438.365 2.35.117 4.058-.3070888 1.1616154-.9523929 2.2057969-1.854 3 0-.166-.013-.327-.013-.495.016613-1.0477556.1334793-2.0915155.349-3.117zm-26.322 3.6c-.88482928-.7854839-1.52583427-1.8082461-1.847-2.947-.255-1.748-.2-3.662.11-4.1.31542255-.0604947.64199384-.0151474.929.129.134 1.38.311 2.413.472 3.317.21558415 1.025812.33245077 2.0699098.349 3.118 0 .162-.009.319-.013.479zm1.943 1.917c.007-.276.018-.554.029-.835.021-.512.041-1.033.041-1.561-.01543523-1.1651637-.14268553-2.3261553-.38-3.467-.23449862-1.2375802-.40373245-2.4866394-.507-3.742-.155-1.295-.176-5.089 1.567-7.053.8422069-.9208451 2.0541563-1.4137045 3.3-1.342 1.5800278-.0699996 3.1528991.2511697 4.579.935 1.50756.8275768 3.33344.8275768 4.841 0 1.4264952-.6837161 2.9996602-1.0048753 4.58-.935 1.2453373-.0723191 2.4571485.4193825 3.3 1.339 2.094 2.354 1.575 7.006 1.565 7.091-.101694 1.2412452-.2685911 2.4762839-.5 3.7-.2373145 1.1408447-.3645648 2.3018363-.38 3.467 0 .524.02 1.04.041 1.548.011.285.022.567.03.864.109 2.613-.008 4.652-2.528 7.1-1.2215236 1.2285559-2.2875062 2.6025114-3.174 4.091-1.235 1.942-1.854 2.8-3.514 2.8h-3.68c-1.662 0-2.278-.858-3.513-2.8-.8855446-1.4871538-1.9501606-2.8600718-3.17-4.088-2.52-2.448-2.637-4.487-2.527-7.112zm3.05 14.738v-3.907c.349.5.668.985.959 1.443 1.219 1.916 2.371 3.726 5.201 3.726h3.68c2.831 0 3.982-1.81 5.2-3.726.292-.458.61-.945.959-1.442v3.9c-1.7582651 2.8477312-4.6877684 4.7702177-8 5.25-3.3166961-.462997-6.2516875-2.3871243-7.999-5.244zm6.238 6.945-1.715 2.285c-1.6286869-.1072748-3.1461462-.8638429-4.212-2.1-.8582931-1.3139545-1.1577034-2.9157278-.832-4.451 1.7559424 2.0886856 4.118032 3.5795385 6.759 4.266zm10.283-4.266c.3240498 1.531045.0277238 3.1281125-.824 4.441-1.0704108 1.2369301-2.5900807 1.9956852-4.222 2.108l-1.713-2.283c2.640968-.6864615 5.0030576-2.1773144 6.759-4.266zm-25.521 10.583c-.55228475 0-1-.4477153-1-1v-8.78c-.00129531-.4945855.3591594-.9158244.848-.991l6.82-1.019c-.582 2.829-.241 5.133 1.039 6.852 2.161 2.905 6.126 2.938 6.293 2.938.3147573 0 .6111456-.1481942.8-.4l2.2-2.933 2.2 2.933c.1888544.2518058.4852427.4.8.4.167 0 4.132-.033 6.293-2.938 1.28-1.719 1.621-4.022 1.039-6.851l5.668.85v9.939c.0033144.3414397.0655622.679743.184 1zm38 0h-2c-.5522847 0-1-.4477153-1-1v-24c0-.5522847.4477153-1 1-1h2zm17-1c0 .5522847-.4477153 1-1 1h-14v-26h14c.5522847 0 1 .4477153 1 1z"/><path id="Shape" d="m54 35h-7c-1.1045695 0-2 .8954305-2 2v3c0 1.1045695.8954305 2 2 2h7c1.1045695 0 2-.8954305 2-2v-3c0-1.1045695-.8954305-2-2-2zm-7 5v-3h7v3z"/><path id="Shape" d="m55 49h-9c-.5522847 0-1 .4477153-1 1s.4477153 1 1 1h9c.5522847 0 1-.4477153 1-1s-.4477153-1-1-1z"/><path id="Shape" d="m51 53h-5c-.5522847 0-1 .4477153-1 1s.4477153 1 1 1h5c.5522847 0 1-.4477153 1-1s-.4477153-1-1-1z"/></g></g></g></svg>