<svg id="Capa_1" enable-background="new 0 0 512 512" height="512" viewBox="0 0 512 512" width="512" xmlns="http://www.w3.org/2000/svg"><path d="m274.625 349.705h-37.885l-21.894 40.2 34.898 122.095h7.428l37.46-125.559z"/><path d="m202.996 348.446 9.645-17.709v-38.868c-10.081-2.779-19.774-6.501-28.979-11.067z"/><path d="m478.665 470.234c0-58.15-22.645-112.819-63.764-153.938-16.587-16.587-35.381-30.163-55.718-40.464l-70.458 236.168h189.94z"/><path d="m97.098 316.296c-41.119 41.118-63.764 95.787-63.764 153.938v41.766h184.963l-67.241-235.254c-19.659 10.186-37.851 23.444-53.958 39.55z"/><path d="m298.724 292.042v38.695l8.094 14.861 18.96-63.55c-8.632 4.094-17.677 7.45-27.054 9.994z"/><path d="m268.488 297.248c-4.122.313-8.286.473-12.487.473-4.418 0-8.793-.182-13.123-.528v22.275h25.61z"/><path d="m255.857 168.568 40.007-40.006c2.492-2.492 3.864-5.805 3.864-9.328 0-3.524-1.373-6.837-3.864-9.329-2.492-2.492-5.805-3.864-9.329-3.864s-6.836 1.373-9.327 3.864l-21.208 21.207-21.207-21.208c-2.492-2.492-5.805-3.864-9.329-3.864s-6.837 1.373-9.329 3.864c-2.491 2.492-3.864 5.805-3.864 9.329s1.372 6.836 3.864 9.328z"/><path d="m256 268.721c74.086 0 134.36-60.274 134.36-134.361 0-74.086-60.274-134.36-134.36-134.36s-134.36 60.274-134.36 134.36c0 74.087 60.274 134.361 134.36 134.361zm-61.244-180.196c8.203-8.203 19.108-12.72 30.709-12.72 11.519 0 22.353 4.455 30.536 12.548 8.182-8.094 19.016-12.548 30.534-12.548 11.6 0 22.506 4.518 30.709 12.72s12.72 19.108 12.72 30.709c0 11.6-4.518 22.506-12.72 30.709l-61.464 61.464-61.063-61.503c-8.164-8.164-12.682-19.069-12.682-30.67s4.518-22.507 12.721-30.709z"/></svg>