<svg height="512" viewBox="0 0 61 56" width="512" xmlns="http://www.w3.org/2000/svg"><g id="Page-1" fill="none" fill-rule="evenodd"><g id="051---Water-Molecule"><g id="Icons" fill-rule="nonzero" transform="translate(2 1)"><path id="Shape" d="m40 11c.0099543 3.5783329-1.730236 6.935481-4.66 8.99-3.801471 2.6811643-8.878529 2.6811643-12.68 0-4.2599952-3.0045599-5.8260586-8.5866885-3.7505722-13.36866463 2.0754864-4.78197616 7.2225088-7.45047277 12.326627-6.39079448 5.1041181 1.05967829 8.7635314 5.55650028 8.7639452 10.76945911z" fill="#e8edfc"/><path id="Shape" d="m29 0c-.5020055.00396839-1.0031606.04205618-1.5.114 5.4430247.74306918 9.5004822 5.39248845 9.5 10.886.0099543 3.5783329-1.730236 6.935481-4.66 8.99-1.4361572 1.0150226-3.0968683 1.6669547-4.84 1.9.496931.0706022.9980855.1073536 1.5.11 2.2709334.0056006 4.4871077-.6970036 6.34-2.01 3.9184012-2.7628265 5.5959754-7.7453595 4.1465174-12.31549625-1.4494581-4.5701367-5.6920333-7.67504352-10.4865174-7.67450375z" fill="#cad9fc"/><path id="Shape" d="m16 28c0 4.418278-3.581722 8-8 8s-8-3.581722-8-8 3.581722-8 8-8c1.3559921-.0064797 2.6901128.3417016 3.87 1.01 2.5485812 1.4022799 4.1313508 4.0811079 4.13 6.99z" fill="#e8edfc"/><path id="Shape" d="m58 28c0 4.418278-3.581722 8-8 8s-8-3.581722-8-8c-.0013508-2.9088921 1.5814188-5.5877201 4.13-6.99 1.1798872-.6682984 2.5140079-1.0164797 3.87-1.01 4.418278 0 8 3.581722 8 8z" fill="#e8edfc"/><path id="Shape" d="m50 20c-.4929197.0044835-.98436.0546987-1.468.15 3.7506376.74461 6.449949 4.0393345 6.4421552 7.8631631-.0077938 3.8238287-2.7205134 7.1075222-6.4741552 7.8368369 2.9915091.5873833 6.0568286-.57654 7.9045613-3.0014172 1.8477328-2.4248772 2.1566544-5.6891487.7966183-8.4176002-1.360036-2.7284516-4.1525902-4.4467477-7.2011796-4.4309826z" fill="#cad9fc"/><path id="Shape" d="m46.13 21.01c-1.8194198.9962665-3.176313 2.6654605-3.78 4.65l-7.01-5.67c1.6658769-1.1747595 2.9741588-2.787615 3.78-4.66z" fill="#a4c2f7"/><path id="Shape" d="m39.12 15.33c-.2595208.5859099-.5696984 1.1480441-.927 1.68l4.937 4c-1.2301713.6757887-2.2580889 1.6671183-2.978 2.872l2.2 1.778c.603687-1.9845395 1.9605802-3.6537335 3.78-4.65z" fill="#7facfa"/><path id="Shape" d="m22.66 19.99-7.01 5.67c-.603687-1.9845395-1.9605802-3.6537335-3.78-4.65l7.01-5.68c.8058412 1.872385 2.1141231 3.4852405 3.78 4.66z" fill="#a4c2f7"/><g fill="#428dff"><path id="Shape" d="m22 12c-.5522847 0-1-.4477153-1-1 .0049599-4.41622192 3.5837781-7.99504012 8-8 .5522847 0 1 .44771525 1 1s-.4477153 1-1 1c-3.3123376.00330738-5.9966926 2.68766243-6 6 0 .5522847-.4477153 1-1 1z"/><path id="Shape" d="m4 29c-.55228475 0-1-.4477153-1-1 .00330612-2.7600532 2.23994685-4.9966939 5-5 .55228475 0 1 .4477153 1 1s-.44771525 1-1 1c-1.65685425 0-3 1.3431458-3 3 0 .2652165-.10535684.5195704-.29289322.7071068s-.44189029.2928932-.70710678.2928932z"/><path id="Shape" d="m46 29c-.5522847 0-1-.4477153-1-1 .0033061-2.7600532 2.2399468-4.9966939 5-5 .5522847 0 1 .4477153 1 1s-.4477153 1-1 1c-1.6568542 0-3 1.3431458-3 3 0 .2652165-.1053568.5195704-.2928932.7071068s-.4418903.2928932-.7071068.2928932z"/></g></g><g id="Icons_copy_2" fill="#fff" fill-rule="nonzero" transform="translate(1 1)"><path id="Shape" d="m31.5.1c-.4972057-.06679434-.9983278-.10020248-1.5-.1-3.6951896.00541768-7.1415227 1.86315158-9.1772996 4.9469914-2.0357768 3.08383982-2.3897872 6.9829505-.9427004 10.3830086l-6.025 4.882c.7060344.1703022 1.3844236.4396379 2.015.8l7.01-5.68c-1.3449022-3.1564774-1.1425764-6.75932503.5472731-9.7453793 1.6898496-2.98605426 4.6743209-5.01444718 8.0727269-5.4866207z"/><path id="Shape" d="m4 28c-.0071808-3.8500138 2.7417755-7.153477 6.529-7.846-3.16834844-.6331479-6.40652983.7017218-8.20829384 3.3836902s-1.81336467 6.1844763-.02940591 8.878321c1.78395877 2.6938447 5.01322677 4.0501352 8.18569975 3.4379888-3.7611051-.7293593-6.47714771-4.0228283-6.477-7.854z"/></g><g id="Icons_copy"><path id="Shape" d="m22.047 4.028 1.493 1.331c-1.6268036 1.83069305-2.5299211 4.19195415-2.54 6.641h-2c.0107699-2.93975895 1.0942417-5.77449376 3.047-7.972z" stroke="#fff" stroke-linecap="round" stroke-width="2"/><g fill="#428dff" fill-rule="nonzero"><path id="Shape" d="m20.736 9.075c-.5522847.00276142-1.0022386-.44271525-1.005-.995s.4427153-1.00223858.995-1.005h.01c.5522847 0 1 .44771525 1 1s-.4477153 1-1 1z"/><path id="Shape" d="m52 20c-1.2927293.0013198-2.5697777.283137-3.743.826l-5.957-4.826c1.9221651-5.4045084-.2549443-11.41324987-5.1928878-14.3321784s-11.25187-1.92942774-15.0601122 2.3601784c-.1928569.19873471-.2906073.47100567-.2681963.74702565.0224111.27601998.1628049.52895515.3851963.69397435.4219639.31144994 1.0088747.26453121 1.376-.11 3.2107053-3.5930662 8.5291193-4.38124699 12.6439101-1.87380806 4.1147908 2.50743892 5.8524508 7.59539476 4.1310843 12.09602256s-6.4108385 7.1303822-11.1486738 6.2519349c-4.7378354-.8784473-8.1728387-5.0145697-8.1663206-9.8331494 0-.5522847-.4477153-1-1-1s-1 .4477153-1 1c.0027516 1.3635634.2395223 2.7165386.7 4l-5.957 4.827c-3.81165527-1.7519921-8.3279278-.6472452-10.90045071 2.6664111-2.5725229 3.3136563-2.52324221 7.9628234.1189436 11.2212044 2.64218582 3.2583809 7.18086141 4.2671463 10.95452251 2.4347506 3.7736611-1.8323956 5.7876633-6.0229777 4.8609846-10.1143661l5.958-4.819c3.837619 2.3799908 8.692381 2.3799908 12.53 0l5.958 4.819c-.8344115 3.7295337.7775718 7.5793445 4.0203882 9.6016714s7.4092189 1.7761074 10.391271-.6140871c2.9820521-2.3901944 4.1293786-6.4030706 2.8615048-10.0083668-1.2678738-3.6052961-4.674429-6.0167096-8.496164-6.0142175zm-42 16c-2.93812424.0058194-5.56719951-1.8237832-6.58257503-4.5808868-1.01537553-2.7571037-.20093333-5.8548716 2.03916828-7.7560693 2.2401016-1.9011977 5.42906735-2.2011641 7.98440675-.7510439h.008c1.5506637.8806947 2.7088032 2.3176455 3.24 4.02.6568582 2.1241655.2655247 4.4340606-1.054334 6.2233383-1.3198587 1.7892778-3.4112583 2.8451211-5.634666 2.8446617zm8.068-10.964c-.5969982-1.207457-1.4558596-2.2665144-2.514-3.1l5-4.049c.6628589 1.1663779 1.5155494 2.2140753 2.523 3.1zm20.857-4.049c1.0074506-.8859247 1.8601411-1.9336221 2.523-3.1l5 4.049c-1.0581404.8334856-1.9170018 1.892543-2.514 3.1zm13.075 15.013c-2.2222141-.0000311-4.3124053-1.0552081-5.6320267-2.8431776-1.3196213-1.7879695-1.7118915-4.096307-1.0569733-6.2198224.5309048-1.7019585 1.6887128-3.138584 3.239-4.019l.009-.006c2.5553394-1.4501202 5.7443052-1.1501538 7.9844068.7510439s3.0545438 4.9989656 2.0391682 7.7560693c-1.0153755 2.7571036-3.6444508 4.5867062-6.582575 4.5808868z"/><path id="Shape" d="m15 40c-.5522847 0-1 .4477153-1 1v6h-8v-6c0-.5522847-.44771525-1-1-1s-1 .4477153-1 1v14c0 .5522847.44771525 1 1 1s1-.4477153 1-1v-6h8v6c0 .5522847.4477153 1 1 1s1-.4477153 1-1v-14c0-.5522847-.4477153-1-1-1z"/><path id="Shape" d="m57 40c-.5522847 0-1 .4477153-1 1v6h-8v-6c0-.5522847-.4477153-1-1-1s-1 .4477153-1 1v14c0 .5522847.4477153 1 1 1s1-.4477153 1-1v-6h8v6c0 .5522847.4477153 1 1 1s1-.4477153 1-1v-14c0-.5522847-.4477153-1-1-1z"/><path id="Shape" d="m31 27c-3.3123376.0033074-5.9966926 2.6876624-6 6v4c.0000001 3.3137084 2.6862916 5.9999999 6 5.9999999s5.9999999-2.6862915 6-5.9999999v-4c-.0033074-3.3123376-2.6876624-5.9966926-6-6zm4 10c0 2.209139-1.790861 4-4 4s-4-1.790861-4-4v-4c0-2.209139 1.790861-4 4-4s4 1.790861 4 4z"/></g></g></g></g></svg>