<?xml version="1.0" encoding="iso-8859-1"?>
<!-- Generator: Adobe Illustrator 19.0.0, SVG Export Plug-In . SVG Version: 6.00 Build 0)  -->
<svg version="1.1" id="Layer_1" xmlns="http://www.w3.org/2000/svg" xmlns:xlink="http://www.w3.org/1999/xlink" x="0px" y="0px"
	 viewBox="0 0 504.131 504.131" style="enable-background:new 0 0 504.131 504.131;" xml:space="preserve">
<path style="fill:#085BBF;" d="M498.538,238.585L307.767,47.814c-5.435-5.443-13.635-7.073-20.787-4.135
	c-7.113,2.954-11.768,9.909-11.768,17.613v98.028H17.818C7.987,159.32,0,167.299,0,177.129v149.866
	c0,9.838,7.987,17.81,17.818,17.81H275.22v98.02c0,7.712,4.655,14.667,11.768,17.613c2.363,0.977,4.844,1.457,7.294,1.457
	c4.97,0,9.838-1.93,13.493-5.585l190.771-190.779c3.576-3.568,5.585-8.413,5.585-13.47
	C504.123,246.998,502.114,242.153,498.538,238.585z"/>
<path style="fill:#1E81E2;" d="M275.212,349.988l167.369-167.369L307.767,47.814c-5.435-5.443-13.635-7.073-20.787-4.135
	c-7.113,2.954-11.768,9.909-11.768,17.613v98.028H17.818C7.987,159.32,0,167.299,0,177.129v149.866
	c0,9.838,7.987,17.81,17.818,17.81H275.22v5.183H275.212z"/>
<path style="fill:#319EF7;" d="M275.212,159.32H17.818C7.987,159.32,0,167.299,0,177.129"/>
<g>
</g>
<g>
</g>
<g>
</g>
<g>
</g>
<g>
</g>
<g>
</g>
<g>
</g>
<g>
</g>
<g>
</g>
<g>
</g>
<g>
</g>
<g>
</g>
<g>
</g>
<g>
</g>
<g>
</g>
</svg>
