<svg id="Capa_1" enable-background="new 0 0 512 512" height="512" viewBox="0 0 512 512" width="512" xmlns="http://www.w3.org/2000/svg"><g id="XMLID_1091_"><g id="XMLID_2269_"><path id="XMLID_858_" d="m10.004 10h384v492h-384z" fill="#fff" transform="matrix(-1 0 0 -1 404.007 512)"/><path id="XMLID_857_" d="m10.004 10h384v104h-384z" fill="#b0e7f8"/></g><g id="XMLID_2910_"><path id="XMLID_2914_" d="m332.427 194.01h88v267.164h-88z" fill="#ffcb7c" transform="matrix(.707 .707 -.707 .707 341.896 -170.225)"/><path id="XMLID_2913_" d="m202.019 502 48.839-111.064 62.225 62.225z" fill="#98a1b3"/></g><g id="XMLID_35_"><path id="XMLID_42_" d="m346.504 52h-98.667c-5.523 0-10 4.477-10 10s4.477 10 10 10h98.667c5.523 0 10-4.477 10-10s-4.477-10-10-10z"/><path id="XMLID_212_" d="m178.524 52c-2.63 0-5.21 1.07-7.07 2.93s-2.93 4.44-2.93 7.07 1.07 5.21 2.93 7.07 4.44 2.93 7.07 2.93 5.21-1.07 7.07-2.93 2.93-4.44 2.93-7.07-1.07-5.21-2.93-7.07-4.44-2.93-7.07-2.93z"/><path id="XMLID_213_" d="m58.504 52c-2.63 0-5.21 1.07-7.07 2.93s-2.93 4.44-2.93 7.07 1.07 5.21 2.93 7.07 4.44 2.93 7.07 2.93 5.21-1.07 7.07-2.93 2.93-4.44 2.93-7.07-1.07-5.21-2.93-7.07-4.44-2.93-7.07-2.93z"/><path id="XMLID_214_" d="m118.513 52c-2.63 0-5.21 1.07-7.07 2.93s-2.93 4.44-2.93 7.07 1.07 5.21 2.93 7.07 4.44 2.93 7.07 2.93 5.21-1.07 7.07-2.93 2.93-4.44 2.93-7.07-1.07-5.21-2.93-7.07-4.44-2.93-7.07-2.93z"/><path id="XMLID_215_" d="m76.127 380.009h132.877c5.523 0 10-4.477 10-10s-4.477-10-10-10h-132.877c-5.523 0-10 4.477-10 10s4.477 10 10 10z"/><path id="XMLID_216_" d="m76.127 316.013h83.377c5.523 0 10-4.477 10-10s-4.477-10-10-10h-83.377c-5.523 0-10 4.477-10 10s4.477 10 10 10z"/><path id="XMLID_38_" d="m76.127 444.003h75.032c5.523 0 10-4.477 10-10s-4.477-10-10-10h-75.032c-5.523 0-10 4.477-10 10s4.477 10 10 10z"/><path id="XMLID_37_" d="m76.127 252.004h148.793c5.523 0 10-4.477 10-10s-4.477-10-10-10h-148.793c-5.523 0-10 4.477-10 10s4.477 10 10 10z"/><path id="XMLID_36_" d="m327.881 232.004h-46.96c-5.523 0-10 4.477-10 10s4.477 10 10 10h46.96c5.523 0 10-4.477 10-10s-4.477-10-10-10z"/><path id="XMLID_28_" d="m76.127 188.009h38.133c5.523 0 10-4.477 10-10s-4.477-10-10-10h-38.133c-5.523 0-10 4.477-10 10s4.477 10 10 10z"/><path id="XMLID_27_" d="m327.881 168.009h-154.621c-5.523 0-10 4.477-10 10s4.477 10 10 10h154.621c5.523 0 10-4.477 10-10s-4.477-10-10-10z"/><path id="XMLID_14_" d="m509.068 257.177-62.226-62.225c-3.904-3.905-10.237-3.904-14.142 0l-28.696 28.696v-213.648c0-5.523-4.477-10-10-10h-384c-5.523 0-10 4.477-10 10v251.013c0 5.523 4.477 10 10 10s10-4.477 10-10v-137.013h364v119.647l-52.365 52.365h-116.135c-5.523 0-10 4.477-10 10s4.477 10 10 10h96.135l-67.852 67.852v.005c-.864.865-1.577 1.89-2.083 3.041l-46.212 105.09h-175.488v-140.987c0-5.523-4.477-10-10-10s-10 4.477-10 10v150.987c0 5.523 4.477 10 10 10h384c5.523 0 10-4.477 10-10v-125.617l105.064-105.064c1.875-1.875 2.929-4.419 2.929-7.071s-1.054-5.196-2.929-7.071zm-489.064-153.177v-84h364v84zm419.767 112.165 16.97 16.97-174.771 174.771-16.97-16.97zm-185.645 192.181 41.547 41.547-74.156 32.608zm129.878 83.654h-134.402l67.507-29.689c1.123-.495 2.16-1.193 3.045-2.078l63.85-63.85zm-70.921-52.98-16.97-16.971 174.771-174.771 16.971 16.97z"/><path id="XMLID_448_" d="m10.004 316.01c2.63 0 5.21-1.07 7.07-2.93s2.93-4.43 2.93-7.07c0-2.63-1.07-5.21-2.93-7.07s-4.44-2.93-7.07-2.93-5.21 1.07-7.07 2.93-2.93 4.44-2.93 7.07c0 2.64 1.07 5.21 2.93 7.07s4.44 2.93 7.07 2.93z"/></g></g></svg>