<svg id="Layer_35" enable-background="new 0 0 64 64" height="512" viewBox="0 0 64 64" width="512" xmlns="http://www.w3.org/2000/svg"><path d="m62 20v40h-25.11c-1.26 1.24-2.98 2-4.89 2s-3.63-.76-4.89-2h-25.11v-40h4v12 24h26 26v-36z" fill="#b4dd7f"/><path d="m46 2v6h-2-24-2v-6z" fill="#cf9e76"/><path d="m6 16h52v40h-52z" fill="#e6e9ed"/><path d="m46 42v6h-14-14v-6h2 24z" fill="#cf9e76"/><path d="m39.12 16c-2.54 2.67-5.12 5.45-5.12 9 0 7 10 11 10 17l-8.36-5.85c-1.07-.75-2.34-1.15-3.64-1.15s-2.57.4-3.64 1.15l-8.36 5.85c0-3.28 2.2-5.9 4.53-8.39 2.65-2.8 5.47-5.42 5.47-8.61 0-3.37-3.15-6.1-5.91-9.09-2.16-2.35-4.09-4.84-4.09-7.91h24c0 2.95-2.42 5.42-4.88 8z" fill="#ffeaa7"/><path d="m44 42h-24l8.36-5.85c1.07-.75 2.34-1.15 3.64-1.15s2.57.4 3.64 1.15z" fill="#69d6f4"/><path d="m59 19v-4h-17.568c1.675-1.843 3.135-3.781 3.484-6h2.084v-8h-30v8h2.068c.278 2.264 1.461 4.227 2.905 6h-16.973v4h-4v42h25.713c1.463 1.293 3.325 2 5.287 2s3.824-.707 5.287-2h25.713v-42zm-14 24v4h-26v-4zm-21.828-2 5.762-4.034c1.807-1.264 4.325-1.264 6.13 0l5.763 4.034zm23.828 8v-8h-2.085c-.446-2.833-2.705-5.209-4.903-7.513-2.464-2.582-5.012-5.253-5.012-8.487 0-3.031 2.238-5.567 4.548-8h17.452v38h-24v-6zm-28-46h26v4h-26zm23.879 6c-.474 2.099-2.343 4.066-4.314 6.132-2.608 2.734-5.565 5.833-5.565 9.868s2.957 7.134 5.565 9.868c1.539 1.613 3.003 3.167 3.804 4.769l-6.158-4.31c-2.483-1.736-5.94-1.736-8.424 0l-6.394 4.476c.806-2.29 2.735-4.317 4.619-6.291 2.452-2.57 4.988-5.227 4.988-8.512s-2.536-5.942-4.988-8.513c-2.205-2.311-4.472-4.694-4.925-7.487zm-35.879 8h16.742c.276.293.551.583.823.868 2.281 2.39 4.435 4.648 4.435 7.132s-2.154 4.742-4.435 7.132c-2.389 2.504-5.062 5.315-5.497 8.868h-2.068v8h14v6h-24zm54 42h-24.514l-.292.285c-1.128 1.106-2.618 1.715-4.194 1.715s-3.066-.609-4.195-1.715l-.291-.285h-24.514v-38h2v36h54v-36h2z"/><path d="m41 19h14v2h-14z"/><path d="m41 23h2v2h-2z"/><path d="m45 23h10v2h-10z"/><path d="m41 27h14v2h-14z"/><path d="m41 31h10v2h-10z"/><path d="m53 31h2v2h-2z"/><path d="m9 19h14v2h-14z"/><path d="m9 23h2v2h-2z"/><path d="m13 23h10v2h-10z"/><path d="m9 27h14v2h-14z"/><path d="m9 31h10v2h-10z"/><path d="m21 31h2v2h-2z"/></svg>