<svg height="512" viewBox="0 0 52 60" width="512" xmlns="http://www.w3.org/2000/svg"><g id="Page-1" fill="none" fill-rule="evenodd"><g id="023---Lock" fill-rule="nonzero"><g id="Icons" transform="translate(1 1)"><path id="Shape" d="m47 38v4h1c1.1032019.0032948 1.9967052.8967981 2 2-.0081672 1.1011688-.8988312 1.9918328-2 2h-1v4h1c1.1032019.0032948 1.9967052.8967981 2 2-.0081672 1.1011688-.8988312 1.9918328-2 2h-1v1c0 1.6568542-1.3431458 3-3 3h-38c-1.65685425 0-3-1.3431458-3-3v-1h-1c-1.10320187-.0032948-1.9967052-.8967981-2-2 .00816722-1.1011688.89883122-1.9918328 2-2h1v-4h-1c-1.10320187-.0032948-1.9967052-.8967981-2-2 .00816722-1.1011688.89883122-1.9918328 2-2h1v-4h-1c-1.10320187-.0032948-1.9967052-.8967981-2-2 .00816722-1.1011688.89883122-1.9918328 2-2h1v-4h-1c-1.10320187-.0032948-1.9967052-.8967981-2-2 .00816722-1.1011688.89883122-1.9918328 2-2h1v-1c0-1.6568542 1.34314575-3 3-3h38c1.6568542 0 3 1.3431458 3 3v1h1c1.1032019.0032948 1.9967052.8967981 2 2-.0081672 1.1011688-.8988312 1.9918328-2 2h-1v4h1c1.1032019.0032948 1.9967052.8967981 2 2-.0081672 1.1011688-.8988312 1.9918328-2 2z" fill="#e8edfc"/><path id="Shape" d="m48 38c1.1011688-.0081672 1.9918328-.8988312 2-2-.0032948-1.1032019-.8967981-1.9967052-2-2h-1v-4h1c1.1011688-.0081672 1.9918328-.8988312 2-2-.0032948-1.1032019-.8967981-1.9967052-2-2h-1v-1c0-1.6568542-1.3431458-3-3-3h-3c1.6568542 0 3 1.3431458 3 3v1h1c1.1032019.0032948 1.9967052.8967981 2 2-.0081672 1.1011688-.8988312 1.9918328-2 2h-1v4h1c1.1032019.0032948 1.9967052.8967981 2 2-.0081672 1.1011688-.8988312 1.9918328-2 2h-1v4h1c1.1032019.0032948 1.9967052.8967981 2 2-.0081672 1.1011688-.8988312 1.9918328-2 2h-1v4h1c1.1032019.0032948 1.9967052.8967981 2 2-.0081672 1.1011688-.8988312 1.9918328-2 2h-1v1c0 1.6568542-1.3431458 3-3 3h3c1.6568542 0 3-1.3431458 3-3v-1h1c1.1011688-.0081672 1.9918328-.8988312 2-2-.0032948-1.1032019-.8967981-1.9967052-2-2h-1v-4h1c1.1011688-.0081672 1.9918328-.8988312 2-2-.0032948-1.1032019-.8967981-1.9967052-2-2h-1v-4z" fill="#cad9fc"/><path id="Shape" d="m40 22v-7c0-8.28427125-6.7157288-15-15-15s-15 6.71572875-15 15v7h6v-7c0-4.9705627 4.0294373-9 9-9s9 4.0294373 9 9v7z" fill="#a4c2f7"/><path id="Shape" d="m25 0c-.506 0-1.006.027-1.5.076 7.6595557.78005815 13.489391 7.224833 13.5 14.924v7h3v-7c-.0099183-8.28015945-6.7198405-14.99008165-15-15z" fill="#7facfa"/><g fill="#e8edfc"><path id="Shape" d="m36 43.043c-.0271904 5.5432613-4.1695707 10.2027062-9.6715204 10.8787491-5.5019497.676043-10.6491209-2.8419636-12.0174796-8.2137491-2.12-8.913 7.182-17.288 9.939-19.45.4438676-.3461018 1.0669005-.3436229 1.508.006 2.488 1.952 10.242 8.973 10.242 16.779z"/><path id="Shape" d="m8 30c-.55228475 0-1-.4477153-1-1v-2c0-.5522847.44771525-1 1-1s1 .4477153 1 1v2c0 .5522847-.44771525 1-1 1z"/><path id="Shape" d="m8 46c-.55228475 0-1-.4477153-1-1v-12c0-.5522847.44771525-1 1-1s1 .4477153 1 1v12c0 .5522847-.44771525 1-1 1z"/></g></g><g id="Icons_copy_2" fill="#fff" transform="translate(1 1)"><path id="Shape" d="m2 50c-1.1045695 0-2 .8954305-2 2s.8954305 2 2 2h1v1c0 1.6568542 1.34314575 3 3 3h3c-1.65685425 0-3-1.3431458-3-3v-1h-1c-1.1045695 0-2-.8954305-2-2s.8954305-2 2-2h1v-4h-1c-.80631139-.0033854-1.5317303-.4906258-1.83983461-1.2357575s-.13862704-1.6024026.42983461-2.1742425c.3704612-.3798589.87940947-.5928231 1.41-.59h1v-4h-1c-.80631139-.0033854-1.5317303-.4906258-1.83983461-1.2357575s-.13862704-1.6024026.42983461-2.1742425c.3704612-.3798589.87940947-.5928231 1.41-.59h1v-4h-1c-.80631139-.0033854-1.5317303-.4906258-1.83983461-1.2357575s-.13862704-1.6024026.42983461-2.1742425c.3704612-.3798589.87940947-.5928231 1.41-.59h1v-1c0-1.6568542 1.34314575-3 3-3h-3c-1.65685425 0-3 1.3431458-3 3v1h-1c-.53059053-.0028231-1.0395388.2101411-1.41.59-.56846165.5718399-.73793892 1.4291108-.42983461 2.1742425s1.03352322 1.2323721 1.83983461 1.2357575h1v4h-1c-.53059053-.0028231-1.0395388.2101411-1.41.59-.56846165.5718399-.73793892 1.4291108-.42983461 2.1742425s1.03352322 1.2323721 1.83983461 1.2357575h1v4h-1c-.53059053-.0028231-1.0395388.2101411-1.41.59-.56846165.5718399-.73793892 1.4291108-.42983461 2.1742425s1.03352322 1.2323721 1.83983461 1.2357575h1v4z"/><path id="Shape" d="m13 15c.0108658-7.68131939 5.815482-14.11665636 13.455-14.917-4.2134061-.42887182-8.4108841.95043259-11.5486529 3.79492348s-4.92103171 6.88692532-4.9063471 11.12207652l-.00008998 7h3.00008998z"/></g><g id="Icons_copy"><path id="Shape" d="m12.242 7.872 1.72 1.02c-1.2757992 2.15213-1.9531753 4.6061509-1.962 7.108h-2c.009226-2.8607764.7832969-5.6670424 2.242-8.128z" fill="#fff"/><g fill="#428dff"><path id="Shape" d="m.892 50.874c-.57419379.5577958-.89629317 1.32549-.892 2.126 0 1.6568542 1.34314575 3 3 3 0 2.209139 1.790861 4 4 4h38c2.209139 0 4-1.790861 4-4 1.6534434-.0082058 2.9917942-1.3465566 3-3 0-1.6568542-1.3431458-3-3-3v-2c1.6534434-.0082058 2.9917942-1.3465566 3-3 0-1.6568542-1.3431458-3-3-3v-2c1.6534434-.0082058 2.9917942-1.3465566 3-3 0-1.6568542-1.3431458-3-3-3v-2c1.6534434-.0082058 2.9917942-1.3465566 3-3 0-1.6568542-1.3431458-3-3-3 0-2.209139-1.790861-4-4-4h-3v-6c-.0104696-8.8322157-7.1677843-15.98953038-16-16-2.7789193.01399485-5.507456.74305104-7.923 2.117-1.1992013.69121788-2.3077198 1.52898911-3.3 2.494-.9816852.97424687-1.8346171 2.07015351-2.538 3.261-.1492745.22978953-.1933548.51237439-.1211588.776711.072196.26433662.2538011.48528196.4991588.607289.4750039.23563054 1.0511621.07935512 1.342-.364.616331-1.04283201 1.3630088-2.00289425 2.222-2.857.8686249-.84365691 1.8383293-1.57656136 2.887-2.182 2.1136107-1.20170239 4.5006908-1.83979519 6.932-1.853 7.7285595.00826732 13.9917327 6.27144053 14 14v6h-4v-6c0-5.5228475-4.4771525-10-10-10s-10 4.4771525-10 10v6h-4v-6c0-.5522847-.4477153-1-1-1s-1 .4477153-1 1v6h-3c-2.209139 0-4 1.790861-4 4-1.65344336.0082058-2.99179417 1.3465566-3 3 0 1.6568542 1.34314575 3 3 3v2c-1.65344336.0082058-2.99179417 1.3465566-3 3 0 1.6568542 1.34314575 3 3 3v2c-1.65344336.0082058-2.99179417 1.3465566-3 3 0 1.6568542 1.34314575 3 3 3v2c-.79199541-.0059733-1.55258137.309374-2.108.874zm17.108-34.874c0-4.418278 3.581722-8 8-8s8 3.581722 8 8v6h-16zm-14 30h-1c-.55228475 0-1-.4477153-1-1-.00087326-.2694422.10990828-.5272084.306-.712.18239634-.1865985.43307757-.2906276.694-.288h1c.55228475 0 1-.4477153 1-1v-4c0-.5522847-.44771525-1-1-1h-1c-.55228475 0-1-.4477153-1-1-.00087326-.2694422.10990828-.5272084.306-.712.18239634-.1865985.43307757-.2906276.694-.288h1c.55228475 0 1-.4477153 1-1v-4c0-.5522847-.44771525-1-1-1h-1c-.55228475 0-1-.4477153-1-1-.00087326-.2694422.10990828-.5272084.306-.712.18239634-.1865985.43307757-.2906276.694-.288h1c.55228475 0 1-.4477153 1-1v-1c0-1.1045695.8954305-2 2-2h38c1.1045695 0 2 .8954305 2 2v1c0 .5522847.4477153 1 1 1h1c.5522847 0 1 .4477153 1 1 .0008733.2694422-.1099083.5272084-.306.712-.1823963.1865985-.4330776.2906276-.694.288h-1c-.5522847 0-1 .4477153-1 1v4c0 .5522847.4477153 1 1 1h1c.5522847 0 1 .4477153 1 1 .0008733.2694422-.1099083.5272084-.306.712-.1823963.1865985-.4330776.2906276-.694.288h-1c-.5522847 0-1 .4477153-1 1v4c0 .5522847.4477153 1 1 1h1c.5522847 0 1 .4477153 1 1 .0008733.2694422-.1099083.5272084-.306.712-.1823963.1865985-.4330776.2906276-.694.288h-1c-.5522847 0-1 .4477153-1 1v4c0 .5522847.4477153 1 1 1h1c.5522847 0 1 .4477153 1 1 .0008733.2694422-.1099083.5272084-.306.712-.1823963.1865985-.4330776.2906276-.694.288h-1c-.5522847 0-1 .4477153-1 1v1c0 1.1045695-.8954305 2-2 2h-38c-1.1045695 0-2-.8954305-2-2v-1c0-.5522847-.44771525-1-1-1h-1c-.55228475 0-1-.4477153-1-1-.00087326-.2694422.10990828-.5272084.306-.712.18239634-.1865985.43307757-.2906276.694-.288h1c.55228475 0 1-.4477153 1-1v-4c0-.5522847-.44771525-1-1-1z"/><path id="Shape" d="m11.56 13.039c-.5522847.0030376-1.0024624-.4422153-1.0055-.9945s.4422153-1.0024624.9945-1.0055h.011c.5522847 0 1 .4477153 1 1s-.4477153 1-1 1z"/><path id="Shape" d="m23.972 55.834c.6611876.108118 1.330031.1626287 2 .163 3.1815852.0143528 6.2380725-1.2381054 8.4947471-3.4808961 2.2566745-2.2427908 3.5279711-5.2914907 3.5332529-8.4731039 0-8.968-9.537-16.712-10.624-17.565-.8031687-.6361005-1.9375964-.6389945-2.744-.007-2.132 1.674-12.658 10.529-10.293 20.468 1.1529711 4.6188555 4.9370736 8.1130516 9.633 8.895zm1.895-27.789c.0377369-.0300366.084778-.0459527.133-.045.0523674.0003344.1030952.0183005.144.051 1.006.792 9.856 7.97 9.856 15.992-.0001777 2.9193621-1.2846073 5.6908336-3.512 7.578-2.268005 1.9127205-5.2622888 2.7315043-8.188 2.239-3.902114-.6465145-7.0487885-3.5465142-8.011-7.383-2.132-8.94 8.373-17.487 9.578-18.432z"/><path id="Shape" d="m24.619 51.887c.4565563.074655.9183806.1124436 1.381.113.5522847 0 1-.4477153 1-1s-.4477153-1-1-1c-.3547687-.0003909-.7089242-.0294858-1.059-.087-2.3155365-.3755022-4.1873925-2.0894388-4.765-4.363-.1278539-.5373731-.6671269-.8693539-1.2045-.7415-.537373.1278539-.8693539.6671269-.7415 1.2045.7697143 3.0557042 3.279519 5.3632004 6.389 5.874z"/></g></g></g></g></svg>