<svg height="512" viewBox="0 0 54 60" width="512" xmlns="http://www.w3.org/2000/svg"><g id="Page-1" fill="none" fill-rule="evenodd"><g id="031---Microphone" fill-rule="nonzero" transform="translate(0 -1)"><path id="Shape" d="m41 18v12h-28v-12c0-7.7319865 6.2680135-14 14-14s14 6.2680135 14 14z" fill="#e8edfc"/><path id="Shape" d="m36.9 8.1c-2.6257157-2.62544785-6.1868666-4.10026791-9.9-4.1-.5010337.00119028-1.0016819.02789151-1.5.08 7.1104461.76624429 12.5003009 6.7683866 12.5 13.92v12h3v-12c.0002679-3.7131334-1.4745522-7.2742843-4.1-9.9z" fill="#cad9fc"/><path id="Shape" d="m19 56h16c1.1045695 0 2 .8954305 2 2v2h-20v-2c0-1.1045695.8954305-2 2-2z" fill="#a4c2f7"/><path id="Shape" d="m35 56h-3c1.1045695 0 2 .8954305 2 2v2h3v-2c0-1.1045695-.8954305-2-2-2z" fill="#7facfa"/><path id="Shape" d="m29 52v4h-4v-4" fill="#a4c2f7"/><path id="Shape" d="m31 47.73v3.27c0 .5522847-.4477153 1-1 1h-6c-.5522847 0-1-.4477153-1-1v-3.27c.9896688.1813347 1.993857.2717116 3 .27h2c1.006143.0017116 2.0103312-.0886653 3-.27z" fill="#a4c2f7"/><path id="Shape" d="m45 31c-.0015495 8.2303927-5.8987756 15.2775779-14 16.73-.9896688.1813347-1.993857.2717116-3 .27h-2c-1.006143.0017116-2.0103312-.0886653-3-.27-8.1012244-1.4524221-13.99845047-8.4996073-14-16.73 0-1.1045695.8954305-2 2-2s2 .8954305 2 2c0 7.1797017 5.8202983 13 13 13h2c3.4478144 0 6.7544152-1.3696389 9.1923882-3.8076118 2.4379729-2.437973 3.8076118-5.7445738 3.8076118-9.1923882 0-1.1045695.8954305-2 2-2s2 .8954305 2 2z" fill="#e8edfc"/><path id="Shape" d="m43 29c-.5760361.0032504-1.1226995.2547156-1.5.69.3192922.3620202.496881.827303.5 1.31.0410584 9.2119777-7.2909003 16.7661169-16.5 17.0000239l.5-.0000239h2c1.006143.0017116 2.0103312-.0886653 3-.27 8.1012244-1.4524221 13.9984505-8.4996073 14-16.73 0-1.1045695-.8954305-2-2-2z" fill="#cad9fc"/><path id="Shape" d="m41 30v1c0 3.4478144-1.3696389 6.7544152-3.8076118 9.1923882-2.437973 2.4379729-5.7445738 3.8076118-9.1923882 3.8076118h-2c-7.1797017 0-13-5.8202983-13-13v-1z" fill="#cad9fc"/><path id="Shape" d="m38 30v1c.0051711 6.9888872-5.5162821 12.7311985-12.5 13h.5 2c7.1797017 0 13-5.8202983 13-13v-1z" fill="#a4c2f7"/><path id="Shape" d="m44 29.29v1.71c.0055179-.4792452.1829521-.940574.5-1.3-.1454617-.1606539-.3139646-.2988262-.5-.41z" fill="#fff"/><path id="Shape" d="m17 58v2h3v-2c0-1.1045695.8954305-2 2-2h-3c-1.1045695 0-2 .8954305-2 2z" fill="#fff"/><path id="Shape" d="m13 18v11.28c.6169405-.3562079 1.3767843-.3573625 1.9948044-.0030309.6180201.3543315 1.0009106 1.0106537 1.0051956 1.7230309v-13c-.0003009-7.1516134 5.3895539-13.15375571 12.5-13.92-.4983181-.05210849-.9989663-.07880972-1.5-.08-7.7319865 0-14 6.2680135-14 14z" fill="#fff"/><path id="Shape" d="m23 47.73v3.27c0 .5522847.4477153 1 1 1h1v4h3v-4h-1c-.5522847 0-1-.4477153-1-1v-3.27c-8.1012244-1.4524221-13.9984505-8.4996073-14-16.73.003119-.482697.1807078-.9479798.5-1.31-.5486136-.6221084-1.4242896-.8410235-2.2011149-.5502689-.77682529.2907546-1.29356456 1.0308309-1.2988851 1.8602689.00154953 8.2303927 5.8987756 15.2775779 14 16.73z" fill="#fff"/><path id="Shape" d="m11.76 38.25-1.76.91c-1.28772093-2.5291102-1.97226957-5.3220686-2-8.16h2c.0142576 2.5207276.6169241 5.0033028 1.76 7.25z" fill="#fff"/><g fill="#428dff"><path id="Shape" d="m54 18c.0209002-6.0279873-1.9986248-11.88566716-5.73-16.62-.1637561-.21049286-.404808-.34685442-.66958-.37877729-.2647721-.03192288-.5313267.04323791-.74042.20877729-.2104929.16375611-.3468544.40480799-.3787773.66958004-.0319229.26477206.0432379.53132663.2087773.74041996 3.4576337 4.37904759 5.3294067 9.8004918 5.31 15.38 0 .5522847.4477153 1 1 1s1-.4477153 1-1z"/><path id="Shape" d="m5.74 1.38c-3.73706489 4.73186324-5.76041918 10.5904257-5.74 16.62 0 .5522847.44771525 1 1 1s1-.4477153 1-1c-.01625316-5.5789843 1.85517133-10.99941909 5.31-15.38.16553938-.20909333.24070017-.4756479.20877729-.74041996-.03192287-.26477205-.16828443-.50582393-.37877729-.66958004-.43398625-.33806268-1.0595339-.26210332-1.4.17z"/><path id="Shape" d="m49 19c.5522847 0 1-.4477153 1-1 .0138903-5.0411618-1.6462777-9.94428521-4.72-13.94-.2087685-.30789347-.57119-.47445491-.9408003-.43237235-.3696102.04208256-.6853128.28585288-.8195237.63279683-.134211.34694394-.0647453.7397118.180324 1.01957552 2.8007628 3.64769828 4.3130004 8.1211082 4.3 12.72 0 .5522847.4477153 1 1 1z"/><path id="Shape" d="m8.72 4.07c-3.07365401 3.99191732-4.73394606 8.8918894-4.72 13.93.00000002.5522847.44771526 1 1 1s.99999998-.4477153 1-1c-.01078773-4.5954695 1.5013323-9.06501501 4.3-12.71.2965127-.43729934.2016771-1.02980789-.2165123-1.35271363-.41818937-.32290574-1.01541714-.26477521-1.3634877.13271363z"/><path id="Shape" d="m40.7 6.31c-.4353218.33745674-.5158001.96339902-.18 1.4 2.2708657 2.9481868 3.4952809 6.5686557 3.48 10.29 0 .5522847.4477153 1 1 1s1-.4477153 1-1c.0116194-4.1628743-1.3602419-8.21162373-3.9-11.51-.3374567-.43532179-.963399-.51580008-1.4-.18z"/><path id="Shape" d="m11.89 6.49c-2.5287761 3.30361484-3.89620123 7.3496465-3.89 11.51 0 .5522847.44771525 1 1 1s1-.4477153 1-1c-.00484297-3.7212762 1.2223228-7.3394813 3.49-10.29.217932-.28581247.2668304-.66617943.1282755-.99782032-.1385549-.3316409-.4435131-.56417158-.8-.61s-.7103435.10200785-.9282755.38782032z"/><path id="Shape" d="m27 3c-8.2842712 0-15 6.71572875-15 15v10.18c-.9168047-.3241437-1.9338513-.1838094-2.72861714.3765005-.79476588.5603099-1.26865265 1.4710837-1.27138286 2.4434995 0 .5522847.44771525 1 1 1s1-.4477153 1-1 .4477153-1 1-1 1 .4477153 1 1c0 7.7319865 6.2680135 14 14 14h2c7.7319865 0 14-6.2680135 14-14 0-.5522847.4477153-1 1-1s1 .4477153 1 1c0 8.836556-7.163444 16-16 16h-2c-2.9489136-.0126639-5.8375589-.8360143-8.35-2.38-.6248277-.3833664-1.2259227-.804133-1.8-1.26-.5580598-.4729887-1.0857714-.9806605-1.58-1.52-1.0038817-1.0706064-1.8491417-2.2795639-2.51-3.59-.2457883-.4883422-.838193-.6887799-1.33-.45-.2390587.1215967-.4192518.334127-.5001072.5898558-.08085543.2557288-.05559518.5332186.0701072.7701442.754429 1.4574168 1.7067833 2.8035005 2.83 4 .5586101.6019432 1.153023 1.1696409 1.78 1.7.6391058.5140811 1.3068439.9915138 2 1.43 1.658295 1.0415069 3.4805917 1.7954442 5.39 2.23v2.48c0 1.1045695.8954305 2 2 2v2h-5c-1.6568542 0-3 1.3431458-3 3v2c0 .5522847.4477153 1 1 1h20c.5522847 0 1-.4477153 1-1v-2c0-1.6568542-1.3431458-3-3-3h-5v-2c1.1045695 0 2-.8954305 2-2v-2.46c8.1863719-1.865846 13.9953683-9.1436887 14-17.54-.0027302-.9724158-.476617-1.8831896-1.2713829-2.4434995-.7947658-.5603099-1.8118124-.7006442-2.7286171-.3765005v-10.18c0-8.28427125-6.7157288-15-15-15zm9 55v1h-18v-1c0-.5522847.4477153-1 1-1h16c.5522847 0 1 .4477153 1 1zm-8-3h-2v-2h2zm2-4h-6v-2.14c.6637382.0818322 1.3313341.1285639 2 .14h2c.6684805.0005018 1.3363753-.0395719 2-.12zm-3-46c5.2481111 0 9.9814957 3.1555898 12 8h-9c-.5522847 0-1 .4477153-1 1s.4477153 1 1 1h9.64c.1711372.6564425.2914927 1.3250841.36 2h-10c-.5522847 0-1 .4477153-1 1s.4477153 1 1 1h10v2h-10c-.5522847 0-1 .4477153-1 1s.4477153 1 1 1h10v2h-10c-.5522847 0-1 .4477153-1 1s.4477153 1 1 1h10v2h-26v-2h5c.5522847 0 1-.4477153 1-1s-.4477153-1-1-1h-5v-2h5c.5522847 0 1-.4477153 1-1s-.4477153-1-1-1h-5v-2h5c.5522847 0 1-.4477153 1-1s-.4477153-1-1-1h-4.95c.0520757-.6736086.1557127-1.3422342.31-2h4.64c.5522847 0 1-.4477153 1-1s-.4477153-1-1-1h-4c2.0185043-4.8444102 6.7518889-8 12-8zm1 38h-2c-6.627417 0-12-5.372583-12-12h26c0 6.627417-5.372583 12-12 12z"/><path id="Shape" d="m9.5 36c-.55228475 0-1-.4477153-1-1s.44771525-1 1-1c.5522847 0 1 .4477153 1 1s-.4477153 1-1 1z"/><path id="Shape" d="m23 19h1c.5522847 0 1-.4477153 1-1s-.4477153-1-1-1h-1c-.5522847 0-1 .4477153-1 1s.4477153 1 1 1z"/><path id="Shape" d="m23 23h1c.5522847 0 1-.4477153 1-1s-.4477153-1-1-1h-1c-.5522847 0-1 .4477153-1 1s.4477153 1 1 1z"/><path id="Shape" d="m23 15h1c.5522847 0 1-.4477153 1-1s-.4477153-1-1-1h-1c-.5522847 0-1 .4477153-1 1s.4477153 1 1 1z"/><path id="Shape" d="m23 27h1c.5522847 0 1-.4477153 1-1s-.4477153-1-1-1h-1c-.5522847 0-1 .4477153-1 1s.4477153 1 1 1z"/></g></g></g></svg>