<svg height="512" viewBox="0 0 60 58" width="512" xmlns="http://www.w3.org/2000/svg"><g id="016---Money-Growth" fill="none"><g id="Icons_copy" transform="translate(1)"><path id="Shape" d="m37 30v15c0 1.49-1.64 2.8-4.06 3.48-1.2834084.3525247-2.6090775.5274861-3.94.52-4.42 0-8-1.79-8-4v-15c.0456092-.7835855.4331921-1.5075613 1.06-1.98 1.37-1.21 3.97-2.02 6.94-2.02 4.42 0 8 1.79 8 4z" fill="#e8edfc"/><path id="Shape" d="m29 26c-.5 0-.988.031-1.465.075 3.685.358 6.465 1.978 6.465 3.925v15c0 1.49-1.64 2.8-4.06 3.48-.8104508.2229994-1.6395517.371615-2.477.444.5.049 1.011.076 1.537.076 1.3309225.0074861 2.6565916-.1674753 3.94-.52 2.42-.68 4.06-1.99 4.06-3.48v-15c0-2.21-3.58-4-8-4z" fill="#cad9fc"/><path id="Shape" d="m58 25v20c0 1.49-1.64 2.8-4.06 3.48-1.2834084.3525247-2.6090775.5274861-3.94.52-4.42 0-8-1.79-8-4v-20c.0456092-.7835855.4331921-1.5075613 1.06-1.98 1.37-1.21 3.97-2.02 6.94-2.02 4.42 0 8 1.79 8 4z" fill="#e8edfc"/><path id="Shape" d="m50 21c-.5 0-.988.031-1.465.075 3.685.358 6.465 1.978 6.465 3.925v20c0 1.49-1.64 2.8-4.06 3.48-.8104508.2229994-1.6395517.371615-2.477.444.5.049 1.011.076 1.537.076 1.3309225.0074861 2.6565916-.1674753 3.94-.52 2.42-.68 4.06-1.99 4.06-3.48v-20c0-2.21-3.58-4-8-4z" fill="#cad9fc"/><path id="Shape" d="m16 35v10c0 1.49-1.64 2.8-4.06 3.48-1.2834084.3525247-2.60907749.5274861-3.94.52-4.42 0-8-1.79-8-4v-10c.04560918-.7835855.43319215-1.5075613 1.06-1.98 1.37-1.21 3.97-2.02 6.94-2.02 4.42 0 8 1.79 8 4z" fill="#e8edfc"/><path id="Shape" d="m8 31c-.5 0-.988.031-1.465.075 3.685.358 6.465 1.978 6.465 3.925v10c0 1.49-1.64 2.8-4.06 3.48-.81045077.2229994-1.63955173.371615-2.477.444.498.049 1.011.076 1.537.076 1.33092251.0074861 2.6565916-.1674753 3.94-.52 2.42-.68 4.06-1.99 4.06-3.48v-10c0-2.21-3.58-4-8-4z" fill="#cad9fc"/><path id="Shape" d="m37 30c0 2.21-3.58 4-8 4-.500868.002331-1.0015259-.021033-1.5-.07-3.7-.35-6.5-1.98-6.5-3.93s2.8-3.58 6.5-3.93c.4984741-.048967.999132-.072331 1.5-.07 4.42 0 8 1.79 8 4z" fill="#e8edfc"/><path id="Shape" d="m29 26c-.500868-.002331-1.0015259.021033-1.5.07h-.014c3.714.35 6.514 1.974 6.514 3.93s-2.8 3.58-6.514 3.928h.014c.4984398.0496348.9990977.0736664 1.5.072 4.42 0 8-1.79 8-4s-3.58-4-8-4z" fill="#cad9fc"/><path id="Shape" d="m58 25c0 2.21-3.58 4-8 4-.500868.002331-1.0015259-.021033-1.5-.07-3.7-.35-6.5-1.98-6.5-3.93s2.8-3.58 6.5-3.93c.4984741-.048967.999132-.072331 1.5-.07 4.42 0 8 1.79 8 4z" fill="#e8edfc"/><path id="Shape" d="m50 21c-.500868-.002331-1.0015259.021033-1.5.07h-.014c3.714.35 6.514 1.974 6.514 3.93s-2.8 3.58-6.514 3.928h.014c.4984398.0496348.9990977.0736664 1.5.072 4.42 0 8-1.79 8-4s-3.58-4-8-4z" fill="#cad9fc"/><path id="Shape" d="m16 35c0 2.21-3.58 4-8 4-.50086802.002331-1.00152589-.021033-1.5-.07-3.7-.35-6.5-1.98-6.5-3.93s2.8-3.58 6.5-3.93c.49847411-.048967.99913198-.072331 1.5-.07 4.42 0 8 1.79 8 4z" fill="#e8edfc"/><path id="Shape" d="m8 31c-.50086802-.002331-1.00152589.021033-1.5.07h-.014c3.714.35 6.514 1.974 6.514 3.93s-2.8 3.58-6.514 3.928h.014c.49843979.0496348.99909775.0736664 1.5.072 4.42 0 8-1.79 8-4s-3.58-4-8-4z" fill="#cad9fc"/><path id="Shape" d="m43.88 7.8-3.83 10.99c-.22239.6191563-.7648511 1.0676647-1.4147692 1.1697351-.649918.1020705-1.3037501-.1585585-1.7052308-.6797351-.1823151-.1886787-.3341342-.4045992-.45-.64l-1.31-2.65-2.46.83-20.73 7.04c-.6398364.2223132-1.3493674.0933076-1.87-.34h-.01c-.21769657-.1771115-.39499535-.398735-.52-.65v-.01c-.4410114-.8837463-.15867357-1.9574856.66-2.51l20.32-13.67-1.31-2.65c-.4662474-.82799588-.3450476-1.86223401.3-2.56.458778-.45105806 1.137386-.59535976 1.74-.37l11.06 3.62c1.2494914.45467072 1.9225714 1.80962923 1.53 3.08z" fill="#e8edfc"/><path id="Shape" d="m42.35 4.72-11.06-3.62c-.602614-.22535976-1.281222-.08105806-1.74.37-.01.01-.018.023-.028.033l9.828 3.217c1.2494914.45467072 1.9225714 1.80962923 1.53 3.08l-3.83 10.99c-.05122.1389349-.1183323.2714816-.2.395.027.031.052.066.079.1.4014807.5211766 1.0553128.7818056 1.7052308.6797351.6499181-.1020704 1.1923792-.5505788 1.4147692-1.1697351l3.831-10.995c.3925714-1.27037077-.2805086-2.62532928-1.53-3.08z" fill="#cad9fc"/></g><g id="Icons" fill="#fff" transform="translate(0 1)"><path id="Shape" d="m11.1 23.02h.01c.5206326.4333076 1.2301636.5623132 1.87.34l1.09-.37c-.4704048-.3994917-.7270246-.9959091-.6936609-1.6121568s.3528751-1.1814732.8636609-1.5278432l20.82-13.67-1.31-2.65c-.4575759-.81516172-.3483922-1.8307305.272-2.53l-1.232-.4c-1.651-.55-2.879 1.235-2.04 2.93l1.31 2.65-20.82 13.67c-.8186736.5525144-1.1010114 1.6262537-.66 2.51.12054.2568961.2984415.4826942.52.66z"/><path id="Shape" d="m9 48c.5 0 .986-.031 1.463-.076-3.684-.358-6.463-1.977-6.463-3.924 0-10.971-.028-10.1.065-10.481.542-2.214 4.13-3.228 6.421-3.447-2.516-.237-5.746.132-7.842 1.5-.71557323.414642-1.26435145 1.0656089-1.552 1.841-.134.455-.092-.245-.092 10.587 0 2.21 3.58 4 8 4z"/></g><g id="Layer_11" transform="translate(0 -1)"><path id="Rectangle-path" d="m10.562 18.116h8v2h-8z" fill="#fff" transform="matrix(.83 -.558 .558 .83 -8.192 11.387)"/><g fill="#428dff"><path id="Shape" d="m30 51c5.131 0 9-2.149 9-5v-15c0-2.851-3.869-5-9-5s-9 2.149-9 5v15c0 2.851 3.869 5 9 5zm0-23c4.007 0 7 1.584 7 3s-2.993 3-7 3-7-1.584-7-3 2.993-3 7-3zm-7 6.215c3.508 2.385 10.493 2.384 14 0v1.785c0 1.416-2.993 3-7 3s-7-1.584-7-3zm0 5c3.508 2.385 10.493 2.384 14 0v1.785c0 1.416-2.993 3-7 3s-7-1.584-7-3zm0 5c3.508 2.385 10.493 2.384 14 0v1.785c0 1.416-2.993 3-7 3s-7-1.584-7-3z"/><path id="Shape" d="m60 26c0-2.851-3.869-5-9-5s-9 2.149-9 5v20c0 2.851 3.869 5 9 5s9-2.149 9-5zm-2 20c0 1.416-2.993 3-7 3s-7-1.584-7-3v-1.785c3.508 2.385 10.493 2.384 14 0zm0-5c0 1.416-2.993 3-7 3s-7-1.584-7-3v-1.785c3.508 2.385 10.493 2.384 14 0zm0-5c0 1.416-2.993 3-7 3s-7-1.584-7-3v-1.785c3.508 2.385 10.493 2.384 14 0zm0-5c0 1.416-2.993 3-7 3s-7-1.584-7-3v-1.785c3.508 2.385 10.493 2.384 14 0zm-7-2c-4.007 0-7-1.584-7-3s2.993-3 7-3 7 1.584 7 3-2.993 3-7 3z"/><path id="Shape" d="m9 51c5.131 0 9-2.149 9-5v-10c0-2.851-3.869-5-9-5s-9 2.149-9 5v10c0 2.851 3.869 5 9 5zm0-18c4.007 0 7 1.584 7 3s-2.993 3-7 3-7-1.584-7-3 2.993-3 7-3zm-7 6.215c3.508 2.385 10.493 2.384 14 0v1.785c0 1.416-2.993 3-7 3s-7-1.584-7-3zm0 5c3.508 2.385 10.493 2.384 14 0v1.785c0 1.416-2.993 3-7 3s-7-1.584-7-3z"/><path id="Shape" d="m14.571 18.116c-.5509494.0055098-.9936419.4556353-.9899779 1.0066001.003664.5509647.452304.9951627 1.003278.9933445.5509739-.0018183.9966724-.4489677.9966999-.9999446-.0038527-.5545871-.455402-1.0016656-1.01-1z"/><path id="Shape" d="m12.357 25.967c.7 0-1.138.551 23.306-7.746l.922 1.861c1.245 2.514 4.549 2.5 5.414.036l3.823-10.987c.5763117-1.79951844-.379772-3.73160426-2.16-4.365l-11.062-3.619c-2.478-.807-4.5 1.81-3.251 4.328l.922 1.862-12.949 8.716c-.4563902.3091061-.5765865.9292376-.2687314 1.3864726.307855.457235.927655.5791291 1.3857314.2725274l13.677-9.2-.01-.015c.4164376-.27219394.565527-.81157201.348-1.259l-1.31-2.646c-.412-.83-.012-1.815.838-1.539l11.061 3.614c.7145339.28290911 1.0996692 1.060088.892 1.8l-3.824 10.991c-.3.852-1.329.555-1.733-.264l-1.311-2.646c-.2234653-.4476455-.7433732-.6612477-1.217-.5l-23.189 7.869c-.4631742.1527107-.9681126-.0587772-1.1842037-.4959905-.216091-.4372134-.0774258-.9667999.3252037-1.2420095.4563902-.3091061.5765865-.9292376.2687314-1.3864726-.307855-.457235-.927655-.5791291-1.3857314-.2725274-1.08375308.7343423-1.56134186 2.0899829-1.17718959 3.3414646.38415226 1.2514817 1.54007559 2.1057027 2.84918959 2.1055354z"/><path id="Shape" d="m58 59c.5522847 0 1-.4477153 1-1v-4c0-.5522847-.4477153-1-1-1s-1 .4477153-1 1v1h-5c0-.5522847-.4477153-1-1-1s-1 .4477153-1 1h-5v-1c0-.5522847-.4477153-1-1-1s-1 .4477153-1 1v1h-5c0-.5522847-.4477153-1-1-1s-1 .4477153-1 1h-5v-1c0-.5522847-.4477153-1-1-1s-1 .4477153-1 1v1h-5c0-.5522847-.4477153-1-1-1s-1 .4477153-1 1h-5v-1c0-.5522847-.4477153-1-1-1s-1 .4477153-1 1v1h-5c0-.5522847-.44771525-1-1-1s-1 .4477153-1 1h-5v-1c0-.5522847-.44771525-1-1-1s-1 .4477153-1 1v4c0 .5522847.44771525 1 1 1s1-.4477153 1-1v-1h5c0 .5522847.44771525 1 1 1s1-.4477153 1-1h5v1c0 .5522847.4477153 1 1 1s1-.4477153 1-1v-1h5c0 .5522847.4477153 1 1 1s1-.4477153 1-1h5v1c0 .5522847.4477153 1 1 1s1-.4477153 1-1v-1h5c0 .5522847.4477153 1 1 1s1-.4477153 1-1h5v1c0 .5522847.4477153 1 1 1s1-.4477153 1-1v-1h5c0 .5522847.4477153 1 1 1s1-.4477153 1-1h5v1c0 .5522847.4477153 1 1 1z"/></g></g></g></svg>