<svg height="512" viewBox="0 0 60 60" width="512" xmlns="http://www.w3.org/2000/svg" xmlns:xlink="http://www.w3.org/1999/xlink"><linearGradient id="linearGradient-1" x1="18.905%" x2="83.355%" y1="18.553%" y2="105.348%"><stop offset="0" stop-color="#d3dff2"/><stop offset=".172" stop-color="#d3dff2"/><stop offset=".2" stop-color="#d3dff2"/><stop offset=".2" stop-color="#dae2f2"/><stop offset=".201" stop-color="#ebeaf2"/><stop offset=".201" stop-color="#f6eff2"/><stop offset=".202" stop-color="#fdf2f2"/><stop offset=".205" stop-color="#fff3f2"/><stop offset=".252" stop-color="#fff3f2"/><stop offset=".26" stop-color="#fff3f2"/><stop offset=".26" stop-color="#d3dff2"/><stop offset=".397" stop-color="#d3dff2"/><stop offset=".42" stop-color="#d3dff2"/><stop offset=".42" stop-color="#dae2f2"/><stop offset=".421" stop-color="#ebeaf2"/><stop offset=".421" stop-color="#f6eff2"/><stop offset=".422" stop-color="#fdf2f2"/><stop offset=".425" stop-color="#fff3f2"/><stop offset=".489" stop-color="#fff3f2"/><stop offset=".5" stop-color="#fff3f2"/><stop offset=".5" stop-color="#f8f0f2"/><stop offset=".5" stop-color="#e7e8f2"/><stop offset=".5" stop-color="#dce3f2"/><stop offset=".5" stop-color="#d5e0f2"/><stop offset=".501" stop-color="#d3dff2"/><stop offset=".706" stop-color="#d3dff2"/><stop offset=".74" stop-color="#d3dff2"/><stop offset=".741" stop-color="#fff3f2"/><stop offset=".835" stop-color="#fff3f2"/><stop offset=".85" stop-color="#fff3f2"/><stop offset=".851" stop-color="#d3dff2"/></linearGradient><g id="049---Lab-Plant" fill="none"><g id="Layer_4" transform="translate(1 1)"><path id="Shape" d="m36 .86c-.34 3.464-2.031 7.854-5.09 9.83-2.752 1.773-6.561 1.713-9.76.96-.8-.19-1.29-.36-1.29-.36s.05-.51.21-1.32c.42-2.16 1.64-6.41 4.88-8.51 1.2551929-.78074144 2.6772165-1.25360711 4.15-1.38 2.3289214-.1967865 4.6737788.06828434 6.9.78z" fill="#cad9fc"/><path id="Shape" d="m33 .86c-.34 3.464-2.031 7.854-5.09 9.83-1.2551929.7807414-2.6772165 1.2536071-4.15 1.38-1.3248005-.1152848-2.6327669-.3768781-3.9-.78 0 0 .05-.51.21-1.32.42-2.16 1.64-6.41 4.88-8.51 1.2551929-.78074144 2.6772165-1.25360711 4.15-1.38 1.3248005.11528484 2.6327669.37687812 3.9.78z" fill="#e8edfc"/><path id="Shape" d="m16.14 11.29c-2.2220897.7149247-4.5643245.9800833-6.89.78-1.47624176-.1247689-2.9018823-.5976977-4.16-1.38-3.081-1.99-4.755-6.416-5.09-9.83 0 0 .49-.17 1.29-.36 3.2-.753 7.008-.813 9.76.96 3.23 2.09 4.46 6.34 4.88 8.5.16.81.21 1.33.21 1.33z" fill="#cad9fc"/><path id="Shape" d="m13.14 11.29c-1.2631236.4057848-2.5680793.6674469-3.89.78-1.47624176-.1247689-2.9018823-.5976977-4.16-1.38-3.081-1.99-4.755-6.416-5.09-9.83 1.26715289-.40343252 2.57515406-.66503275 3.9-.78 1.47278351.12639289 2.89480709.59925856 4.15 1.38 3.23 2.09 4.46 6.34 4.88 8.5.16.81.21 1.33.21 1.33z" fill="#e8edfc"/><path id="Shape" d="m29.72 33.65c-1.386 4.88-7.087 6.5-11.72 4.74-3.75-1.4-6.91-4.34-12.52-3.64 1.56528909-2.3775808 3.77459216-4.2608642 6.37-5.43.7040955-.3214782 1.1542046-1.0259967 1.15-1.8v-5.52h10v5.52c-.0033477.7819398.4556378 1.4919943 1.17 1.81 2.1682198.9764929 4.0712303 2.4577552 5.55 4.32z" fill="#a4c2f7"/><path id="Shape" d="m28.49 35.69c-.06.22-.14.45-.23.69l-.01.01c-2.047 2.345-6.167 3.552-10.25 2-3.75-1.4-6.91-4.34-12.52-3.64 1.56528909-2.3775808 3.77459216-4.2608642 6.37-5.43.7040955-.3214782 1.1542046-1.0259967 1.15-1.8v-5.52h7.59v6.49c-.0032953.9208995.5381732 1.7566444 1.38 2.13 2.5474667 1.1443477 4.7833298 2.8829713 6.52 5.07z" fill="url(#linearGradient-1)"/><path id="Shape" d="m33 43c-.0016434 6.4127872-4.0797487 12.1152303-10.1477446 14.1896623-6.0679959 2.0744319-12.7835565.0619592-16.71065088-5.0077323-3.9270944-5.0696915-4.19699417-12.0751147-.67160452-17.43193 6.572-.66 9.337 2.861 13.53 3.97 4.006 1.191 9.381-.382 10.72-5.07 2.1274692 2.6514978 3.2847692 5.9505084 3.28 9.35z" fill="#a4c2f7"/><path id="Shape" d="m29.72 33.65c-.26818.9405131-.7312052 1.814094-1.359 2.564 2.2161138 4.3868128 2.148389 9.5798051-.1813735 13.9073324-2.3297625 4.3275274-6.6274524 7.2432807-11.5096265 7.8086676 5.9789383.5394286 11.7026959-2.5416942 14.544796-7.8295248 2.8421001-5.2878307 2.2538588-11.7615229-1.494796-16.4504752z" fill="#7facfa"/><rect id="Rectangle-path" fill="#cad9fc" height="5" rx="2" width="14" x="11" y="17"/><rect id="Rectangle-path" fill="#e8edfc" height="5" rx="2" width="11" x="11" y="17"/><path id="Shape" d="m37.08 19.34c-.1641394 1.9618844-1.7314577 3.5126285-3.6949761 3.6559023-1.9635185.1432737-3.7393458-1.1635282-4.1865393-3.0808049s.5672287-3.8748879 2.3915154-4.6150974c1.2880742-.5226398 2.755126-.33908 3.8747203.4848108 1.1195942.8238909 1.7311736 2.1699614 1.6152797 3.5551892z" fill="#cad9fc"/><path id="Shape" d="m31.6 22.71c-1.5077846-.6111735-2.4951715-2.0746938-2.4973671-3.7016365s.9812376-3.0931227 2.4873671-3.7083635c1.5077846.6111735 2.4951715 2.0746938 2.4973671 3.7016365s-.9812376 3.0931227-2.4873671 3.7083635z" fill="#e8edfc"/><path id="Shape" d="m58 20.5c-.0001964 1.7285362-1.2649672 3.1968248-2.9744103 3.4530311-1.7094431.2562064-3.3490969-.7767755-3.8560374-2.4293035s.2713976-3.4272692 1.8304477-4.1737276c1.0825167-.5105207 2.3507018-.433376 3.3633549.2045954 1.0126531.6379715 1.6297657 1.7485644 1.6366451 2.9454046z" fill="#cad9fc"/><path id="Shape" d="m53 23.65c-1.2190528-.5751605-1.9968005-1.8020759-1.9968005-3.15s.7777477-2.5748395 1.9968005-3.15c1.2190528.5751605 1.9968005 1.8020759 1.9968005 3.15s-.7777477 2.5748395-1.9968005 3.15z" fill="#e8edfc"/><path id="Shape" d="m51 31c-.0000274 1.853011-.6433107 3.648549-1.82 5.08l-.76-1.05c-.4233597-.5805566-1.1242835-.8911533-1.8387401-.8147913s-1.3339031.5280815-1.625 1.185c-.2910969.6569186-.2096196 1.4192347.2137401 1.9997913l.76 1.04c-3.2671106 1.2859297-6.9908675.2913039-9.1816407-2.4524417-2.1907732-2.7437455-2.3364948-6.5952921-.3593047-9.4967308 1.97719-2.9014386 5.6151465-4.1745917 8.9700831-3.1392044 3.3549367 1.0353874 5.6426759 4.1373053 5.6408623 7.6483769z" fill="#cad9fc"/><path id="Shape" d="m47.29 34.27c-.734935-.1837387-1.5107657.0611248-2.0070723.6334613-.4963065.5723365-.6288647 1.3750194-.3429277 2.0765387l-2.01 1.46c-.459902.181948-.9351189.3225051-1.42.42-3.7759506-.7183301-6.5073515-4.0204717-6.5049064-7.8641412.0024451-3.8436694 2.738045-7.1423333 6.5149064-7.8558588 2.3973692.4664582 4.4503375 2.002483 5.5744121 4.1707585 1.1240745 2.1682755 1.1961065 4.7312548.1955879 6.9592415z" fill="#e8edfc"/><path id="Shape" d="m51.38 39.11c-1.3585145.2805826-2.5596076 1.0670126-3.36 2.2-2.478-3.4-1.838-2.522-2.85-3.91-.6544574-.8974627-.4574626-2.1555425.44-2.8099999.8974627-.6544574 2.1555426-.4574628 2.81.4399999 1.028 1.39.341.47 2.96 4.08z" fill="#7facfa"/><path id="Shape" d="m58 44.5c.0007764 2.841824-2.1635634 5.2163042-4.993302 5.4781126-2.8297387.2618083-5.3929856-1.675274-5.9136123-4.4690013s1.1728198-5.5240682 3.9069143-6.2991113c1.6582406-.4700671 3.4409431-.1356022 4.8160256.9035673s2.1835035 2.6628536 2.1839744 4.3864327z" fill="#cad9fc"/><ellipse id="Oval" cx="51" cy="44.5" fill="#e8edfc" rx="4" ry="5.29"/></g><g id="Layer_3" fill="#fff" transform="translate(1 1)"><path id="Shape" d="m6 43.18c-.04202736-2.9942992.81867961-5.9318537 2.47-8.43h.01c.01-.01.01-.02.02-.03 1.5615681-2.365917 3.7639446-4.2388041 6.35-5.4.7040955-.3214782 1.1542046-1.0259967 1.15-1.8v-5.52c-1.1032019-.0032948-1.9967052-.8967981-2-2v-1c.0032948-1.1032019.8967981-1.9967052 2-2h-3c-1.1032019.0032948-1.9967052.8967981-2 2v1c.0032948 1.1032019.8967981 1.9967052 2 2v5.52c.0042046.7740033-.4459045 1.4785218-1.15 1.8-2.59540784 1.1691358-4.80471091 3.0524192-6.37 5.43h-.01c-1.65132039 2.4981463-2.51202736 5.4357008-2.47 8.43.15161417 7.6096687 5.93290716 13.9219841 13.5 14.74.26.03.52.05.79.06.7174218.0269705 1.4358519.0035797 2.15-.07-7.5396789-.845465-13.28716353-7.1446055-13.44-14.73z"/><path id="Shape" d="m5.09 10.69c1.2581177.7823023 2.68375824 1.2552311 4.16 1.38 1.0047741.1015471 2.0172259.1015471 3.022 0h-.022c-1.4762418-.1247689-2.9018823-.5976977-4.16-1.38-3.25-2.1-4.47-6.36-4.89-8.51-.15-.81-.2-1.32-.2-1.32s.49-.17 1.29-.36c.84551898-.19873629 1.70397123-.33774608 2.569-.416-.9839227-.09752311-1.9750773-.09752311-2.959 0-.87888805.07769668-1.75110615.21805362-2.61.42-.8.19-1.29.36-1.29.36s.05.51.2 1.32c.42 2.146 1.64 6.406 4.89 8.506z"/></g><g id="Layer_2" transform="translate(0 -1)"><path id="Shape" d="m7.078 52.242-1.7 1.047c-1.50278451-2.4347106-2.32405979-5.2283589-2.378-8.089l2-.024c.04823 2.4987941.76583012 4.9389108 2.078 7.066z" fill="#fff"/><g fill="#428dff"><path id="Shape" d="m4.618 50.134c-.35726559.0017863-.6883456-.187162-.8685254-.4956699s-.18208579-.6897057-.005-1c.17708579-.3102942.50625981-.5025438.8635254-.5043301h.01c.55228475 0 1 .4477153 1 1s-.44771525 1-1 1z"/><path id="Shape" d="m25.576 30.415c-.3521778-.1607432-.5775426-.5128757-.576-.9v-4.7c1.1940068-.4221309 1.9943273-1.548582 2-2.815v-1c0-1.6568542-1.3431458-3-3-3h-3.98c.2075511-1.2433954.6126695-2.4455842 1.2-3.561 1.6450528.4560699 3.3429489.6937753 5.05.707 2.1738937.0645672 4.3204031-.4981842 6.183-1.621 4.809-3.108 5.515-10.274 5.547-10.578.1-1.11-1.5-1.3-2.272-1.473-1.5040106-.34817601-3.0455757-.507405-4.589-.474-1.8991445.01168553-3.7646706.5021428-5.424 1.426-.1.061-.2.123-.3.188-4.3 2.783-5.32 8.8-5.506 10.255-.3715755.4515821-.6717283.9574576-.89 1.5-.2183759-.5747558-.5321076-1.108573-.928-1.579-.216-1.6-1.277-7.448-5.5-10.175-4.811-3.107-11.63-.803-11.918-.704-1 .342-.6 1.692-.453 2.454.24093212 1.25823645.60570726 2.4895619 1.089 3.676.59123178 1.50383556 1.45542451 2.8853912 2.549 4.075.50563818.5348389 1.07293499 1.00781 1.69 1.409 1.86264133 1.1227107 4.00911922 1.6854538 6.183 1.621 1.7243678-.0133032 3.4393423-.2554172 5.1-.72.561562 1.1263619.9489709 2.3314095 1.149 3.574h-3.98c-1.6568542 0-3 1.3431458-3 3v1c.0052514 1.2667854.8056491 2.3937454 2 2.816v4.7c.0051788.3813911-.2140933.7302687-.56.891-5.80927682 2.6108241-9.51686893 8.4184687-9.44 14.787.00410855.3572656.19850394.6852007.50995929.8602754.31145536.1750747.6926532.1706909 1-.0115s.49414926-.5145098.49004071-.8717754c-.0301468-2.6308874.68247575-5.216917 2.056-7.461 3.511-.314 5.937.891 8.482 2.183.8.4 1.62.8 2.462 1.156v3.333l-1.5-.747c-.9846763-.499008-2.1676744-.3930505-3.048.273l-2.252 1.692c-.2390985.1788352-.5504739.229611-.834.136l-2.051-.683c-.52467051-.174522-1.09147799.1093295-1.26599997.634s.10932948 1.091478.63399997 1.266l2.05.684c.9068173.301193 1.9037255.1378451 2.667-.437l2.255-1.69c.2748503-.2091511.6451468-.2425672.953-.086l2.05 1.025-.16.32c-.1189536.2376255-.3360323.4112153-.594.475l-2.429.609c-.7031966.1733393-1.3156379.6044752-1.716 1.208l-1.591 2.385c-.306518.4595009-.1825009 1.080482.277 1.387s1.080482.1825009 1.387-.277l1.592-2.387c.1249429-.1885578.316306-.3231546.536-.377l2.43-.607c.3782564-.097052.7330153-.2694995 1.043-.507l.457 2.743c.038159.2280051-.0122835.4619727-.141.654l-1.581 2.371c-.306518.4595009-.1825009 1.0804819.277 1.387.4595009.306518 1.080482.1825009 1.387-.277l1.581-2.371c.4111015-.6148791.5717211-1.3636028.449-2.093l-.5-2.979 3.538 2.356c.1678467.1125141.2937275.277425.358.469l.793 2.378c.174522.5246705.7413295.808522 1.266.634s.808522-.7413295.634-1.266l-.792-2.376c-.2047109-.6134504-.6079357-1.1412315-1.146-1.5l-4.022-2.681 1.405-.7c.3075918-.1561451.6773706-.1227407.952.086l2.252 1.687c.7640549.572475 1.7602608.7339007 2.666.432l2.05-.684c.3394023-.1128959.5927937-.398285.6647242-.748664.0719304-.350379-.0485282-.712517-.3160001-.95-.2674719-.2374831-.6413218-.3142319-.9807241-.201336l-2.051.683c-.2824533.0943324-.5931344.0454738-.833-.131l-2.255-1.693c-.8803714-.6649479-2.0624455-.7708574-3.047-.273l-1.5.748v-2.634c.8568428.2283266 1.7392736.3466113 2.626.352.5072799-.0012767 1.0138493-.0380331 1.516-.11 3.86-.552 5.809-2.509 6.8-4.28 2.7018109 4.4198703 2.7405565 9.9708062.1007072 14.4279613-2.6398493 4.457155-7.5262508 7.091063-12.7007072 6.8460387-2.2784815-.1267489-4.4923172-.8037324-6.452-1.973-1.95803469-1.1833459-3.60399243-2.8186735-4.8-4.769-.29813314-.4433487-.88287179-.5900728-1.355-.34-.24073607.1278573-.41601.3517479-.48234526.6161358-.06633525.2643879-.01751707.5445035.13434526.7708642 1.36395774 2.223474 3.24107862 4.0875641 5.474 5.436 2.2447643 1.3409013 4.7820683 2.1155117 7.393 2.257.257.012.512.018.767.018 7.5378106-.0054533 14.04949-5.2712931 15.6318923-12.6411385s-2.1937031-14.8446073-9.0648923-17.9438615zm5.79-18.569c-2.5 1.618-5.851 1.406-8.011 1.021l12.245-7.912c-.539 2.128-1.72 5.266-4.234 6.891zm-4.866-7.546c2.5-1.621 5.847-1.41 8.008-1.024l-12.237 7.91c.537-2.13 1.721-5.271 4.229-6.886zm-15 0c2.5 1.616 3.685 4.752 4.223 6.881l-12.238-7.906c2.157-.388 5.505-.604 8.015 1.025zm-4.87 7.549c-2.499-1.621-3.683-4.759-4.221-6.889l12.245 7.905c-2.16.387-5.513.601-8.02-1.019zm6.37 9.151c0-.5522847.4477153-1 1-1h10c.5522847 0 1 .4477153 1 1v1c0 .5522847-.4477153 1-1 1h-10c-.5522847 0-1-.4477153-1-1zm3.443 17.108c-2.4008713-1.409694-5.0956184-2.2441654-7.873-2.438 1.30464893-1.4627861 2.902634-2.6345282 4.69-3.439 1.0632392-.4843151 1.744078-1.5466584 1.74-2.715v-4.516h3v13.875c-.512-.24-1.027-.497-1.557-.767zm7.416 1.9c-1.2959726.1797681-2.6158866.0610819-3.859-.347v-14.661h3v4.517c-.0001031 1.1731893.6863543 2.2378827 1.755 2.722 1.8604192.8380787 3.5143025 2.0741389 4.845 3.621-.633 1.704-2.146 3.64-5.741 4.15z"/><path id="Shape" d="m42.684 28.052c-.151.048-3.684 1.269-3.684 4.948 0 .5522847.4477153 1 1 1s1-.4477153 1-1c.0817409-1.3946313.9990392-2.6012284 2.321-3.053.5079608-.1869159.775005-.7440582.6025447-1.2571071-.1724602-.5130489-.721819-.7957592-1.2395447-.6378929z"/><path id="Shape" d="m55.5 27c2.4852814 0 4.5-2.0147186 4.5-4.5s-2.0147186-4.5-4.5-4.5-4.5 2.0147186-4.5 4.5c.0050287.7454186.1976121 1.4775792.56 2.129l-1.756 1.5c-3.1255861-2.6566474-7.655313-2.8538964-11-.479l-1.015-1.435c1.687149-1.9815278 1.5980489-4.919169-.2060896-6.7948044-1.8041386-1.8756355-4.7361016-2.0787801-6.7816707-.4698763s-2.5389489 4.5061871-1.1411944 6.7014562c1.3977546 2.1952691 4.2317 2.974004 6.5549547 1.8012245l1.082 1.53c-2.376799 2.6438081-2.9745586 6.4389999-1.5254935 9.6853987 1.4490651 3.2463987 4.6733734 5.3355693 8.2284935 5.3316013.8650826-.0005425 1.7254647-.1272079 2.554-.376l1.261 1.731c-1.4181804 2.5651241-.9441539 5.7620697 1.1573316 7.805316 2.1014856 2.0432463 5.3104879 2.4272603 7.8347523.9375669s3.739246-4.4845193 2.9663674-7.3118424-3.3423944-4.7876167-6.2734513-4.7860405c-.2224286.0002014-.4447073.011549-.666.034l-1.414-1.944c1.0264299-1.4992285 1.5770525-3.2730697 1.58-5.09-.0005095-1.9538901-.6411892-3.8538006-1.824-5.409l1.7-1.453c.7616133.5573746 1.680224.8591439 2.624.862zm-2.5-4.5c0-1.3807119 1.1192881-2.5 2.5-2.5s2.5 1.1192881 2.5 2.5-1.1192881 2.5-2.5 2.5c-.3561575-.0011086-.7078629-.0792274-1.031-.229l1.182-1.012c.3948857-.36484.4306334-.9766102.0809275-1.384959-.3497058-.4083488-.9596952-.4671163-1.3809275-.133041l-1.212 1.038c-.0881179-.2504511-.1350599-.5135288-.139-.779zm-19 1.5c-1.3788832.0169659-2.5958883-.8977951-2.9628852-2.2270506-.3669969-1.3292554.2082724-2.7388492 1.4005337-3.4317558 1.1922614-.6929066 2.7017972-.4949392 3.6750717.4819658.9732746.9769049 1.1656205 2.4871673.4682798 3.6768406l-.765-1.081c-.3261726-.4287525-.9333649-.5220651-1.3732262-.2110357s-.554282.9146002-.2587738 1.3650357l.865 1.224c-.334563.1303751-.6899524.1991492-1.049.203zm3 9c-.0095488-2.9271812 1.8032788-5.5512121 4.5444702-6.5780277 2.7411915-1.0268157 5.8318417-.2395658 7.7477684 1.9735104 1.9159267 2.2130761 2.2525103 5.3846046.8437614 7.9505173-1.0127062-1.2165445-2.7963484-1.4369621-4.0747409-.5035453-1.2783925.9334169-1.6116195 2.6994642-.7612591 4.0345453-.4284511.082141-.8637462.1233266-1.3.123-3.8639376-.0049584-6.9950416-3.1360624-7-7zm21 13.5c0 2.4852814-2.0147186 4.5-4.5 4.5s-4.5-2.0147186-4.5-4.5 2.0147186-4.5 4.5-4.5c2.4841391.0027556 4.4972444 2.0158609 4.5 4.5zm-8.9-4.774-2.12-2.914c-.1613936-.2219628-.2254119-.5000903-.1772991-.7702764.0481127-.2701861.2042051-.5091179.4322991-.6617236.4486021-.2995395 1.0535644-.1923924 1.372.243l2.169 2.983c-.6135089.2839079-1.1789737.6617841-1.676 1.12z"/></g></g></g></svg>