<svg height="512" viewBox="0 0 42 60" width="512" xmlns="http://www.w3.org/2000/svg"><g id="Page-1" fill="none" fill-rule="evenodd"><g id="003---Recycled-Water" fill-rule="nonzero" transform="translate(0 -1)"><g id="Icons" transform="translate(1 2)"><path id="Shape" d="m40 38c.0004239 5.4225418-2.2009903 10.6128411-6.0997976 14.3815625-3.8988074 3.7687214-9.1607958 5.7928039-14.5802024 5.6084375-11.37-.38-20.04-10.59-19.25-21.93.46-6.72 3.25-13.41 6.6-19.19 1.34 1.92 2.33 4.81 2.33 9.13 0-13 9-13 9-13-2.5699414-.1686972-4.9325424-1.4690435-6.45-3.55 2.3662113-3.22460089 4.9523682-6.28187939 7.74-9.15.1864103-.19183364.4425137-.30007247.71-.30007247s.5235897.10823883.71.30007247c3.55 3.57 19.29 20.8 19.29 37.7z" fill="#e8edfc"/><path id="Shape" d="m20.71.3c-.1864103-.19183364-.4425137-.30007247-.71-.30007247s-.5235897.10823883-.71.30007247c-.215.217-.489.5-.788.816 4.644 4.884 18.498 21.028 18.498 36.884-.0009227 10.4585057-8.0594242 19.150337-18.488 19.941.268.02.537.04.808.049 5.4194066.1843664 10.681395-1.8397161 14.5802024-5.6084375 3.8988073-3.7687214 6.1002215-8.9590207 6.0997976-14.3815625 0-16.9-15.74-34.13-19.29-37.7z" fill="#cad9fc"/><path id="Shape" d="m18 13s-9 0-9 13c0-4.32-.99-7.21-2.33-9.13-1.49898038-2.2587085-3.96515889-3.6896096-6.67-3.87 0 0 9 0 9-13 0 4.57 1.11 7.53 2.55 9.45 1.5174576 2.0809565 3.8800586 3.3813028 6.45 3.55z" fill="#e8edfc"/></g><g id="Icons_copy_2" fill="#fff" transform="translate(1 2)"><path id="Shape" d="m6.67 16.87c-3.35 5.78-6.14 12.47-6.6 19.19-.79 11.34 7.88 21.55 19.25 21.93.7310149.0233619 1.4627592.0070045 2.192-.049-10.969-.824-19.212-10.812-18.442-21.881.46-6.72 3.25-13.41 6.6-19.19-1.49898038-2.2587085-3.96515889-3.6896096-6.67-3.87 3.2905429-.2359791 6.17889459-2.277081 7.5-5.3-1.07508421-2.42045142-1.58791641-5.05299002-1.5-7.7 0 13-9 13-9 13 2.70484111.1803904 5.17101962 1.6112915 6.67 3.87z"/></g><g id="Icons_copy"><path id="Shape" d="m1.627 29.929 1.912.587c-.77652777 2.4735629-1.27001466 5.027215-1.471 7.612l-2-.136c.213317-2.7379425.73632279-5.4428788 1.559-8.063z" fill="#fff"/><g fill="#428dff"><path id="Shape" d="m1.623 35.1c-.55228473.0027614-1.00223852-.4427153-1.00499994-.995-.00276143-.5522847.44271521-1.0022385.99499994-1.005h.01c.55228475 0 1 .4477153 1 1s-.44771525 1-1 1z"/><path id="Shape" d="m1 16c1.41374992.1024866 2.77027894.6000538 3.915 1.436.58905121.434724 1.11504926.9489435 1.563 1.528-2.00770664 3.4693592-3.63417039 7.1457507-4.851 10.965-.08161885.2556724-.05582523.5335371.07146061.7698173s.34513266.4106845.60353939.4831827c.5243643.1469866 1.07102264-.1473339 1.237-.666 1.05505356-3.3198548 2.4396157-6.5258214 4.133-9.57.94143442 2.2294862 1.39426403 4.6348025 1.328 7.054 0 .5522847.44771525 1 1 1 .5522847 0 1-.4477153 1-1 0-11.783 7.678-12 8-12 .5522847 0 1-.4477153 1-1s-.4477153-1-1-1c-1.4137499-.1024866-2.7702789-.6000538-3.915-1.436-.4565146-.3399115-.874647-.7285367-1.247-1.159 2.2030754-2.95200871 4.5954378-5.75790705 7.162-8.4 1.945 1.956 19 19.611 19 36.995-.0008547 5.151241-2.0927142 10.0814839-5.7965003 13.6616031s-8.7021985 5.5034089-13.8504997 5.3293969c-5.0744436-.1804624-9.8527203-2.4345916-13.219-6.236-3.59357847-3.9917659-5.42099621-9.2666448-5.067-14.626.03833746-.5508885-.37711775-1.0285725-.928-1.067-.54918406-.0322085-1.02332401.3806088-1.067.929-.3899067 5.899384 1.62144655 11.7058726 5.577 16.1 3.72785498 4.2078774 9.0188185 6.7020804 14.637 6.9.2426667.008.485.012.727.012 11.5940741-.0071772 20.9886585-9.4089238 20.987-21.003 0-18.186-17.577-36.39-19.583-38.407-.3715813-.39248743-.892732-.60814854-1.433-.593-.5282131.00431874-1.0325877.22047931-1.4.6-2.4847437 2.55367172-4.8088636 5.25885514-6.959 8.1-1.1653842-2.3944098-1.723468-5.03886814-1.625-7.7 0-.55228475-.4477153-1-1-1-.55228475 0-1 .44771525-1 1 0 11.769-7.66 12-8 12-.55228475 0-1 .4477153-1 1s.44771525 1 1 1zm9-7.316c.3936848 1.15510287.957927 2.244825 1.674 3.233.0332861.0546052.0718005.105846.115.153.9330045 1.2373059 2.1412196 2.2404429 3.529 2.93-2.5528131 1.3008488-4.4709333 3.5789322-5.318 6.316-.84706673-2.7370678-2.76518693-5.0151512-5.318-6.316 2.55281307-1.3008488 4.47093327-3.5789322 5.318-6.316z"/><path id="Shape" d="m28.293 37.291c-.3903819.3904999-.3903819 1.0235001 0 1.414l4 4c.3904999.3903819 1.0235001.3903819 1.414 0l4-4c.3789722-.3923789.3735524-1.0160848-.0121814-1.4018186s-1.0094397-.3911536-1.4018186-.0121814l-2.312 2.309c-.1391574-4.7498282-2.8607367-9.0446207-7.0964168-11.1985118-4.2356802-2.1538911-9.3094181-1.8231052-13.2295832.8625118-.3026877.1987193-.4743076.5455398-.4486803.9067218.0256273.3611821.2444978.6802957.5722116.8342856s.7130699.1187971 1.0074687-.0920074c3.302733-2.2616529 7.5738922-2.5489051 11.149723-.7498627 3.5758307 1.7990424 5.8908477 5.3998771 6.043277 9.3998627l-2.272-2.272c-.3904999-.3903819-1.0235001-.3903819-1.414 0z"/><path id="Shape" d="m9.684 37.289c-.39049985-.3903819-1.02350015-.3903819-1.414 0l-3.979 4c-.37801437.3934268-.37090103 1.017241.01598635 1.4019456.38688739.3847047 1.0107318.3882886 1.40201365.0080544l2.31-2.322c.13406422 4.7524971 2.8531705 9.0522675 7.0894126 11.2106127 4.2362422 2.1583451 9.3130644 1.830563 13.2365874-.8546127.4556349-.312317.571817-.9348651.2595-1.3905-.3123171-.4556349-.9348651-.571817-1.3905-.2595-3.3006578 2.2607716-7.5691214 2.5493252-11.1440206.7533501-3.5748991-1.7959751-5.8914401-5.3927351-6.0479794-9.3903501l2.278 2.261c.2518304.2591473.6238795.362276.973188.269759.3493086-.092517.6215334-.3662863.7120726-.7161127.0905393-.3498264-.0146927-.7212861-.2752606-.9716463z"/></g></g></g></g></svg>