<svg id="_x33_0" enable-background="new 0 0 64 64" height="512" viewBox="0 0 64 64" width="512" xmlns="http://www.w3.org/2000/svg"><g><g><g><path d="m28 10.16c0 1.21-.28 2.4-.82 3.48l-.1.2c-.54-.52-1.27-.84-2.08-.84h-1.17-.01c-.25-.58-.78-1.03-1.43-1.13-1.96-.34-3.79-1.27-5.22-2.7l-.17-.17-.17.17c-1.18 1.18-3.72 2.02-5.35 2.47-.68.19-1.2.7-1.39 1.36h-.01-1.08c-.92 0-1.74.41-2.29 1.06-.47-1.7-.71-3.46-.71-5.22v-.84l3-1-2-3 1.39-.56c2.38-.95 4.93-1.44 7.5-1.44h3.06c1.99 0 3.93.59 5.59 1.69 1.08.72 1.94 1.69 2.54 2.8s.92 2.37.92 3.67z" fill="#b27946"/></g><g><path d="m14 33.8 1 2.2-1 4h-10c-1.1 0-2 .9-2 2v-3.74c0-1.64.41-3.23 1.16-4.64.76-1.4 1.85-2.63 3.22-3.54 1.07-.71 2.27-1.21 3.53-1.46l1.09-.22 1 6.6z" fill="#fcd770"/></g><g><path d="m32 38.26v1.74h-12l-1-4 1-2.2 2 1.2 1-6.6 1.09.22c1.26.25 2.46.75 3.53 1.46 1.37.91 2.46 2.14 3.22 3.54.75 1.41 1.16 3 1.16 4.64z" fill="#fcd770"/></g><g><path d="m17 32-3 1.8-2 1.2-1-6.6 2-.4z" fill="#ffeaa7"/></g><g><path d="m23 28.4-1 6.6-2-1.2-3-1.8 4-4z" fill="#ffeaa7"/></g><g><path d="m20 33.8-1 2.2h-4l-1-2.2 3-1.8z" fill="#4fc1e9"/></g><g><path d="m19 36 1 4h-6l1-4z" fill="#4fc1e9"/></g><g><path d="m62 42v18c0 1.1-.9 2-2 2h-56c-1.1 0-2-.9-2-2v-18c0-1.1.9-2 2-2h10 6 12 13.11 2.89l3.16-5.05.01-.03 1.26-2.01c.36-.57.97-.91 1.64-.91 1.07 0 1.93.86 1.93 1.93v6.07h4c1.1 0 2 .9 2 2z" fill="#e6e9ed"/></g><g><path d="m62 38.26v3.74c0-1.1-.9-2-2-2h-4v-6.07c0-1.07-.86-1.93-1.93-1.93-.67 0-1.28.34-1.64.91l-1.26 2.01.41-.92 2.42-5.4.09.02c1.26.25 2.46.75 3.53 1.46.13.09.26.18.38.27 2.51 1.84 4 4.79 4 7.91z" fill="#b4dd7f"/></g><g><path d="m40 28.6-.09.02c-1.26.25-2.46.75-3.53 1.46-.13.09-.26.18-.38.27v-18.82c0-1.66.43-3.29 1.26-4.73.84-1.48 2.06-2.68 3.49-3.51s3.07-1.29 4.78-1.29h2.94c3.42 0 6.58 1.83 8.27 4.8.83 1.44 1.26 3.07 1.26 4.73v18.82c-.12-.09-.25-.18-.38-.27-1.07-.71-2.27-1.21-3.53-1.46l-.09-.02-3-.6-.93-3.71c2.33-1.13 3.93-3.52 3.93-6.29v-4.24c0-.45-.3-.83-.73-.96-2.34-.73-4.54-2.07-6.27-3.8-1.73 1.73-3.93 3.07-6.27 3.8-.43.13-.73.51-.73.96v4.24c0 1.94.78 3.68 2.05 4.95.55.55 1.18 1 1.88 1.34l-.93 3.71z" fill="#656d78"/></g><g><path d="m55 47c.64.64 1 1.51 1 2.41 0 1.01-.45 1.96-1.22 2.61l-4.78 3.98-4.78-3.98c-.77-.65-1.22-1.6-1.22-2.61 0-.9.36-1.77 1-2.41s1.51-1 2.41-1h.18c.9 0 1.77.36 2.41 1 .64-.64 1.51-1 2.41-1h.18c.9 0 1.77.36 2.41 1z" fill="#ff826e"/></g><g><path d="m54 13.76v4.24c0 2.77-1.6 5.16-3.93 6.29-.92.46-1.96.71-3.07.71s-2.15-.25-3.07-.71c-.7-.34-1.33-.79-1.88-1.34-1.27-1.27-2.05-3.01-2.05-4.95v-4.24c0-.45.3-.83.73-.96 2.34-.73 4.54-2.07 6.27-3.8 1.73 1.73 3.93 3.07 6.27 3.8.43.13.73.51.73.96z" fill="#f0d0b4"/></g><g><path d="m54 28.6-2.42 5.4h-9.16l-2.42-5.4 3-.6.93-3.71c.92.46 1.96.71 3.07.71s2.15-.25 3.07-.71l.93 3.71z" fill="#f0d0b4"/></g><g><path d="m51.58 34-.41.92-.01.03-3.16 5.05h-2.89l-2.69-6z" fill="#ffeaa7"/></g><g><path d="m42.42 34 2.69 6h-13.11v-1.74c0-1.64.41-3.23 1.16-4.64.69-1.27 1.65-2.39 2.84-3.27.12-.09.25-.18.38-.27 1.07-.71 2.27-1.21 3.53-1.46l.09-.02z" fill="#b4dd7f"/></g><g><path d="m39 47c.64.64 1 1.51 1 2.41 0 1.01-.45 1.96-1.22 2.61l-4.78 3.98-4.78-3.98c-.77-.65-1.22-1.6-1.22-2.61 0-.9.36-1.77 1-2.41s1.51-1 2.41-1h.18c.9 0 1.77.36 2.41 1 .64-.64 1.51-1 2.41-1h.18c.9 0 1.77.36 2.41 1z" fill="#ff826e"/></g><g><path d="m27.08 13.84c.57.54.92 1.31.92 2.16 0 .83-.34 1.58-.88 2.12s-1.29.88-2.12.88h-1.07-.01c.06-.32.08-.66.08-1v-4.18c0-.29-.06-.57-.18-.82h.01 1.17c.81 0 1.54.32 2.08.84z" fill="#f0d0b4"/></g><g><path d="m24 44v14l-12-5v-4z" fill="#ffeaa7"/></g><g><path d="m24 13.82v4.18c0 .34-.02.68-.08 1-.32 2.34-1.81 4.3-3.85 5.29-.92.46-1.96.71-3.07.71s-2.15-.25-3.07-.71c-.7-.34-1.33-.79-1.88-1.34-1.05-1.05-1.76-2.41-1.97-3.95-.06-.32-.08-.66-.08-1v-4.43c0-.2.03-.39.09-.57.19-.66.71-1.17 1.39-1.36 1.63-.45 4.17-1.29 5.35-2.47l.17-.17.17.17c1.43 1.43 3.26 2.36 5.22 2.7.65.1 1.18.55 1.43 1.13.12.25.18.53.18.82z" fill="#f0d0b4"/></g><g><path d="m20.07 24.29.93 3.71-4 4-4-4 .93-3.71c.92.46 1.96.71 3.07.71s2.15-.25 3.07-.71z" fill="#f0d0b4"/></g><g><path d="m12 49v4h-3c-.55 0-1-.45-1-1v-2c0-.55.45-1 1-1z" fill="#fcd770"/></g><g><path d="m10.08 13h.01c-.06.18-.09.37-.09.57v4.43c0 .34.02.68.08 1h-.01-1.07c-.83 0-1.58-.34-2.12-.88s-.88-1.29-.88-2.12c0-.74.27-1.42.71-1.94.55-.65 1.37-1.06 2.29-1.06z" fill="#f0d0b4"/></g></g><g><path d="m52.592 45h-.184c-.862 0-1.711.26-2.411.717-.711-.462-1.551-.717-2.405-.717h-.184c-1.159 0-2.293.47-3.121 1.298-.83.831-1.287 1.936-1.287 3.11 0 1.31.577 2.541 1.582 3.379l5.418 4.515 5.418-4.515c1.005-.838 1.582-2.07 1.582-3.379 0-1.174-.457-2.278-1.297-3.119-.818-.819-1.952-1.289-3.111-1.289zm1.545 6.251-4.137 3.447-4.137-3.447c-.549-.457-.863-1.129-.863-1.843 0-.64.25-1.243.713-1.706.445-.446 1.063-.702 1.695-.702h.184c.632 0 1.25.256 1.739.743l.711.631.671-.672c.445-.446 1.063-.702 1.695-.702h.184c.632 0 1.25.256 1.705.711.453.454.703 1.057.703 1.697 0 .714-.314 1.386-.863 1.843z"/><path d="m36.592 45h-.184c-.862 0-1.711.26-2.411.717-.711-.462-1.551-.717-2.405-.717h-.184c-1.159 0-2.293.47-3.121 1.298-.83.831-1.287 1.936-1.287 3.11 0 1.31.577 2.541 1.582 3.379l5.418 4.515 5.418-4.515c1.005-.838 1.582-2.07 1.582-3.379 0-1.174-.457-2.278-1.297-3.119-.818-.819-1.952-1.289-3.111-1.289zm1.545 6.251-4.137 3.447-4.137-3.447c-.549-.457-.863-1.129-.863-1.843 0-.64.25-1.243.713-1.706.445-.446 1.063-.702 1.695-.702h.184c.632 0 1.25.256 1.739.743l.711.631.671-.672c.445-.446 1.063-.702 1.695-.702h.184c.632 0 1.25.256 1.705.711.453.454.703 1.057.703 1.697 0 .714-.314 1.386-.863 1.843z"/><path d="m9 48c-1.103 0-2 .897-2 2v2c0 1.103.897 2 2 2h2.8l13.2 5.5v-17l-13.2 5.5zm0 2h2v2h-2zm14 6.5-10-4.167v-2.667l10-4.166z"/><path d="m59 29.875v-18.344c0-1.83-.479-3.637-1.388-5.225-1.87-3.273-5.374-5.306-9.143-5.306h-2.938c-3.77 0-7.273 2.033-9.144 5.306-.908 1.589-1.387 3.395-1.387 5.225v18.344c-1.301 1.059-2.316 2.39-3 3.884-.824-1.801-2.123-3.376-3.826-4.512-1.185-.79-2.491-1.331-3.886-1.61l-2.472-.494-.591-2.363c1.715-1.073 2.991-2.773 3.511-4.78h.264c2.206 0 4-1.794 4-4 0-.866-.283-1.662-.752-2.317.484-1.108.752-2.311.752-3.519 0-2.942-1.461-5.673-3.909-7.305-1.825-1.216-3.947-1.859-6.139-1.859h-3.064c-2.708 0-5.355.51-7.868 1.515l-2.536 1.014 1.957 2.936-2.441.814v1.559c0 1.693.22 3.377.635 5.018-.397.621-.635 1.354-.635 2.144 0 2.206 1.794 4 4 4h.263c.52 2.007 1.796 3.708 3.511 4.78l-.591 2.363-2.472.494c-1.395.279-2.701.82-3.886 1.61-3.021 2.015-4.825 5.386-4.825 9.018v21.735c0 1.654 1.346 3 3 3h56c1.654 0 3-1.346 3-3v-21.735c0-3.283-1.484-6.342-4-8.39zm2 8.39v.919c-.314-.112-.648-.184-1-.184h-3v-5.07c0-1.616-1.314-2.93-2.931-2.93-.017 0-.033.006-.051.006l.554-1.238c.884.25 1.721.629 2.492 1.143 2.464 1.643 3.936 4.392 3.936 7.354zm-15.246.735-1.79-4h5.982l-2.5 4zm1.246-15c-3.309 0-6-2.691-6-6l.022-4.248c2.156-.665 4.247-1.851 5.978-3.381 1.73 1.53 3.823 2.716 6 3.383v4.246c0 3.309-2.691 6-6 6zm-2.38 1.638c.752.235 1.552.362 2.38.362s1.628-.127 2.38-.362l.804 3.218 2.391.478-1.641 3.666h-7.865l-1.641-3.666 2.388-.477zm-6.496-18.34c1.516-2.651 4.354-4.298 7.407-4.298h2.938c3.054 0 5.892 1.647 7.407 4.298.735 1.287 1.124 2.751 1.124 4.233v17.046c-.857-.429-1.762-.75-2.712-.94l-2.472-.494-.591-2.363c2.263-1.415 3.775-3.921 3.775-6.78v-4.245c0-.88-.576-1.649-1.433-1.914-2.154-.664-4.235-1.924-5.86-3.548l-.707-.707-.707.707c-1.625 1.624-3.706 2.884-5.86 3.548-.857.264-1.433 1.034-1.433 1.914v4.245c0 2.859 1.512 5.365 3.774 6.78l-.591 2.363-2.472.494c-.95.19-1.855.511-2.712.94v-17.046c.001-1.482.39-2.946 1.125-4.233zm-1.188 23.614c.772-.514 1.61-.893 2.495-1.144l4.131 9.232h-10.562v-.735c0-2.962 1.472-5.711 3.936-7.353zm-9.872 0c2.464 1.642 3.936 4.391 3.936 7.353v.735h-10.22l-.726-2.904.392-.862 2.319 1.391 1.066-7.04.064.013c1.137.228 2.204.67 3.169 1.314zm-10.064 2.254 1.721 1.032-.365.802h-2.712l-.364-.802zm-1.219 3.834h2.439l.5 2h-3.44zm6.088-7.807-.634 4.181-2.622-1.573 2.716-2.716zm3.131-11.193v-4c1.103 0 2 .897 2 2s-.897 2-2 2zm-18-9.279 3.559-1.186-2.043-3.064.246-.098c2.276-.911 4.674-1.373 7.126-1.373h3.064c1.795 0 3.534.526 5.029 1.522 1.89 1.261 3.019 3.37 3.019 5.642 0 .744-.13 1.486-.371 2.191-.499-.224-1.048-.355-1.629-.355h-.615c-.437-.578-1.074-.993-1.827-1.121-1.783-.301-3.401-1.137-4.681-2.416l-.877-.875-.879.876c-.761.76-2.546 1.565-4.9 2.208-.755.207-1.371.696-1.763 1.328h-.458c-.591 0-1.148.137-1.654.368-.226-1.162-.346-2.344-.346-3.53zm0 7.279c0-1.103.897-2 2-2v4c-1.103 0-2-.897-2-2zm4 2v-4.43c0-.449.308-.847.748-.967 1.677-.458 3.842-1.201 5.229-2.244 1.483 1.303 3.284 2.161 5.247 2.492.443.075.776.493.776.972v4.177c0 3.309-2.691 6-6 6s-6-2.691-6-6zm6 8c.828 0 1.628-.127 2.38-.362l.513 2.055-2.893 2.893-2.893-2.893.513-2.055c.752.235 1.552.362 2.38.362zm-4.329 3.085 2.716 2.716-2.622 1.573-.634-4.181zm-5.735 1.827c.966-.644 2.032-1.085 3.169-1.313l.064-.013 1.066 7.04 2.319-1.391.392.862-.726 2.903h-9.22c-.352 0-.686.072-1 .184v-.919c0-2.962 1.472-5.711 3.936-7.353zm54.064 29.088c0 .551-.448 1-1 1h-56c-.552 0-1-.449-1-1v-18c0-.551.448-1 1-1h44.555l4.726-7.562c.171-.274.466-.438.788-.438.513 0 .931.417.931.93v7.07h5c.552 0 1 .449 1 1z"/></g></g></svg>