<svg height="512pt" viewBox="0 0 512.06598 512" width="512pt" xmlns="http://www.w3.org/2000/svg"><path d="m336.296875 167.214844c-3.160156-3.242188-7.503906-5.058594-12.03125-5.035156h-.085937c.085937-1.453126.085937-11.433594.085937-12.800782-1.203125-78.929687-66.136719-141.953125-145.066406-140.800781-78.929688-1.152344-143.863281 61.871094-145.066407 140.800781 0 1.367188 0 11.347656.085938 12.800782h-.085938c-9.394531.070312-16.996093 7.667968-17.066406 17.066406.027344 9.414062 7.652344 17.039062 17.066406 17.066406h19.542969c11.773438 53.589844 63.488281 93.867188 125.523438 93.867188 62.039062 0 113.75-40.277344 125.527343-93.867188h19.539063c9.414063-.027344 17.039063-7.652344 17.066406-17.066406.027344-4.527344-1.792969-8.871094-5.035156-12.03125zm0 0" fill="#af8066"/><path d="m317.441406 360.492188h-276.480468c-25.429688-19.796876-30.550782-57-15.359376-87.378907 17.066407-34.132812 8.53125-85.335937 8.53125-85.335937h290.132813s-8.53125 51.203125 8.535156 85.335937c15.1875 30.378907 10.070313 67.582031-15.359375 87.378907zm0 0" fill="#7facfa"/><path d="m293.800781 360.492188h-252.839843c-25.429688-19.796876-30.550782-57-15.359376-87.378907 17.066407-34.132812 8.53125-85.335937 8.53125-85.335937h266.496094s-8.53125 51.203125 8.535156 85.335937c15.1875 30.378907 10.066407 67.582031-15.363281 87.378907zm0 0" fill="#a4c2f7"/><path d="m69.632812 115.585938c-.316406.464843-.601562.949218-.855468 1.453124h-.085938c.285156-.503906.597656-.988281.941406-1.453124zm0 0" fill="#af8066"/><path d="m324.265625 149.378906c0 1.367188 0 11.347656-.085937 12.800782h-17.578126c-.253906-3.074219-.765624-6.144532-1.277343-9.21875-.769531-3.753907-1.707031-7.421876-2.816407-11.089844v-.085938c-3.589843-8.300781-7.75-16.34375-12.460937-24.066406-2.347656-2.777344-5.21875-5.066406-8.445313-6.738281-70.402343 5.886719-108.632812-20.566407-125.441406-37.71875-5.144531-1.851563-10.507812-3.027344-15.957031-3.5-7.851563 12.628906-27.222656 34.390625-71.425781 47.277343.253906-.503906.539062-.988281.855468-1.453124-.34375.464843-.65625.949218-.941406 1.453124-4.820312 7.949219-9.097656 16.214844-12.796875 24.746094v.085938c-1.109375 3.667968-2.050781 7.335937-2.816406 11.089844-.511719 3.074218-1.023437 6.144531-1.28125 9.21875h-17.578125c-.085938-1.453126-.085938-11.433594-.085938-12.800782 1.203126-78.929687 66.136719-141.953125 145.066407-140.800781 78.929687-1.152344 143.863281 61.871094 145.066406 140.800781zm0 0" fill="#a4c2f7"/><path d="m324.265625 149.378906c0 1.367188 0 11.347656-.085937 12.800782h-17.578126c-.253906-3.074219-.765624-6.144532-1.277343-9.21875-.769531-3.753907-1.707031-7.421876-2.816407-11.089844v-.085938c-.769531-1.707031-1.621093-3.585937-2.5625-5.632812-7.558593-68.898438-63.449218-122.449219-132.605468-127.0625 3.925781-.339844 7.847656-.511719 11.859375-.511719 78.929687-1.152344 143.863281 61.871094 145.066406 140.800781zm0 0" fill="#7facfa"/><path d="m69.632812 115.585938c-.316406.464843-.601562.949218-.855468 1.453124h-.085938c.285156-.503906.597656-.988281.941406-1.453124zm0 0" fill="#af8066"/><g fill="#e8edfc"><path d="m247.464844 332.84375h-136.53125c-56.554688 0-102.398438 45.847656-102.398438 102.402344v51.199218c.027344 9.414063 7.652344 17.039063 17.066406 17.066407h307.199219l8.875-108.542969c-16.132812-37.703125-53.199219-62.148438-94.210937-62.125zm0 0"/><path d="m204.800781 287.875v64.683594c-19.03125 54.269531-25.601562 150.953125-25.601562 150.953125s-6.570313-96.683594-25.597657-150.953125v-64.683594zm0 0"/><path d="m53.675781 196.3125h-19.542969c-9.414062-.027344-17.039062-7.652344-17.066406-17.066406.070313-9.398438 7.671875-16.996094 17.066406-17.066406h17.664063c-.414063 3.652343-.617187 7.328124-.597656 11.007812.011719 4.046875.242187 8.09375.683593 12.117188.425782 3.753906 1.023438 7.339843 1.792969 11.007812zm0 0"/></g><path d="m341.332031 179.246094c-.027343 9.414062-7.652343 17.039062-17.066406 17.066406h-19.539063c.765626-3.667969 1.363282-7.253906 1.789063-11.007812.445313-4.023438.671875-8.070313.683594-12.117188.019531-3.679688-.179688-7.355469-.597657-11.007812h17.664063c9.398437.070312 16.996094 7.667968 17.066406 17.066406zm0 0" fill="#cad9fc"/><path d="m153.601562 332.84375v19.714844c-2.265624-6.808594-5.121093-13.402344-8.535156-19.714844zm0 0" fill="#95a5a5"/><path d="m213.332031 332.84375c-3.414062 6.3125-6.269531 12.90625-8.53125 19.714844v-19.714844zm0 0" fill="#95a5a5"/><path d="m179.199219 503.511719h-153.597657c-9.414062-.027344-17.039062-7.652344-17.066406-17.066407v-51.199218c0-56.554688 45.84375-102.402344 102.398438-102.402344h34.132812c-31.421875 1.179688-57.042968 25.589844-59.734375 56.917969 0 0 34.132813 0 42.667969 11.351562-17.464844 9.457031-29.929688 26.070313-34.132812 45.480469 0 0 59.734374 22.785156 85.332031 56.917969zm0 0" fill="#e8edfc"/><path d="m341.675781 394.96875-8.875 108.542969h-153.601562c25.601562-34.132813 85.335937-56.917969 85.335937-56.917969-4.203125-19.410156-16.671875-36.023438-34.136718-45.480469 8.535156-11.351562 42.667968-11.351562 42.667968-11.351562-2.691406-31.328125-28.308594-55.738281-59.734375-56.917969h34.132813c41.011718-.023438 78.078125 24.421875 94.210937 62.125zm0 0" fill="#e8edfc"/><path d="m264.535156 446.59375s-59.734375 22.785156-85.335937 56.917969c0 0 6.570312-96.683594 25.601562-150.953125 2.261719-6.808594 5.117188-13.402344 8.53125-19.714844 31.425781 1.179688 57.042969 25.589844 59.734375 56.917969 0 0-34.132812 0-42.667968 11.351562 17.464843 9.457031 29.933593 26.070313 34.136718 45.480469zm0 0" fill="#e8edfc"/><path d="m460.800781 386.519531v-53.675781h-34.132812v53.675781c-20.441407 6.085938-36.085938 22.609375-41.046875 43.351563l1.367187 3.242187 25.085938 61.269531c9.464843 6 20.453125 9.167969 31.660156 9.128907 29.675781.027343 54.875-21.742188 59.160156-51.109375 4.28125-29.367188-13.644531-57.429688-42.09375-65.882813zm0 0" fill="#67b9cc"/><path d="m503.464844 443.777344c0 15.84375-6.292969 31.039062-17.492188 42.238281-11.203125 11.203125-26.398437 17.496094-42.238281 17.496094-11.207031.039062-22.195313-3.128907-31.660156-9.128907l-25.085938-61.269531c14.699219-8.105469 31.90625-10.386719 48.210938-6.402343 34.132812 8.535156 34.132812 25.601562 68.265625 17.066406zm0 0" fill="#a4c2f7"/><path d="m503.464844 443.777344c0 15.84375-6.292969 31.039062-17.492188 42.238281-11.203125 11.203125-26.398437 17.496094-42.238281 17.496094-3.898437-.003907-7.789063-.402344-11.605469-1.195313 27.179688-5.585937 46.917969-29.175781 47.613282-56.917968 7.929687 1.265624 16.042968.710937 23.722656-1.621094zm0 0" fill="#7facfa"/><path d="m503.464844 443.777344c-8.761719 2.796875-18.140625 3.0625-27.050782.769531-11.601562-3.585937-19.539062-12.375-41.214843-17.835937-9.03125-2.183594-18.414063-2.472657-27.5625-.851563-7.273438 1.113281-14.277344 3.570313-20.648438 7.253906l-1.367187-3.242187c.335937-1.503906.765625-2.988282 1.28125-4.4375 6.035156-18.730469 20.910156-33.285156 39.765625-38.914063v-53.675781h34.132812v53.675781c25.320313 7.550781 42.671875 30.835938 42.664063 57.257813zm0 0" fill="#cad9fc"/><path d="m479.828125 443.777344c-1.195313.257812-2.304687.597656-3.414063.769531-11.601562-3.585937-19.539062-12.375-41.214843-17.835937-9.03125-2.183594-18.414063-2.472657-27.5625-.851563-6.847657-1.203125-13.84375-1.34375-20.734375-.425781 6.035156-18.730469 20.910156-33.285156 39.765625-38.914063v-53.675781h10.496093v53.675781c25.320313 7.550781 42.671876 30.835938 42.664063 57.257813zm0 0" fill="#e8edfc"/><path d="m412.5 461.953125-11.261719-13.480469-25.429687-30.292968v-76.800782h-34.132813v76.800782l-31.914062 37.460937-5.378907 6.3125c-6.121093 7.683594-7.308593 18.191406-3.054687 27.046875s13.199219 14.492188 23.023437 14.511719h68.097657c9.835937.015625 18.8125-5.613281 23.089843-14.472657 4.277344-8.863281 3.09375-19.390624-3.039062-27.085937zm0 0" fill="#67b9cc"/><path d="m392.449219 503.511719h-68.097657c-9.824218-.019531-18.769531-5.65625-23.023437-14.511719s-3.066406-19.363281 3.054687-27.046875l5.378907-6.3125c11.199219 6.945313 24.617187 9.386719 37.546875 6.828125 25.511718-4.4375 38.996094-12.035156 53.929687-13.996094l11.261719 13.480469c6.132812 7.695313 7.316406 18.222656 3.039062 27.085937-4.277343 8.859376-13.253906 14.488282-23.089843 14.472657zm0 0" fill="#a4c2f7"/><path d="m401.238281 448.472656c-14.933593 1.960938-28.417969 9.558594-53.929687 13.996094-12.929688 2.558594-26.347656.117188-37.546875-6.828125l31.914062-37.460937v-76.800782h34.132813v76.800782zm0 0" fill="#e8edfc"/><path d="m179.199219 503.511719c-25.597657-34.132813-85.332031-56.917969-85.332031-56.917969 4.203124-19.410156 16.667968-36.023438 34.132812-45.480469-8.535156-11.351562-42.667969-11.351562-42.667969-11.351562 2.691407-31.328125 28.3125-55.738281 59.734375-56.917969 3.414063 6.3125 6.269532 12.90625 8.535156 19.714844 19.027344 54.269531 25.597657 150.953125 25.597657 150.953125zm0 0" fill="#e8edfc"/><path d="m307.199219 173.1875c-.007813 9.566406-1.269531 19.089844-3.753907 28.328125-.9375 3.246094-1.960937 6.402344-3.070312 9.472656-.085938.257813-.257812.597657-.34375.855469-.683594 1.707031-1.363281 3.328125-2.046875 5.035156-.855469 1.789063-1.707031 3.667969-2.558594 5.375-.769531 1.449219-1.539062 2.902344-2.304687 4.265625-2.648438 4.765625-5.640625 9.328125-8.960938 13.652344-1.109375 1.453125-2.21875 2.816406-3.414062 4.269531-.765625.9375-1.621094 1.960938-2.472656 2.898438-.683594.769531-1.367188 1.453125-2.136719 2.21875-1.125 1.289062-2.324219 2.511718-3.582031 3.671875-8.050782 7.859375-17.121094 14.601562-26.964844 20.050781-1.195313.683594-2.476563 1.367188-3.753906 1.964844-1.621094.851562-3.328126 1.707031-5.121094 2.472656-5.582032 2.59375-11.34375 4.792969-17.238282 6.570312-1.023437.34375-2.132812.597657-3.242187.941407-2.304687.597656-4.609375 1.195312-6.996094 1.707031-1.109375.253906-2.304687.511719-3.5.679688-1.195312.171874-2.558593.511718-3.753906.683593-3.667969.597657-7.425781 1.109375-11.265625 1.453125-3.839844.339844-7.679688.425782-11.519531.425782-3.839844 0-7.679688-.171876-11.519531-.425782h-.253907c-3.757812-.34375-7.425781-.855468-11.011719-1.453125-1.191406-.171875-2.472656-.425781-3.753906-.683593-1.277344-.253907-2.386718-.425782-3.496094-.679688-2.390624-.511719-4.695312-1.109375-7-1.707031-1.109374-.34375-2.21875-.597657-3.242187-.941407-5.894531-1.777343-11.652344-3.976562-17.238281-6.570312-1.789063-.765625-3.496094-1.621094-5.117188-2.472656-1.28125-.597656-2.5625-1.28125-3.753906-1.964844-9.847656-5.449219-18.914062-12.191406-26.96875-20.050781-1.257812-1.160157-2.453125-2.382813-3.582031-3.671875-.769531-.765625-1.449219-1.449219-2.132813-2.21875-.855468-.9375-1.707031-1.960938-2.476562-2.898438-1.195313-1.453125-2.304688-2.816406-3.414063-4.269531-3.316406-4.324219-6.3125-8.886719-8.957031-13.652344-.769531-1.363281-1.539062-2.816406-2.304688-4.265625-.855468-1.707031-1.707031-3.585937-2.5625-5.375-.679687-1.707031-1.363281-3.328125-2.046874-5.035156-.085938-.257812-.253907-.597656-.339844-.855469-1.109375-3.070312-2.132813-6.226562-3.074219-9.472656-2.484375-9.238281-3.746094-18.761719-3.753906-28.328125-.003907-3.421875.167969-6.839844.511719-10.242188.171874-1.707031.34375-3.328124.597656-5.03125.171875-1.664062.429687-3.316406.769531-4.953124.597656-2.984376 1.277344-5.886719 2.132813-8.789063l4.523437-24.660156c3.070313-.765625 6.058594-1.535157 8.957031-2.472657 37.292969-10.839843 56.917969-27.992187 66.902344-40.707031 1.664062-2.097656 3.203125-4.289062 4.609375-6.570312 2.054687-3.097657 3.6875-6.457031 4.863281-9.984375 3.082032 4.894531 6.75 9.394531 10.921875 13.398437 14.082031 14.335938 43.351563 35.5 94.378907 38.316407 2.902343.167968 5.890624.253906 8.960937.253906 7.433594.15625 14.867187-.097656 22.273437-.765625 3.226563 1.671875 6.097657 3.960937 8.445313 6.738281.085937 0 .085937.085938.171875.171875 5.566406 7.011719 9.710938 15.039063 12.203125 23.636719.765625 2.644531 1.449219 4.949218 1.875 6.914062.171875.9375.429687 1.875.683594 2.816406.082031.574219.195312 1.144532.34375 1.703126.335937 1.636718.59375 3.289062.765625 4.953124.257812 1.703126.425781 3.324219.597656 5.03125.34375 3.402344.515625 6.820313.511719 10.242188zm0 0" fill="#cad9fc"/><path d="m283.5625 173.1875c-.007812 9.566406-1.269531 19.089844-3.753906 28.328125-.9375 3.246094-1.964844 6.402344-3.074219 9.472656-.082031.257813-.253906.597657-.339844.855469-.683593 1.707031-1.363281 3.328125-2.046875 5.035156-.855468 1.789063-1.707031 3.667969-2.5625 5.375-.765625 1.449219-1.535156 2.902344-2.300781 4.265625-2.648437 4.765625-5.644531 9.328125-8.960937 13.652344-1.109376 1.453125-2.21875 2.816406-3.414063 4.269531-.769531.9375-1.621094 1.960938-2.476563 2.898438-.679687.769531-1.363281 1.453125-2.132812 2.21875-1.128906 1.289062-2.324219 2.511718-3.582031 3.671875-8.054688 7.859375-17.121094 14.601562-26.964844 20.050781-1.195313.683594-2.476563 1.367188-3.753906 1.964844-1.625.851562-3.328125 1.707031-5.121094 2.472656-5.585937 2.59375-11.34375 4.792969-17.238281 6.570312-1.023438.34375-2.132813.597657-3.242188.941407-2.304687.597656-4.609375 1.195312-6.996094 1.707031-1.109374.253906-2.304687.511719-3.5.679688-1.195312.171874-2.558593.511718-3.753906.683593-3.585937.597657-7.167968 1.109375-10.921875 1.453125-3.757812-.34375-7.425781-.855468-11.011719-1.453125-1.191406-.171875-2.472656-.425781-3.753906-.683593-1.277344-.253907-2.386718-.425782-3.496094-.679688-2.390624-.511719-4.695312-1.109375-7-1.707031-1.109374-.34375-2.21875-.597657-3.242187-.941407-5.894531-1.777343-11.652344-3.976562-17.238281-6.570312-1.789063-.765625-3.496094-1.621094-5.117188-2.472656-1.28125-.597656-2.5625-1.28125-3.753906-1.964844-9.847656-5.449219-18.914062-12.191406-26.96875-20.050781-1.257812-1.160157-2.453125-2.382813-3.582031-3.671875-.769531-.765625-1.449219-1.449219-2.132813-2.21875-.855468-.9375-1.707031-1.960938-2.476562-2.898438-1.195313-1.453125-2.304688-2.816406-3.414063-4.269531-3.316406-4.324219-6.3125-8.886719-8.957031-13.652344-.769531-1.363281-1.539062-2.816406-2.304688-4.265625-.855468-1.707031-1.707031-3.585937-2.5625-5.375-.679687-1.707031-1.363281-3.328125-2.046874-5.035156-.085938-.257812-.253907-.597656-.339844-.855469-1.109375-3.070312-2.132813-6.226562-3.074219-9.472656-2.484375-9.238281-3.746094-18.761719-3.753906-28.328125-.003907-3.421875.167969-6.839844.511719-10.242188.171874-1.707031.34375-3.328124.597656-5.03125.171875-1.664062.429687-3.316406.769531-4.953124.597656-2.984376 1.277344-5.886719 2.132813-8.789063l4.523437-24.660156c3.070313-.765625 6.058594-1.535157 8.957031-2.472657 37.292969-10.839843 56.917969-27.992187 66.902344-40.707031 17.410156 16.300781 52.992188 38.402344 114.773438 35.160157 2.476562-.085938 5.035156-.257813 7.59375-.511719.429687.253906.941406.511719 1.367187.765625 2.664063 1.605468 5.054687 3.621094 7.082031 5.972656.085938 0 .085938.085938.171875.171875 5.566407 7.011719 9.710938 15.039063 12.203125 23.636719.765625 2.644531 1.449219 4.949218 1.875 6.914062.171875.9375.429688 1.875.683594 2.816406.082031.574219.195312 1.144532.339844 1.703126.339844 1.636718.597656 3.289062.769531 4.953124.257813 1.703126.425781 3.324219.597656 5.03125.34375 3.402344.515625 6.820313.511719 10.242188zm0 0" fill="#e8edfc"/><path d="m93.867188 145.113281h59.734374c4.710938 0 8.53125 3.820313 8.53125 8.53125v8.535157c0 18.851562-15.28125 34.132812-34.132812 34.132812h-8.535156c-18.847656 0-34.132813-15.28125-34.132813-34.132812v-8.535157c0-4.710937 3.820313-8.53125 8.535157-8.53125zm0 0" fill="#fff"/><path d="m204.800781 145.113281h59.734375c4.710938 0 8.53125 3.820313 8.53125 8.53125v8.535157c0 18.851562-15.28125 34.132812-34.132812 34.132812h-8.535156c-18.851563 0-34.132813-15.28125-34.132813-34.132812v-8.535157c0-4.710937 3.820313-8.53125 8.535156-8.53125zm0 0" fill="#fff"/><path d="m162.132812 159.449219v2.730469c0 18.851562-15.28125 34.132812-34.132812 34.132812h-8.535156c-5.15625.046875-10.25-1.152344-14.847656-3.5 10.878906-21.523438 33.429687-34.605469 57.515624-33.363281zm0 0" fill="#e8edfc"/><path d="m273.066406 159.960938v2.21875c0 18.851562-15.28125 34.132812-34.132812 34.132812h-8.535156c-7.550782.03125-14.886719-2.496094-20.820313-7.167969 9.644531-15.785156 28.332031-32.425781 63.488281-29.183593zm0 0" fill="#e8edfc"/><path d="m25.601562 503.511719h25.597657c-9.414063-.027344-17.039063-7.652344-17.066407-17.066407v-51.199218c-.011718-28.359375 11.785157-55.445313 32.554688-74.753906h-.128906c-25.429688-19.796876-30.546875-57-15.359375-87.378907 12.800781-25.601562 11.195312-60.800781 9.601562-76.800781h-1.066406c-9.414063-.027344-17.039063-7.652344-17.066406-17.066406.070312-9.398438 7.667969-16.996094 17.066406-17.066406h.085937c-.085937-1.453126-.085937-11.433594-.085937-12.800782 1.023437-73.972656 58.476563-134.859375 132.265625-140.167968-4.222656-.367188-8.480469-.632813-12.800781-.632813-4.011719 0-7.933594.171875-11.859375.511719.136718 0 .261718 0 .410156.050781-74.347656 4.640625-132.574219 65.757813-133.617188 140.238281 0 1.367188 0 11.347656.085938 12.800782h-.085938c-9.394531.070312-16.996093 7.667968-17.066406 17.066406.027344 9.414062 7.652344 17.039062 17.066406 17.066406h1.066407c1.597656 16 3.199219 51.199219-9.597657 76.800781-15.191406 30.378907-10.070312 67.582031 15.359376 87.378907h.128906c-20.773438 19.308593-32.570313 46.394531-32.554688 74.753906v51.199218c.027344 9.414063 7.652344 17.039063 17.066406 17.066407zm0 0" fill="#fff"/><path d="m25.601562 149.378906c.136719-39.78125 16.332032-77.824218 44.910157-105.496094 29.164062-28.167968 68.140625-43.8906245 108.6875-43.835937v17.066406c-36.097657-.054687-70.804688 13.925781-96.785157 38.988281-25.28125 24.460938-39.617187 58.097657-39.746093 93.277344zm0 0" fill="#fff"/><path d="m55.203125 76.582031c-1.980469-1.246093-4.394531-1.605469-6.652344-.988281-2.257812.621094-4.148437 2.15625-5.21875 4.238281-1.035156 2.121094-1.261719 4.550781-.640625 6.828125l.683594 1.507813c.277344.503906.625.960937 1.03125 1.367187.328125.429688.71875.808594 1.160156 1.117188.472656.316406.960938.601562 1.46875.851562 2.066406.90625 4.386719 1.058594 6.554688.4375 1.023437-.351562 1.96875-.890625 2.789062-1.597656 2.367188-2.160156 3.398438-5.421875 2.707032-8.550781-.316407-1.054688-.816407-2.046875-1.484376-2.925781-.644531-.910157-1.460937-1.6875-2.398437-2.285157zm0 0" fill="#428dff"/><path d="m469.332031 380.46875v-39.089844c4.714844 0 8.535157-3.820312 8.535157-8.535156 0-4.710938-3.820313-8.53125-8.535157-8.53125h-51.199219c-4.710937 0-8.53125 3.820312-8.53125 8.53125 0 4.714844 3.820313 8.535156 8.53125 8.535156v39.109375c-14.324218 5.847657-26.242187 16.375-33.816406 29.867188v-60.441407c4.710938 0 8.53125-3.824218 8.53125-8.535156 0-4.710937-3.820312-8.535156-8.53125-8.535156h-38.160156c6.382812-21.121094 4.339844-43.898438-5.710938-63.546875-8.855468-20.695313-11.839843-43.425781-8.625-65.707031 10.699219-3.28125 18.015626-13.152344 18.046876-24.34375-.019532-10.824219-6.855469-20.460938-17.066407-24.046875 0-2.671875 0-5.171875 0-5.820313-1.292969-83.605468-69.992187-150.398437-153.601562-149.332031-40.546875-.0546875-79.523438 15.667969-108.6875 43.835937l-6.1875 6.585938c-1.632813 1.664062-2.488281 3.941406-2.34375 6.265625.140625 2.328125 1.261719 4.484375 3.085937 5.9375 3.5625 2.804687 8.660156 2.503906 11.871094-.699219l5.476562-5.871094c25.980469-25.0625 60.6875-39.042968 96.785157-38.988281 74.1875-1.074219 135.253906 58.082031 136.535156 132.265625v4.265625h-1.707031c-.128906-.808593-.1875-1.59375-.332032-2.421875-2.210937-10.914062-9.226562-36.695312-26.558593-46.761718-.578125-.335938-1.074219-.804688-1.707031-1.109376-.1875-.09375-.390626-.078124-.585938-.15625-.550781-.214843-1.125-.363281-1.707031-.449218-.542969-.125-1.09375-.1875-1.648438-.191406-.210937 0-.398437-.09375-.613281-.074219-95.242188 7.890625-127.148438-44.714844-128.410156-46.933594-1.699219-2.984375-5.023438-4.65625-8.429688-4.246094-3.410156.410157-6.242187 2.824219-7.1875 6.121094-.101562.378906-11.363281 37.085937-79.171875 53.804687-.332031.136719-.65625.289063-.972656.460938-.6875.222656-1.34375.53125-1.953125.921875-.398438.335937-.761719.710937-1.082031 1.117187-.425781.375-.808594.796876-1.144531 1.253907-.328126.601562-.582032 1.242187-.761719 1.902343-.167969.355469-.316407.71875-.433594 1.09375v.1875l-4.496094 24.472657v.222656c-.761719 2.78125-1.535156 5.53125-2.160156 8.601563-.128906.734374-.179687 1.449218-.296875 2.183593h-1.707031v-4.265625c.121093-10.679687 1.5-21.304687 4.113281-31.660156.933594-4.496094-1.695312-8.96875-6.078125-10.339844-2.207031-.675781-4.59375-.394531-6.582031.773438-1.992188 1.164062-3.402344 3.113281-3.886719 5.371094-2.953125 11.726562-4.507813 23.761718-4.632813 35.855468v5.8125c-3.574218 1.210938-6.816406 3.238282-9.472656 5.914063-4.894531 4.761719-7.632812 11.3125-7.59375 18.140625.035156 11.195312 7.363282 21.0625 18.070313 24.335937 3.214843 22.28125.230469 45.011719-8.625 65.707031-16.027344 29.78125-11.695313 66.410157 10.835937 91.632813-18.527344 20.316406-28.8046872 46.824219-28.816406 74.324219v51.199218c0 14.140626 11.460938 25.601563 25.601562 25.601563h366.878907c7.613281.011719 15.007812-2.542969 20.992187-7.246094 9.386719 4.738281 19.746094 7.21875 30.261719 7.246094 32.695313.027344 60.824219-23.132813 67.066406-55.230469 6.246094-32.097656-11.144531-64.113281-41.46875-76.347656zm-40.226562 14.234375c3.621093-1.078125 6.097656-4.40625 6.09375-8.183594v-45.140625h17.066406v45.140625c0 3.777344 2.480469 7.109375 6.101563 8.183594 19.335937 5.675781 33.476562 22.261719 36.019531 42.25-9.460938 1.789063-19.246094-.398437-27.042969-6.050781-9.367188-5.585938-19.5-9.777344-30.078125-12.441406-13.261719-3.65625-27.398437-2.382813-39.792969 3.59375 6.179688-13.199219 17.679688-23.144532 31.632813-27.351563zm-61.855469-44.789063v68.265626c0 2.007812.707031 3.949218 1.996094 5.484374l15.214844 18.136719.066406.117188.09375.070312 1.101562 1.3125c-2.722656.8125-5.410156 1.613281-8.328125 2.558594-10.304687 3.515625-20.859375 6.261719-31.574219 8.210937-7.445312 1.386719-15.121093.882813-22.320312-1.46875l24.660156-28.882812c1.3125-1.550781 2.027344-3.511719 2.023438-5.539062v-68.265626zm-262.972656 91.765626c4.585937-13.96875 14.304687-25.679688 27.1875-32.769532 2.375-1.054687 4.140625-3.132812 4.792968-5.648437.65625-2.515625.128907-5.191407-1.429687-7.269531-7.613281-10.15625-26.652344-13.355469-39.085937-14.351563 5.105468-21.191406 22.757812-37.03125 44.375-39.816406 2.101562 4.46875 3.960937 9.054687 5.5625 13.726562.050781.171875.113281.335938.179687.496094 12.492187 36.121094 19.535156 92.324219 22.714844 124.082031-19.515625-15.777344-41.160157-28.722656-64.296875-38.449218zm-43.914063-257.3125c-.414062-3.714844-.625-7.449219-.628906-11.1875 0-2.015626.160156-4.070313.289063-6.128907l16.777343-6.347656v1.476563c.027344 23.550781 19.113281 42.636718 42.664063 42.664062h8.535156c23.550781-.027344 42.636719-19.113281 42.667969-42.664062v-8.535157c-.027344-.628906-.09375-1.261719-.1875-1.886719 5.386719-3.105468 12.003906-3.179687 17.464843-.203124-.113281.691406-.183593 1.390624-.210937 2.089843v8.535157c.027344 23.550781 19.113281 42.636718 42.664063 42.664062h8.535156c23.550781-.027344 42.636718-19.113281 42.667968-42.664062v-1.476563l16.773438 6.347656c.128906 2.058594.292969 4.113281.292969 6.128907-.007813 3.722656-.21875 7.441406-.632813 11.144531-6.253906 55.507812-57.34375 97.320312-118.835937 97.320312-61.492188 0-112.578125-41.8125-118.835938-97.277343zm93.238281-30.722657v8.535157c0 14.136718-11.464843 25.597656-25.601562 25.597656h-8.535156c-14.136719 0-25.597656-11.460938-25.597656-25.597656v-8.535157zm110.933594 0v8.535157c0 14.136718-11.464844 25.597656-25.601562 25.597656h-8.535156c-14.136719 0-25.597657-11.460938-25.597657-25.597656v-8.535157zm-42.378906 249.574219c.636719 2.507812 2.375 4.59375 4.726562 5.667969 12.90625 7.085937 22.640626 18.804687 27.238282 32.792969-23.132813 9.726562-44.773438 22.671874-64.289063 38.449218 3.183594-31.757812 10.242188-87.96875 22.726563-124.089844.066406-.152343.109375-.324218.167968-.488281 1.609376-4.6875 3.472657-9.285156 5.582032-13.769531 21.6875 2.664062 39.402344 18.582031 44.371094 39.859375-12.421876.988281-31.46875 4.195313-39.089844 14.351563-1.546875 2.066406-2.074219 4.726562-1.433594 7.226562zm-42.957031-104.507812c5.707031-.035157 11.402343-.398438 17.066406-1.082032v53.488282c-7.792969 24.871093-13.503906 50.351562-17.066406 76.175781-3.5625-25.824219-9.269531-51.304688-17.066407-76.175781v-53.488282c5.664063.683594 11.363282 1.046875 17.066407 1.082032zm88.371093 155.886718c4.039063-1.539062 6.289063-5.851562 5.242188-10.042968-3.953125-16.773438-13.195312-31.835938-26.359375-42.957032 8.695313-2.226562 17.636719-3.34375 26.613281-3.328125 2.484375 0 4.847656-1.082031 6.46875-2.964843 1.621094-1.882813 2.339844-4.382813 1.972656-6.839844-2.070312-17.800782-10.441406-34.273438-23.597656-46.445313 33.015625 3.648438 61.632813 24.507813 75.207032 54.824219v18.230469l-35.421876 41.503906c-8.257812 10.222656-9.863281 24.296875-4.113281 36.113281.382813.792969.851563 1.519532 1.296875 2.277344h-96.050781c20.710937-16.894531 43.894531-30.511719 68.742187-40.371094zm65.546876-97.570312v7.683594c-1.09375-1.332032-2.253907-2.5625-3.414063-3.882813 1.183594-1.246094 2.335937-2.492187 3.414063-3.800781zm-7.144532-20.085938c-.382812.589844-.6875 1.222656-.914062 1.886719-2.1875 3.703125-4.835938 7.117187-7.875 10.164063-19.730469-15.964844-44.339844-24.675782-69.71875-24.679688h-34.132813v-29.644531c46.527344-9.929688 84-44.320313 97.878907-89.824219h3.269531c-3.046875 24.554688.652343 49.472656 10.699219 72.082031 9.828124 18.730469 10.125 41.03125.792968 60.015625zm-1.707031-166.230468c2.300781-.007813 4.5.9375 6.078125 2.613281 1.589844 1.554687 2.480469 3.695312 2.457031 5.921875 0 4.710937-3.820312 8.53125-8.535156 8.53125h-9.523437c.0625-.527344.199218-1.039063.257812-1.578125.480469-4.324219.726562-8.671875.734375-13.019531 0-.855469-.101563-1.65625-.121094-2.46875zm-177.738281-94.992188c16.109375 17.921875 55.882812 49.492188 132.804687 43.929688 8.214844 7.339843 13.804688 17.160156 15.921875 27.972656l-20.941406-7.9375c-2.859375-2.019532-6.277344-3.105469-9.777344-3.105469h-59.734375c-2.230469.003906-4.441406.441406-6.503906 1.296875-11.59375-7.378906-26.421875-7.347656-37.980469.085938-2.121094-.910157-4.40625-1.378907-6.714844-1.382813h-59.734374c-3.5.003906-6.914063 1.089844-9.769532 3.105469l-20.875 7.910156c.289063-1.097656.503906-2.242188.855469-3.316406.148437-.664063.214844-1.34375.195313-2.023438l2.890624-15.914062c47.78125-13.015625 69.804688-35.945313 79.363282-50.621094zm-118.316406 97.449219c1.582031-1.605469 3.753906-2.496094 6.007812-2.457031h8.535156c0 .855468-.121094 1.65625-.121094 2.46875.007813 4.359374.253907 8.71875.734376 13.054687.058593.527344.1875 1.023437.253906 1.542969h-9.488282c-4.710937 0-8.53125-3.820313-8.53125-8.53125-.007812-2.300782.9375-4.5 2.609376-6.078125zm5.070312 103.757812c10.035156-22.609375 13.722656-47.53125 10.664062-72.082031h3.234376c13.882812 45.507812 51.359374 79.898438 97.886718 89.824219v29.644531h-34.132812c-25.375-.003906-49.980469 8.734375-69.667969 24.746094-17.589844-19.960938-20.785156-48.804688-7.984375-72.132813zm-16.214844 209.519531v-51.199218c.066406-47.78125 35.976563-87.90625 83.457032-93.253906-13.175782 12.171874-21.554688 28.65625-23.628907 46.472656-.371093 2.457031.347657 4.957031 1.96875 6.839844 1.621094 1.882812 3.984375 2.964843 6.46875 2.964843 8.976563-.015625 17.921875 1.101563 26.617188 3.328125-13.167969 11.121094-22.410157 26.183594-26.359375 42.957032-1.046875 4.191406 1.203125 8.503906 5.238281 10.042968.179687.070313 5.90625 2.28125 14.414063 6.246094h-54.042969c-4.710938 0-8.53125 3.824219-8.53125 8.535156 0 4.710938 3.820312 8.535156 8.53125 8.535156h85.453125c8.097656 5.046876 15.765625 10.753907 22.921875 17.066407h-133.972657c-4.714843 0-8.535156-3.820313-8.535156-8.535157zm315.734375 8.535157h-8.457031c-6.515625 0-12.460938-3.703125-15.332031-9.550781-2.867188-5.851563-2.15625-12.820313 1.832031-17.972657l.929688-1.082031c7.921874 3.683594 16.558593 5.582031 25.292968 5.5625 3.925782-.003906 7.84375-.351562 11.707032-1.039062 11.480468-2.085938 22.789062-5.019532 33.835937-8.773438 5.042969-1.683594 10.167969-3.109375 15.359375-4.265625l7.867188 9.386719c4.105468 5.125 4.90625 12.152344 2.054687 18.070312-2.847656 5.917969-8.839844 9.675782-15.410156 9.664063zm110.933594 0c-6.800781-.011719-13.527344-1.386719-19.78125-4.046875 4.839844-11.53125 2.945313-24.789063-4.933594-34.5l-15.445312-18.398438c9.09375-4.78125 19.683593-5.875 29.5625-3.046875 9.105469 2.316407 17.824219 5.945313 25.878906 10.777344 8.304687 5.578125 18.03125 8.65625 28.03125 8.875 2.285156-.039063 4.5625-.203125 6.828125-.492187-4.945312 23.757812-25.871094 40.796874-50.140625 40.832031zm0 0" fill="#428dff"/></svg>