<svg height="512" viewBox="0 0 60 61" width="512" xmlns="http://www.w3.org/2000/svg"><g id="011---Sewage" fill="none"><g id="Icons" transform="translate(5)"><path id="Shape" d="m54 22c0 11.6-6.27 21-14 21h-16v-42h16c7.73 0 14 9.4 14 21z" fill="#cad9fc"/><path id="Shape" d="m51 22c0 11.6-6.27 21-14 21h-13v-42h13c7.73 0 14 9.4 14 21z" fill="#e8edfc"/><path id="Shape" d="m38 22c0 11.6-6.27 21-14 21h-5.26l-7.29-11.7c-.975769-3.0029392-1.46527708-6.1425429-1.45-9.3 0-10.84 5.47-19.76 12.5-20.88.4959325-.08049576.9975777-.12062738 1.5-.12 7.73 0 14 9.4 14 21z" fill="#cad9fc"/><path id="Shape" d="m35 22c0 11.6-6.27 21-14 21h-2.26l-7.29-11.7c-.975769-3.0029392-1.46527708-6.1425429-1.45-9.3 0-10.84 5.47-19.76 12.5-20.88 7.03 1.12 12.5 10.04 12.5 20.88z" fill="#e8edfc"/><path id="Shape" d="m33.91 22c.0009914 2.3628896-.3049002 4.7159022-.91 7-.1 0 .6 0-17 0 0 0-.35.12-.93.37-3.07-10.9 1.43-24.37 8.93-24.37 5.47 0 9.91 7.61 9.91 17z" fill="#a4c2f7"/><path id="Shape" d="m33 29c0 .1-.06.21-.1.31.0047226.0163321.0047226.0336679 0 .05-1.26 4.34-4.41 9.64-8.9 9.64-4.23.69-4.9 10.41-5 14.7-.03866 3.0375661-2.5324339 5.4686599-5.57 5.4299999-3.0375661-.0386599-5.46865989-2.5324338-5.43-5.5699999v-2.56c0 1.6568542-1.34314575 3-3 3-.67200513.0734052-1.35190065.0122146-2-.18-1.1957287-.4227483-1.99643563-1.5517451-2-2.82v-1c0-9.63 5.67-17 14.06-20.63.1 0 .16-.1.94-.37z" fill="#cad9fc"/><path id="Shape" d="m30 29c0 .1-.06.21-.1.31.0047226.0163321.0047226.0336679 0 .05-1.26 4.34-4.41 9.64-8.9 9.64-4.23.69-4.9 10.41-5 14.7-.0645296 2.3954485-1.6889227 4.4665497-4 5.1-2.36235544-.6448952-4.00075745-2.7912018-4-5.24v-2.56c0 1.6568542-1.34314575 3-3 3 0-.15 0-.29 0-.44-.67777387-.0671822-1.36193124.0217583-2 .26-1.1957287-.4227483-1.99643563-1.5517451-2-2.82v-1c-.0686719-7.6427161 3.90485606-14.7532398 10.45-18.7 1.4367509-.9154644 2.9609035-1.6859151 4.55-2.3z" fill="#e8edfc"/><path id="Shape" d="m6 53.82c-1.1957287-.4227483-1.99643563-1.5517451-2-2.82v-1c-.0686719-7.6427161 3.90485606-14.7532398 10.45-18.7-.975769-3.0029392-1.4652771-6.1425429-1.45-9.3 0-10.84 5.47-19.76 12.5-20.88.4959325-.08049576.9975777-.12062738 1.5-.12-1.5007556-.08326942-3.0058152-.0431345-4.5.12-9.38 1.5-15.5 16.79-11 30.18-6.56433475 3.9343257-10.55816976 11.0471557-10.5 18.7v1c0 1.6568542 1.34314575 3 3 3 .67204974.06726 1.3507595.0061761 2-.18z" fill="#fff"/></g><path id="Shape" d="m15.07 13.83 1.93.52c-.6628561 2.4960052-.9989963 5.0674782-1 7.65h-2c.000953-2.7582053.3606365-5.5045731 1.07-8.17z" fill="#fff"/><g fill="#428dff"><path id="Shape" d="m15.3 19c-.5522847 0-1-.4477153-1-1s.4477153-1 1-1 1 .4477153 1 1-.4477153 1-1 1z"/><path id="Shape" d="m60 22c0-12.13-6.73-22-15-22h-16c-5.4 0-9.78 4.17-12.12 9-.7558261 1.5382711-1.3619501 3.1456716-1.81 4.8-.1222872.5248857.1933792 1.052262.7137647 1.1924695.5203855.1402074 1.0582723-.1571959 1.2162353-.6724695.4119545-1.5286448.9747167-3.012595 1.68-4.43 1.99-4.13 5.71-7.84 10.32-7.89 7.17 0 13 9 13 20s-5.83 20-13 20h-2c.351698-.9420514 1.1079673-1.6762934 2.06-2 4.21-.06 8.09-4.25 9.91-10.72 3.33-11.66-2.11-25.28-9.97-25.28-7.28 0-13.34 12.49-10.11 24.83-.62.2933333-1.23.6266667-1.83 1-.7115139-2.5488792-1.0682057-5.1836875-1.06-7.83 0-.5522847-.4477153-1-1-1s-1 .4477153-1 1c-.0065501 3.0038753.4280873 5.9924287 1.29 8.87-3.7681372 2.4777874-6.73508865 5.9971338-8.54 10.13h-5.75c-.55228475 0-1 .4477153-1 1s.44771525 1 1 1h5c-.76119659 2.595576-1.09886413 5.2969164-1 8 0 2.209139 1.790861 4 4 4 1.0544366.132165 2.1238704-.0670433 3.06-.57.3812814 3.4195083 3.3649216 5.9471907 6.8005977 5.7613349 3.4356761-.1858557 6.1292287-3.0206505 6.1394023-6.4613349.0257547-3.2816717.4454246-6.5483823 1.25-9.73h32.75c.5522847 0 1-.4477153 1-1s-.4477153-1-1-1h-7.76c5.16-3.48 8.76-11.13 8.76-20zm-31-16c5.33 0 11.08 10.65 8.26 22-17.47 0-16.26 0-16.51 0-.4866142-1.9632626-.7383768-3.9773636-.75-6 0-8.37 4.29-16 9-16zm-6 47.67c-.0303757 2.4852813-2.0697187 4.4753756-4.555 4.4449999s-4.4753756-2.0697186-4.445-4.5549999v-5.56c0-.5522847-.4477153-1-1-1s-1 .4477153-1 1v3c0 1.1045695-.8954305 2-2 2h-1c-1.1045695 0-2-.8954305-2-2v-1c0-9.46 5.43-14.93 10-17.86 1.3193809-.8493839 2.7195279-1.5662056 4.18-2.14h15.5c-1.68 4.84-4.68 8-7.68 8h-.16c-4.98.83-5.71 10.63-5.84 15.67zm22-11.67h-9.76c11.65-7.85 11.68-32.13 0-40h9.76c7.17 0 13 9 13 20s-5.83 20-13 20z"/><path id="Shape" d="m48 37h-5c-.5522847 0-1 .4477153-1 1s.4477153 1 1 1h5c.5522847 0 1-.4477153 1-1s-.4477153-1-1-1z"/><path id="Shape" d="m21.55 36.11c-1.6961776 1.0261915-2.6794636 2.911787-2.55 4.89 0 .5522847.4477153 1 1 1s1-.4477153 1-1c-.1135885-1.2247696.4451579-2.4149759 1.46-3.11.486561-.2531594.6784034-.8509938.43-1.34-.2495756-.490313-.8483464-.6869243-1.34-.44z"/><path id="Shape" d="m20 44c-.5522847 0-1 .4477153-1 1v2c0 .5522847.4477153 1 1 1s1-.4477153 1-1v-2c0-.5522847-.4477153-1-1-1z"/><path id="Shape" d="m14.55 39.11c-1.4798011.752589-2.4501358 2.232825-2.55 3.89 0 .5522847.4477153 1 1 1s1-.4477153 1-1c.106502-.8991516.6487808-1.6882607 1.45-2.11.3460386-.1440974.5824323-.4696151.6123817-.8432591s-.1515756-.73266-.4702434-.9300368c-.3186678-.1973769-.7209575-.1999648-1.0421383-.0067041z"/></g></g></svg>