<svg height="512" viewBox="0 0 61 60" width="512" xmlns="http://www.w3.org/2000/svg"><g id="038---Improved-Sense-of-Smell" fill="none"><g id="Icons" transform="translate(2 1)"><circle id="Oval" cx="47" cy="11" fill="#e8edfc" r="11"/><g fill="#cad9fc"><path id="Shape" d="m47 0c-.5020055.00396839-1.0031606.04205618-1.5.114 5.44307.74317391 9.5006713 5.39242933 9.5006713 10.886 0 5.4935707-4.0576013 10.1428261-9.5006713 10.886 4.0710962.5639443 8.1168227-1.1897596 10.4884456-4.5464339 2.3716229-3.3566742 2.6731269-7.75581913.7816417-11.4046739s-5.6601181-5.93813115-9.7700873-5.9348922z"/><path id="Shape" d="m7.46 27.13-.53 1.84"/><path id="Shape" d="m35.07 28.97-.53-1.84"/></g><path id="Shape" d="m42 36c-.0000263 2.8862808-1.3843346 5.5974405-3.7222495 7.2900039-2.337915 1.6925633-5.3457575 2.1611571-8.0877505 1.2599961-5.2632258 4.6000063-13.1167742 4.6000063-18.38 0-3.20140766 1.044956-6.71834232.2152008-9.11506217-2.1505291-2.39671984-2.36573-3.27217323-5.8715686-2.26896796-9.0863039 1.00320528-3.2147353 3.71719931-5.6004343 7.03403013-6.183167l6.16-21.56c.9397635-3.29666876 3.9520005-5.5702234 7.38-5.5702234s6.4402365 2.27355464 7.38 5.5702234l6.16 21.56c4.3128688.7490264 7.4613299 4.492572 7.46 8.87z" fill="#e8edfc"/><path id="Shape" d="m34.54 27.13-6.16-21.56c-.9380844-3.29778768-3.9513849-5.57205376-7.38-5.57-.5042137.00457968-1.0067088.05951914-1.5.164 2.8191853.55577659 5.089792 2.64334464 5.88 5.406l6.16 21.56c4.3141489.758625 7.4555777 4.5131082 7.4412549 8.8934264-.0143229 4.3803181-3.1802372 8.1141774-7.4992549 8.8445736 4.8822705.8111409 9.5033776-2.4720287 10.3442061-7.349274s-2.4141665-9.518241-7.2862061-10.388726z" fill="#cad9fc"/><path id="Shape" d="m8.09 39.43c-.44672053.3706433-1.00954336.57241-1.59.57-1.38071187 0-2.5-1.1192881-2.5-2.5s1.11928813-2.5 2.5-2.5c.18171343-.0009274.36292218.0192069.54.06z" fill="#a4c2f7"/><path id="Shape" d="m34.96 35.06c.1770778-.0407931.3582866-.0609274.54-.06 1.3807119 0 2.5 1.1192881 2.5 2.5s-1.1192881 2.5-2.5 2.5c-.5804566.00241-1.1432795-.1993567-1.59-.57z" fill="#a4c2f7"/></g><g id="Layer_4" fill="#fff" transform="translate(2 1)"><path id="Shape" d="m33.866 44.956c.09-.008.178-.024.267-.035-.089.012-.177.027-.267.035z"/><path id="Shape" d="m3 36c-.0013299-4.377428 3.14713124-8.1209736 7.46-8.87l6.16-21.56c.7871331-2.75610561 3.0448023-4.84369766 5.854-5.413-3.9109998-.77878615-7.7643149 1.57698469-8.854 5.413l-6.16 21.56c-4.78574736.9445117-7.94787179 5.5297033-7.12996976 10.338707s5.31805869 8.0910158 10.14696976 7.400293c-4.31925391-.7416093-7.47641504-4.486542-7.477-8.869z"/><path id="Rectangle-path" d="m8.523 8.412h8.004v2.001h-8.004z" transform="matrix(.275 -.961 .961 .275 .033 18.868)"/></g><g id="Layer_3" fill="#428dff" transform="translate(0 -1)"><path id="Shape" d="m49 1c-6.627417 0-12 5.372583-12 12s5.372583 12 12 12 12-5.372583 12-12c-.0071648-6.62444695-5.375553-11.99283515-12-12zm0 22c-5.5228475 0-10-4.4771525-10-10s4.4771525-10 10-10 10 4.4771525 10 10c-.0060624 5.5203344-4.4796656 9.9939376-10 10z"/><path id="Shape" d="m52.2 8.4-5.308 7.078-1.185-1.185c-.3923789-.3789722-1.0160848-.3735524-1.4018186.0121814s-.3911536 1.0094397-.0121814 1.4018186c2.18 2.18 2.168 2.293 2.707 2.293.3147573 0 .6111456-.1481942.8-.4l6-8c.3313708-.4418278.2418278-1.06862915-.2-1.4s-1.0686292-.2418278-1.4.2z"/><path id="Shape" d="m14.536 12.416c-.5522847 0-1-.4477153-1-1s.4477153-1 1-1 1 .4477153 1 1-.4477153 1-1 1z"/><path id="Shape" d="m37.343 28.283-6-20.988c-1.0647779-3.72678533-4.4710897-6.29618303-8.347-6.29618303s-7.2822221 2.5693977-8.347 6.29618303c-.1518783.53129793.1557021 1.08512169.687 1.237s1.0851217-.15570207 1.237-.687c.8193288-2.86776934 3.4404842-4.84493297 6.423-4.84493297s5.6036712 1.97716363 6.423 4.84493297l6.684 23.4c.1178976.3388664.4076226.5890943.7600384.6564251.3524157.0673309.7139819-.0584644.9485-.33s.3063593-.6475587.1884616-.9864251c3.6894845 1.4867672 5.7223035 5.4620894 4.767732 9.3236391-.9545714 3.8615497-4.6054655 6.4318633-8.562732 6.0283609.845207-.9506354 1.5663054-2.0047294 2.146-3.137 1.2567195.4491606 2.6595388.1429782 3.614813-.7889769.9552741-.9319551 1.2960249-2.3267808.8780533-3.5942148-.4179716-1.2674339-1.5216056-2.1859336-2.8438663-2.3668083.0138071-.5522847-.4227153-1.0111929-.975-1.025s-1.0111929.4227153-1.025.975c0 7.1797017-5.8202983 13-13 13s-13-5.8202983-13-13c-.01380712-.5522847-.47271525-.9888071-1.025-.975s-.98880712.4727153-.975 1.025c-1.32226072.1808747-2.42589475 1.0993744-2.84386631 2.3668083-.41797155 1.267434-.07722081 2.6622597.87805335 3.5942148.95527417.9319551 2.35809349 1.2381375 3.61481296.7889769.5796738 1.1308159 1.3004243 2.1835485 2.145 3.133-3.95247941.3957101-7.59496055-2.1736687-8.5481984-6.0298349-.95323784-3.8561661 1.07257827-7.8267386 4.7541984-9.3181651-.11700449.3383305-.04462391.713382.18987667.9838761s.59549495.3953364.94700001.3275.64011884-.3180456.75712332-.6563761c.641-2.244.421-1.474.561-1.965l3.925-13.738c.1434063-.5281128-.1643174-1.0734064-.6905299-1.2236356-.5262126-.1502292-1.0754432.1504114-1.2324701.6746356l-3.8 13.3c-3.51030054.8329801-6.29916314 3.4932316-7.29682501 6.960325-.99766186 3.4670934-.04923428 7.2027564 2.48148119 9.7740488 2.53071548 2.5712925 6.25082092 3.5790168 9.73334382 2.6366262 5.4900739 4.4630016 13.3579261 4.4630016 18.848 0 3.4813783.9392442 7.1987677-.0697003 9.7275649-2.6401787s3.4768394-6.3038641 2.4808113-9.7694236-3.7816636-6.125858-7.2893762-6.9613977zm-30.343 11.217c.00186249-.6944044.48009987-1.2967518 1.156-1.456.13540983.9877106.36992595 1.9592773.7 2.9-.44600191.1180155-.92152947.020999-1.28565617-.2622979-.3641267-.2832968-.57508062-.7203748-.57034383-1.1817021zm32 0c.0036362.4600885-.2073437.8955923-.570643 1.1779188-.3632992.2823265-.8374164.379224-1.282357.2620812.3300741-.9407227.5645902-1.9122894.7-2.9.6761607.1607796 1.1533188.7649869 1.153 1.46z"/><path id="Shape" d="m12.707 50.294c-.2859855-.2861653-.7162224-.3718179-1.09-.217-.268.111-.075-.034-3.325 3.216-.37897221.3923789-.37355237 1.0160848.01218142 1.4018186.3857338.3857338 1.00943969.3911536 1.40181858.0121814l1.294-1.293v1.586c0 2.209139-1.790861 4-4 4h-5c-.55228475 0-1 .4477153-1 1s.44771525 1 1 1h5c3.3123376-.0033074 5.9966926-2.6876624 6-6v-1.586l1.293 1.293c.3923789.3789722 1.0160848.3735524 1.4018186-.0121814s.3911536-1.0094397.0121814-1.4018186z"/><path id="Shape" d="m44 59h-5c-2.209139 0-4-1.790861-4-4v-1.586l1.293 1.293c.3923789.3789722 1.0160848.3735524 1.4018186-.0121814s.3911536-1.0094397.0121814-1.4018186l-3-3c-.2859855-.2861653-.7162224-.3718179-1.09-.217-.268.111-.075-.034-3.325 3.216-.3789722.3923789-.3735524 1.0160848.0121814 1.4018186s1.0094397.3911536 1.4018186.0121814l1.294-1.292v1.586c.0033074 3.3123376 2.6876624 5.9966926 6 6h5c.5522847 0 1-.4477153 1-1s-.4477153-1-1-1z"/><path id="Shape" d="m23.707 53.294c-.2859855-.2861653-.7162224-.3718179-1.09-.217-.268.111-.075-.034-3.325 3.216-.3789722.3923789-.3735524 1.0160848.0121814 1.4018186s1.0094397.3911536 1.4018186.0121814l1.294-1.293v3.586c0 .5522847.4477153 1 1 1s1-.4477153 1-1v-3.586l1.293 1.293c.2510745.2599566.6228779.3642126.9725073.2726972.3496295-.0915155.6226744-.3645604.7141899-.7141899.0915154-.3496294-.0127406-.7214328-.2726972-.9725073z"/></g></g></svg>