<?xml version="1.0" encoding="iso-8859-1"?>
<!-- Generator: Adobe Illustrator 19.0.0, SVG Export Plug-In . SVG Version: 6.00 Build 0)  -->
<svg version="1.1" id="Capa_1" xmlns="http://www.w3.org/2000/svg" xmlns:xlink="http://www.w3.org/1999/xlink" x="0px" y="0px"
	 viewBox="0 0 512 512" style="enable-background:new 0 0 512 512;" xml:space="preserve">
<g>
	<circle style="fill:#A4C2F7;" cx="256" cy="256" r="247.467"/>
	
		<linearGradient id="SVGID_1_" gradientUnits="userSpaceOnUse" x1="-48.7584" y1="652.5632" x2="-48.0318" y2="651.8741" gradientTransform="matrix(469.3333 0 0 -494.9333 22956.8652 323061.0313)">
		<stop  offset="0" style="stop-color:#D4E1F4"/>
		<stop  offset="0.1717" style="stop-color:#D4E1F4"/>
		<stop  offset="0.2" style="stop-color:#D4E1F4"/>
		<stop  offset="0.2001" style="stop-color:#DAE4F4"/>
		<stop  offset="0.2007" style="stop-color:#EBEBF4"/>
		<stop  offset="0.2014" style="stop-color:#F6F1F4"/>
		<stop  offset="0.2023" style="stop-color:#FDF4F4"/>
		<stop  offset="0.205" style="stop-color:#FFF5F4"/>
		<stop  offset="0.2522" style="stop-color:#FFF5F4"/>
		<stop  offset="0.26" style="stop-color:#FFF5F4"/>
		<stop  offset="0.26" style="stop-color:#D4E1F4"/>
		<stop  offset="0.3974" style="stop-color:#D4E1F4"/>
		<stop  offset="0.42" style="stop-color:#D4E1F4"/>
		<stop  offset="0.4201" style="stop-color:#DAE4F4"/>
		<stop  offset="0.4207" style="stop-color:#EBEBF4"/>
		<stop  offset="0.4214" style="stop-color:#F6F1F4"/>
		<stop  offset="0.4223" style="stop-color:#FDF4F4"/>
		<stop  offset="0.425" style="stop-color:#FFF5F4"/>
		<stop  offset="0.4894" style="stop-color:#FFF5F4"/>
		<stop  offset="0.5" style="stop-color:#FFF5F4"/>
		<stop  offset="0.5" style="stop-color:#F9F2F4"/>
		<stop  offset="0.5001" style="stop-color:#E8EBF4"/>
		<stop  offset="0.5003" style="stop-color:#DDE5F4"/>
		<stop  offset="0.5005" style="stop-color:#D6E2F4"/>
		<stop  offset="0.501" style="stop-color:#D4E1F4"/>
		<stop  offset="0.7062" style="stop-color:#D4E1F4"/>
		<stop  offset="0.74" style="stop-color:#D4E1F4"/>
		<stop  offset="0.741" style="stop-color:#FFF5F4"/>
		<stop  offset="0.8346" style="stop-color:#FFF5F4"/>
		<stop  offset="0.85" style="stop-color:#FFF5F4"/>
		<stop  offset="0.851" style="stop-color:#D4E1F4"/>
	</linearGradient>
	<ellipse style="fill:url(#SVGID_1_);" cx="243.2" cy="256" rx="234.667" ry="247.467"/>
	<circle style="fill:#A4C2F7;" cx="256" cy="246.434" r="25.6"/>
	<path style="fill:#7FACFA;" d="M91.748,441.031c93.49,83.082,234.299,83.268,328.007,0.431
		C323.841,365.007,187.862,364.829,91.748,441.031z"/>
	<path style="fill:#A4C2F7;" d="M91.748,441.031c45.221,40.284,103.69,62.509,164.252,62.435c62.81,0,79.57-23.446,123.207-62.004
		C334.121,405.538,317.614,384,255.483,384C196.023,383.931,138.298,404.037,91.748,441.031z"/>
	<path style="fill:#FFFFFF;" d="M256,503.467c2.204,0,4.38-0.108,6.57-0.167C135.856,499.806,34.133,390.469,34.133,256
		S135.856,12.194,262.57,8.7c-2.19-0.058-4.366-0.167-6.57-0.167C119.328,8.533,8.533,119.328,8.533,256
		S119.328,503.467,256,503.467L256,503.467z"/>
	<g>
		<path style="fill:#428DFF;" d="M256,512C114.615,512,0,397.385,0,256S114.615,0,256,0s256,114.615,256,256
			C511.84,397.319,397.319,511.84,256,512z M256,17.067C124.041,17.067,17.067,124.041,17.067,256S124.041,494.933,256,494.933
			S494.933,387.959,494.933,256C494.785,124.102,387.898,17.215,256,17.067z"/>
		<path style="fill:#428DFF;" d="M256,68.267c-2.264,0.001-4.435-0.897-6.035-2.498c-1.601-1.601-2.499-3.772-2.498-6.035V42.667
			c0-4.713,3.82-8.533,8.533-8.533c4.713,0,8.533,3.821,8.533,8.533v17.067c0.001,2.264-0.897,4.435-2.498,6.035
			C260.435,67.369,258.264,68.268,256,68.267z"/>
		<path style="fill:#428DFF;" d="M473.6,264.533h-17.067c-4.713,0-8.533-3.821-8.533-8.533c0-4.713,3.82-8.533,8.533-8.533H473.6
			c4.713,0,8.533,3.821,8.533,8.533C482.133,260.713,478.313,264.533,473.6,264.533z"/>
		<path style="fill:#428DFF;" d="M55.467,264.533H38.4c-4.713,0-8.533-3.821-8.533-8.533c0-4.713,3.821-8.533,8.533-8.533h17.067
			c4.713,0,8.533,3.821,8.533,8.533C64,260.713,60.18,264.533,55.467,264.533z"/>
		<path style="fill:#428DFF;" d="M356.258,95.133c-3.048-0.002-5.863-1.629-7.386-4.269c-1.523-2.64-1.522-5.892,0.002-8.531
			l8.533-14.783c1.523-2.642,4.341-4.271,7.392-4.272s5.869,1.626,7.394,4.268c1.525,2.642,1.524,5.896-0.002,8.537l-8.533,14.783
			C362.131,93.509,359.31,95.135,356.258,95.133z"/>
		<path style="fill:#428DFF;" d="M444.442,377.6c-1.495,0.001-2.964-0.393-4.258-1.142l-14.783-8.533
			c-4.08-2.358-5.477-7.575-3.121-11.656c2.356-4.081,7.573-5.481,11.655-3.127l14.783,8.533c3.348,1.931,4.98,5.871,3.978,9.604
			C451.692,375.012,448.307,377.605,444.442,377.6z"/>
		<path style="fill:#428DFF;" d="M82.325,168.533c-1.495,0.001-2.964-0.393-4.258-1.142l-14.783-8.533
			c-2.642-1.523-4.271-4.341-4.272-7.392c-0.001-3.05,1.626-5.869,4.268-7.394s5.896-1.524,8.537,0.002l14.783,8.533
			c3.348,1.931,4.98,5.871,3.978,9.604S86.19,168.538,82.325,168.533L82.325,168.533z"/>
		<path style="fill:#428DFF;" d="M155.7,94.85c-3.052,0.002-5.872-1.625-7.4-4.267L139.767,75.8
			c-1.526-2.641-1.527-5.896-0.002-8.537c1.525-2.642,4.344-4.269,7.394-4.268c3.05,0.001,5.868,1.629,7.392,4.272l8.533,14.783
			c1.524,2.639,1.525,5.891,0.002,8.531C161.563,93.221,158.748,94.848,155.7,94.85z"/>
		<path style="fill:#428DFF;" d="M427.508,164.55c-3.865,0.005-7.251-2.588-8.253-6.321c-1.002-3.733,0.63-7.673,3.978-9.604
			l14.775-8.533c2.641-1.526,5.896-1.527,8.537-0.002c2.642,1.525,4.269,4.344,4.268,7.394c-0.001,3.05-1.629,5.868-4.272,7.392
			l-14.775,8.533C430.472,164.157,429.004,164.551,427.508,164.55L427.508,164.55z"/>
		<path style="fill:#428DFF;" d="M65.392,373.617c-3.865,0.005-7.251-2.588-8.253-6.321c-1.002-3.733,0.63-7.673,3.978-9.604
			l14.775-8.533c2.641-1.526,5.896-1.527,8.537-0.002c2.642,1.525,4.269,4.344,4.268,7.394s-1.629,5.868-4.272,7.392l-14.775,8.533
			C68.356,373.224,66.887,373.618,65.392,373.617z"/>
		<path style="fill:#428DFF;" d="M256,512c-62.639,0.018-123.104-22.964-169.917-64.583c-1.888-1.675-2.937-4.1-2.867-6.623
			c0.071-2.523,1.255-4.885,3.234-6.452c99.227-78.668,239.608-78.481,338.625,0.45c1.974,1.57,3.152,3.934,3.217,6.456
			s-0.991,4.943-2.883,6.611C378.658,489.196,318.405,512.009,256,512z M105.358,441.4c87.561,71.227,213.042,71.394,300.792,0.4
			C316.645,376.259,195.037,376.097,105.358,441.4L105.358,441.4z"/>
		<path style="fill:#428DFF;" d="M256,280.567c-13.806,0.001-26.253-8.315-31.536-21.07c-5.283-12.755-2.361-27.437,7.402-37.197
			c13.503-12.9,34.764-12.9,48.267,0c6.403,6.399,10,15.081,10,24.133c0,9.052-3.597,17.734-10,24.133l0,0
			C273.749,276.991,265.058,280.593,256,280.567z M256,229.367c-6.903-0.001-13.127,4.157-15.768,10.535
			c-2.642,6.378-1.181,13.718,3.701,18.599c6.752,6.45,17.382,6.45,24.133,0l0,0c4.88-4.881,6.34-12.221,3.699-18.598
			C269.124,233.526,262.902,229.368,256,229.367L256,229.367z"/>
		<path style="fill:#428DFF;" d="M275.392,238.25c-3.451-0.001-6.562-2.08-7.882-5.268c-1.32-3.188-0.591-6.858,1.849-9.298
			l77.15-77.15c3.332-3.332,8.735-3.332,12.067,0c3.332,3.332,3.332,8.735,0,12.067l-77.15,77.15
			C279.827,237.353,277.655,238.253,275.392,238.25L275.392,238.25z"/>
	</g>
</g>
<g>
</g>
<g>
</g>
<g>
</g>
<g>
</g>
<g>
</g>
<g>
</g>
<g>
</g>
<g>
</g>
<g>
</g>
<g>
</g>
<g>
</g>
<g>
</g>
<g>
</g>
<g>
</g>
<g>
</g>
</svg>
