<svg height="512pt" viewBox="-26 0 512 512.0399" width="512pt" xmlns="http://www.w3.org/2000/svg"><path d="m396.75 179.214844h-2.226562c14.71875-37.449219 3.894531-80.109375-26.898438-106.007813-30.789062-25.898437-74.675781-29.253906-109.046875-8.339843-28.214844-50.171876-90.144531-70.390626-142.527344-46.535157-52.386719 23.855469-77.792969 83.839844-58.472656 138.0625-32.535156 9.582031-53.101563 41.597657-48.289063 75.171875 4.8125 33.574219 33.546876 58.523438 67.460938 58.578125h320c30.632812 0 55.46875-24.832031 55.46875-55.464843 0-30.632813-24.835938-55.464844-55.46875-55.464844zm0 0" fill="#e8edfc"/><path d="m452.21875 234.679688c0 14.710937-5.84375 28.820312-16.246094 39.222656-10.402344 10.398437-24.511718 16.242187-39.222656 16.242187h-25.597656c26.027344-.027343 48.535156-18.15625 54.113281-43.582031 5.574219-25.421875-7.277344-51.304688-30.902344-62.230469-7.265625-3.398437-15.191406-5.144531-23.210937-5.117187h-2.21875c10.515625-26.773438 8.148437-56.894532-6.425782-81.695313-14.574218-24.800781-39.734374-41.527343-68.242187-45.367187 4.269531-.617188 8.574219-.929688 12.886719-.9375 31.019531-.042969 60.054687 15.265625 77.546875 40.886718 17.488281 25.621094 21.171875 58.234376 9.832031 87.113282h2.21875c14.710938 0 28.820312 5.84375 39.222656 16.242187 10.402344 10.402344 16.246094 24.511719 16.246094 39.222657zm0 0" fill="#cad9fc"/><path d="m252.792969 55.820312c-6.9375 2.207032-13.585938 5.246094-19.796875 9.046876-17.402344-30.851563-48.523438-51.503907-83.710938-55.554688 4.246094-.515625 8.519532-.769531 12.800782-.765625 36.144531-.019531 70.019531 17.636719 90.707031 47.273437zm0 0" fill="#cad9fc"/><path d="m221.816406 102.414062c0 9.425782-7.640625 17.066407-17.066406 17.066407s-17.066406-7.640625-17.066406-17.066407c0-9.425781 7.640625-17.066406 17.066406-17.066406s17.066406 7.640625 17.066406 17.066406zm0 0" fill="#e8edfc"/><path d="m196.21875 153.613281c0 18.851563-15.28125 34.132813-34.132812 34.132813-18.851563 0-34.136719-15.28125-34.136719-34.132813zm0 0" fill="#fff"/><path d="m136.484375 102.414062c0 9.425782-7.640625 17.066407-17.066406 17.066407s-17.066407-7.640625-17.066407-17.066407c0-9.425781 7.640626-17.066406 17.066407-17.066406s17.066406 7.640625 17.066406 17.066406zm0 0" fill="#e8edfc"/><path d="m180.132812 353.984375c7.714844 11.84375 4.371094 27.703125-7.476562 35.421875-6.242188 4.082031-13.96875 5.207031-21.117188 3.070312-5.902343-1.636718-10.996093-5.390624-14.304687-10.546874-5.359375-8.214844-8.097656-35.257813-9.257813-50.789063-.191406-2.222656.804688-4.378906 2.625-5.667969 1.816407-1.292968 4.179688-1.527344 6.214844-.613281.183594.027344.359375.082031.519532.171875 13.816406 7.296875 37.4375 20.734375 42.796874 28.953125zm0 0" fill="#a4c2f7"/><path d="m291.066406 353.984375c7.714844 11.84375 4.371094 27.703125-7.476562 35.421875-6.242188 4.082031-13.96875 5.207031-21.121094 3.070312-5.898438-1.636718-10.992188-5.390624-14.300781-10.546874-5.359375-8.214844-8.097657-35.257813-9.257813-50.789063-.191406-2.222656.804688-4.378906 2.625-5.667969 1.816406-1.292968 4.179688-1.527344 6.214844-.613281.183594.027344.359375.082031.519531.171875 13.816407 7.296875 37.4375 20.734375 42.796875 28.953125zm0 0" fill="#a4c2f7"/><path d="m402 353.984375c7.714844 11.84375 4.367188 27.703125-7.476562 35.421875-6.242188 4.082031-13.96875 5.207031-21.121094 3.070312-5.898438-1.636718-10.992188-5.390624-14.300782-10.546874-5.359374-8.214844-8.097656-35.257813-9.257812-50.789063-.191406-2.222656.804688-4.378906 2.621094-5.667969 1.820312-1.292968 4.183594-1.527344 6.21875-.613281.183594.027344.359375.082031.519531.171875 13.816406 7.296875 37.4375 20.734375 42.796875 28.953125zm0 0" fill="#7facfa"/><path d="m383.867188 363.867188c2.582031 5.335937 2.832031 11.507812.6875 17.035156-2.144532 5.53125-6.488282 9.921875-11.996094 12.121094-5.558594-2.160157-10.277344-6.046876-13.457032-11.09375-5.359374-8.214844-9.789062-34.132813-11.945312-49.03125-.496094-1.945313.253906-3.996094 1.882812-5.167969 1.628907-1.175781 3.808594-1.234375 5.496094-.148438 10.925782 11.308594 26.34375 28.039063 29.332032 36.285157zm0 0" fill="#a4c2f7"/><path d="m262.90625 463.925781c7.714844 11.851563 4.363281 27.707031-7.484375 35.421875-6.242187 4.085938-13.972656 5.207032-21.121094 3.066406-5.898437-1.640624-10.988281-5.390624-14.300781-10.539062-5.351562-8.226562-8.097656-35.261719-9.257812-50.800781-.191407-2.222657.808593-4.378907 2.628906-5.667969 1.820312-1.289062 4.1875-1.519531 6.21875-.601562.183594.027343.359375.082031.519531.167968 13.816406 7.296875 37.4375 20.71875 42.796875 28.953125zm0 0" fill="#a4c2f7"/><path d="m365.304688 463.925781c7.714843 11.851563 4.367187 27.707031-7.484376 35.421875-6.242187 4.085938-13.972656 5.207032-21.117187 3.066406-5.902344-1.640624-10.992187-5.390624-14.304687-10.539062-5.347657-8.226562-8.097657-35.261719-9.257813-50.800781-.191406-2.222657.8125-4.378907 2.628906-5.667969 1.820313-1.289062 4.1875-1.519531 6.222657-.601562.179687.027343.355468.082031.519531.167968 13.816406 7.296875 37.433593 20.71875 42.792969 28.953125zm0 0" fill="#7facfa"/><path d="m348.488281 472.949219c2.445313 5.589843 2.507813 11.9375.164063 17.574219-2.339844 5.636718-6.875 10.078124-12.566406 12.289062-5.636719-2.03125-10.441407-5.882812-13.652344-10.945312-5.351563-8.226563-9.335938-34.449219-11.246094-49.496094-.414062-2.023438.402344-4.101563 2.082031-5.304688 1.679688-1.203125 3.90625-1.308594 5.691407-.265625 11.042968 11.210938 26.632812 27.84375 29.527343 36.148438zm0 0" fill="#a4c2f7"/><path d="m76.75 290.144531h25.601562c-33.917968-.054687-62.648437-25.003906-67.460937-58.578125-4.8125-33.574218 15.75-65.589844 48.285156-75.171875-11.339843-31.796875-7.535156-67.035156 10.328125-95.679687 17.867188-28.648438 47.835938-47.566406 81.378906-51.375-8.410156-1.03125-16.914062-1.03125-25.324218 0h-.300782.085938c-33.554688 3.792968-63.539062 22.703125-81.417969 51.351562-17.878906 28.648438-21.691406 63.894532-10.347656 95.703125-32.535156 9.582031-53.101563 41.597657-48.289063 75.171875 4.8125 33.574219 33.546876 58.523438 67.460938 58.578125zm0 0" fill="#fff"/><path d="m42.617188 119.480469c.148437-20.003907 5.171874-39.667969 14.636718-57.292969 21.027344-38.253906 61.175782-62.066406 104.832032-62.1757812v17.0664062c-37.417969.109375-71.828126 20.519531-89.867188 53.300781-8.085938 15.113282-12.390625 31.960938-12.535156 49.101563zm0 0" fill="#fff"/><g fill="#428dff"><path d="m65.582031 61.613281c.429688.375.886719.71875 1.363281 1.027344 1.945313 1.109375 4.214844 1.5 6.417969 1.109375 4.242188-1.03125 7.0625-5.046875 6.585938-9.386719-.203125-1.109375-.597657-2.171875-1.160157-3.148437-.515624-.972656-1.207031-1.839844-2.039062-2.5625-1.742188-1.441406-4.003906-2.09375-6.246094-1.800782-2.335937.464844-4.417968 1.777344-5.84375 3.6875-1.433594 1.9375-1.984375 4.386719-1.511718 6.75l.53125 1.585938c.21875.539062.523437 1.039062.894531 1.484375.265625.472656.605469.894531 1.007812 1.253906zm0 0"/><path d="m460.75 234.679688c-.035156-31.730469-23.285156-58.65625-54.671875-63.316407 2.304687-8.570312 3.472656-17.410156 3.472656-26.285156.054688-35.460937-18.273437-68.417969-48.425781-87.085937-30.152344-18.664063-67.824219-20.375-99.542969-4.519532-36-54.453125-109.105469-69.820312-163.984375-34.464844-2.601562 1.613282-5.105468 3.375-7.5 5.28125-1.925781 1.34375-3.1875 3.445313-3.464844 5.777344-.273437 2.332032.457032 4.667969 2.015626 6.425782 3.011718 3.339843 8.03125 3.9375 11.75 1.398437 2.046874-1.640625 4.195312-3.152344 6.433593-4.53125 23.65625-15.242187 52.554688-20.050781 79.871094-13.289063 27.316406 6.761719 50.636719 24.496094 64.453125 49.011719 1.136719 2.003907 3.039062 3.464844 5.273438 4.042969 2.230468.570312 4.601562.226562 6.578124-.953125 31.242188-19.015625 71.132813-15.964844 99.125 7.574219 27.988282 23.542968 37.828126 62.324218 24.445313 96.359375-1.023437 2.628906-.6875 5.589843.902344 7.917969 1.589843 2.328124 4.222656 3.722656 7.042969 3.722656h2.226562c25.921875 0 46.933594 21.011718 46.933594 46.933594 0 25.921874-21.011719 46.933593-46.933594 46.933593h-320c-29.667969-.0625-54.792969-21.886719-59.003906-51.257812-4.210938-29.367188 13.773437-57.375 42.230468-65.769531 2.25-.65625 4.132813-2.214844 5.203126-4.304688 1.066406-2.085938 1.226562-4.523438.445312-6.738281-3.90625-10.933594-5.914062-22.453125-5.941406-34.0625.164062-10.511719 1.785156-20.953125 4.8125-31.019531 1.304687-4.347657-.960938-8.964844-5.195313-10.597657-2.1875-.832031-4.621093-.722656-6.722656.308594-2.105469 1.027344-3.6875 2.878906-4.371094 5.117187-3.550781 11.742188-5.433593 23.925782-5.589843 36.191407.007812 10.695312 1.472656 21.339843 4.351562 31.640625-33.65625 14.203125-52.648438 50.144531-45.421875 85.953125 7.226563 35.808593 38.675781 61.570312 75.203125 61.605469h320c35.332031-.039063 63.964844-28.667969 64-64zm0 0"/><path d="m119.417969 153.613281c0 23.5625 19.101562 42.667969 42.667969 42.667969 23.5625 0 42.664062-19.105469 42.664062-42.667969 0-4.714843-3.820312-8.535156-8.53125-8.535156h-68.269531c-4.710938 0-8.53125 3.820313-8.53125 8.535156zm66.808593 8.53125c-3.613281 10.238281-13.289062 17.082031-24.140624 17.082031-10.855469 0-20.53125-6.84375-24.140626-17.082031zm0 0"/><path d="m93.816406 119.480469c0 4.710937 3.820313 8.53125 8.535156 8.53125h34.132813c3.460937-.003907 6.578125-2.097657 7.890625-5.304688 1.308594-3.203125.550781-6.882812-1.917969-9.3125 1.671875-3.421875 2.546875-7.175781 2.5625-10.980469 0-14.140624-11.464843-25.601562-25.601562-25.601562s-25.601563 11.460938-25.601563 25.601562c.015625 3.804688.890625 7.558594 2.5625 10.980469-1.640625 1.597657-2.566406 3.792969-2.5625 6.085938zm25.601563-25.601563c4.710937 0 8.53125 3.820313 8.53125 8.535156 0 4.710938-3.820313 8.53125-8.53125 8.53125-4.714844 0-8.535157-3.820312-8.535157-8.53125 0-4.714843 3.820313-8.535156 8.535157-8.535156zm0 0"/><path d="m179.152344 119.480469c0 4.710937 3.820312 8.53125 8.53125 8.53125h34.132812c3.464844-.003907 6.582032-2.097657 7.890625-5.304688 1.308594-3.203125.554688-6.882812-1.914062-9.3125 1.667969-3.421875 2.542969-7.175781 2.558593-10.980469 0-14.140624-11.460937-25.601562-25.601562-25.601562-14.136719 0-25.597656 11.460938-25.597656 25.601562.015625 3.804688.890625 7.558594 2.558594 10.980469-1.640626 1.597657-2.5625 3.792969-2.558594 6.085938zm25.597656-25.601563c4.714844 0 8.535156 3.820313 8.535156 8.535156 0 4.710938-3.820312 8.53125-8.535156 8.53125-4.710938 0-8.53125-3.820312-8.53125-8.53125 0-4.714843 3.820312-8.535156 8.53125-8.535156zm0 0"/><path d="m399.847656 396.242188c15.671875-10.464844 19.917969-31.636719 9.5-47.335938-1.863281-2.78125-7.511718-11.28125-46.210937-31.453125-4.832031-2.523437-10.652344-2.214844-15.191407.804687-4.535156 3.019532-7.070312 8.269532-6.609374 13.703126 3.6875 43.519531 9.328124 51.984374 11.179687 54.773437 5.015625 7.539063 12.820313 12.777344 21.695313 14.558594 8.878906 1.785156 18.101562-.035157 25.636718-5.050781zm-22.28125-11.691407c-4.441406-.878906-8.347656-3.5-10.84375-7.277343-2.226562-3.355469-5.605468-16.574219-8.03125-42.875 23.3125 12.382812 34.210938 20.601562 36.445313 24.015624 3.820312 5.746094 3.804687 13.226563-.039063 18.957032-3.847656 5.730468-10.765625 8.578125-17.53125 7.222656zm0 0"/><path d="m325.984375 427.53125c-4.832031-2.523438-10.652344-2.214844-15.191406.804688-4.535157 3.023437-7.066407 8.273437-6.601563 13.703124 3.675782 43.519532 9.324219 51.996094 11.175782 54.777344 6.757812 10.152344 18.417968 15.925782 30.589843 15.152344 12.171875-.777344 23.003907-7.988281 28.414063-18.914062 5.414062-10.929688 4.585937-23.914063-2.171875-34.066407-1.859375-2.808593-7.507813-11.308593-46.214844-31.457031zm27.246094 64.554688c-7.847657 5.222656-18.441407 3.09375-23.664063-4.75-2.234375-3.355469-5.613281-16.582032-8.035156-42.882813 23.320312 12.382813 34.207031 20.609375 36.453125 23.972656 5.222656 7.847657 3.09375 18.441407-4.753906 23.660157zm0 0"/><path d="m223.585938 427.53125c-4.832032-2.523438-10.652344-2.214844-15.191407.804688-4.535156 3.023437-7.066406 8.273437-6.605469 13.703124 3.679688 43.519532 9.328126 51.996094 11.179688 54.777344 10.445312 15.691406 31.636719 19.945313 47.332031 9.5 15.691407-10.445312 19.945313-31.636718 9.5-47.328125-1.859375-2.808593-7.507812-11.308593-46.214843-31.457031zm27.246093 64.554688c-7.847656 5.222656-18.441406 3.09375-23.664062-4.75-2.234375-3.355469-5.613281-16.582032-8.039063-42.882813 23.324219 12.382813 34.210938 20.609375 36.457032 23.972656 5.21875 7.847657 3.09375 18.441407-4.753907 23.660157zm0 0"/><path d="m298.414062 348.90625c-1.859374-2.78125-7.511718-11.28125-46.210937-31.453125-4.828125-2.523437-10.652344-2.214844-15.1875.804687-4.539063 3.019532-7.074219 8.269532-6.613281 13.703126 3.6875 43.519531 9.328125 51.984374 11.179687 54.773437 10.445313 15.695313 31.636719 19.949219 47.328125 9.503906 15.695313-10.445312 19.949219-31.636719 9.503906-47.332031zm-18.960937 33.128906c-3.769531 2.503906-8.382813 3.410156-12.820313 2.519532-4.4375-.894532-8.335937-3.511719-10.84375-7.28125-2.226562-3.355469-5.605468-16.574219-8.03125-42.875 23.3125 12.382812 34.210938 20.601562 36.445313 24.015624 5.195313 7.835938 3.070313 18.398438-4.75 23.621094zm0 0"/><path d="m177.980469 396.242188c15.671875-10.464844 19.921875-31.636719 9.5-47.335938-1.859375-2.78125-7.511719-11.28125-46.207031-31.453125-4.832032-2.523437-10.65625-2.214844-15.191407.804687-4.539062 3.019532-7.074219 8.269532-6.613281 13.703126 3.6875 43.519531 9.328125 51.984374 11.179688 54.773437 5.015624 7.539063 12.820312 12.777344 21.695312 14.558594 8.878906 1.785156 18.101562-.035157 25.636719-5.050781zm-22.277344-11.691407c-4.445313-.878906-8.347656-3.5-10.847656-7.277343-2.226563-3.355469-5.605469-16.574219-8.03125-42.875 23.316406 12.382812 34.210937 20.601562 36.449219 24.015624 3.816406 5.746094 3.800781 13.226563-.042969 18.957032-3.847657 5.730468-10.761719 8.578125-17.527344 7.222656zm0 0"/></g></svg>