<svg height="512" viewBox="0 0 42 60" width="512" xmlns="http://www.w3.org/2000/svg"><g id="Page-1" fill="none" fill-rule="evenodd"><g id="011---Water" fill-rule="nonzero" transform="translate(0 -1)"><g id="Icons" transform="translate(1 2)"><path id="Shape" d="m19.959 58c-3.9686922-.0185057-7.8399369-1.2311008-11.11-3.48-6.91987084-4.6934118-10.22242349-13.1726162-8.3-21.31.97-4.05 3.24-7.08 5.9-10.19 2.75-3.21 5.68-6.33 7.85-9.99 2.2869314-3.96844115 4.0292433-8.22667851 5.18-12.66.0560337-.2189366.2540119-.37154476.48-.37h.041c.2259881-.00154476.4239663.1510634.48.37 1.1507567 4.43332149 2.8930686 8.69155885 5.18 12.66 2.17 3.66 5.1 6.78 7.85 9.99 2.66 3.11 4.93 6.14 5.9 10.19 1.9224235 8.1373838-1.3801292 16.6165882-8.3 21.31-3.2700631 2.2488992-7.1413078 3.4614943-11.11 3.48" fill="#a4c2f7"/><path id="Shape" d="m39.41 33.21c-.97-4.05-3.24-7.08-5.9-10.19-2.75-3.21-5.68-6.33-7.85-9.99-2.2869314-3.96844115-4.0292433-8.22667851-5.18-12.66-.0560337-.2189366-.2540119-.37154476-.48-.37h-.041c-.2259881-.00154476-.4239663.1510634-.48.37-.3046667 1.118-.638 2.22433333-1 3.319 1.0560039 3.25407371 2.4576726 6.385618 4.181 9.341 2.17 3.66 5.1 6.78 7.85 9.99 2.66 3.11 4.93 6.14 5.9 10.19 1.9224235 8.1373838-1.3801292 16.6165882-8.3 21.31-2.857233 1.9605382-6.1772955 3.1401929-9.631 3.422.492.038.9853333.0573333 1.48.058h.041c3.9686922-.0185057 7.8399369-1.2311008 11.11-3.48 6.9198708-4.6934118 10.2224235-13.1726162 8.3-21.31z" fill="#7facfa"/><path id="Shape" d="m38.56 45.18c-2.06 1.47-3.97 3.24-6.54 3.57-2.1.28-3.96-.88-3.91-3.09.04-1.71.89-3.31 1.47-4.89.5361425-1.3074201.8406851-2.6981651.9-4.11-.01-3.35-2.69-5.02-5.66-5.68-2.51-.56-5.37-2.36-4.84-5.34.38-2.07 2.29-3.71 4.12-4.54 1.8514762-.772684 3.5771763-1.8175415 5.12-3.1 1.38 1.71 2.86 3.35 4.29 5.02 2.66 3.11 4.93 6.14 5.9 10.19.9547775 3.9824366.6579516 8.1624439-.85 11.97z" fill="#e8edfc"/><path id="Shape" d="m39.41 33.21c-.97-4.05-3.24-7.08-5.9-10.19-1.43-1.67-2.91-3.31-4.29-5.02-.5827559.4998197-1.2025282.9547874-1.854 1.361 1.04 1.227 2.1 2.439 3.144 3.659 2.66 3.11 4.93 6.14 5.9 10.19.9547775 3.9824366.6579516 8.1624439-.85 11.97-1.781 1.271-3.452 2.762-5.532 3.357.6361716.2346264 1.3206025.307811 1.992.213 2.57-.33 4.48-2.1 6.54-3.57 1.5079516-3.8075561 1.8047775-7.9875634.85-11.97z" fill="#cad9fc"/><g fill="#e8edfc"><path id="Shape" d="m11.98 37.19c-.27 3.25-2.59 5.86-2.21 9.21.3490969 1.5885909.5002457 3.2142802.45 4.84-.188889 1.2241052-.48673913 2.4288923-.89 3.6-.16-.11-.32-.21-.48-.32-6.91987084-4.6934118-10.22242349-13.1726162-8.3-21.31.29602582-1.2250875.721763-2.4151402 1.27-3.55.6760081 1.5062343 1.88783376 2.7073674 3.4 3.37 1.6.66 3.45.68 5.06 1.39 1.1347351.4243583 1.8354475 1.5661073 1.7 2.77z"/><path id="Shape" d="m11 25c-2.30654662.963449-4.78033166 1.4629633-7.28 1.47.83-1.17 1.75-2.3 2.73-3.45 2.08-2.43 4.27-4.81 6.15-7.42 3.18 3.97 2.35 7.49-1.6 9.4z"/><path id="Shape" d="m32.59 53.39c-.4710833.404949-.9652456.7822485-1.48 1.13-3.2700631 2.2488992-7.1413078 3.4614943-11.11 3.48h-.04c-1.6639512-.0014644-3.3208291-.2165561-4.93-.64 1.9536635-1.9361308 4.3811627-3.3257361 7.04-4.03 3.47523-.6854479 7.0528146-.6650434 10.52.06z"/></g></g><g id="Icons_copy_2" fill="#fff" transform="translate(0 2)"><path id="Shape" d="m2.82 29.66c-4.061 8.424-1.236 19.234 7.029 24.86.117.08.32.209.481.32v-.013c1.760753 1.1326034 3.6881399 1.9822463 5.712 2.518l-.016.015c2.1289244.56299 4.3379207.7607954 6.533.585-1.1929156-.0879151-2.3754145-.2837152-3.533-.585l.016-.015c-2.0238601-.5357537-3.951247-1.3853966-5.712-2.518v.013c-.161-.111-.364-.24-.481-.32-8.265-5.626-11.09-16.436-7.029-24.86.86013613-1.732717 1.91819518-3.3599065 3.153-4.849 2.442-3.074 5.2-5.834 7.627-9.211 2.5508426-3.648891 4.5327702-7.66399717 5.878-11.908-.345-1.049-.678-2.149-1-3.322-.0673868-.21965588-.27024-.36960834-.5-.36960834s-.4326132.14995246-.5.36960834c-.3046667 1.118-.638 2.22433333-1 3.319-1.3448201 4.24510081-3.3267664 8.2612563-5.878 11.911-2.432 3.377-5.185 6.137-7.627 9.211-1.23480482 1.4890935-2.29286387 3.116283-3.153 4.849z"/></g><g id="Icons_copy"><path id="Shape" d="m2.272 42.986-1.972.331c-.45950828-2.7710026-.36536177-5.6055943.277-8.34l1.945.466c-.5799928 2.4732383-.66495725 5.0367858-.25 7.543z" fill="#fff"/><g fill="#428dff"><path id="Shape" d="m9.286 57.347c.124.085.255.159.381.241.02.017.046.026.067.042 1.8099517 1.1686877 3.7882196 2.0532763 5.866 2.623.0929338.0414953.1918027.0681528.293.079 1.6532412.4362161 3.3551938.6606789 5.065.668h.021.021c4.1678782-.0265879 8.2326179-1.2987344 11.672-3.653 3.4733921-2.3736784 6.1632029-5.725848 7.728-9.631.0199611-.0381221.0373337-.0775446.052-.118 1.6002983-4.0112825 1.9253875-8.418318.931-12.621-1.063-4.435-3.6-7.672-6.114-10.607-.478-.559-.962-1.115-1.446-1.671-2.3408006-2.5317222-4.449285-5.2687357-6.3-8.178-2.2451564-3.8925782-3.953954-8.07072272-5.08-12.421-.188025-.65362061-.7866375-1.10334815-1.4667635-1.10195492-.680126.00139322-1.2768909.45356947-1.4622365 1.10795492-1.1253912 4.34765581-2.832824 8.5233988-5.076 12.414-1.8507902 2.9092115-3.9592696 5.6462186-6.3 8.178-.484.5566667-.96633333 1.114-1.447 1.672-1.88018564 2.0720549-3.48049869 4.3817504-4.76 6.87-.02179863.0375733-.04084842.0766755-.057.117-.5582121 1.1581037-.99391016 2.3713552-1.3 3.62-.12868235.5370969.20240308 1.0768177.7395 1.2055s1.07681765-.2024031 1.2055-.7395c.13460096-.5510116.29850051-1.0944504.491-1.628.75069375.9360712 1.72209766 1.671067 2.827 2.139.84866772.3217486 1.72640168.5608566 2.621.714.82486307.13605 1.6330244.3589564 2.411.665.7461628.2506465 1.2116147.9931931 1.112 1.774-.1708934 1.2812248-.5276443 2.530695-1.059 3.709-.8597382 1.7719406-1.2547827 3.7333987-1.148 5.7.057.508.143 1.014.229 1.52.2286798 1.0042025.3052003 2.0370619.227 3.064-.1054685.7114378-.25712228 1.4152583-.454 2.107-3.97761845-2.9593537-6.66333951-7.3363629-7.5-12.223-.10155394-.5258865-.5908741-.8849246-1.123-.824-.27025608.0310818-.51539362.1732122-.67663658.3923129-.16124297.2191007-.22405051.4954134-.17336342.7626871.96919978 5.7013452 4.21095132 10.765161 8.983 14.032zm11.714 1.653c-.007 0-.013 0-.021 0s-.013 0-.021 0c-.9127292-.0014042-1.8240279-.0722756-2.726-.212 1.5044253-1.1689261 3.2332678-2.0158173 5.079-2.488 2.5325385-.5441587 5.1413032-.6365793 7.706-.273-2.9921833 1.9150225-6.4645752 2.9456126-10.017 2.973zm12.75-33.33c2.352 2.75 4.729 5.769 5.688 9.773.8744045 3.6981341.6190617 7.5735625-.733 11.125-.274.2-.549.4-.821.605-1.612 1.207-3.134 2.347-5 2.586-.7691428.1432236-1.5626364-.0533265-2.176-.539-.422474-.3945922-.6431502-.9595233-.6-1.536.1138809-1.1882526.4386251-2.3466988.959-3.421.156-.385.311-.767.452-1.151.5791021-1.417112.9040668-2.9251512.96-4.455-.01-3.32-2.358-5.745-6.442-6.653-1.722-.384-4.516-1.7-4.075-4.183.326-1.772 2.116-3.159 3.55-3.81 1.6121521-.7020797 3.1403893-1.5829293 4.556-2.626.744.889 1.5 1.767 2.245 2.627.482.552.961 1.1046667 1.437 1.658zm-25.542 0c.475-.554.956-1.106 1.437-1.658 1.325-1.522 2.664-3.085 3.924-4.721.7760913 1.0729148 1.0993334 2.4079049.9 3.717-.4577147 1.411257-1.5209407 2.544876-2.9 3.092-1.484812.6707045-3.07539676 1.0768112-4.7 1.2.431-.555.886-1.1 1.339-1.63zm4.579 17.874c.6049459-1.3569052 1.0059484-2.7957964 1.19-4.27.1720864-1.6297449-.767336-3.1731987-2.294-3.769-.9096098-.3680743-1.8564903-.6363124-2.824-.8-.76841416-.1292075-1.52304144-.3300843-2.254-.6-1.13461587-.4988208-2.06640854-1.3678593-2.643-2.465.39489368-.7607838.83466956-1.4974167 1.317-2.206 2.46294268-.0391247 4.894377-.5602676 7.157-1.534 1.9467591-.7836143 3.4181411-2.4283392 3.981-4.45.3411632-2.0929837-.2372689-4.2313964-1.587-5.867.464-.666.914-1.343 1.33-2.044 2.0611213-3.549716 3.6795143-7.33861608 4.819-11.282 1.1402609 3.94374355 2.7593178 7.7329614 4.821 11.283.9070089 1.5030228 1.9132415 2.9438863 3.012 4.313-1.2824232.9318638-2.6662379 1.7155222-4.125 2.336-1.963.891-4.227 2.743-4.691 5.276-.62 3.482 2.369 5.769 5.607 6.491 2.22.494 4.868 1.711 4.877 4.7-.0612398 1.2938876-.3450621 2.5675357-.839 3.765-.132.361-.279.721-.426 1.085-.6190366 1.2963453-.9936373 2.6957585-1.105 4.128-.0532417 1.1612708.4111572 2.286376 1.268 3.072.8429351.7210648 1.9219981 1.1062665 3.031 1.082.2468331-.0003839.4933708-.017087.738-.05 1.2843944-.1887833 2.5139378-.6486264 3.607-1.349-.965451 1.465919-2.1276414 2.79231-3.454 3.942-3.4553677-.6913542-7.0143809-.6818327-10.466.028-2.6332341.6859108-5.0541227 2.0169871-7.044 3.873-1.4923122-.4380634-2.9255766-1.0566372-4.268-1.842.3101801-.9858875.5422309-1.9946732.694-3.017.1125849-1.2310572.0336476-2.4721272-.234-3.679-.08-.468-.161-.936-.213-1.407-.0581253-1.6408587.2916512-3.2705146 1.018-4.743z"/><path id="Shape" d="m1.045 40.167c-.55228473.0027614-1.00223852-.4427153-1.00499994-.995-.00276143-.5522847.44271521-1.0022385.99499994-1.005h.01c.55228475 0 1 .4477153 1 1s-.44771525 1-1 1z"/></g></g></g></g></svg>