<?xml version="1.0" encoding="iso-8859-1"?>
<!-- Generator: Adobe Illustrator 22.1.0, SVG Export Plug-In . SVG Version: 6.00 Build 0)  -->
<svg xmlns="http://www.w3.org/2000/svg" xmlns:xlink="http://www.w3.org/1999/xlink" version="1.1" id="Layer_1_1_" x="0px" y="0px" viewBox="0 0 64 64" style="enable-background:new 0 0 64 64;" xml:space="preserve" width="512" height="512">
<g>
	<g>
		<path style="fill:#838F9B;" d="M33.96,32l-3.1,3.1l1.85,3.19c-0.47,0.87-0.85,1.79-1.14,2.76L28,42v1.62l-2.29-1.33    c-0.87,0.47-1.79,0.85-2.76,1.14L22,47h-6l-0.95-3.57c-0.97-0.29-1.89-0.67-2.76-1.14L9.1,44.14L4.86,39.9l1.85-3.19    c-0.47-0.87-0.85-1.79-1.14-2.76L2,33v-6l3.57-0.95c0.29-0.97,0.67-1.89,1.14-2.76L4.86,20.1l4.24-4.24l3.19,1.85    c0.87-0.47,1.79-0.85,2.76-1.14L16,13h6l0.95,3.57c0.97,0.29,1.89,0.67,2.76,1.14L28,16.38V22l3.57,0.95    c0.29,0.97,0.67,1.89,1.14,2.76l-1.85,3.19L33.96,32z M29,30c0-5.52-4.48-10-10-10S9,24.48,9,30s4.48,10,10,10S29,35.52,29,30z"/>
		<path style="fill:#AAB2BD;" d="M51,26.99c2.43-1.82,4-4.72,4-7.99c0-5.52-4.48-10-10-10s-10,4.48-10,10c0,3.27,1.57,6.17,4,7.99    c0.52,0.39,1.08,0.73,1.67,1.01c0.38,0.19,0.79,0.35,1.2,0.49l-0.82,3.08c-0.97,0.29-1.89,0.67-2.76,1.14l-3.19-1.85L33.96,32    l-3.1-3.1l1.85-3.19c-0.47-0.87-0.85-1.79-1.14-2.76L28,22v-5.62V16l3.57-0.95c0.29-0.97,0.67-1.89,1.14-2.76L30.86,9.1l4.24-4.24    l3.19,1.85c0.87-0.47,1.79-0.85,2.76-1.14L42,2h6l0.95,3.57c0.97,0.29,1.89,0.67,2.76,1.14l3.19-1.85l4.24,4.24l-1.85,3.19    c0.47,0.87,0.85,1.79,1.14,2.76L62,16v6l-3.57,0.95c-0.29,0.97-0.67,1.89-1.14,2.76l1.85,3.19l-3.1,3.1l-1.14-1.14l-3.19,1.85    c-0.87-0.47-1.79-0.85-2.76-1.14l-0.82-3.08c0.41-0.14,0.82-0.3,1.2-0.49C49.92,27.72,50.48,27.38,51,26.99z"/>
		<path style="fill:#E6E9ED;" d="M55,19c0,3.27-1.57,6.17-4,7.99V25c0-1.23-0.69-2.35-1.79-2.89L47,21v-0.78    c0.61-0.55,1-1.34,1-2.22v-1.83c0-1.62-1.22-3.08-2.84-3.17C43.43,12.91,42,14.29,42,16v2c0,0.88,0.39,1.67,1,2.22V21l-2.21,1.11    C39.69,22.65,39,23.77,39,25v1.99c-2.43-1.82-4-4.72-4-7.99c0-5.52,4.48-10,10-10S55,13.48,55,19z"/>
		<path style="fill:#E6E9ED;" d="M56.04,32l3.1,3.1l-1.85,3.19c0.47,0.87,0.85,1.79,1.14,2.76L62,42v6l-3.57,0.95    c-0.29,0.97-0.67,1.89-1.14,2.76l1.85,3.19l-4.24,4.24l-3.19-1.85c-0.87,0.47-1.79,0.85-2.76,1.14L48,62h-6l-0.95-3.57    c-0.97-0.29-1.89-0.67-2.76-1.14l-3.19,1.85l-4.24-4.24l1.85-3.19c-0.47-0.87-0.85-1.79-1.14-2.76L28,48v-4.38V42l3.57-0.95    c0.29-0.97,0.67-1.89,1.14-2.76l-1.85-3.19l3.1-3.1l1.14-1.14l3.19,1.85c0.87-0.47,1.79-0.85,2.76-1.14l0.82-3.08L42,28h6    l0.13,0.49l0.82,3.08c0.97,0.29,1.89,0.67,2.76,1.14l3.19-1.85L56.04,32z M55,45c0-5.52-4.48-10-10-10s-10,4.48-10,10    s4.48,10,10,10S55,50.52,55,45z"/>
		<circle style="fill:#FCD770;" cx="45" cy="45" r="10"/>
		<path style="fill:#B4DD7F;" d="M51,25v1.99c-0.52,0.39-1.08,0.73-1.67,1.01H48h-6h-1.33c-0.59-0.28-1.15-0.62-1.67-1.01V25    c0-1.23,0.69-2.35,1.79-2.89L43,21v-0.78c-0.61-0.55-1-1.34-1-2.22v-2c0-1.71,1.43-3.09,3.16-3c1.62,0.09,2.84,1.55,2.84,3.17V18    c0,0.88-0.39,1.67-1,2.22V21l2.21,1.11C50.31,22.65,51,23.77,51,25z"/>
		<circle style="fill:#FFEAA7;" cx="19" cy="30" r="10"/>
	</g>
	<g>
		<path d="M45,42c0.552,0,1,0.449,1,1h2c0-1.302-0.839-2.402-2-2.816V38h-2v2.184c-1.161,0.414-2,1.514-2,2.816c0,1.654,1.346,3,3,3    c0.552,0,1,0.449,1,1s-0.448,1-1,1s-1-0.449-1-1h-2c0,1.302,0.839,2.402,2,2.816V52h2v-2.184c1.161-0.414,2-1.514,2-2.816    c0-1.654-1.346-3-3-3c-0.552,0-1-0.449-1-1S44.448,42,45,42z"/>
		<path d="M45,34c-6.065,0-11,4.935-11,11s4.935,11,11,11s11-4.935,11-11S51.065,34,45,34z M45,54c-4.963,0-9-4.038-9-9s4.037-9,9-9    s9,4.038,9,9S49.963,54,45,54z"/>
		<path d="M63,22.769v-7.537l-3.786-1.007c-0.22-0.659-0.481-1.296-0.782-1.904l1.962-3.383l-5.331-5.33L51.68,5.569    c-0.606-0.301-1.243-0.563-1.903-0.783L48.769,1h-7.537l-1.008,3.786c-0.66,0.22-1.297,0.482-1.903,0.783l-3.383-1.961    l-5.331,5.33l1.962,3.383c-0.301,0.608-0.562,1.245-0.782,1.904L27,15.231v0.572l-1.32,0.766    c-0.606-0.301-1.243-0.563-1.903-0.783L22.769,12h-7.537l-1.008,3.786c-0.66,0.22-1.297,0.482-1.903,0.783l-3.383-1.961    l-5.331,5.33l1.962,3.383c-0.301,0.608-0.562,1.245-0.782,1.904L1,26.231v7.537l3.786,1.007c0.22,0.659,0.481,1.295,0.782,1.903    l-1.962,3.384l5.331,5.33l3.383-1.961c0.606,0.301,1.243,0.563,1.903,0.783L15.231,48h7.537l1.008-3.786    c0.66-0.22,1.297-0.482,1.903-0.783L27,44.197v4.572l3.786,1.007c0.22,0.659,0.481,1.295,0.782,1.903l-1.962,3.384l5.331,5.33    l3.383-1.961c0.606,0.301,1.243,0.563,1.903,0.783L41.231,63h7.537l1.008-3.786c0.66-0.22,1.297-0.482,1.903-0.783l3.383,1.961    l5.331-5.33l-1.962-3.384c0.301-0.608,0.562-1.245,0.782-1.903L63,48.769v-7.537l-3.786-1.007    c-0.22-0.659-0.481-1.296-0.782-1.904l1.962-3.383L57.456,32l2.938-2.937l-1.962-3.384c0.301-0.607,0.562-1.245,0.782-1.903    L63,22.769z M27.354,22.863l3.432,0.913c0.22,0.659,0.481,1.296,0.782,1.903l-1.673,2.886    C29.612,26.405,28.705,24.442,27.354,22.863z M28,30c0,4.962-4.037,9-9,9s-9-4.038-9-9s4.037-9,9-9S28,25.038,28,30z     M25.721,41.143l-0.494,0.27c-0.79,0.432-1.65,0.786-2.558,1.053l-0.539,0.159L21.231,46h-4.463l-0.898-3.375l-0.539-0.159    c-0.907-0.267-1.768-0.621-2.558-1.053l-0.494-0.27l-3.016,1.749l-3.155-3.156l1.748-3.016l-0.27-0.494    c-0.433-0.792-0.787-1.653-1.052-2.557l-0.159-0.54L3,32.231v-4.463l3.376-0.898l0.159-0.54c0.265-0.904,0.619-1.765,1.052-2.558    l0.27-0.494l-1.748-3.015l3.155-3.156l3.016,1.749l0.494-0.27c0.79-0.432,1.65-0.786,2.558-1.053l0.539-0.159L16.769,14h4.463    l0.898,3.375l0.539,0.159c0.907,0.267,1.768,0.621,2.558,1.053l0.494,0.27L27,18.115v4.358C24.992,20.341,22.153,19,19,19    c-6.065,0-11,4.935-11,11s4.935,11,11,11s11-4.935,11-11c0-0.193-0.019-0.382-0.029-0.573L32.544,32l-2.938,2.937l1.962,3.383    c-0.301,0.608-0.562,1.245-0.782,1.904L27,41.231v0.653L25.721,41.143z M56.413,38.773c0.433,0.793,0.787,1.654,1.052,2.558    l0.159,0.54L61,42.769v4.463l-3.376,0.898l-0.159,0.54c-0.265,0.904-0.619,1.765-1.052,2.557l-0.27,0.494l1.748,3.016    l-3.155,3.156l-3.016-1.749l-0.494,0.27c-0.79,0.432-1.65,0.786-2.558,1.053l-0.539,0.159L47.231,61h-4.463l-0.898-3.375    l-0.539-0.159c-0.907-0.267-1.768-0.621-2.558-1.053l-0.494-0.27l-3.016,1.749l-3.155-3.156l1.748-3.016l-0.27-0.494    c-0.433-0.792-0.787-1.653-1.052-2.557l-0.159-0.54L29,47.231v-4.463l3.376-0.898l0.159-0.54c0.265-0.904,0.619-1.765,1.052-2.558    l0.27-0.494l-1.748-3.015l3.155-3.156l3.016,1.749l0.494-0.27c0.79-0.432,1.65-0.786,2.558-1.053l0.539-0.159L42.769,29h4.463    l0.898,3.375l0.539,0.159c0.907,0.267,1.768,0.621,2.558,1.053l0.494,0.27l3.016-1.749l3.155,3.156l-1.748,3.015L56.413,38.773z     M51.978,24.679c-0.111-1.483-0.972-2.794-2.32-3.468l-1.513-0.756C48.694,19.755,49,18.891,49,18v-1.83    c0-2.224-1.663-4.053-3.786-4.164c-1.114-0.06-2.163,0.33-2.967,1.092C41.454,13.85,41,14.908,41,16v2    c0,0.891,0.306,1.755,0.854,2.455l-1.513,0.756c-1.347,0.674-2.208,1.984-2.32,3.468C36.746,23.112,36,21.126,36,19    c0-4.962,4.037-9,9-9s9,4.038,9,9C54,21.126,53.254,23.112,51.978,24.679z M40,25c0-0.853,0.474-1.619,1.236-2L44,21.618v-1.842    l-0.331-0.298C43.237,19.089,43,18.564,43,18v-2c0-0.554,0.222-1.069,0.624-1.451s0.943-0.577,1.484-0.546    C46.151,14.058,47,15.03,47,16.17V18c0,0.564-0.237,1.089-0.669,1.478L46,19.776v1.842L48.764,23C49.526,23.381,50,24.147,50,25    v1.474c-0.285,0.19-0.578,0.368-0.886,0.526h-0.345h-7.537h-0.345c-0.308-0.158-0.602-0.337-0.886-0.526V25z M57.892,28.736    l-1.85,1.85l-0.979-0.979l-3.383,1.961c-0.606-0.301-1.243-0.563-1.903-0.783l-0.447-1.68C53.355,27.387,56,23.438,56,19    c0-6.065-4.935-11-11-11s-11,4.935-11,11c0,4.438,2.645,8.387,6.671,10.106l-0.447,1.68c-0.66,0.22-1.297,0.482-1.903,0.783    l-3.383-1.961l-0.979,0.979l-1.85-1.85l1.748-3.016l-0.27-0.494c-0.433-0.792-0.787-1.653-1.052-2.557l-0.159-0.54L29,21.231    v-4.463l3.376-0.898l0.159-0.54c0.265-0.904,0.619-1.765,1.052-2.558l0.27-0.494l-1.748-3.015l3.155-3.156l3.016,1.749l0.494-0.27    c0.79-0.432,1.65-0.786,2.558-1.053l0.539-0.159L42.769,3h4.463l0.898,3.375l0.539,0.159c0.907,0.267,1.768,0.621,2.558,1.053    l0.494,0.27l3.016-1.749l3.155,3.156l-1.748,3.015l0.27,0.494c0.433,0.793,0.787,1.654,1.052,2.558l0.159,0.54L61,16.769v4.463    l-3.376,0.898l-0.159,0.54c-0.265,0.904-0.619,1.765-1.052,2.557l-0.27,0.494L57.892,28.736z"/>
		<polygon points="23,30 21,30 21,33 19,33 19,28 17,28 17,33 15,33 15,26 13,26 13,35 25,35 25,33 23,33   "/>
	</g>
</g>
</svg>
