<?xml version="1.0" encoding="iso-8859-1"?>
<!-- Generator: Adobe Illustrator 19.0.0, SVG Export Plug-In . SVG Version: 6.00 Build 0)  -->
<svg version="1.1" id="Capa_1" xmlns="http://www.w3.org/2000/svg" xmlns:xlink="http://www.w3.org/1999/xlink" x="0px" y="0px"
	 viewBox="0 0 512.017 512.017" style="enable-background:new 0 0 512.017 512.017;" xml:space="preserve">
<g>
	<g transform="translate(1 10)">
		<g>
			<circle style="fill:#E3E7F2;" cx="255.009" cy="135.067" r="59.733"/>
			<path style="fill:#E3E7F2;" d="M248.761,194.966c-49.891,2.643-87.619,35.729-87.619,76.634v76.8
				c0,26.624,17.516,45.955,42.667,59.733V476.4c0,9.426,7.641,17.067,17.067,17.067h68.267c9.426,0,17.067-7.641,17.067-17.067
				v-68.267c25.15-13.778,42.667-33.109,42.667-59.733v-76.8C348.875,227.493,303.431,192.07,248.761,194.966z"/>
		</g>
		<g>
			<path style="fill:#A4C2F7;" d="M314.742,135.067c0.012,15.846-6.278,31.046-17.483,42.251
				c-11.205,11.205-26.405,17.494-42.251,17.483c-4.302-0.014-8.592-0.471-12.8-1.365c27.408-6.024,46.933-30.306,46.933-58.368
				s-19.525-52.344-46.933-58.368c4.208-0.894,8.498-1.351,12.8-1.365c15.846-0.012,31.046,6.278,42.251,17.483
				S314.754,119.221,314.742,135.067z"/>
			<path style="fill:#A4C2F7;" d="M348.875,271.6v76.8c0,26.624-17.493,45.995-42.667,59.733V476.4
				c-0.028,9.414-7.652,17.039-17.067,17.067h-25.6c9.414-0.028,17.039-7.653,17.067-17.067v-68.267
				c25.173-13.739,42.667-33.109,42.667-59.733v-76.8c0-38.827-35.243-70.912-80.981-76.032c2.148-0.33,4.313-0.529,6.485-0.597
				c2.133-0.085,4.181-0.171,6.229-0.171C306.806,194.8,348.875,229.189,348.875,271.6z"/>
		</g>
		<g>
			<circle style="fill:#E3E7F2;" cx="425.675" cy="177.733" r="51.2"/>
			<path style="fill:#E3E7F2;" d="M420.564,229.08c-40.82,2.341-71.689,33.975-71.689,70.206v66.181
				c0,23.581,13.556,38.996,34.133,51.2v61.684c0.57,8.872,8.191,15.621,17.067,15.116h51.2c8.875,0.505,16.496-6.245,17.067-15.116
				v-61.684c20.578-12.204,34.133-27.619,34.133-51.2v-68.51C502.475,257.89,465.293,226.515,420.564,229.08z"/>
		</g>
		<g>
			<path style="fill:#A4C2F7;" d="M476.875,177.733c-0.022,28.268-22.932,51.178-51.2,51.2c-4.317-0.013-8.616-0.558-12.8-1.621
				c22.602-5.818,38.4-26.197,38.4-49.536s-15.798-43.718-38.4-49.536c4.172-1.134,8.477-1.708,12.8-1.707
				C453.943,126.556,476.853,149.466,476.875,177.733z"/>
			<path style="fill:#A4C2F7;" d="M502.475,296.944v68.523c0,23.552-13.568,38.997-34.133,51.2v61.696
				c-0.58,8.865-8.197,15.606-17.067,15.104h-25.6c8.87,0.502,16.487-6.239,17.067-15.104v-61.696
				c20.565-12.203,34.133-27.648,34.133-51.2v-68.523c0-33.621-27.563-61.525-63.829-67.072c2.475-0.341,4.949-0.597,7.509-0.768
				c1.707-0.085,3.413-0.171,5.12-0.171C468.086,228.933,502.475,259.397,502.475,296.944z"/>
		</g>
		<g>
			<circle style="fill:#E3E7F2;" cx="84.342" cy="177.733" r="51.2"/>
			<path style="fill:#E3E7F2;" d="M89.453,229.08c40.82,2.341,71.689,33.975,71.689,70.206v66.181
				c0,23.581-13.556,38.996-34.133,51.2v61.684c-0.57,8.872-8.191,15.621-17.067,15.116h-51.2
				c-8.875,0.505-16.496-6.245-17.067-15.116v-61.684c-20.578-12.204-34.133-27.619-34.133-51.2v-68.51
				C7.542,257.89,44.724,226.515,89.453,229.08z"/>
		</g>
		<g>
			<path style="fill:#A4C2F7;" d="M135.542,177.733c-0.022,28.268-22.932,51.178-51.2,51.2c-4.317-0.013-8.616-0.558-12.8-1.621
				c22.602-5.818,38.4-26.197,38.4-49.536s-15.798-43.718-38.4-49.536c4.172-1.134,8.477-1.708,12.8-1.707
				C112.61,126.556,135.52,149.466,135.542,177.733z"/>
			<path style="fill:#A4C2F7;" d="M161.142,299.248v66.219c0,23.552-13.568,38.997-34.133,51.2v61.696
				c-0.58,8.865-8.197,15.606-17.067,15.104h-25.6c8.87,0.502,16.487-6.239,17.067-15.104v-61.696
				c20.565-12.203,34.133-27.648,34.133-51.2v-66.219c-1.414-35.73-28.579-65.138-64.085-69.376
				c4.268-0.616,8.573-0.93,12.885-0.939c1.707,0,3.413,0.085,5.12,0.171C130.251,231.408,161.142,263.067,161.142,299.248z"/>
		</g>
	</g>
	<g transform="translate(1 16)">
		<path style="fill:#FFFFFF;" d="M58.742,171.904c0.05-23.43,16.055-43.813,38.805-49.418c-6.325-1.758-12.94-2.222-19.448-1.364
			c-0.26,0.033-0.516,0.081-0.774,0.118c-24.231,3.325-42.715,23.344-44.101,47.763c-1.386,24.419,14.713,46.4,38.412,52.447
			l-0.094,0.033c0.279,0.07,0.573,0.097,0.853,0.162c1.472,0.353,2.97,0.633,4.489,0.855c0.446,0.066,0.885,0.149,1.335,0.204
			c6.336,0.816,12.77,0.381,18.938-1.282C74.559,215.606,58.758,195.238,58.742,171.904z"/>
		<path style="fill:#FFFFFF;" d="M41.675,410.837v61.684c0.571,8.871,8.191,15.621,17.067,15.116h25.6
			c-8.875,0.505-16.496-6.245-17.067-15.116v-61.684c-20.578-12.204-34.133-27.619-34.133-51.2v-68.51
			c0-33.644,27.602-61.519,63.827-66.99c-2.476-0.372-4.955-0.74-7.515-0.886c-0.348-0.02-0.685,0.005-1.032-0.011
			c-1.36-0.065-2.72-0.136-4.08-0.136c-0.631,0-1.258,0.057-1.889,0.071c-0.899,0.019-1.791,0.055-2.682,0.101
			c-1.781,0.094-3.534,0.243-5.283,0.436c-0.641,0.073-1.288,0.122-1.924,0.209c-0.366,0.048-0.745,0.068-1.108,0.12l0.205,0.04
			c-36.371,5.362-64.119,33.309-64.119,67.045v68.51C7.542,383.219,21.098,398.634,41.675,410.837z"/>
	</g>
	<g>
		<path style="fill:#FFFFFF;" d="M76.809,136.533V25.6c0-14.138,11.462-25.6,25.6-25.6v17.067c-4.703,0.024-8.51,3.83-8.533,8.533
			v110.933H76.809z"/>
		<g>
			<path style="fill:#428DFF;" d="M460.627,236.819c21.512-14.866,30.853-41.996,23.053-66.954
				c-7.8-24.958-30.927-41.941-57.075-41.912c-26.148,0.029-49.238,17.063-56.983,42.038c-7.745,24.975,1.656,52.084,23.2,66.903
				c-14.505,5.728-27.136,15.369-36.486,27.85c-3.792-15.145-11.905-28.861-23.352-39.478
				c-11.331-10.557-24.874-18.454-39.643-23.116c25.266-16.508,36.692-47.649,28.099-76.581
				c-8.594-28.932-35.167-48.786-65.348-48.825c-30.181-0.039-56.805,19.747-65.473,48.656s2.678,60.08,27.901,76.653
				c-30.536,8.308-54.446,32.073-62.939,62.558c-9.341-12.417-21.933-22.01-36.385-27.719
				c20.259-13.913,29.911-38.827,24.312-62.757s-25.303-41.976-49.631-45.456V102.4c0-4.713-3.821-8.533-8.533-8.533
				c-4.713,0-8.533,3.821-8.533,8.533v26.281c-24.306,3.475-43.999,21.491-49.617,45.393s3.985,48.805,24.198,62.745
				c-10.347,3.948-19.832,9.86-27.934,17.41c-14.8,13.555-23.294,32.656-23.446,52.725v68.512c0,23.096,10.875,40.979,34.133,55.958
				v56.925c0.574,13.584,12.014,24.152,25.6,23.65h51.2c13.586,0.502,25.026-10.066,25.6-23.65v-56.925
				c13.481-7.779,24.066-19.732,30.159-34.055c8.04,10.464,18.096,19.21,29.574,25.721V486.4c0.015,14.132,11.468,25.585,25.6,25.6
				h68.267c14.132-0.015,25.585-11.468,25.6-25.6v-63.309c11.478-6.511,21.534-15.257,29.574-25.721
				c6.092,14.323,16.678,26.276,30.159,34.055v56.925c0.574,13.584,12.013,24.152,25.6,23.65h51.2
				c13.586,0.502,25.026-10.066,25.6-23.65v-56.925c23.258-14.979,34.133-32.863,34.133-55.958v-68.512
				c-0.152-20.069-8.646-39.17-23.446-52.725C480.461,246.678,470.975,240.767,460.627,236.819z M384.009,187.733
				c0-23.564,19.103-42.667,42.667-42.667c23.564,0,42.667,19.103,42.667,42.667S450.239,230.4,426.675,230.4
				C403.123,230.372,384.036,211.286,384.009,187.733z M204.809,145.067c0-28.277,22.923-51.2,51.2-51.2s51.2,22.923,51.2,51.2
				s-22.923,51.2-51.2,51.2C227.744,196.236,204.839,173.331,204.809,145.067z M42.675,187.733
				c0-23.564,19.103-42.667,42.667-42.667s42.667,19.103,42.667,42.667S108.906,230.4,85.342,230.4
				C61.789,230.372,42.703,211.286,42.675,187.733z M153.609,375.467c0.089,13.629-6.231,26.509-17.067,34.777v-60.377
				c0-4.713-3.82-8.533-8.533-8.533s-8.533,3.821-8.533,8.533V488.35c-0.655,4.106-4.395,6.991-8.533,6.583H93.875v-93.867
				c0-4.713-3.821-8.533-8.533-8.533c-4.713,0-8.533,3.82-8.533,8.533v93.867H59.742c-4.138,0.408-7.878-2.477-8.533-6.583V349.867
				c0-4.713-3.821-8.533-8.533-8.533s-8.533,3.821-8.533,8.533v60.377c-10.835-8.268-17.156-21.148-17.067-34.777v-68.512
				c0.174-15.368,6.729-29.973,18.096-40.317c13.696-12.54,31.653-19.395,50.221-19.171c1.517,0,3.046,0.046,4.575,0.133
				c35.688,2.046,63.642,29.141,63.642,61.687L153.609,375.467L153.609,375.467z M315.742,402.529v-86.796
				c0-4.713-3.821-8.533-8.533-8.533s-8.533,3.821-8.533,8.533V486.4c-0.006,4.71-3.823,8.527-8.533,8.533h-25.6V372.621
				c0-4.713-3.821-8.533-8.533-8.533c-4.713,0-8.533,3.82-8.533,8.533v122.313h-25.6c-4.71-0.006-8.527-3.823-8.533-8.533V315.733
				c0-4.713-3.82-8.533-8.533-8.533s-8.533,3.821-8.533,8.533v86.796c-15.336-9.542-24.93-26.079-25.6-44.129v-76.8
				c0-36.429,34.196-65.712,79.537-68.112c25.976-1.946,51.624,6.779,71.025,24.162c12.49,11.24,19.768,27.151,20.105,43.95v76.8
				C340.672,376.45,331.078,392.988,315.742,402.529z M494.942,375.467c0.089,13.629-6.231,26.509-17.067,34.777v-60.377
				c0-4.713-3.82-8.533-8.533-8.533s-8.533,3.821-8.533,8.533V488.35c-0.655,4.106-4.395,6.991-8.533,6.583h-17.067v-93.867
				c0-4.713-3.821-8.533-8.533-8.533s-8.533,3.82-8.533,8.533v93.867h-17.067c-4.138,0.408-7.878-2.477-8.533-6.583V349.867
				c0-4.713-3.82-8.533-8.533-8.533s-8.533,3.821-8.533,8.533v60.377c-10.835-8.268-17.156-21.148-17.067-34.777v-66.179
				c0-32.546,27.954-59.642,63.642-61.687c20.101-1.42,39.905,5.461,54.796,19.038c11.367,10.344,17.922,24.948,18.096,40.316
				V375.467z"/>
			<path style="fill:#428DFF;" d="M298.675,8.533c0,4.713,3.82,8.533,8.533,8.533h102.4c4.71,0.006,8.527,3.823,8.533,8.533v56.2
				l-2.5-2.5c-3.338-3.296-8.711-3.279-12.029,0.038s-3.334,8.691-0.038,12.029l17.064,17.064c3.34,3.319,8.732,3.319,12.072,0
				l17.064-17.064c2.188-2.149,3.055-5.307,2.27-8.271c-0.785-2.965-3.1-5.28-6.065-6.065c-2.965-0.785-6.122,0.082-8.271,2.27
				l-2.5,2.5V25.6c-0.015-14.132-11.468-25.585-25.6-25.6h-102.4c-2.263,0-4.434,0.899-6.034,2.499S298.675,6.27,298.675,8.533z"/>
			<path style="fill:#428DFF;" d="M79.283,74.325l1.279,1.025c0.476,0.324,0.993,0.583,1.538,0.771
				c0.484,0.246,1.003,0.417,1.538,0.508c0.563,0.096,1.133,0.153,1.704,0.171c2.259-0.031,4.423-0.915,6.059-2.475
				c2.07-1.994,2.979-4.908,2.409-7.726c-0.57-2.818-2.539-5.149-5.222-6.183c-1.027-0.438-2.13-0.67-3.246-0.684
				c-3.45,0.014-6.556,2.096-7.879,5.282C76.14,68.202,76.857,71.872,79.283,74.325z"/>
			<path style="fill:#428DFF;" d="M256.009,0h-153.6c-14.138,0-25.6,11.462-25.6,25.6v8.533c0,4.713,3.82,8.533,8.533,8.533
				c4.713,0,8.533-3.821,8.533-8.533V25.6c0.024-4.703,3.83-8.51,8.533-8.533h145.067V30.6l-2.5-2.5
				c-3.338-3.296-8.711-3.279-12.029,0.038c-3.317,3.317-3.334,8.691-0.038,12.029l17.064,17.064c3.34,3.319,8.732,3.319,12.072,0
				l17.064-17.064c3.281-3.341,3.256-8.701-0.054-12.012c-3.311-3.311-8.671-3.335-12.012-0.054l-2.5,2.5V8.533
				C264.542,3.821,260.721,0,256.009,0z"/>
		</g>
	</g>
</g>
<g>
</g>
<g>
</g>
<g>
</g>
<g>
</g>
<g>
</g>
<g>
</g>
<g>
</g>
<g>
</g>
<g>
</g>
<g>
</g>
<g>
</g>
<g>
</g>
<g>
</g>
<g>
</g>
<g>
</g>
</svg>
