<svg height="512" viewBox="0 0 60 60" width="512" xmlns="http://www.w3.org/2000/svg"><g id="Page-1" fill="none" fill-rule="evenodd"><g id="041---Conversations" fill-rule="nonzero"><path id="Shape" d="m38 1h16c1.3260824 0 2.597852.5267842 3.5355339 1.46446609.9376819.9376819 1.4644661 2.20945146 1.4644661 3.53553391v3h-17c-2.7614237 0-5-2.23857625-5-5v-2c0-.55228475.4477153-1 1-1z" fill="#a4c2f7"/><path id="Shape" d="m54 1h-3c1.3260824 0 2.597852.5267842 3.5355339 1.46446609.9376819.9376819 1.4644661 2.20945146 1.4644661 3.53553391v3h3v-3c0-1.32608245-.5267842-2.59785201-1.4644661-3.53553391-.9376819-.93768189-2.2094515-1.46446609-3.5355339-1.46446609z" fill="#7facfa"/><path id="Shape" d="m41 15v-6h18v6c0 4.9705627-4.0294373 9-9 9s-9-4.0294373-9-9z" fill="#e8edfc"/><path id="Shape" d="m56 9v6c-.0023876 4.3890363-3.1720079 8.1355276-7.5 8.865 2.6134702.4592389 5.295993-.2647537 7.3235143-1.9765609 2.0275213-1.7118073 3.1910331-4.2349668 3.1764857-6.8884391v-6z" fill="#cad9fc"/><path id="Shape" d="m6 36h17v3c0 1.3260824-.5267842 2.597852-1.4644661 3.5355339s-2.2094515 1.4644661-3.5355339 1.4644661h-16c-.55228475 0-1-.4477153-1-1v-2c0-2.7614237 2.23857625-5 5-5z" fill="#a4c2f7" transform="matrix(-1 0 0 -1 24 80)"/><path id="Shape" d="m22 36h-3c.5522847 0 1 .4477153 1 1v2c0 2.7614237-2.2385763 5-5 5h3c1.3260824 0 2.597852-.5267842 3.5355339-1.4644661s1.4644661-2.2094515 1.4644661-3.5355339v-2c0-.5522847-.4477153-1-1-1z" fill="#7facfa"/><path id="Shape" d="m1 50v-6h18v6c0 4.9705627-4.0294373 9-9 9-4.97056275 0-9-4.0294373-9-9z" fill="#e8edfc"/><path id="Shape" d="m16 44v6c-.0023876 4.3890363-3.1720079 8.1355276-7.5 8.865 2.6134702.4592389 5.295993-.2647537 7.3235143-1.9765609 2.0275213-1.7118073 3.1910331-4.2349668 3.1764857-6.8884391v-6z" fill="#cad9fc"/><path id="Shape" d="m33 8v14c0 2.209139-1.790861 4-4 4h-16l-5.97 5.224c-.31469853.2758228-.76785914.3265299-1.13573849.1270853s-.57267112-.6068585-.51326151-1.0210853l.619-4.33h-1c-2.209139 0-4-1.790861-4-4v-14c0-2.209139 1.790861-4 4-4h24c2.209139 0 4 1.790861 4 4z" fill="#e8edfc"/><path id="Shape" d="m29 4h-3c2.209139 0 4 1.790861 4 4v14c0 2.209139-1.790861 4-4 4h3c2.209139 0 4-1.790861 4-4v-14c0-2.209139-1.790861-4-4-4z" fill="#cad9fc"/><path id="Shape" d="m27 52v-14c0-2.209139 1.790861-4 4-4h16l5.97-5.224c.3146985-.2758228.7678591-.3265299 1.1357385-.1270853.3678793.1994446.5726711.6068585.5132615 1.0210853l-.619 4.33h1c2.209139 0 4 1.790861 4 4v14c0 2.209139-1.790861 4-4 4h-24c-2.209139 0-4-1.790861-4-4z" fill="#e8edfc"/><path id="Shape" d="m55 34h-1l.619-4.33c.0594096-.4142268-.1453822-.8216407-.5132615-1.0210853-.3678794-.1994446-.82104-.1487375-1.1357385.1270853l-1.399 1.224-.571 4h1c2.209139 0 4 1.790861 4 4v14c0 2.209139-1.790861 4-4 4h3c2.209139 0 4-1.790861 4-4v-14c0-2.209139-1.790861-4-4-4z" fill="#cad9fc"/><path id="Shape" d="m5 26h1l-.619 4.33c-.05940961.4142268.14538216.8216407.51326151 1.0210853s.82103996.1487375 1.13573849-.1270853l1.399-1.224.571-4h-1c-2.209139 0-4-1.790861-4-4v-14c0-2.209139 1.790861-4 4-4h-3c-2.209139 0-4 1.790861-4 4v14c0 2.209139 1.790861 4 4 4z" fill="#fff"/><path id="Shape" d="m11.5 58.865c-4.32799205-.7294724-7.49761244-4.4759637-7.5-8.865v-9c0-2.7614237 2.23857625-5 5-5h-3c-2.76142375 0-5 2.2385763-5 5v9c.00238756 4.3890363 3.17200795 8.1355276 7.5 8.865 1.00225033.1691049 2.0257497.1691049 3.028 0z" fill="#fff"/><path id="Rectangle-path" d="m0 14h2v8h-2z" fill="#fff"/><g fill="#428dff"><path id="Shape" d="m54 0h-16c-1.1045695 0-2 .8954305-2 2v2c.0029024 2.54018199 1.6050913 4.80327378 4 5.65v5.35c0 5.5228475 4.4771525 10 10 10s10-4.4771525 10-10v-9c-.0033074-3.31233757-2.6876624-5.99669262-6-6zm-16 4v-2h16c2.209139 0 4 1.790861 4 4v2h-16c-2.209139 0-4-1.790861-4-4zm20 11c.005877 2.9057999-1.5674467 5.5853502-4.1078232 6.996093-2.5403765 1.4107427-5.6466284 1.3298927-8.1101768-.211093h.08c2.7691348.0988692 5.4338206-1.0628396 7.246-3.159.2247201-.2779526.284084-.6546782.15573-.9882678s-.424926-.573363-.778-.629c-.3530741-.0556369-.7090099.0813152-.93373.3592678-2.014 2.491-5.593 2.808-8.2 2.064-.8807493-1.3103113-1.3514114-2.853192-1.352-4.432v-5h16.0000164z"/><circle id="Oval" cx="45" cy="14" r="1"/><circle id="Oval" cx="50" cy="14" r="1"/><path id="Shape" d="m22 35h-16c-3.31233757.0033074-5.99669262 2.6876624-6 6v9c0 5.5228475 4.4771525 10 10 10s10-4.4771525 10-10v-5.35c2.3949087-.8467262 3.9970976-3.109818 4-5.65v-2c0-1.1045695-.8954305-2-2-2zm-4 15c.0014859 1.579311-.4674484 3.123278-1.347 4.435-2.612.743-6.191.427-8.2-2.064-.34738711-.4296775-.97732246-.4963871-1.407-.149s-.49638711.9773225-.149 1.407c1.81235582 2.0959207 4.4769208 3.2575769 7.246 3.159h.08c-2.4642355 1.5439572-5.57304469 1.6260047-8.11528906.2141782-2.54224438-1.4118264-4.11582843-4.0942245-4.10771094-7.0021782l-.00003126-5h16.00003476zm4-11c0 2.209139-1.790861 4-4 4h-16v-2c0-2.209139 1.790861-4 4-4h16z"/><circle id="Oval" cx="15" cy="49" r="1"/><circle id="Oval" cx="10" cy="49" r="1"/><path id="Shape" d="m1.02 19c-.55228475.0027614-1.00223858-.4427153-1.005-.995s.44271525-1.0022386.995-1.005h.01c.55228475 0 1 .4477153 1 1s-.44771525 1-1 1z"/><path id="Shape" d="m5.418 32.229c.73387251.4042355 1.64265402.3033487 2.27-.252l5.687-4.977h15.625c2.7600532-.0033061 4.9966939-2.2399468 5-5v-14c-.0033061-2.76005315-2.2399468-4.99669388-5-5h-24c-2.76005315.00330612-4.99669388 2.23994685-5 5v6c0 .5522847.44771525 1 1 1s1-.4477153 1-1v-6c0-1.65685425 1.34314575-3 3-3h24c1.6568542 0 3 1.34314575 3 3v14c0 1.6568542-1.3431458 3-3 3h-16c-.2423389-.0002372-.4765188.0875358-.659.247l-5.97 5.225.619-4.33c.04118237-.2870778-.04429491-.5778942-.2342649-.7970313-.18997-.2191371-.46571843-.3450074-.7557351-.3449687h-1c-1.65685425 0-3-1.3431458-3-3 0-.5522847-.44771525-1-1-1s-1 .4477153-1 1c.00187492 2.7014879 2.14687445 4.9141963 4.847 5l-.455 3.19c-.12328864.8281977.28744934 1.6444694 1.026 2.039z"/><path id="Shape" d="m55.153 33 .455-3.19c.1203093-.8294329-.289297-1.6459068-1.0261026-2.0453448-.7368057-.399438-1.6445147-.2971086-2.2738974.2563448l-5.683 4.979h-15.625c-2.7600532.0033061-4.9966939 2.2399468-5 5v14c.0033061 2.7600532 2.2399468 4.9966939 5 5h24c2.7600532-.0033061 4.9966939-2.2399468 5-5v-14c-.0018749-2.7014879-2.1468744-4.9141963-4.847-5zm2.847 19c0 1.6568542-1.3431458 3-3 3h-24c-1.6568542 0-3-1.3431458-3-3v-14c0-1.6568542 1.3431458-3 3-3h16c.2423389.0002372.4765188-.0875358.659-.247l5.97-5.225-.619 4.33c-.0411824.2870778.0442949.5778942.2342649.7970313s.4657184.3450074.7557351.3449687h1c1.6568542 0 3 1.3431458 3 3z"/><path id="Shape" d="m7 11h3c.5522847 0 1-.4477153 1-1 0-.55228475-.4477153-1-1-1h-3c-.55228475 0-1 .44771525-1 1 0 .5522847.44771525 1 1 1z"/><path id="Shape" d="m27 9h-13c-.5522847 0-1 .44771525-1 1 0 .5522847.4477153 1 1 1h13c.5522847 0 1-.4477153 1-1 0-.55228475-.4477153-1-1-1z"/><path id="Shape" d="m7 21h3c.5522847 0 1-.4477153 1-1s-.4477153-1-1-1h-3c-.55228475 0-1 .4477153-1 1s.44771525 1 1 1z"/><path id="Shape" d="m27 19h-13c-.5522847 0-1 .4477153-1 1s.4477153 1 1 1h13c.5522847 0 1-.4477153 1-1s-.4477153-1-1-1z"/><path id="Shape" d="m27 14h-3c-.5522847 0-1 .4477153-1 1s.4477153 1 1 1h3c.5522847 0 1-.4477153 1-1s-.4477153-1-1-1z"/><path id="Shape" d="m7 16h13c.5522847 0 1-.4477153 1-1s-.4477153-1-1-1h-13c-.55228475 0-1 .4477153-1 1s.44771525 1 1 1z"/><path id="Shape" d="m33 41h3c.5522847 0 1-.4477153 1-1s-.4477153-1-1-1h-3c-.5522847 0-1 .4477153-1 1s.4477153 1 1 1z"/><path id="Shape" d="m53 39h-13c-.5522847 0-1 .4477153-1 1s.4477153 1 1 1h13c.5522847 0 1-.4477153 1-1s-.4477153-1-1-1z"/><path id="Shape" d="m36 49h-3c-.5522847 0-1 .4477153-1 1s.4477153 1 1 1h3c.5522847 0 1-.4477153 1-1s-.4477153-1-1-1z"/><path id="Shape" d="m53 49h-13c-.5522847 0-1 .4477153-1 1s.4477153 1 1 1h13c.5522847 0 1-.4477153 1-1s-.4477153-1-1-1z"/><path id="Shape" d="m53 44h-3c-.5522847 0-1 .4477153-1 1s.4477153 1 1 1h3c.5522847 0 1-.4477153 1-1s-.4477153-1-1-1z"/><path id="Shape" d="m33 46h13c.5522847 0 1-.4477153 1-1s-.4477153-1-1-1h-13c-.5522847 0-1 .4477153-1 1s.4477153 1 1 1z"/></g></g></g></svg>