<svg xmlns="http://www.w3.org/2000/svg" width="512" height="512" viewBox="0 0 512 512"><circle cx="236.17" cy="236.17" r="236.17" transform="translate(19.83 19.83)" fill="#000461"/><path d="M256,512C114.853,512,0,397.167,0,256,0,114.853,114.853,0,256,0,397.167,0,512,114.853,512,256,512,397.167,397.167,512,256,512Zm0-472.341C136.705,39.659,39.659,136.705,39.659,256S136.705,472.341,256,472.341,472.341,375.275,472.341,256C472.341,136.705,375.3,39.659,256,39.659Z" fill="#000461"/><path d="M225.066,350.191a19.807,19.807,0,0,1-14.139-5.929L137.756,269.9a19.827,19.827,0,1,1,28.277-27.8l58.458,59.409,120.941-133.2a19.828,19.828,0,1,1,29.347,26.671L239.74,343.706a19.832,19.832,0,0,1-14.277,6.5A2.781,2.781,0,0,0,225.066,350.191Z" fill="#fff"/></svg>