<svg height="512" viewBox="0 0 60 52" width="512" xmlns="http://www.w3.org/2000/svg"><g id="Page-1" fill="none" fill-rule="evenodd"><g id="021---Water-Filter" fill-rule="nonzero"><g id="Icons" transform="translate(1 1)"><path id="Shape" d="m0 36v12c0 1.1045695.8954305 2 2 2h26.442c13.808 0 25.43-10.957 25.558-24.765.0352703-3.1574048-.5350197-6.2923024-1.68-9.235h3.68c1.1045695 0 2-.8954305 2-2v-12c0-1.1045695-.8954305-2-2-2h-26.442c-13.808 0-25.43 10.957-25.558 24.765-.03527031 3.1574048.53501969 6.2923024 1.68 9.235h-3.68c-1.1045695 0-2 .8954305-2 2z" fill="#a4c2f7"/><path id="Shape" d="m56 0h-3c1.1045695 0 2 .8954305 2 2v12c0 1.1045695-.8954305 2-2 2h3c1.1045695 0 2-.8954305 2-2v-12c0-1.1045695-.8954305-2-2-2z" fill="#7facfa"/><path id="Shape" d="m49.32 16c1.1449803 2.9426976 1.7152703 6.0775952 1.68 9.235-.128 13.808-11.75 24.765-25.558 24.765h3c13.808 0 25.43-10.957 25.558-24.765.0352703-3.1574048-.5350197-6.2923024-1.68-9.235z" fill="#7facfa"/><g fill="#e8edfc"><path id="Shape" d="m15.32 27.98c-.3960994.0300018-.7939006.0300018-1.19 0-1.991535-.1516566-3.8861798-.9207006-5.42-2.2-.65783851-.5893032-.88422502-1.5231974-.56925912-2.3483193.3149659-.825122 1.10606684-1.3706205 1.98925912-1.3716807h4.01c.347603.1781743.7087238.3286413 1.08.45-.1444164.8221799-.2180197 1.6552354-.22 2.49-.0006371 1.0019415.1066483 2.0010372.32 2.98z"/><path id="Shape" d="m50 25.87c.0013317.5653183-.2226507 1.1078663-.6223922 1.5076078s-.9422895.6237239-1.5076078.6223922h-4.02c-.3511259-.1704686-.7117147-.320714-1.08-.45.1527013-.8414208.2296759-1.6948354.23-2.55.0022953-.977835-.0982578-1.9531998-.3-2.91.3827463-.0300019.7672537-.0300019 1.15 0 1.9975069.1441319 3.8997878.9099398 5.44 2.19.4508262.4057775.7087823.9834539.71 1.59z"/><path id="Shape" d="m31.95 39.9c-.1558868 1.9905385-.9244286 3.883946-2.2 5.42-.5893032.6578385-1.5231974.884225-2.3483193.5692591-.825122-.3149659-1.3706205-1.1060668-1.3716807-1.9892591v-4.01c.1857391-.359187.3396606-.7339524.46-1.12.8278866.1531619 1.6680649.2301504 2.51.23.9881031-.0010152 1.9734152-.1049086 2.94-.31.0382832.402287.0416291.8071352.01 1.21z"/><path id="Shape" d="m31.97 6.16v4.02c-.1748242.3375234-.3219736.6886756-.44 1.05-.8346858-.1527029-1.681461-.2296824-2.53-.23-.9914086.0010228-1.9800355.1049124-2.95.31-.0300019-.3827463-.0300019-.7672537 0-1.15.1558868-1.99053854.9244286-3.88394601 2.2-5.42.5893032-.65783851 1.5231974-.88422502 2.3483193-.56925912.825122.3149659 1.3706205 1.10606684 1.3716807 1.98925912z"/><path id="Shape" d="m43.87 38.85v.14c.0000447.5594224-.2231212 1.0957404-.62 1.49-.3973914.3986403-.9371199.6226994-1.5.6226994s-1.1026086-.2240591-1.5-.6226994l-2.84-2.84c-.1213497-.3856827-.275236-.7603625-.46-1.12 1.5098494-1.0394287 2.7981248-2.3684939 3.79-3.91.3029812.2629795.5870205.5470188.85.85 1.304541 1.5142867 2.1018825 3.39923 2.28 5.39z"/><path id="Shape" d="m21.02 13.5c-1.510562 1.0467496-2.7987079 2.3824787-3.79 3.93-.2931222-.2563911-.5671806-.5337917-.82-.83l-.01-.01c-1.2977477-1.5136261-2.0912393-3.3942363-2.27-5.38v-.13c-.0000447-.5594224.2231212-1.09574043.62-1.49.3973914-.39864029.9371199-.62269936 1.5-.62269936s1.1026086.22405907 1.5.62269936l2.84 2.84c.1199271.3656327.263565.7230574.43 1.07z"/><path id="Shape" d="m44.44 13.79-2.83 2.83c-.3729829.1215264-.7371741.2685393-1.09.44-1.0362007-1.5180501-2.3656192-2.8134681-3.91-3.81.2563911-.2931222.5337917-.5671806.83-.82l.01-.01c1.5105093-1.2949199 3.3881136-2.0851221 5.37-2.26h.13c.8582446.0041097 1.6297615.5240908 1.9556615 1.3180618.3258999.793971.1421944 1.7060406-.4656615 2.3119382z"/><path id="Shape" d="m21.42 36.77c-.2637199.30873-.55127.5962801-.86.86l-.01.01v.01c-1.5130136 1.2908621-3.3892646 2.0804947-5.37 2.26h-.11c-.5654369.0007362-1.1082285-.2221319-1.51-.62-.402965-.3971155-.6298466-.9392425-.6298466-1.505s.2268816-1.1078845.6298466-1.505l2.85-2.85c.374786-.1206006.7392893-.2710836 1.09-.45 1.0486012 1.5055228 2.3799816 2.7927504 3.92 3.79z"/><path id="Shape" d="m17.5 32.98c-.3507107.1789164-.715214.3293994-1.09.45-1.9015883.6372855-3.9557823.6582824-5.87.06-.569662-.2056625-1.02681019-.6410417-1.26-1.2-.21762402-.5210079-.21863105-1.1072648-.00279819-1.6290172.21583285-.5217525.63070621-.9359725 1.15279819-1.1509828l3.7-1.53c.3960994.0300018.7939006.0300018 1.19 0 .3926903 1.7931939 1.1333419 3.4919361 2.18 5z"/><path id="Shape" d="m47.57 20.55-3.72 1.54c-.3827463-.0300019-.7672537-.0300019-1.15 0-.383724-1.8053428-1.1249525-3.5156085-2.18-5.03.3528259-.1714607.7170171-.3184736 1.09-.44 1.8982831-.6220324 3.9433884-.636016 5.85-.04.832326.290974 1.3984991 1.0657149 1.4229203 1.9470979s-.4979835 1.686286-1.3129203 2.0229021z"/><path id="Shape" d="m37.45 43.49c-.290974.832326-1.0657149 1.3984991-1.9470979 1.4229203s-1.686286-.4979835-2.0229021-1.3129203l-1.53-3.7c.0316291-.4028648.0282832-.807713-.01-1.21 1.7971233-.384738 3.5000194-1.1223198 5.01-2.17.184764.3596375.3386503.7343173.46 1.12.6220324 1.8982831.636016 3.9433884.04 5.85z"/><path id="Shape" d="m26.05 10.16c-.0300019.3827463-.0300019.7672537 0 1.15-1.8045258.3916334-3.5139129 1.1358795-5.03 2.19-.166435-.3469426-.3100729-.7043673-.43-1.07-.6271898-1.9008614-.6411823-3.95075386-.04-5.86.290974-.83232597 1.0657149-1.39849913 1.9470979-1.42292032s1.686286.49798349 2.0229021 1.31292032z"/><path id="Shape" d="m48.24 33.03c.0021252.2812907-.0522847.5601416-.16.82-.4512454 1.0841044-1.6947602 1.598508-2.78 1.15l-3.71-1.54c-.2629795-.3029812-.5470188-.5870205-.85-.85 1.006906-1.5346376 1.6970787-3.2549694 2.03-5.06.3682853.129286.7288741.2795314 1.08.45 1.7934362.888012 3.2575012 2.3240566 4.18 4.1.1389459.2902982.210722.6081639.21.93z"/><path id="Shape" d="m17.23 17.43c-.9991895 1.5438318-1.6823617 3.270456-2.01 5.08-.3712762-.1213587-.732397-.2718257-1.08-.45-1.7887857-.8910408-3.2488073-2.3265536-4.17-4.1-.13894588-.2902982-.21072202-.6081639-.21-.93-.00108624-.2779558.05330936-.5533335.16-.81.2150103-.522092.6292303-.9369653 1.1509828-1.1527982.5217524-.2158328 1.1080093-.2148258 1.6290172.0027982l3.7 1.52.01.01c.2528194.2962083.5268778.5736089.82.83z"/><path id="Shape" d="m38.97 8.73-1.52 3.69-.01.01c-.2962083.2528194-.5736089.5268778-.83.82-1.5454054-.9981622-3.2711425-1.6843805-5.08-2.02.1180264-.3613244.2651758-.7124766.44-1.05.894067-1.78912577 2.3284833-3.2515307 4.1-4.18.2902982-.13894588.6081639-.21072202.93-.21.2779558-.00108624.5533335.05330936.81.16 1.0846576.45070524 1.6026145 1.69201578 1.16 2.78z"/><path id="Shape" d="m26.49 38.77c-.1203394.3860476-.2742609.760813-.46 1.12-.8910408 1.7887857-2.3265536 3.2488073-4.1 4.17-.2902982.1389459-.6081639.210722-.93.21-.2779558.0010862-.5533335-.0533094-.81-.16-1.0859105-.4494496-1.6043883-1.6920085-1.16-2.78l1.52-3.68v-.01l.01-.01c.30873-.2637199.5962801-.55127.86-.86 1.539967.9976107 3.263686 1.6775787 5.07 2z"/><circle id="Oval" cx="29" cy="25" r="14"/><path id="Shape" d="m36.143 27.857c.0001218 1.9705716-.8138333 3.8536544-2.2492814 5.2037066-1.4354482 1.3500522-3.3648552 2.0471264-5.3317186 1.9262934-4.0204247-.3899505-6.989356-3.9257263-6.678-7.953.384-5.887 4.787-10.387 6.469-11.8.3726941-.3149863.9183059-.3149863 1.291 0 1.756 1.472 6.499 6.304 6.499 12.623z"/></g><path id="Shape" d="m29 32c-2.2872017-.0022051-4.1407949-1.8557983-4.143-4.143 0-.5522847.4477153-1 1-1s1 .4477153 1 1c.0011026 1.1830892.9599108 2.1418974 2.143 2.143.5522847 0 1 .4477153 1 1s-.4477153 1-1 1z" fill="#428dff"/></g><g id="Icons_copy_2" fill="#fff" transform="translate(1 1)"><path id="Shape" d="m5.68 34h3c-6.432-16.464 6.114-34 23.878-34h-3c-17.764 0-30.31 17.536-23.878 34z"/><path id="Shape" d="m2 50h3c-1.1045695 0-2-.8954305-2-2v-12c0-1.1045695.8954305-2 2-2h-3c-1.1045695 0-2 .8954305-2 2v12c0 1.1045695.8954305 2 2 2z"/></g><g id="Icons_copy"><path id="Shape" d="m5.446 17.592 1.887.662c-.82567017 2.4239067-1.27521568 4.9599774-1.333 7.52l-2-.018c.05998297-2.7794338.54770051-5.533048 1.446-8.164z" fill="#fff"/><g fill="#428dff"><path id="Shape" d="m5.413 22.782c-.55228474.0030376-1.00246242-.4422153-1.00549999-.9945-.00303756-.5522847.44221525-1.0024624.99449999-1.0055h.011c.55228475 0 1 .4477153 1 1s-.44771525 1-1 1z"/><path id="Shape" d="m3 52h26.442c14.513 0 26.426-11.554 26.558-25.756.03132-2.7982498-.3942745-5.5828532-1.26-8.244h2.26c1.6568542 0 3-1.3431458 3-3v-12c0-1.65685425-1.3431458-3-3-3h-26.442c-2.7245728.03590159-5.4306273.45397843-8.039 1.242-2.5974833.82501881-5.0560148 2.03624923-7.293 3.593-2.2519237 1.53966644-4.2396525 3.43385101-5.886 5.609-1.67827313 2.1549255-2.99356477 4.5693335-3.894 7.148-.09756365.2535933-.0844095.5364641.03626757.7799087.12067706.2434446.33783572.4251891.59873243.5010913.51463843.1487753 1.05775327-.1197455 1.252-.619.83029231-2.3782071 2.04398086-4.6045977 3.593-6.591 1.521074-2.01241723 3.3594209-3.76396367 5.443-5.186 2.0699237-1.44146375 4.3450945-2.56303632 6.749-3.327 2.4145243-.7271434 4.9186148-1.1142004 7.44-1.15h26.442c.5522847 0 1 .44771525 1 1v12c0 .5522847-.4477153 1-1 1h-3.68c-.3305239-.0001987-.6397952.1629353-.8262646.4358368-.1864693.2729015-.2260462.6203136-.1057354.9281632 1.1003897 2.8233702 1.6476571 5.8319826 1.612 8.862-.122 13.109-11.138 23.774-24.558 23.774h-26.442c-.55228475 0-1-.4477153-1-1v-12c0-.5522847.44771525-1 1-1h3.68c.33052387.0001987.63979519-.1629353.82626456-.4358368s.22604621-.6203136.10573544-.9281632c-1.10038969-2.8233702-1.64765705-5.8319826-1.612-8.862.00239772-.2652197-.10066643-.520528-.28651729-.7097546-.18585086-.1892265-.43926283-.2968692-.70448271-.2992454h-.009c-.54878904-.0000222-.9950609.4422332-1 .991-.03131996 2.7982498.39427446 5.5828532 1.26 8.244h-2.26c-1.65685425 0-3 1.3431458-3 3v12c0 1.6568542 1.34314575 3 3 3z"/><path id="Shape" d="m8 25.19c.00351527.8899456.38178248 1.7372351 1.042 2.334.84832402.7283602 1.8149105 1.3063505 2.858 1.709l-.852.352c-1.59334922.662733-2.35041997 2.4894513-1.693 4.085.34379603.8216224 1.0163001 1.4614806 1.854 1.764 1.0136271.3351245 2.0754509.5013407 3.143.492.05 0 .1-.005.153-.005l-.648.647c-.5919658.5848462-.9251337 1.382353-.9251337 2.2145s.3331679 1.6296538.9251337 2.2145c.5900623.5842172 1.386649.9122658 2.217.913h.165c1.112049-.0867056 2.201418-.3609075 3.222-.811l-.354.858c-.6429389 1.5946673.1143917 3.4100334 1.7 4.075.3802039.1584198.7881123.2396616 1.2.239.4698298.0006169.9338399-.1039392 1.358-.306.9977823-.5003537 1.9017173-1.1691709 2.672-1.977v.912c.0022037 1.7277376 1.4022624 3.1277963 3.13 3.13.8901062-.0053153 1.7368842-.384968 2.333-1.046.7225309-.851248 1.297169-1.8176541 1.7-2.859l.354.857c.4818264 1.1683857 1.6201649 1.9313567 2.884 1.933 1.328972-.0013218 2.5127054-.8404341 2.954-2.094.3471581-1.0646703.511482-2.1804499.486-3.3l.663.663c.8914415.8921138 2.2322984 1.1598176 3.3979656.6784082 1.1656671-.4814094 1.9268753-1.6172459 1.9290344-2.8784082v-.2c-.0863159-1.1141536-.3608717-2.2056146-.812-3.228l.861.357c.3771824.1566163.7815943.2371588 1.19.237 1.2608869.0027407 2.4007129-.7501827 2.893-1.911.1602232-.3828076.2415137-.794022.239-1.209.0004142-.4698074-.1041318-.9337732-.306-1.358-.5004999-.9984755-1.170434-1.9025481-1.98-2.672h.917c1.7279658-.0016538 3.1283462-1.4020342 3.13-3.13-.0041847-.8912938-.3835175-1.7396199-1.045-2.337-.8522172-.7237719-1.8204836-1.298511-2.864-1.7l.86-.356c1.1983877-.4947602 1.9668114-1.6781062 1.9312919-2.9741228-.0355194-1.2960165-.8676041-2.435498-2.0912919-2.8638772-1.0647849-.34667-2.1804809-.5109816-3.3-.486l.653-.653c.8941392-.8922787 1.1631631-2.2351109.681753-3.4029682-.4814102-1.1678572-1.6185676-1.9310381-2.881753-1.9340318h-.185c-1.112624.0857724-2.2026954.3593046-3.224.809l.355-.864c.6477676-1.59524424-.1108155-3.414505-1.7-4.077-.82661-.33522201-1.7556237-.3102115-2.563.069-.9952729.50499055-1.8971886 1.17593191-2.667 1.984v-.924c-.0016538-1.72796577-1.4020342-3.12834618-3.13-3.13-.8890594.00615619-1.7345871.38573643-2.33 1.046-.7223274.85102246-1.29695 1.81706448-1.7 2.858l-.354-.856c-.4952694-1.19640827-1.6768857-1.96362475-2.9712977-1.92924608-1.2944121.03437866-2.4336378.86323504-2.8647023 2.08424608-.3533878 1.06674716-.5195054 2.18660343-.491 3.31l-.66-.66c-1.2201089-1.21689633-3.1948911-1.21689633-4.415 0-.5856453.5820836-.9140507 1.3742897-.912 2.2v.185c.0868463 1.1176265.3634707 2.2122881.818 3.237l-.867-.356c-1.591965-.6603348-3.4180893.0919407-4.083 1.682-.15883148.3800784-.24008992.7880706-.239 1.2-.00041422.4698074.10413184.9337732.306 1.358.5002945.9980795 1.1694969 1.9020779 1.978 2.672h-.915c-1.72757585.0016528-3.12779514 1.4014248-3.13 3.129zm2 0c.0005514-.6238532.5061468-1.1294486 1.13-1.13h3.792c.069.033.137.064.2.094-.1744613 1.2685122-.1677273 2.5553831.02 3.822-1.7487371-.141192-3.4116622-.8171154-4.763-1.936-.2415001-.2165163-.37933832-.5256522-.379-.85zm20-12.19c7.1797017 0 13 5.8202983 13 13s-5.8202983 13-13 13-13-5.8202983-13-13c.008266-7.1762751 5.8237249-12.991734 13-13zm-18.113 20.552c-.3076449-.109264-.5553907-.3425006-.683-.643-.1183781-.2758801-.1206163-.5878189-.0062091-.8653692.1144072-.2775504.3358105-.4973034.6142091-.6096308l3.5-1.447c.082 0 .163.008.245.009.33953 1.2247796.8345588 2.4010193 1.473 3.5-1.667534.5486123-3.4639156.5681724-5.143.056zm4.293 6.358h-.11c-.2992284.0001172-.5865277-.1173164-.8-.327-.2145544-.2110343-.3358832-.4990551-.337-.8.0012822-.2982796.1227743-.5834435.337-.791l2.715-2.714c.066-.024.126-.054.191-.08.7877052 1.0113992 1.7006768 1.9186584 2.717 2.7l-.047.044c-.0095022.0088357-.0185155.0181829-.027.028-1.3179878 1.0952792-2.9336703 1.7709472-4.639 1.94zm6.32 4.25c-.2909525.136911-.6258091.1463334-.924.026-.5728111-.2412687-.8471365-.8966264-.617-1.474l1.441-3.492c.07-.063.136-.127.2-.19 1.1072624.6293187 2.2905515 1.1142622 3.521 1.443-.7895741 1.5789678-2.0565501 2.8690371-3.621 3.687zm7.516 1.486c-.3102924.356633-.8095262.4828988-1.2520603.3166699-.4425341-.1662288-.7351778-.589947-.7339397-1.0626699v-3.792c.037-.079.074-.157.109-.236 1.2642882.1749165 2.5469349.17054 3.81-.013-.1418394 1.7561709-.818173 3.4267639-1.938 4.787zm7.5-1.487c-.1553697.4386631-.564586.7365534-1.029768.7496228s-.8904781-.261375-1.070232-.6906228l-1.448-3.5c0-.088.008-.177.009-.264 1.224309-.3363367 2.4005329-.8279983 3.5-1.463.5415588 1.6785374.5520353 3.4832885.03 5.168zm6.354-4.169c.0001056.2942293-.1176678.5762371-.327.783-.4383104.4371195-1.1476896.4371195-1.586 0l-2.684-2.684c-.029-.085-.059-.17-.091-.253 1.0021579-.7801448 1.9022206-1.6832312 2.679-2.688 1.1341838 1.3245817 1.8353141 2.9648566 2.009 4.7zm4.37-5.96c.0021089.1491274-.0261299.2971261-.083.435-.2386181.5754497-.8982433.8488764-1.474.611l-3.533-1.466c-.048-.053-.1-.1-.153-.154.6374979-1.1089484 1.129544-2.2953708 1.464-3.53 1.5711033.7882677 2.8543615 2.0508845 3.668 3.609.0738392.1545236.1117853.3237424.111.495zm1.76-7.16c-.0005514.6238532-.5061468 1.1294486-1.13 1.13h-3.825c-.059-.027-.122-.05-.183-.076.0874918-.6376812.1335883-1.2803598.138-1.924-.0047069-.6355195-.0494623-1.2701107-.134-1.9 1.7423453.1423044 3.3998.8128218 4.751 1.922.2422552.2154824.3814985.523781.383.848zm-1.871-8.346c.4395263.1545342.7383221.5640001.7514066 1.0297179.0130844.4657177-.2622501.8913139-.6924066 1.0702821l-3.543 1.467c-.059 0-.12 0-.179 0-.3340356-1.2392095-.8267812-2.4300673-1.466-3.543 1.6672374-.5307152 3.456869-.5390894 5.129-.024zm-4.309-6.364h.13c.614637.0075281 1.1113733.5033774 1.12 1.118-.0011168.3009449-.1224456.5889657-.337.8l-2.69 2.69c-.063.023-.123.051-.185.075-.7842881-1.013459-1.6942514-1.9230862-2.708-2.707 1.3207037-1.1162899 2.9491756-1.8053393 4.67-1.976zm-6.315-4.26c.2911213-.13646736.6259255-.14552591.924-.025.5744772.23959988.8491612.89687958.616 1.474l-1.436 3.488c-.058.052-.115.1-.169.156-1.1075668-.6350051-2.2923147-1.1247009-3.525-1.457.7954351-1.55150793 2.0487447-2.82087672 3.59-3.636zm-7.516-1.486c.3110673-.35272034.8078204-.4763694 1.2479398-.31063035s.7319203.58633979.7330602 1.05663035v3.8c-.027.057-.054.115-.08.172-1.2712785-.1786471-2.5614785-.1759536-3.832.008.1524946-1.7339822.8256004-3.38136601 1.931-4.726zm-7.5 1.487c.1553697-.43866314.564586-.73655336 1.029768-.74962276s.8904781.261375 1.070232.69062276l1.457 3.524v.178c-1.2388513.3377964-2.4287451.8345938-3.54 1.478-.5293237-1.6656274-.5338619-3.4537072-.013-5.122zm-6.359 4.179c-.0001056-.2942293.1176678-.5762371.327-.783.2102553-.2104322.4955289-.3286667.793-.3286667s.5827447.1182345.793.3286667l2.684 2.685.072.2c-1.0044501.7834415-1.9059183 1.6906216-2.683 2.7-1.1194064-1.3205538-1.8118956-2.9496119-1.986-4.672zm-4.37 5.95c-.0008489-.1468434.0277125-.2923703.084-.428.1132538-.2777536.3336408-.4981613.6113837-.6114413s.5894133-.1098766.8646163.0094413l3.5 1.437c.05.056.1.112.152.166-.6311142 1.1109782-1.1170814 2.298338-1.446 3.533-1.5643664-.7910175-2.841792-2.0520075-3.653-3.606-.0752693-.1558805-.1139199-.3269008-.113-.5z"/><path id="Shape" d="m29.5 36.985c.1693333.01.336.015.5.015 2.0743769.0063352 4.0714106-.7869627 5.576-2.215 1.6304325-1.5411336 2.5560337-3.6844788 2.56-5.928 0-7.275-5.712-12.43-6.857-13.389-.744181-.6260377-1.830819-.6260377-2.575 0-.651.545-6.37 5.528-6.825 12.5-.1403544 2.3032142.636967 4.5683044 2.162 6.3 1.3813195 1.6015522 3.3484522 2.5806142 5.459 2.717zm-5.618-8.885c.4-6.141 5.53-10.606 6.12-11.1.628.526 6.141 5.334 6.141 11.856-.0004098 1.6947846-.7007508 3.3141547-1.9354042 4.4751568s-2.8939867 1.7605437-4.5855958 1.6568432c-1.577029-.1073162-3.0450457-.8429456-4.075-2.042-1.1728569-1.3322588-1.7713651-3.0742231-1.665-4.846z"/><path id="Shape" d="m4.013 42.935c-.00520088.1504737.01577765.3007071.062.444.0525155.121464.12634615.2325487.218.328l4 4c.39237889.3789722 1.01608478.3735524 1.40181858-.0121814.38573382-.3857338.39115362-1.0094397.01218142-1.4018186l-2.293-2.293h4.586c.5522847 0 1-.4477153 1-1s-.4477153-1-1-1h-4.586l2.293-2.293c.3789722-.3923789.3735524-1.0160848-.01218142-1.4018186-.3857338-.3857338-1.00943969-.3911536-1.40181858-.0121814l-4 4c-.16531926.1748165-.26436006.4019028-.28.642z"/><path id="Shape" d="m52.707 4.293c-.3904999-.39038194-1.0235001-.39038194-1.414 0l-4 4c-.1085119.11263326-.1881164.24988235-.232.4-.1229256.35582089-.0329614.75057771.232 1.018l4 4c.3923789.3789722 1.0160848.3735524 1.4018186-.0121814s.3911536-1.0094397.0121814-1.4018186l-2.293-2.297h4.586c.5522847 0 1-.44771525 1-1s-.4477153-1-1-1h-4.586l2.293-2.293c.3903819-.39049985.3903819-1.02350015 0-1.414z"/></g></g></g></g></svg>