<svg height="512" viewBox="0 0 60 60" width="512" xmlns="http://www.w3.org/2000/svg"><g id="Page-1" fill="none" fill-rule="evenodd"><g id="010---Share-Video" fill-rule="nonzero" transform="translate(0 -1)"><g id="color_copy" transform="translate(1 1)"><path id="Shape" d="m42 21v18c0 2.209139-1.790861 4-4 4h-6c.0018398-7.2967235-4.9332545-13.670392-11.998047-15.4954633-7.0647924-1.8250714-14.46944222 1.3608298-18.001953 7.7454633v-14.25c.0018446-1.1961121.53715094-2.329055 1.46-3.09 1.77752937 2.733805 4.89605003 4.2907377 8.1493486 4.0685916 3.2532986-.2221461 6.131235-2.1885369 7.5206514-5.1385916 1.8246434 3.7281601 5.5937435 6.1105709 9.7441816 6.1592006 4.150438.0486297 7.974324-2.2448159 9.8858184-5.9292006 1.8822579.3642639 3.2413724 2.0128195 3.24 3.93z" fill="#cad9fc"/><path id="Shape" d="m38.76 17.07c-.2294728.4429455-.4890831.8696152-.777 1.277.6541863.7288907 1.0163276 1.6735916 1.017 2.653v18c0 2.209139-1.790861 4-4 4h3c2.209139 0 4-1.790861 4-4v-18c.0013724-1.9171805-1.3577421-3.5657361-3.24-3.93z" fill="#a4c2f7"/><path id="Shape" d="m58 18.14v23.72c.0001705 1.0677671-.5672128 2.0551501-1.4898261 2.5926547-.9226134.5375047-2.061387.5441104-2.9901739.0173453l-11.52-6.51v-15.92l11.52-6.51c.9287869-.5267651 2.0675605-.5201594 2.9901739.0173453.9226133.5375046 1.4899966 1.5248876 1.4898261 2.5926547z" fill="#a4c2f7"/><path id="Shape" d="m53.52 15.53-.022.013c.9336979.531329 1.5073931 1.5257339 1.5 2.6v23.717c.0073931 1.0742661-.5663021 2.068671-1.5 2.6l.022.013c.9292529.5270304 2.0686635.5201366 2.9914712-.0180993.9228078-.5382358 1.4897681-1.5265981 1.4885288-2.5949007v-23.72c.0001705-1.0677671-.5672128-2.0551501-1.4898261-2.5926547-.9226134-.5375047-2.061387-.5441104-2.9901739-.0173453z" fill="#7facfa"/><path id="Shape" d="m40 12c-.007537 5.1116851-3.5353735 9.5445816-8.5149103 10.6993951-4.9795368 1.1548136-10.0984088-1.272809-12.3550897-5.8593951-1.7581081 3.7260998-5.8218899 5.782594-9.8654587 4.9924576s-7.03428461-4.2251196-7.26042515-8.3389529c-.22614055-4.11383329 2.37004558-7.8559327 6.30264332-9.08452502 3.93259773-1.22859232 8.19730673.37007837 10.35324053 3.88102032 1.8007085-5.03475489 6.9635074-8.04305775 12.2315718-7.12719463s9.1126221 5.49011221 9.1084282 10.83719463z" fill="#e8edfc"/><path id="Shape" d="m29 1c-.5082865.00194658-1.0158301.03903503-1.519.111 5.4551363.73035685 9.5294231 5.38238577 9.5342224 10.8861944.0047993 5.5038087-4.0613682 10.1629361-9.5152224 10.9028056.4971788.0670619.998319.1004712 1.5.1 6.0751322 0 11-4.9248678 11-11 0-6.07513225-4.9248678-11-11-11z" fill="#cad9fc"/><circle id="Oval" cx="11" cy="13" fill="#e8edfc" r="3"/><path id="Shape" d="m11 10c-.5281059.0027453-1.0459153.1463511-1.5.416.9273539.5298262 1.4996803 1.5159639 1.4996803 2.584s-.5723264 2.0541738-1.4996803 2.584c.4540847.2696489.9718941.4132547 1.5.416 1.6568542 0 3-1.3431458 3-3s-1.3431458-3-3-3z" fill="#cad9fc"/><circle id="Oval" cx="29" cy="12" fill="#e8edfc" r="6"/><path id="Shape" d="m29 6c-.5064496.00291083-1.0104803.07011491-1.5.2 2.6479943.68130935 4.498931 3.06876222 4.498931 5.803 0 2.7342378-1.8509367 5.1216906-4.498931 5.803 2.2531797.5872914 4.6426897-.1820582 6.1299399-1.9736543 1.4872502-1.7915962 1.8036517-4.2818866.8116819-6.3884777-.9919698-2.10659106-3.1131667-3.44904416-5.4416218-3.443868z" fill="#cad9fc"/><path id="Shape" d="m32 43c0 8.836556-7.163444 16-16 16s-16-7.163444-16-16 7.163444-16 16-16c4.2434638 0 8.3131264 1.6857094 11.3137085 4.6862915s4.6862915 7.0702447 4.6862915 11.3137085z" fill="#e8edfc"/><path id="Shape" d="m16 27c-.5 0-1 .031-1.486.076 8.213651.7801282 14.4862352 7.6797544 14.4826083 15.9303695-.0036269 8.250615-6.2822746 15.1447239-14.4966083 15.9176305.494.046.994.076 1.5.076 8.836556 0 16-7.163444 16-16s-7.163444-16-16-16z" fill="#cad9fc"/><g fill="#fff"><circle id="Oval" cx="9" cy="43" r="3"/><circle id="Oval" cx="20" cy="37" r="3"/><circle id="Oval" cx="20" cy="49" r="3"/></g></g><g id="color" fill="#fff" transform="translate(1 5)"><path id="Shape" d="m14.5 54.924c.494.046.994.076 1.5.076s1.006-.03 1.5-.076c-5.3727354-.5061903-10.12831259-3.6866427-12.64803813-8.4588013-2.51972555-4.7721586-2.4640642-10.4929708.14803813-15.2151987v-14.25c.0018446-1.1961121.53715094-2.329055 1.46-3.09-1.65500669-2.5374374-1.92056852-5.73782766-.70641967-8.51334172 1.21414886-2.77551406 3.7446675-4.75275868 6.73141967-5.25965828-3.51999551-.59458168-7.05821513.95037675-9.01479054 3.9362951s-1.96058253 6.8467316-.01020946 9.8367049c-.92284906.760945-1.4581554 1.8938879-1.46 3.09v14.25c-2.61210234 4.7222279-2.66776368 10.4430401-.14803813 15.2151987 2.51972554 4.7721586 7.27530271 7.952611 12.64803813 8.4588013z"/></g><g id="outline"><path id="Rectangle-path" d="m2 22h2v8h-2z" fill="#fff"/><g fill="#428dff"><path id="Shape" d="m3.02 27c-.55228475.0027614-1.00223858-.4427153-1.005-.995s.44271525-1.0022386.995-1.005h.01c.55228475 0 1 .4477153 1 1s-.44771525 1-1 1z"/><path id="Shape" d="m58.018 15.687c-1.228552-.7261677-2.7523801-.7368586-3.991-.028l-10.084 5.7c-.2219341-1.6857751-1.2853574-3.1432263-2.823-3.869 2.3949983-5.9072158-.2507173-12.65576571-6.0222922-15.36134116-5.7715748-2.70557545-12.6512033-.42227766-15.6597078 5.19734116-3.3890396-3.75183562-9.0452845-4.38387978-13.17887384-1.47264312-4.13358935 2.91123666-5.4439615 8.44978442-3.05312616 12.90464312-.77583318.9022224-1.20357061 2.0520771-1.206 3.242.00000001.5522847.44771526 1 1 1s.99999999-.4477153 1-1c.00469255-.5285067.150002-1.0462364.421-1.5 1.99523389 2.3351693 4.95542782 3.6203505 8.0238593 3.4835937 3.0684314-.1367568 5.9025572-1.6801847 7.6821407-4.1835937 2.2986386 3.3444555 6.1348241 5.2970212 10.1915589 5.1873633 4.0567347-.1096578 7.7818356-2.2666131 9.8964411-5.7303633 1.084196.4819336 1.7834792 1.5565183 1.785 2.743v18c0 1.6568542-1.3431458 3-3 3h-5.051c-.3979333-6.9471473-4.9964078-12.9474481-11.6012199-15.1378048-6.6048121-2.1903568-13.87747824-.1268875-18.3477801 5.2058048v-3.068c0-.5522847-.44771525-1-1-1s-1 .4477153-1 1v6.017c-3.27088325 6.1336959-2.47487352 13.6412817 2.00950609 18.9527073s11.75223141 7.3549047 18.34750491 5.1587104c6.5952736-2.1961944 11.1871163-8.1888946 11.591989-15.1284177h5.051c2.5076337-.0081465 4.6200457-1.8753372 4.936-4.363l10.091 5.7c1.2386748.7086491 2.7623901.697959 3.991-.028 1.2319114-.7105073 1.9883853-2.0268939 1.982-3.449v-23.72c.0078252-1.4235331-.748842-2.7417833-1.982-3.453zm-28.018 7.313c-3.8176719.0111864-7.3043548-2.1653184-8.971-5.6-.1685364-.343002-.5178299-.5599521-.9-.559h-.008c-.3853439.00164-.7354602.2245473-.9.573-1.6931686 3.5881514-5.7603979 5.3932202-9.55714316 4.2415365-3.7967453-1.1516837-6.17576441-4.9121219-5.59020031-8.836248.5855641-3.92412596 3.95877464-6.82620762 7.92634347-6.8192885 2.7788422-.00563265 5.359104 1.43955664 6.806 3.812.2013641.3279897.5730884.5113119.9558842.4714107s.7087224-.29594405.8381158-.6584107c1.7150228-4.78337779 6.7447499-7.51999476 11.6925298-6.36177167 4.9477798 1.15822309 8.2402423 5.84297685 7.6539372 10.89057557-.5863052 5.0475987-4.8649356 8.8529302-9.946467 8.8461961zm-13 36c-8.28427125 0-15-6.7157288-15-15s6.71572875-15 15-15c8.2842712 0 15 6.7157288 15 15-.0093685 8.2803876-6.7196124 14.9906315-15 15zm41-16.14c.0003833.7122536-.3780541 1.3709661-.9935526 1.7293889s-1.37517.3624645-1.9944474.0106111l-11.012-6.224v-14.752l11.012-6.224c.6192774-.3518534 1.3789489-.3478117 1.9944474.0106111s.9939359 1.0171353.9935526 1.7293889z"/><path id="Shape" d="m12 10c-2.209139 0-4 1.790861-4 4s1.790861 4 4 4 4-1.790861 4-4c0-1.060866-.4214274-2.0782816-1.1715729-2.8284271s-1.7675611-1.1715729-2.8284271-1.1715729zm0 6c-1.1045695 0-2-.8954305-2-2s.8954305-2 2-2 2 .8954305 2 2-.8954305 2-2 2z"/><path id="Shape" d="m30 6c-3.8659932 0-7 3.13400675-7 7 0 3.8659932 3.1340068 7 7 7s7-3.1340068 7-7c-.0044086-3.86416566-3.1358343-6.99559136-7-7zm0 12c-2.7614237 0-5-2.2385763-5-5s2.2385763-5 5-5 5 2.2385763 5 5c-.0033061 2.7600532-2.2399468 4.9966939-5 5z"/><path id="Shape" d="m21 42c2.209139 0 4-1.790861 4-4s-1.790861-4-4-4-4 1.790861-4 4c.0038416.3279337.0485189.6541117.133.971l-4.223 2.3c-1.1204855-1.2023919-2.8624303-1.5970201-4.39171395-.9949191-1.52928363.602101-2.53462694 2.078376-2.53462694 3.7219191s1.00534331 3.1198181 2.53462694 3.7219191c1.52928365.602101 3.27122845.2074728 4.39171395-.9949191l4.223 2.3c-.0848108.3181837-.1294909.645726-.133.975-.0139598 1.9369813 1.3524345 3.6097469 3.2532299 3.9826653 1.9007954.3729185 3.7979358-.6595718 4.5168764-2.4582424.7189406-1.7986705.0561715-3.8543736-1.577978-4.8943961s-3.7771025-.7699663-5.1021283.6429732l-4.223-2.3c.1773341-.6351884.1773341-1.3068116 0-1.942l4.223-2.3c.7517966.8085995 1.8059028 1.2682767 2.91 1.269zm0 6c1.1045695 0 2 .8954305 2 2s-.8954305 2-2 2-2-.8954305-2-2 .8954305-2 2-2zm-11-2c-1.1045695 0-2-.8954305-2-2s.8954305-2 2-2 2 .8954305 2 2-.8954305 2-2 2zm11-10c1.1045695 0 2 .8954305 2 2s-.8954305 2-2 2-2-.8954305-2-2 .8954305-2 2-2z"/></g></g></g></g></svg>