<?xml version="1.0" encoding="iso-8859-1"?>
<!-- Generator: Adobe Illustrator 19.0.0, SVG Export Plug-In . SVG Version: 6.00 Build 0)  -->
<svg version="1.1" id="Capa_1" xmlns="http://www.w3.org/2000/svg" xmlns:xlink="http://www.w3.org/1999/xlink" x="0px" y="0px"
	 viewBox="0 0 512 512" style="enable-background:new 0 0 512 512;" xml:space="preserve">
<path style="fill:#94C1FF;" d="M508,80H4v-8c0-4.398,3.602-8,8-8h488c4.398,0,8,3.602,8,8V80z"/>
<path style="fill:#5C9EFF;" d="M492,72c0-4.398-3.602-8-8-8h16c4.398,0,8,3.602,8,8v8v368h-16V80V72z"/>
<rect x="4" y="79.996" style="fill:#FFFFFF;" width="504" height="368"/>
<g>
	<path style="fill:#D7E9FF;" d="M28,64H12c-4.398,0-8,3.602-8,8v8h16v-8C20,67.602,23.602,64,28,64z"/>
	<rect x="44" y="368" style="fill:#D7E9FF;" width="248" height="16"/>
</g>
<rect x="292" y="368" style="fill:#94C1FF;" width="176" height="16"/>
<rect x="28" y="104" style="fill:#D7E9FF;" width="456" height="264"/>
<polygon style="fill:#94C1FF;" points="364,224 484,104 484,368 172,368 339.891,199.898 "/>
<g>
	<polygon style="fill:#D7E9FF;" points="380,224 484,120 484,104 372,216 	"/>
	<polygon style="fill:#D7E9FF;" points="339.891,199.898 172,368 188,368 347.898,207.902 	"/>
</g>
<path style="fill:#FFFFFF;" d="M316,236c0,33.141-26.859,60-60,60c-33.137,0-60-26.859-60-60c0-33.137,26.863-60,60-60
	C289.141,176,316,202.863,316,236z"/>
<polygon style="fill:#D7E9FF;" points="240,212 280,236 240,260 "/>
<g>
	<path style="fill:#FFFFFF;" d="M308,136h32c4.398,0,8,3.602,8,8s-3.602,8-8,8h-48c-8.797,0-16-7.199-16-16s7.203-16,16-16
		C300.875,120,308,127.199,308,136z"/>
	<path style="fill:#FFFFFF;" d="M28,104v33.773c4.254,3.828,9.824,6.227,16,6.227c13.258,0,24-10.742,24-24
		c0-6.176-2.398-11.746-6.227-16H28z"/>
	<path style="fill:#FFFFFF;" d="M300,376c0,4.422-3.578,8-8,8s-8-3.578-8-8s3.578-8,8-8S300,371.578,300,376z"/>
</g>
<g>
	<rect x="28" y="368" style="fill:#94C1FF;" width="16" height="16"/>
	<rect x="468" y="368" style="fill:#94C1FF;" width="16" height="16"/>
	<path style="fill:#94C1FF;" d="M140,408c4.398,0,8,3.602,8,8s-3.602,8-8,8H36c-4.398,0-8-3.602-8-8s3.602-8,8-8H140z"/>
</g>
<g>
	<path style="fill:#116FFF;" d="M20.238,76c-2.207,0-4.039-1.789-4.039-4s1.75-4,3.961-4h0.078c2.211,0,4,1.789,4,4
		S22.449,76,20.238,76z"/>
	<path style="fill:#116FFF;" d="M36.238,76c-2.207,0-4.039-1.789-4.039-4s1.75-4,3.961-4h0.078c2.211,0,4,1.789,4,4
		S38.449,76,36.238,76z"/>
	<path style="fill:#116FFF;" d="M52.238,76c-2.207,0-4.039-1.789-4.039-4s1.75-4,3.961-4h0.078c2.211,0,4,1.789,4,4
		S54.449,76,52.238,76z"/>
	<path style="fill:#116FFF;" d="M508,84H4c-2.211,0-4-1.789-4-4v-8c0-6.617,5.383-12,12-12h488c6.617,0,12,5.383,12,12v8
		C512,82.211,510.211,84,508,84z M8,76h496v-4c0-2.207-1.797-4-4-4H12c-2.207,0-4,1.793-4,4V76z"/>
	<path style="fill:#116FFF;" d="M508,452H4c-2.211,0-4-1.789-4-4V80c0-2.211,1.789-4,4-4h504c2.211,0,4,1.789,4,4v368
		C512,450.211,510.211,452,508,452z M8,444h496V84H8V444z"/>
	<path style="fill:#116FFF;" d="M484,388H28c-2.211,0-4-1.789-4-4V104c0-2.211,1.789-4,4-4h456c2.211,0,4,1.789,4,4v280
		C488,386.211,486.211,388,484,388z M32,380h448V108H32V380z"/>
	<path style="fill:#116FFF;" d="M484,372H28c-2.211,0-4-1.789-4-4s1.789-4,4-4h456c2.211,0,4,1.789,4,4S486.211,372,484,372z"/>
	<path style="fill:#116FFF;" d="M44,388c-2.211,0-4-1.789-4-4v-16c0-2.211,1.789-4,4-4s4,1.789,4,4v16C48,386.211,46.211,388,44,388
		z"/>
	<path style="fill:#116FFF;" d="M468,388c-2.211,0-4-1.789-4-4v-16c0-2.211,1.789-4,4-4s4,1.789,4,4v16
		C472,386.211,470.211,388,468,388z"/>
	<path style="fill:#116FFF;" d="M292,388c-6.617,0-12-5.383-12-12s5.383-12,12-12s12,5.383,12,12S298.617,388,292,388z M292,372
		c-2.203,0-4,1.797-4,4s1.797,4,4,4s4-1.797,4-4S294.203,372,292,372z"/>
	<path style="fill:#116FFF;" d="M256,300c-35.289,0-64-28.711-64-64s28.711-64,64-64s64,28.711,64,64S291.289,300,256,300z M256,180
		c-30.879,0-56,25.121-56,56c0,30.875,25.121,56,56,56c30.875,0,56-25.125,56-56C312,205.121,286.875,180,256,180z"/>
	<path style="fill:#116FFF;" d="M240,264c-0.68,0-1.359-0.172-1.973-0.52c-1.254-0.71-2.027-2.039-2.027-3.48v-48
		c0-1.441,0.773-2.77,2.027-3.48c1.258-0.707,2.793-0.691,4.031,0.051l40.004,24c1.203,0.723,1.938,2.023,1.938,3.43
		s-0.734,2.707-1.938,3.43l-40.004,24C241.426,263.809,240.711,264,240,264z M244,219.066v33.867L272.227,236L244,219.066z"/>
	<path style="fill:#116FFF;" d="M44,148c-2.211,0-4-1.789-4-4s1.789-4,4-4c11.027,0,20-8.973,20-20c0-2.211,1.789-4,4-4s4,1.789,4,4
		C72,135.438,59.438,148,44,148z"/>
	<path style="fill:#116FFF;" d="M44,204c-2.211,0-4-1.789-4-4v-40c0-2.211,1.789-4,4-4s4,1.789,4,4v40C48,202.211,46.211,204,44,204
		z"/>
	<path style="fill:#116FFF;" d="M84.004,193.281c-1.383,0-2.727-0.715-3.469-2l-20-34.641c-1.105-1.914-0.449-4.359,1.465-5.465
		c1.898-1.113,4.352-0.457,5.465,1.465l20,34.641c1.105,1.914,0.449,4.359-1.465,5.465
		C85.371,193.109,84.684,193.281,84.004,193.281z"/>
	<path style="fill:#116FFF;" d="M113.277,164c-0.68,0-1.367-0.172-1.996-0.535l-34.641-20c-1.914-1.105-2.57-3.551-1.465-5.465
		c1.105-1.918,3.555-2.574,5.465-1.465l34.641,20c1.914,1.105,2.57,3.551,1.465,5.465C116.004,163.285,114.66,164,113.277,164z"/>
	<path style="fill:#116FFF;" d="M124,124H84c-2.211,0-4-1.789-4-4s1.789-4,4-4h40c2.211,0,4,1.789,4,4S126.211,124,124,124z"/>
	<path style="fill:#116FFF;" d="M364,228c-1.023,0-2.047-0.391-2.828-1.172c-1.562-1.562-1.562-4.094,0-5.656l104-104
		c1.562-1.562,4.094-1.562,5.656,0s1.562,4.094,0,5.656l-104,104C366.047,227.609,365.023,228,364,228z"/>
	<path style="fill:#116FFF;" d="M364,228c-1.023,0-2.047-0.391-2.828-1.172l-24.109-24.102c-1.562-1.562-1.562-4.094,0-5.656
		s4.094-1.562,5.656,0l24.109,24.102c1.562,1.562,1.562,4.094,0,5.656C366.047,227.609,365.023,228,364,228z"/>
	<path style="fill:#116FFF;" d="M187.789,356c-1.023,0-2.047-0.391-2.828-1.172c-1.562-1.562-1.562-4.094,0-5.656l47.145-47.148
		c1.562-1.562,4.094-1.562,5.656,0s1.562,4.094,0,5.656l-47.145,47.148C189.836,355.609,188.812,356,187.789,356z"/>
	<path style="fill:#116FFF;" d="M324.852,218.93c-1.023,0-2.047-0.391-2.828-1.172c-1.562-1.562-1.562-4.094,0-5.656l15.039-15.031
		c1.562-1.562,4.094-1.562,5.656,0s1.562,4.094,0,5.656l-15.039,15.031C326.898,218.539,325.875,218.93,324.852,218.93z"/>
	<path style="fill:#116FFF;" d="M68,356c-2.211,0-4-1.789-4-4v-48c0-2.211,1.789-4,4-4s4,1.789,4,4v48C72,354.211,70.211,356,68,356
		z"/>
	<path style="fill:#116FFF;" d="M76,316c-1.023,0-2.047-0.391-2.828-1.172l-8-8c-1.562-1.562-1.562-4.094,0-5.656
		c1.562-1.562,4.094-1.562,5.656,0l8,8c1.562,1.562,1.562,4.094,0,5.656C78.047,315.609,77.023,316,76,316z"/>
	<path style="fill:#116FFF;" d="M60,316c-1.023,0-2.047-0.391-2.828-1.172c-1.562-1.562-1.562-4.094,0-5.656l8-8
		c1.562-1.562,4.094-1.562,5.656,0s1.562,4.094,0,5.656l-8,8C62.047,315.609,61.023,316,60,316z"/>
	<path style="fill:#116FFF;" d="M76,332c-1.023,0-2.047-0.391-2.828-1.172l-8-8c-1.562-1.562-1.562-4.094,0-5.656
		c1.562-1.562,4.094-1.562,5.656,0l8,8c1.562,1.562,1.562,4.094,0,5.656C78.047,331.609,77.023,332,76,332z"/>
	<path style="fill:#116FFF;" d="M60,332c-1.023,0-2.047-0.391-2.828-1.172c-1.562-1.562-1.562-4.094,0-5.656l8-8
		c1.562-1.562,4.094-1.562,5.656,0s1.562,4.094,0,5.656l-8,8C62.047,331.609,61.023,332,60,332z"/>
	<path style="fill:#116FFF;" d="M132,356c-2.211,0-4-1.789-4-4v-48c0-2.211,1.789-4,4-4s4,1.789,4,4v48
		C136,354.211,134.211,356,132,356z"/>
	<path style="fill:#116FFF;" d="M140,316c-1.023,0-2.047-0.391-2.828-1.172l-8-8c-1.562-1.562-1.562-4.094,0-5.656
		s4.094-1.562,5.656,0l8,8c1.562,1.562,1.562,4.094,0,5.656C142.047,315.609,141.023,316,140,316z"/>
	<path style="fill:#116FFF;" d="M124,316c-1.023,0-2.047-0.391-2.828-1.172c-1.562-1.562-1.562-4.094,0-5.656l8-8
		c1.562-1.562,4.094-1.562,5.656,0s1.562,4.094,0,5.656l-8,8C126.047,315.609,125.023,316,124,316z"/>
	<path style="fill:#116FFF;" d="M140,332c-1.023,0-2.047-0.391-2.828-1.172l-8-8c-1.562-1.562-1.562-4.094,0-5.656
		s4.094-1.562,5.656,0l8,8c1.562,1.562,1.562,4.094,0,5.656C142.047,331.609,141.023,332,140,332z"/>
	<path style="fill:#116FFF;" d="M124,332c-1.023,0-2.047-0.391-2.828-1.172c-1.562-1.562-1.562-4.094,0-5.656l8-8
		c1.562-1.562,4.094-1.562,5.656,0s1.562,4.094,0,5.656l-8,8C126.047,331.609,125.023,332,124,332z"/>
	<path style="fill:#116FFF;" d="M100,356c-2.211,0-4-1.789-4-4v-64c0-2.211,1.789-4,4-4s4,1.789,4,4v64
		C104,354.211,102.211,356,100,356z"/>
	<path style="fill:#116FFF;" d="M108,300c-1.023,0-2.047-0.391-2.828-1.172l-8-8c-1.562-1.562-1.562-4.094,0-5.656
		s4.094-1.562,5.656,0l8,8c1.562,1.562,1.562,4.094,0,5.656C110.047,299.609,109.023,300,108,300z"/>
	<path style="fill:#116FFF;" d="M92,300c-1.023,0-2.047-0.391-2.828-1.172c-1.562-1.562-1.562-4.094,0-5.656l8-8
		c1.562-1.562,4.094-1.562,5.656,0s1.562,4.094,0,5.656l-8,8C94.047,299.609,93.023,300,92,300z"/>
	<path style="fill:#116FFF;" d="M108,316c-1.023,0-2.047-0.391-2.828-1.172l-8-8c-1.562-1.562-1.562-4.094,0-5.656
		s4.094-1.562,5.656,0l8,8c1.562,1.562,1.562,4.094,0,5.656C110.047,315.609,109.023,316,108,316z"/>
	<path style="fill:#116FFF;" d="M92,316c-1.023,0-2.047-0.391-2.828-1.172c-1.562-1.562-1.562-4.094,0-5.656l8-8
		c1.562-1.562,4.094-1.562,5.656,0s1.562,4.094,0,5.656l-8,8C94.047,315.609,93.023,316,92,316z"/>
	<path style="fill:#116FFF;" d="M108,332c-1.023,0-2.047-0.391-2.828-1.172l-8-8c-1.562-1.562-1.562-4.094,0-5.656
		s4.094-1.562,5.656,0l8,8c1.562,1.562,1.562,4.094,0,5.656C110.047,331.609,109.023,332,108,332z"/>
	<path style="fill:#116FFF;" d="M92,332c-1.023,0-2.047-0.391-2.828-1.172c-1.562-1.562-1.562-4.094,0-5.656l8-8
		c1.562-1.562,4.094-1.562,5.656,0s1.562,4.094,0,5.656l-8,8C94.047,331.609,93.023,332,92,332z"/>
	<path style="fill:#116FFF;" d="M340,156c-2.211,0-4-1.789-4-4s1.789-4,4-4c2.203,0,4-1.793,4-4s-1.797-4-4-4c-2.211,0-4-1.789-4-4
		s1.789-4,4-4c6.617,0,12,5.383,12,12S346.617,156,340,156z"/>
	<path style="fill:#116FFF;" d="M340,155.992h-48c-2.211,0-4-1.789-4-4s1.789-4,4-4h48c2.211,0,4,1.789,4,4
		S342.211,155.992,340,155.992z"/>
	<path style="fill:#116FFF;" d="M340,140h-32c-2.211,0-4-1.789-4-4s1.789-4,4-4h32c2.211,0,4,1.789,4,4S342.211,140,340,140z"/>
	<path style="fill:#116FFF;" d="M292,156c-11.031,0-20-8.973-20-20s8.969-20,20-20s20,8.973,20,20c0,2.211-1.789,4-4,4s-4-1.789-4-4
		c0-6.617-5.383-12-12-12s-12,5.383-12,12s5.383,12,12,12c2.211,0,4,1.789,4,4S294.211,156,292,156z"/>
	<path style="fill:#116FFF;" d="M36,428c-6.617,0-12-5.383-12-12s5.383-12,12-12c2.211,0,4,1.789,4,4s-1.789,4-4,4
		c-2.207,0-4,1.797-4,4s1.793,4,4,4c2.211,0,4,1.789,4,4S38.211,428,36,428z"/>
	<path style="fill:#116FFF;" d="M140,428c-2.211,0-4-1.789-4-4s1.789-4,4-4c2.207,0,4-1.797,4-4s-1.793-4-4-4c-2.211,0-4-1.789-4-4
		s1.789-4,4-4c6.617,0,12,5.383,12,12S146.617,428,140,428z"/>
	<path style="fill:#116FFF;" d="M140,412H36c-2.211,0-4-1.789-4-4s1.789-4,4-4h104c2.211,0,4,1.789,4,4S142.211,412,140,412z"/>
	<path style="fill:#116FFF;" d="M140,428H36c-2.211,0-4-1.789-4-4s1.789-4,4-4h104c2.211,0,4,1.789,4,4S142.211,428,140,428z"/>
	<path style="fill:#116FFF;" d="M398.344,425.656c-1.023,0-2.047-0.391-2.828-1.172c-1.562-1.562-1.562-4.094,0-5.656l11.312-11.312
		c1.562-1.562,4.094-1.562,5.656,0s1.562,4.094,0,5.656l-11.312,11.312C400.391,425.266,399.367,425.656,398.344,425.656z"/>
	<path style="fill:#116FFF;" d="M409.656,425.656c-1.023,0-2.047-0.391-2.828-1.172l-11.312-11.312
		c-1.562-1.562-1.562-4.094,0-5.656s4.094-1.562,5.656,0l11.312,11.312c1.562,1.562,1.562,4.094,0,5.656
		C411.703,425.266,410.68,425.656,409.656,425.656z"/>
	<path style="fill:#116FFF;" d="M374.344,425.656c-1.023,0-2.047-0.391-2.828-1.172c-1.562-1.562-1.562-4.094,0-5.656l11.312-11.312
		c1.562-1.562,4.094-1.562,5.656,0s1.562,4.094,0,5.656l-11.312,11.312C376.391,425.266,375.367,425.656,374.344,425.656z"/>
	<path style="fill:#116FFF;" d="M385.656,425.656c-1.023,0-2.047-0.391-2.828-1.172l-11.312-11.312
		c-1.562-1.562-1.562-4.094,0-5.656s4.094-1.562,5.656,0l11.312,11.312c1.562,1.562,1.562,4.094,0,5.656
		C387.703,425.266,386.68,425.656,385.656,425.656z"/>
	<path style="fill:#116FFF;" d="M422.344,425.656c-1.023,0-2.047-0.391-2.828-1.172c-1.562-1.562-1.562-4.094,0-5.656l11.312-11.312
		c1.562-1.562,4.094-1.562,5.656,0s1.562,4.094,0,5.656l-11.312,11.312C424.391,425.266,423.367,425.656,422.344,425.656z"/>
	<path style="fill:#116FFF;" d="M433.656,425.656c-1.023,0-2.047-0.391-2.828-1.172l-11.312-11.312
		c-1.562-1.562-1.562-4.094,0-5.656s4.094-1.562,5.656,0l11.312,11.312c1.562,1.562,1.562,4.094,0,5.656
		C435.703,425.266,434.68,425.656,433.656,425.656z"/>
	<path style="fill:#116FFF;" d="M446.344,425.656c-1.023,0-2.047-0.391-2.828-1.172c-1.562-1.562-1.562-4.094,0-5.656l11.312-11.312
		c1.562-1.562,4.094-1.562,5.656,0s1.562,4.094,0,5.656l-11.312,11.312C448.391,425.266,447.367,425.656,446.344,425.656z"/>
	<path style="fill:#116FFF;" d="M457.656,425.656c-1.023,0-2.047-0.391-2.828-1.172l-11.312-11.312
		c-1.562-1.562-1.562-4.094,0-5.656s4.094-1.562,5.656,0l11.312,11.312c1.562,1.562,1.562,4.094,0,5.656
		C459.703,425.266,458.68,425.656,457.656,425.656z"/>
	<path style="fill:#116FFF;" d="M470.344,425.656c-1.023,0-2.047-0.391-2.828-1.172c-1.562-1.562-1.562-4.094,0-5.656l11.312-11.312
		c1.562-1.562,4.094-1.562,5.656,0s1.562,4.094,0,5.656l-11.312,11.312C472.391,425.266,471.367,425.656,470.344,425.656z"/>
	<path style="fill:#116FFF;" d="M481.656,425.656c-1.023,0-2.047-0.391-2.828-1.172l-11.312-11.312
		c-1.562-1.562-1.562-4.094,0-5.656s4.094-1.562,5.656,0l11.312,11.312c1.562,1.562,1.562,4.094,0,5.656
		C483.703,425.266,482.68,425.656,481.656,425.656z"/>
</g>
<g>
</g>
<g>
</g>
<g>
</g>
<g>
</g>
<g>
</g>
<g>
</g>
<g>
</g>
<g>
</g>
<g>
</g>
<g>
</g>
<g>
</g>
<g>
</g>
<g>
</g>
<g>
</g>
<g>
</g>
</svg>
