<svg height="512" viewBox="0 0 53 60" width="512" xmlns="http://www.w3.org/2000/svg"><g id="Page-1" fill="none" fill-rule="evenodd"><g id="052---Water" fill-rule="nonzero"><g id="Icons" transform="translate(0 1)"><path id="Shape" d="m24 24h26c1.1045695 0 2 .8954305 2 2v27c0 2.7614237-2.2385763 5-5 5h-20c-2.7614237 0-5-2.2385763-5-5v-27c0-1.1045695.8954305-2 2-2z" fill="#e8edfc"/><path id="Shape" d="m50 24h-3c1.1045695 0 2 .8954305 2 2v27c0 2.7614237-2.2385763 5-5 5h3c2.7614237 0 5-2.2385763 5-5v-27c0-1.1045695-.8954305-2-2-2z" fill="#cad9fc"/><path id="Shape" d="m45.5 24c1.6183569-1.9581128 2.5025368-4.4196697 2.5-6.96 0-7.8-7.75-14.82-10.24-16.78-.4442304-.34495479-1.0657696-.34495479-1.51 0-2.76 2.16-12.06 10.54-9.94 19.45.385894 1.573134 1.1206962 3.0393208 2.15 4.29z" fill="#a4c2f7"/><path id="Shape" d="m37.76.26c-.4442304-.34495479-1.0657696-.34495479-1.51 0-.212.166-.467.373-.749.61 3.006 2.547 9.499 9.03 9.499 16.17.0025368 2.5403303-.8816431 5.0018872-2.5 6.96h3c1.6183569-1.9581128 2.5025368-4.4196697 2.5-6.96 0-7.8-7.75-14.82-10.24-16.78z" fill="#7facfa"/><path id="Shape" d="m.5192787 37.2309091h22c3.3137085 0 6 2.6862915 6 6v1c0 .5522847-.4477153 1-1 1h-32c-.55228475 0-1-.4477153-1-1v-1c0-3.3137085 2.6862915-6 6-6z" fill="#e8edfc" transform="matrix(.423 -.906 .906 .423 -30.717 34.246)"/><g fill="#428dff"><path id="Shape" d="m30.3 20.211c-.4408484-.0001451-.8295948-.288963-.957-.711-.917-3.037-.038-6.592 2.542-10.28.3186123-.44655704.9374952-.55307384 1.3870672-.23873005s.5619796.93218396.2519328 1.38473005c-1.545 2.209-3.192 5.488-2.266 8.556.0914766.3030212.0340897.63146-.1547215.8855076-.1888111.2540476-.4867508.4037048-.8032785.4034924z"/><path id="Shape" d="m35.453 7.431c-.3999072.00009545-.7614172-.23807283-.9191584-.60555544s-.0813777-.7936073.1941584-1.08344456c.353-.371.692-.714 1.013-1.027.2554449-.25008593.624905-.34489662.9692082-.24871781s.6111417.36873528.7.71500001c.0888583.34626474-.0137633.71363189-.2692082.9637178-.3.3-.627.623-.961.974-.1891436.19951137-.4520819.31235424-.727.312z"/></g></g><g id="Icons_copy_2" fill="#fff" transform="translate(2 1)"><path id="Shape" d="m29.46 24c-5.944-7.3-.278-16.964 7.04-23.13h.006c-.247-.206-.5-.409-.747-.606-.4442304-.34495479-1.0657696-.34495479-1.51 0-.527.413-.7.578-.749.61-7.318 6.162-12.984 15.826-7.04 23.126z"/><path id="Shape" d="m4.245 49.51 9.3-19.939c.7549017-1.6228033 2.1962428-2.8227592 3.929-3.271-2.7966919-.719343-5.7090793.6555425-6.931 3.272l-9.298 19.938c-1.40034106 3.0025192-.10210541 6.571772 2.9 7.973l.906.423c.24041398.1120881.51551195.1240643.7647573.0332933.24924534-.0907711.45221434-.2768515.5642427-.5172933l.133-.285c-2.5755082-1.6033304-3.54895059-4.8768952-2.268-7.627z"/></g><g id="Icons_copy"><path id="Shape" d="m26.125 12.5 1.861.732c-.9508525 2.2910953-1.194635 4.8142441-.7 7.245l-1.946.462c-.5892719-2.8281427-.3157985-5.7680685.785-8.439z" fill="#fff"/><g fill="#428dff"><path id="Shape" d="m50 24h-2.6c1.0456383-1.8124463 1.5973461-3.8675578 1.6-5.96 0-8.763-8.848-16.17-10.637-17.578-.8063432-.61729243-1.9276592-.61277265-2.729.011-2.0092299 1.60203746-3.8440297 3.41136323-5.474 5.398-1.6801445 1.98739796-3.0413731 4.2237263-4.035 6.629-.1013314.2528057-.094491.5361168.0189231.7837375s.3234659.4378579.5810769.5262625c.5077735.174964 1.0634962-.0793573 1.263-.578.917787-2.2118115 2.1730368-4.26791139 3.721-6.095 1.5368279-1.87310966 3.265962-3.57978748 5.159-5.092h.007c.0794581-.06050997.1895419-.06050997.269 0 1.006.795 9.856 7.991 9.856 15.995-.0049742 2.1506136-.7066861 4.2417152-2 5.96h-16.033c-.7926764-1.0486826-1.3654541-2.2466178-1.684-3.522-.0828856-.3476194-.3449278-.6246141-.6874179-.7266428-.3424901-.1020286-.7133956-.0135907-.973.232-.2596045.2455908-.3684677.6110234-.2855821.9586428.2671203 1.073621.6867186 2.1034217 1.246 3.058h-2.583c-1.5740836.0069931-2.8750756 1.2294017-2.98 2.8l-.082-.038c-3.5030945-1.6281091-7.6630533-.1139736-9.3 3.385l-1.029 2.207-3.546.371c-1.39623136.1487498-2.61338303 1.015923-3.21 2.287l-2.792 5.988c-.59039468 1.2738463-.47285995 2.7635042.31 3.929l2 2.955-1.032 2.203c-1.6322782 3.5029141-.1170513 7.6658714 3.385 9.3l.906.422c.48068831.2246238 1.03093386.2490363 1.52962593.0678642.49869208-.181172.9049568-.5530794 1.12937407-1.0338642l11.711-25.112v20.269c.0033074 3.3123376 2.6876624 5.9966926 6 6h20c3.3123376-.0033074 5.9966926-2.6876624 6-6v-27c0-1.6568542-1.3431458-3-3-3zm-46.972 19.807c-.39057454-.5828599-.44930949-1.3270886-.155-1.964l2.791-5.985c.29895415-.635082.90713605-1.0685773 1.605-1.144l2.353-.246-5.269 11.3zm4.448 14.193-.906-.423c-2.50255269-1.1668167-3.58553125-4.1413142-2.419-6.644l9.3-19.939c1.1668167-2.5025527 4.1413142-3.5855312 6.644-2.419l.905.425zm43.524-4c0 2.209139-1.790861 4-4 4h-20c-2.209139 0-4-1.790861-4-4v-27c0-.5522847.4477153-1 1-1h26c.5522847 0 1 .4477153 1 1z"/><path id="Shape" d="m28 28c-.5522847 0-1 .4477153-1 1v25c0 .5522847.4477153 1 1 1s1-.4477153 1-1v-25c0-.5522847-.4477153-1-1-1z"/><path id="Shape" d="m34 28c-.5522847 0-1 .4477153-1 1v25c0 .5522847.4477153 1 1 1s1-.4477153 1-1v-25c0-.5522847-.4477153-1-1-1z"/><path id="Shape" d="m40 28c-.5522847 0-1 .4477153-1 1v25c0 .5522847.4477153 1 1 1s1-.4477153 1-1v-25c0-.5522847-.4477153-1-1-1z"/><path id="Shape" d="m46 28c-.5522847 0-1 .4477153-1 1v25c0 .5522847.4477153 1 1 1s1-.4477153 1-1v-25c0-.5522847-.4477153-1-1-1z"/><path id="Shape" d="m26.113 17.729c-.5522847.0027614-1.0022386-.4427153-1.005-.995s.4427153-1.0022386.995-1.005h.01c.5522847 0 1 .4477153 1 1s-.4477153 1-1 1z"/></g></g></g></g></svg>