<svg height="512" viewBox="0 0 42 60" width="512" xmlns="http://www.w3.org/2000/svg"><g id="Page-1" fill="none" fill-rule="evenodd"><g id="013---Water" fill-rule="nonzero" transform="translate(0 -1)"><g id="Icons" transform="translate(1 2)"><path id="Shape" d="m39.91 36.43c-1.79.82-2.45 2.57-5.25 2.57-3.67 0-3.67-3-7.33-3s-3.67 3-7.34 3-3.66-3-7.33-3-3.66 3-7.33 3c-2.81 0-3.47-1.76-5.27-2.58.0701837-1.0821582.23413188-2.1561861.49-3.21.97-4.05 3.24-7.08 5.9-10.19 2.75-3.21 5.68-6.33 7.85-9.99 2.2869314-3.96844115 4.0292433-8.22667851 5.18-12.66.0560337-.2189366.2540119-.37154476.48-.37h.04c.2259881-.00154476.4239663.1510634.48.37 1.1507567 4.43332149 2.8930686 8.69155885 5.18 12.66 2.17 3.66 5.1 6.78 7.85 9.99 2.66 3.11 4.93 6.14 5.9 10.19.2542715 1.0578877.4214968 2.134819.5 3.22z" fill="#e8edfc"/><path id="Shape" d="m39.41 33.21c-.97-4.05-3.24-7.08-5.9-10.19-2.75-3.21-5.68-6.33-7.85-9.99-2.2869314-3.96844115-4.0292433-8.22667851-5.18-12.66-.0560337-.2189366-.2540119-.37154476-.48-.37h-.04c-.2259881-.00154476-.4239663.1510634-.48.37-.3046667 1.11866667-.638 2.22566667-1 3.321 1.055861 3.25332782 2.4571889 6.3841893 4.18 9.339 2.17 3.66 5.1 6.78 7.85 9.99 2.66 3.11 4.93 6.14 5.9 10.19.2542715 1.0578877.4214968 2.134819.5 3.22-1.418.649-2.142 1.869-3.767 2.354.4919295.147867 1.0033491.2206861 1.517.216 2.8 0 3.46-1.75 5.25-2.57-.0785032-1.085181-.2457285-2.1621123-.5-3.22z" fill="#cad9fc"/><path id="Shape" d="m38.48 45.38h-.01c-1.0002824 1.0306618-2.3737549 1.614658-3.81 1.62-3.67 0-3.67-3-7.33-3s-3.67 3-7.34 3-3.66-3-7.33-3-3.66 3-7.33 3c-1.45800852-.0095278-2.85020367-.6082439-3.86-1.66-1.15436201-2.8240404-1.63704328-5.8775985-1.41-8.92 1.8.82 2.46 2.58 5.27 2.58 3.67 0 3.67-3 7.33-3s3.67 3 7.33 3 3.67-3 7.34-3 3.66 3 7.33 3c2.8 0 3.46-1.75 5.25-2.57.2153327 3.0534913-.2739248 6.1156275-1.43 8.95z" fill="#a4c2f7"/><path id="Shape" d="m39.91 36.43c-1.164.533-1.858 1.453-2.966 2.036-.0737084 2.3732989-.5694465 4.7145103-1.464 6.914h-.01c-.6640743.62539-1.4515979 1.1049891-2.312 1.408.4867342.1445969.9922578.2160443 1.5.212 1.4362451-.005342 2.8097176-.5893382 3.81-1.62h.01c1.1567572-2.8342126 1.6466999-5.8963543 1.432-8.95z" fill="#7facfa"/><path id="Shape" d="m38.47 45.38c-1.4922971 3.7093374-4.0542771 6.8909266-7.36 9.14-3.2700631 2.2488992-7.1413078 3.4614943-11.11 3.48h-.04c-3.9686922-.0185057-7.8399369-1.2311008-11.11-3.48-3.31862202-2.257516-5.88822049-5.4538459-7.38-9.18 1.00979633 1.0517561 2.40199148 1.6504722 3.86 1.66 3.67 0 3.67-3 7.33-3s3.67 3 7.33 3 3.67-3 7.34-3 3.66 3 7.33 3c1.4362451-.005342 2.8097176-.5893382 3.81-1.62z" fill="#a4c2f7"/><path id="Shape" d="m34.727 47c-1.5385383 3.0229915-3.8143254 5.6093477-6.617 7.52-2.8569442 1.9603747-6.1766411 3.1400219-9.63 3.422.492.038.9853333.0573333 1.48.058h.04c3.9686922-.0185057 7.8399369-1.2311008 11.11-3.48 3.3057229-2.2490734 5.8677029-5.4306626 7.36-9.14-.9854441 1.0121359-2.3306047 1.5943321-3.743 1.62z" fill="#7facfa"/><g fill="#428dff"><path id="Shape" d="m4.441 35.14c-.07883948.000065-.15740164-.0093356-.234-.028-.53665807-.1289064-.86740887-.6682227-.739-1.205.781-3.254 2.521-5.741 5.263-8.938.471-.551.943-1.094 1.426-1.647l.113-.13c1.163-1.344 2.365-2.734 3.522-4.167.2219636-.2854704.580752-.4288711.9383308-.3750325s.6582358.2965283.786301.6347005c.1280653.3381723.0635857.7191385-.1686318.996332-1.178 1.46-2.392 2.863-3.566 4.219l-.115.134c-.481.551-.949 1.088-1.416 1.636-2.545 2.966-4.151 5.242-4.839 8.1-.10645784.4504561-.50813611.7689858-.971.77z"/><path id="Shape" d="m17.115 17.074c-.3655265-.000243-.7017973-.1999019-.876991-.5207085s-.1613934-.7116406.035991-1.0192915c.208-.324.4096667-.6513333.605-.982.1740262-.3224722.5104878-.5239365.8769194-.5250761.3664316-.0011397.7041398.1982279.8801685.5196114.1760286.3213834.1621822.713305-.0360879 1.0214647-.208.354-.4226667.703-.644 1.047-.184023.2860767-.5008466.4589923-.841.459z"/></g></g><g id="Icons_copy_2" fill="#fff" transform="translate(1 1)"><path id="Shape" d="m19.48 1.37c-.3046667 1.11866667-.638 2.22566667-1 3.321-3.306 9.967-7.18 13.663-12.03 19.329-3.55 4.151-6.025 7.822-6.39 13.4-.49578554 7.1668955 2.85084582 14.0581387 8.79 18.1 3.6675285 2.5446301 8.0988254 3.7500841 12.55 3.414-3.4280061-.2791307-6.7219298-1.4566653-9.55-3.414-5.93915418-4.0418613-9.28578554-10.9331045-8.79-18.1.365-5.578 2.84-9.249 6.39-13.4 4.854-5.666 8.724-9.362 12.03-19.329-.342-1.044-.678-2.133-1-3.318-.0655579-.22102365-.2683436-.37286755-.4988838-.37355917-.2305403-.00069162-.4342334.14993284-.5011162.37055917z"/></g><g id="Icons_copy"><path id="Shape" d="m4.207 27.471 1.617 1.177c-1.54475364 2.0206538-2.66703569 4.3315346-3.3 6.795l-1.945-.466c.69473516-2.7196159 1.92844962-5.2720582 3.628-7.506z" fill="#fff"/><g fill="#428dff"><path id="Shape" d="m2.935 32.452c-.35726559.0017863-.6883456-.187162-.8685254-.4956699s-.18208579-.6897057-.005-1c.17708579-.3102942.50625981-.5025438.8635254-.5043301h.01c.55228475 0 1 .4477153 1 1s-.44771525 1-1 1z"/><path id="Shape" d="m40.446 47.611c1.1541034-2.9031924 1.6506684-6.0260195 1.454-9.144.0014761-.0460854-.0005296-.0922166-.006-.138-.0778061-1.1294268-.2483812-2.25054-.51-3.352-1.063-4.435-3.6-7.672-6.114-10.607-.478-.559-.962-1.115-1.446-1.671-2.3408006-2.5317222-4.449285-5.2687357-6.3-8.178-2.2455037-3.8925255-3.9546385-8.07067223-5.081-12.421-.188025-.65362061-.7866375-1.10334815-1.4667635-1.10195492-.680126.00139322-1.2768909.45356947-1.4622365 1.10795492-1.12525 4.34754748-2.8323362 8.5232654-5.075 12.414-1.4297727 2.306351-3.055798 4.4850911-4.86 6.512-1.78 2.094-3.682 4.132-5.371 6.439-.16142538.2155981-.22773295.4877998-.18354662.7534843s.19502813.5017719.41754662.6535157c.44816591.3062522 1.05807829.2048206 1.383-.23 3.2-4.314 7.41-8.16 10.335-13.108 2.061196-3.5500311 3.6795908-7.33927126 4.819-11.283 1.1402609 3.94374355 2.7593178 7.7329614 4.821 11.283 1.9105781 3.0152389 4.090853 5.8508681 6.514 8.472.4806667.552.9593333 1.1046667 1.436 1.658 2.352 2.75 4.729 5.769 5.688 9.773.1867922.8026507.3204159 1.6167526.4 2.437-.4021815.2582884-.7873119.5422093-1.153.85-.7991433.8138619-1.8918856 1.2723426-3.0325 1.2723426s-2.2333567-.4584807-3.0325-1.2723426c-2.404112-2.3030328-6.195888-2.3030328-8.6 0-.7985269.8142491-1.891041 1.2730345-3.0315 1.2730345s-2.2329731-.4587854-3.0315-1.2730345c-2.4036995-2.3040594-6.1963005-2.3040594-8.6 0-.80042309.8148949-1.89475186 1.2739345-3.037 1.2739345s-2.23657691-.4590396-3.037-1.2739345c-.37136722-.3140494-.76323404-.603022-1.173-.865.08015167-.8142313.21377343-1.622309.4-2.419.12868235-.5370969-.20240308-1.0768177-.7395-1.2055s-1.07681765.2024031-1.2055.7395c-.26539173 1.1170318-.4366583 2.2543489-.512 3.4v.029c-.20783098 3.1786644.3049252 6.3632221 1.5 9.316.0141854.0390407.0308871.0771205.05.114 1.56990886 3.8537759 4.23865854 7.1606747 7.674 9.509 3.4420329 2.3556242 7.510154 3.6274998 11.681 3.652h.021.021c4.1678782-.0265879 8.2326179-1.2987344 11.672-3.653 3.4115945-2.3328622 6.0679232-5.6109588 7.643-9.432zm-34.116-5.611c1.60325305.0037682 3.14518154-.6158719 4.3-1.728.7983909-.8145017 1.8909558-1.2734629 3.0315-1.2734629s2.2331091.4589612 3.0315 1.2734629c2.404112 2.3030328 6.195888 2.3030328 8.6 0 .7985269-.8142491 1.891041-1.2730345 3.0315-1.2730345s2.2329731.4587854 3.0315 1.2730345c2.3944851 2.2942512 6.1681797 2.3052519 8.576.025-.0559532 2.2172346-.4957967 4.4079933-1.3 6.475-.7841461.7939423-1.8561368 1.2368779-2.972 1.228-1.143569.0055426-2.2400947-.4548032-3.037-1.275-2.404112-2.3030328-6.195888-2.3030328-8.6 0-.7985269.8142491-1.891041 1.2730345-3.0315 1.2730345s-2.2329731-.4587854-3.0315-1.2730345c-2.4036995-2.3040594-6.1963005-2.3040594-8.6 0-.79662278.8133469-1.88650545 1.2727085-3.02498512 1.2749648-1.13847968.0022563-2.23017453-.4527818-3.03001488-1.2629648-.79811791-2.0640667-1.23319792-4.2506313-1.286-6.463 1.15833766 1.1133293 2.70438605 1.7323225 4.311 1.726zm-1.472 7.836c.4825912.1118892.97661643.1669301 1.472.164 1.60325305.0037682 3.14518154-.6158719 4.3-1.728.7983909-.8145017 1.8909558-1.2734629 3.0315-1.2734629s2.2331091.4589612 3.0315 1.2734629c2.404112 2.3030328 6.195888 2.3030328 8.6 0 .7985269-.8142491 1.891041-1.2730345 3.0315-1.2730345s2.2329731.4587854 3.0315 1.2730345c1.1558136 1.113092 2.6993643 1.7328075 4.304 1.728.4818265.0026522.9624515-.0483283 1.433-.152-1.4130855 2.3222817-3.3043298 4.3171558-5.548 5.852-3.1073489 2.1267913-6.779594 3.2760003-10.545 3.3-.007 0-.013 0-.021 0s-.013 0-.021 0c-3.7668019-.0257865-7.4398278-1.1774597-10.547-3.307-2.24638783-1.5352984-4.13949718-3.5320464-5.553-5.857z"/></g></g></g></g></svg>