<svg id="Capa_1" enable-background="new 0 0 513.509 513.509" height="512" viewBox="0 0 513.509 513.509" width="512" xmlns="http://www.w3.org/2000/svg"><g><path d="m445.809 253.672c4.143 0 7.5-3.358 7.5-7.5v-25.975c.119-.222.232-.448.337-.68l12.721-28.217c1.527-3.387 1.235-7.271-.78-10.392-2.017-3.121-5.438-4.984-9.153-4.984h-5.221v-21.674c0-9.741-7.926-17.667-17.667-17.667h-1.506v-21.673c0-9.741-7.925-17.667-17.666-17.667h-6.468v-38.865c0-11.092-9.024-20.116-20.116-20.116h-37.643v-14.154c0-7.994-6.503-14.497-14.497-14.497h-38.96l-5.477-5.477c-2.666-2.666-6.21-4.134-9.979-4.134h-48.959c-3.77 0-7.313 1.468-9.979 4.134l-5.477 5.477h-38.96c-7.994 0-14.497 6.503-14.497 14.497v14.154h-37.643c-11.092 0-20.116 9.024-20.116 20.116v38.865h-6.468c-9.741 0-17.666 7.925-17.666 17.667v21.674h-1.506c-9.741 0-17.667 7.925-17.667 17.667v21.674h-5.221c-3.715 0-7.137 1.863-9.153 4.984s-2.308 7.005-.78 10.392l12.72 28.215c.59 1.311 1.427 2.461 2.435 3.417v111.003 31.674 22.252c0 4.142 3.357 7.5 7.5 7.5s7.5-3.358 7.5-7.5v-14.752h86.065v125.399h-86.066v-78.685c0-4.142-3.357-7.5-7.5-7.5s-7.5 3.358-7.5 7.5v78.685h-5.806c-4.143 0-7.5 3.358-7.5 7.5s3.357 7.5 7.5 7.5h402.343c4.143 0 7.5-3.358 7.5-7.5s-3.357-7.5-7.5-7.5h-5.524v-132.9-31.674-55.8c0-4.142-3.357-7.5-7.5-7.5s-7.5 3.358-7.5 7.5v48.3h-88.162v-100.5h88.162v20.236c0 4.143 3.358 7.501 7.5 7.501zm-373.361-42.736-9.021-20.011h386.656l-8.814 19.551c-.19.145-.373.299-.548.461h-368.273zm4.848 115.5v-100.5h86.065v100.5zm101.066-301.825h41.563c1.989 0 3.896-.79 5.304-2.197l7.414-7.414h48.223l7.414 7.414c1.407 1.407 3.314 2.197 5.304 2.197h41.563v13.651h-156.785zm-57.759 33.767c0-2.821 2.295-5.116 5.116-5.116h262.07c2.821 0 5.116 2.295 5.116 5.116v38.865h-67.109v-15.844c0-7.525-6.122-13.646-13.646-13.646h-110.791c-7.524 0-13.646 6.122-13.646 13.646v15.844h-67.109v-38.865zm82.109 38.865v-14.491h108.084v14.491zm-106.243 17.667c0-1.47 1.196-2.667 2.666-2.667h315.238c1.47 0 2.666 1.196 2.666 2.667v21.674h-320.57zm-19.173 39.34c0-1.47 1.196-2.667 2.667-2.667h353.582c1.471 0 2.667 1.196 2.667 2.667v21.674h-358.916zm0 187.186h116.065v16.674h-116.065zm101.066 31.673h15v125.399h-15zm141.785 0h15v125.399h-15zm30 125.4v-125.4h88.162v125.399h-88.162zm88.162-140.4h-118.162v-16.674h118.162zm-103.162-31.673h-15v-8.389c0-11.783-3.266-23.294-9.445-33.29-2.177-3.523-6.799-4.613-10.322-2.436-3.523 2.178-4.614 6.8-2.436 10.323 4.712 7.623 7.203 16.407 7.203 25.402v15.889 164.573h-96.785v-164.572-15.889c0-26.684 21.709-48.393 48.393-48.393 6.888 0 13.558 1.43 19.824 4.25 3.779 1.7 8.217.016 9.918-3.762 1.699-3.777.016-8.217-3.762-9.917-8.216-3.697-16.957-5.571-25.98-5.571-34.955 0-63.393 28.438-63.393 63.393v8.389h-15v-100.5h156.785z"/><path d="m120.928 243.71c-16.839 0-30.539 13.699-30.539 30.538s13.7 30.539 30.539 30.539 30.538-13.7 30.538-30.539-13.699-30.538-30.538-30.538zm0 46.077c-8.568 0-15.539-6.971-15.539-15.539s6.971-15.538 15.539-15.538c8.567 0 15.538 6.97 15.538 15.538s-6.97 15.539-15.538 15.539z"/><path d="m362.042 274.249c0 16.839 13.7 30.539 30.539 30.539s30.538-13.7 30.538-30.539-13.699-30.538-30.538-30.538-30.539 13.699-30.539 30.538zm46.078 0c0 8.568-6.971 15.539-15.538 15.539-8.568 0-15.539-6.971-15.539-15.539s6.971-15.538 15.539-15.538c8.567-.001 15.538 6.97 15.538 15.538z"/></g></svg>