<svg height="480pt" viewBox="0 0 480 480.00115" width="480pt" xmlns="http://www.w3.org/2000/svg"><path d="m280 232c0 22.089844-17.90625 40-40 40-22.089844 0-40-17.910156-40-40s17.910156-40 40-40c22.09375 0 40 17.910156 40 40zm0 0" fill="#9bc9ff"/><path d="m416 264c0 22.089844-17.90625 40-40 40-22.089844 0-40-17.910156-40-40s17.910156-40 40-40c22.09375 0 40 17.910156 40 40zm0 0" fill="#9bc9ff"/><path d="m144 264c0 22.089844-17.90625 40-40 40-22.089844 0-40-17.910156-40-40s17.910156-40 40-40c22.09375 0 40 17.910156 40 40zm0 0" fill="#9bc9ff"/><path d="m208 296h64c35.347656 0 64 28.652344 64 64v80c0 17.671875-14.328125 32-32 32h-128c-17.671875 0-32-14.328125-32-32v-80c0-35.347656 28.65625-64 64-64zm0 0" fill="#9bc9ff"/><path d="m344 328h64c35.347656 0 64 28.652344 64 64v32c0 26.507812-21.488281 48-48 48h-144v-80c0-35.347656 28.65625-64 64-64zm0 0" fill="#9bc9ff"/><path d="m200 472h-144c-26.507812 0-48-21.492188-48-48v-32c0-35.347656 28.65625-64 64-64h64c35.347656 0 64 28.652344 64 64zm0 0" fill="#9bc9ff"/><g fill="#1e81ce"><path d="m432 264v-16c4.417969 0 8-3.582031 8-8v-48c0-4.417969-3.582031-8-8-8h-43.199219l-1.550781-6.007812c-3.535156-13.746094-9.03125-26.910157-16.320312-39.089844l-3.199219-5.351563 30.671875-30.726562c3.085937-3.09375 3.085937-8.105469 0-11.199219l-33.976563-34.023438c-3.136719-2.992187-8.066406-2.992187-11.203125 0l-30.726562 30.726563-5.351563-3.199219c-12.195312-7.292968-25.375-12.789062-39.136719-16.328125l-6.007812-1.5625v-43.238281c0-4.417969-3.582031-8-8-8h-48c-4.417969 0-8 3.582031-8 8v43.199219l-6.007812 1.554687c-13.746094 3.535156-26.910157 9.027344-39.09375 16.308594l-5.355469 3.203125-30.71875-30.664063c-3.140625-3.015624-8.097657-3.015624-11.238281 0l-33.984376 33.972657c-1.496093 1.492187-2.335937 3.515625-2.335937 5.625 0 2.113281.839844 4.136719 2.335937 5.625l30.726563 30.726562-3.199219 5.351563c-7.289062 12.179687-12.785156 25.34375-16.320312 39.089844l-1.566406 6.007812h-43.242188c-4.417969 0-8 3.582031-8 8v48c0 4.417969 3.582031 8 8 8v16c-13.253906 0-24-10.746094-24-24v-48c0-13.253906 10.746094-24 24-24h30.953125c3.300781-11.0625 7.761719-21.742188 13.3125-31.863281l-22-22c-4.5-4.488281-7.027344-10.582031-7.027344-16.9375 0-6.351563 2.527344-12.445313 7.027344-16.933594l34-34c9.472656-9.066406 24.40625-9.066406 33.878906 0l21.992188 21.992187c10.121093-5.546874 20.804687-10 31.863281-13.296874v-30.960938c0-13.253906 10.746094-24 24-24h48c13.253906 0 24 10.746094 24 24v30.960938c11.0625 3.296874 21.742188 7.757812 31.863281 13.304687l22-22c9.476563-9.066406 24.40625-9.066406 33.882813 0l33.992187 33.992187c4.496094 4.488282 7.023438 10.578126 7.023438 16.933594 0 6.355469-2.527344 12.449219-7.023438 16.9375l-22 22c5.546875 10.125 10.007813 20.808594 13.308594 31.871094h30.953125c13.253906 0 24 10.746094 24 24v48c0 13.253906-10.746094 24-24 24zm0 0"/><path d="m352 216h-16c0-53.019531-42.980469-96-96-96s-96 42.980469-96 96h-16c0-61.855469 50.144531-112 112-112s112 50.144531 112 112zm0 0"/><path d="m240 280c-26.507812 0-48-21.492188-48-48s21.492188-48 48-48c26.511719 0 48 21.492188 48 48-.027344 26.5-21.5 47.972656-48 48zm0-80c-17.671875 0-32 14.328125-32 32s14.328125 32 32 32 32-14.328125 32-32-14.328125-32-32-32zm0 0"/><path d="m376 312c-26.507812 0-48-21.492188-48-48s21.492188-48 48-48c26.511719 0 48 21.492188 48 48-.027344 26.5-21.5 47.972656-48 48zm0-80c-17.671875 0-32 14.328125-32 32s14.328125 32 32 32 32-14.328125 32-32-14.328125-32-32-32zm0 0"/><path d="m104 312c-26.507812 0-48-21.492188-48-48s21.492188-48 48-48c26.511719 0 48 21.492188 48 48-.027344 26.5-21.5 47.972656-48 48zm0-80c-17.671875 0-32 14.328125-32 32s14.328125 32 32 32 32-14.328125 32-32-14.328125-32-32-32zm0 0"/><path d="m448.527344 332.527344c-11.921875-8.195313-26.058594-12.566406-40.527344-12.527344h-64c-3.890625.035156-7.773438.386719-11.609375 1.054688-5.117187-8.007813-11.777344-14.914063-19.589844-20.328126-1.171875-.886718-2.402343-1.6875-3.6875-2.398437-11.191406-6.777344-24.03125-10.347656-37.113281-10.328125h-64c-24.464844-.085938-47.261719 12.398438-60.367188 33.054688-3.84375-.667969-7.734374-1.019532-11.632812-1.054688h-64c-14.457031-.039062-28.585938 4.324219-40.503906 12.511719-19.691406 13.398437-31.4843752 35.671875-31.496094 59.488281v32c.0273438 21.84375 12.738281 41.683594 32.578125 50.832031 7.324219 3.449219 15.328125 5.214844 23.421875 5.167969h80v-16h-72v-88h-16v87.199219c-3.011719-.605469-5.9375-1.578125-8.710938-2.894531-14.171874-6.535157-23.257812-20.699219-23.289062-36.304688v-32c.019531-18.535156 9.203125-35.863281 24.527344-46.289062 9.261718-6.355469 20.238281-9.742188 31.472656-9.710938h64c1.410156 0 2.769531.152344 4.144531.246094-2.707031 7.628906-4.109375 15.660156-4.144531 23.753906v80c.027344 22.082031 17.921875 39.972656 40 40h24v-128h-16v112h-8c-13.253906 0-24-10.746094-24-24v-80c0-30.929688 25.074219-56 56-56h64c10.292969.007812 20.382812 2.855469 29.160156 8.230469.8125.445312 1.59375.945312 2.335938 1.496093 7.496094 5.132813 13.648437 11.992188 17.9375 20 4.308594 8.085938 6.566406 17.109376 6.566406 26.273438v80c0 13.253906-10.746094 24-24 24h-8v-112h-16v128h24c22.082031-.027344 39.972656-17.917969 40-40v-80c-.035156-8.09375-1.433594-16.121094-4.136719-23.753906 1.378907-.09375 2.738281-.246094 4.136719-.246094h64c11.242188-.03125 22.230469 3.363281 31.496094 9.726562 15.3125 10.429688 24.484375 27.746094 24.503906 46.273438v32c-.027344 15.660156-9.179688 29.867188-23.421875 36.367188-2.734375 1.292968-5.613281 2.242187-8.578125 2.832031v-87.199219h-16v88h-72v16h80c8.046875.050781 16.003906-1.691406 23.289062-5.105469 19.90625-9.121093 32.679688-28.996093 32.710938-50.894531v-32c-.011719-23.808594-11.792969-46.070312-31.472656-59.472656zm0 0"/><path d="m208 464h64v16h-64zm0 0"/></g></svg>