<svg height="512pt" viewBox="-64 0 512 512" width="512pt" xmlns="http://www.w3.org/2000/svg"><path d="m200 432-24 8-16-16v-25.601562c12 6.167968 25.601562 9.601562 40 9.601562s28-3.441406 40-9.601562v25.601562l-16 16zm0 0" fill="#94c1ff"/><path d="m176 440 24-8 24 8 16-16h32c26.558594 0 48 21.449219 48 48v32h-240v-32c0-26.550781 21.441406-48 48-48h32zm0 0" fill="#94c1ff"/><path d="m272 424h-32c26.558594 0 48 21.449219 48 48v32h32v-32c0-26.550781-21.441406-48-48-48zm0 0" fill="#5c9eff"/><path d="m288 288v32c0 34.167969-19.511719 63.839844-48 78.398438-12 6.167968-25.601562 9.601562-40 9.601562s-28-3.441406-40-9.601562c-28.488281-14.550782-48-44.230469-48-78.398438v-32l24-24s29.679688 16 64 16 64-16 64-16zm0 0" fill="#d7e9ff"/><path d="m264 264s-2.929688 1.574219-8 3.742188v52.257812c0 34.167969-19.511719 63.839844-48 78.398438-7.433594 3.824218-15.527344 6.441406-24 8 5.199219.953124 10.511719 1.601562 16 1.601562 14.398438 0 28-3.441406 40-9.601562 28.488281-14.550782 48-44.230469 48-78.398438v-32zm0 0" fill="#94c1ff"/><path d="m136 264-24 24v-40c0-39.761719 32.238281-72 72-72h64v32c22.078125 0 40 17.921875 40 40v40l-24-24s-29.679688 16-64 16-64-16-64-16zm0 0" fill="#94c1ff"/><path d="m248 208v-32h-32v48c22.078125 0 40 9.921875 40 32v11.742188c5.070312-2.167969 8-3.742188 8-3.742188l24 24v-40c0-22.078125-17.921875-40-40-40zm0 0" fill="#5c9eff"/><path d="m32 24v480h-24v-496h24zm0 0" fill="#94c1ff"/><path d="m376 64-24 32 24 32h-200l40-40v-24zm0 0" fill="#d7e9ff"/><path d="m216 64v24h-184v-64h184zm0 0" fill="#d7e9ff"/><g fill="#116fff"><path d="m80 479.992188c-4.425781 0-8-3.578126-8-8 0-30.871094 25.128906-55.992188 56-55.992188 4.425781 0 8 3.574219 8 8s-3.574219 8-8 8c-22.054688 0-40 17.9375-40 39.992188 0 4.421874-3.574219 8-8 8zm0 0"/><path d="m160 432.007812-32-.007812c-4.425781 0-8-3.585938-8-8 0-4.425781 3.585938-8 8-8l32 .007812c4.425781 0 8 3.585938 8 8 0 4.425782-3.585938 8-8 8zm0 0"/><path d="m80 512c-4.425781 0-8-3.574219-8-8v-29.710938c0-4.425781 3.574219-8 8-8s8 3.574219 8 8v29.710938c0 4.425781-3.574219 8-8 8zm0 0"/><path d="m320 479.992188c-4.425781 0-8-3.578126-8-8 0-22.054688-17.945312-39.992188-40-39.992188-4.425781 0-8-3.574219-8-8s3.574219-8 8-8c30.871094 0 56 25.121094 56 55.992188 0 4.421874-3.574219 8-8 8zm0 0"/><path d="m240 432.007812c-4.414062 0-8-3.574218-8-8 0-4.414062 3.574219-8 8-8l32-.007812c4.414062 0 8 3.574219 8 8 0 4.414062-3.574219 8-8 8zm0 0"/><path d="m320 512c-4.425781 0-8-3.574219-8-8v-29.710938c0-4.425781 3.574219-8 8-8s8 3.574219 8 8v29.710938c0 4.425781-3.574219 8-8 8zm0 0"/><path d="m160 432.007812c-4.425781 0-8-3.574218-8-8v-25.609374c0-4.421876 3.574219-8 8-8s8 3.578124 8 8v25.609374c0 4.425782-3.574219 8-8 8zm0 0"/><path d="m240 432c-4.425781 0-8-3.574219-8-8v-25.601562c0-4.421876 3.574219-8 8-8s8 3.578124 8 8v25.601562c0 4.425781-3.574219 8-8 8zm0 0"/><path d="m200 416c-52.9375 0-96-43.0625-96-96 0-4.425781 3.574219-8 8-8s8 3.574219 8 8c0 44.113281 35.886719 80 80 80s80-35.886719 80-80c0-4.425781 3.574219-8 8-8s8 3.574219 8 8c0 52.9375-43.0625 96-96 96zm0 0"/><path d="m112 328.007812c-4.425781 0-8-3.574218-8-8v-72.007812c0-4.425781 3.574219-8 8-8s8 3.574219 8 8v72.007812c0 4.425782-3.574219 8-8 8zm0 0"/><path d="m288 328.015625c-4.425781 0-8-3.574219-8-8v-72.015625c0-4.425781 3.574219-8 8-8s8 3.574219 8 8v72.015625c0 4.425781-3.574219 8-8 8zm0 0"/><path d="m288 256c-4.425781 0-8-3.574219-8-8 0-17.648438-14.351562-32-32-32-4.425781 0-8-3.574219-8-8s3.574219-8 8-8c26.472656 0 48 21.527344 48 48 0 4.425781-3.574219 8-8 8zm0 0"/><path d="m248 216c-4.425781 0-8-3.574219-8-8v-32c0-4.425781 3.574219-8 8-8s8 3.574219 8 8v32c0 4.425781-3.574219 8-8 8zm0 0"/><path d="m248 184h-64c-4.425781 0-8-3.574219-8-8s3.574219-8 8-8h64c4.425781 0 8 3.574219 8 8s-3.574219 8-8 8zm0 0"/><path d="m112 256c-4.425781 0-8-3.574219-8-8 0-44.113281 35.886719-79.992188 80-79.992188 4.425781 0 8 3.578126 8 8 0 4.425782-3.574219 8-8 8-35.289062 0-64 28.703126-64 63.992188 0 4.425781-3.574219 8-8 8zm0 0"/><path d="m288 296c-2.046875 0-4.097656-.785156-5.65625-2.34375l-24-24c-3.128906-3.128906-3.128906-8.183594 0-11.3125s8.183594-3.128906 11.3125 0l24 24c3.128906 3.128906 3.128906 8.183594 0 11.3125-1.558594 1.558594-3.609375 2.34375-5.65625 2.34375zm0 0"/><path d="m200 288c-35.878906 0-66.503906-16.265625-67.792969-16.953125-3.886719-2.09375-5.34375-6.933594-3.253906-10.832031 2.085937-3.878906 6.917969-5.375 10.832031-3.261719.277344.152344 28.472656 15.046875 60.214844 15.046875 31.894531 0 59.929688-14.886719 60.207031-15.046875 3.871094-2.097656 8.738281-.632813 10.832031 3.253906 2.097657 3.890625.632813 8.746094-3.253906 10.832031-1.28125.695313-31.90625 16.960938-67.785156 16.960938zm0 0"/><path d="m112 296c-2.046875 0-4.097656-.785156-5.65625-2.34375-3.128906-3.128906-3.128906-8.183594 0-11.3125l24-24c3.128906-3.128906 8.183594-3.128906 11.3125 0s3.128906 8.183594 0 11.3125l-24 24c-1.558594 1.558594-3.609375 2.34375-5.65625 2.34375zm0 0"/><path d="m176 448c-2.046875 0-4.097656-.785156-5.65625-2.34375l-16-15.992188c-3.128906-3.128906-3.128906-8.183593 0-11.3125 3.128906-3.128906 8.183594-3.128906 11.3125 0l16 15.992188c3.128906 3.128906 3.128906 8.183594 0 11.3125-1.558594 1.558594-3.609375 2.34375-5.65625 2.34375zm0 0"/><path d="m176 448c-3.351562 0-6.472656-2.121094-7.585938-5.472656-1.398437-4.191406.867188-8.726563 5.058594-10.121094l24-8c4.222656-1.40625 8.71875.867188 10.121094 5.058594 1.398438 4.191406-.867188 8.726562-5.058594 10.121094l-24 8c-.847656.277343-1.703125.414062-2.535156.414062zm0 0"/><path d="m224 448c-2.046875 0-4.097656-.785156-5.65625-2.34375-3.128906-3.128906-3.128906-8.183594 0-11.3125l16-15.992188c3.128906-3.128906 8.183594-3.128906 11.3125 0 3.128906 3.128907 3.128906 8.183594 0 11.3125l-16 15.992188c-1.558594 1.558594-3.609375 2.34375-5.65625 2.34375zm0 0"/><path d="m224 448c-.832031 0-1.6875-.136719-2.527344-.414062l-24-8c-4.183594-1.394532-6.457031-5.921876-5.058594-10.121094 1.402344-4.183594 5.890626-6.464844 10.121094-5.058594l24 8c4.183594 1.394531 6.457032 5.921875 5.058594 10.121094-1.121094 3.351562-4.242188 5.472656-7.59375 5.472656zm0 0"/><path d="m200.238281 472c-4.421875 0-8.039062-3.574219-8.039062-8s3.535156-8 7.953125-8h.085937c4.417969 0 8 3.574219 8 8s-3.582031 8-8 8zm0 0"/><path d="m200.238281 504c-4.421875 0-8.039062-3.574219-8.039062-8s3.535156-8 7.953125-8h.085937c4.417969 0 8 3.574219 8 8s-3.582031 8-8 8zm0 0"/><path d="m32 512c-4.425781 0-8-3.574219-8-8v-496c0-4.425781 3.574219-8 8-8s8 3.574219 8 8v496c0 4.425781-3.574219 8-8 8zm0 0"/><path d="m8 512c-4.425781 0-8-3.574219-8-8v-496c0-4.425781 3.574219-8 8-8s8 3.574219 8 8v496c0 4.425781-3.574219 8-8 8zm0 0"/><path d="m216 32h-184c-4.425781 0-8-3.574219-8-8s3.574219-8 8-8h184c4.425781 0 8 3.574219 8 8s-3.574219 8-8 8zm0 0"/><path d="m216 96h-184c-4.425781 0-8-3.574219-8-8s3.574219-8 8-8h184c4.425781 0 8 3.574219 8 8s-3.574219 8-8 8zm0 0"/><path d="m216 96c-4.425781 0-8-3.574219-8-8v-64c0-4.425781 3.574219-8 8-8s8 3.574219 8 8v64c0 4.425781-3.574219 8-8 8zm0 0"/><path d="m376 72h-160c-4.425781 0-8-3.574219-8-8s3.574219-8 8-8h160c4.425781 0 8 3.574219 8 8s-3.574219 8-8 8zm0 0"/><path d="m376 136h-200c-4.425781 0-8-3.574219-8-8s3.574219-8 8-8h200c4.425781 0 8 3.574219 8 8s-3.574219 8-8 8zm0 0"/><path d="m376.007812 136c-2.441406 0-4.832031-1.105469-6.40625-3.199219l-24-32c-2.136718-2.839843-2.136718-6.753906 0-9.59375l24-32c2.644532-3.535156 7.664063-4.238281 11.191407-1.597656 3.535156 2.648437 4.253906 7.664063 1.597656 11.191406l-20.390625 27.199219 20.398438 27.199219c2.65625 3.527343 1.9375 8.542969-1.597657 11.191406-1.441406 1.089844-3.121093 1.609375-4.792969 1.609375zm0 0"/><path d="m32 16h-24c-4.425781 0-8-3.574219-8-8s3.574219-8 8-8h24c4.425781 0 8 3.574219 8 8s-3.574219 8-8 8zm0 0"/><path d="m176 136c-2.046875 0-4.097656-.785156-5.65625-2.34375-3.128906-3.128906-3.128906-8.183594 0-11.3125l40-40c3.128906-3.128906 8.183594-3.128906 11.3125 0s3.128906 8.183594 0 11.3125l-40 40c-1.558594 1.558594-3.609375 2.34375-5.65625 2.34375zm0 0"/></g></svg>