<?xml version="1.0" encoding="utf-8"?>
<!-- Generator: Adobe Illustrator 23.0.3, SVG Export Plug-In . SVG Version: 6.00 Build 0)  -->
<svg version="1.1" id="Layer_1" xmlns="http://www.w3.org/2000/svg" xmlns:xlink="http://www.w3.org/1999/xlink" x="0px" y="0px"
	 viewBox="0 0 135 70" style="enable-background:new 0 0 135 70;" xml:space="preserve">
<style type="text/css">
	.st0{fill:#332A86;}
</style>
<g>
	<g>
		<path class="st0" d="M126.21,45.36v24.4H0.08V0.05h126.13v24.4h-6.96V7.02H7.04v55.77h112.2V45.36H126.21z M122.72,27.94
			c-1.44,0-2.61,1.17-2.61,2.61c0,1.44,1.17,2.61,2.61,2.61c1.44,0,2.61-1.17,2.61-2.61C125.33,29.1,124.16,27.94,122.72,27.94z
			 M122.72,36.65c-1.44,0-2.61,1.17-2.61,2.61c0,1.44,1.17,2.61,2.61,2.61c1.44,0,2.61-1.17,2.61-2.61
			C125.33,37.82,124.16,36.65,122.72,36.65z M102.14,32.52v-7.95h-1.22v5.59l-3.67-5.59H96.1v7.95h1.23v-5.6l3.66,5.6H102.14z
			 M105.92,32.52h-2.75v-7.95h2.75c0.8,0,1.54,0.29,2.07,0.81c0.87,0.84,0.98,2.01,0.99,3.16c0,1.15-0.12,2.33-0.99,3.17
			C107.45,32.23,106.72,32.52,105.92,32.52z M104.4,25.79v5.51h1.52c0.46,0,0.91-0.17,1.2-0.44c0.55-0.53,0.62-1.42,0.62-2.31
			c0-0.89-0.07-1.79-0.62-2.3c-0.3-0.28-0.75-0.45-1.2-0.45H104.4z M92.72,24.57l3.05,7.95h-1.29l-0.74-1.91h-3.02L90,32.52h-1.3
			l3.01-7.95H92.72z M92.21,26.64l-1.04,2.77h2.1L92.21,26.64z M31.77,27.34c0,1.7-0.62,3.07-1.8,3.97
			c-1.29,0.99-2.8,1.19-4.66,1.19h-6.97V15.06h6.5c1.74,0,3.02,0.31,4.04,0.97c1.27,0.83,2.06,2.31,2.06,3.86
			c0,1.76-0.52,2.97-1.56,3.6C30.85,24.3,31.77,25.78,31.77,27.34z M27.42,20.08c0-1.63-1.33-1.97-2.45-1.97H21.8V22h3.24
			C26.62,22,27.42,21.36,27.42,20.08z M21.8,29.33h3.63c0.85,0,2.82-0.2,2.82-2.07c0-1.52-0.92-2.29-2.72-2.29H21.8V29.33z
			 M37.1,25.99c0-2.06,1.16-3.34,3.03-3.34c0.29,0,0.64,0.04,0.99,0.12l0.23,0.05v-3.29l-0.16-0.03c-0.32-0.05-0.65-0.07-0.97-0.07
			c-1.52,0-2.76,0.59-3.42,1.61l-0.2-1.44h-2.91v12.88h3.41V25.99z M52.43,30.77c-0.8,0.98-2.41,2.02-4.52,2.02
			c-2.12,0-3.72-1.04-4.52-2.02c-1.06-1.33-1.51-2.75-1.51-4.73c0-1.99,0.45-3.4,1.51-4.73c0.8-0.98,2.4-2.02,4.52-2.02
			c2.12,0,3.72,1.04,4.52,2.02c1.06,1.33,1.51,2.75,1.51,4.73C53.94,28.03,53.49,29.44,52.43,30.77z M45.32,26.04
			c0,1.43,0.27,2.39,0.84,3.02c0.43,0.46,1.09,0.73,1.75,0.73c0.67,0,1.32-0.27,1.76-0.73c0.57-0.63,0.84-1.58,0.84-3.01
			c0-1.43-0.27-2.39-0.84-3.02c-0.43-0.46-1.09-0.73-1.75-0.73c-0.67,0-1.32,0.27-1.76,0.73C45.58,23.65,45.32,24.61,45.32,26.04z
			 M60.8,32.48l2.65-8.01l2.69,8.01h3.08l3.14-12.88h-3.26l-1.8,7.65l-2.47-7.53h-2.75l-2.45,7.55l-1.87-7.68h-3.31l3.27,12.88H60.8
			z M77.26,27.03c0-1.03,0-2.2,0.39-3.1c0.3-0.67,0.89-1.47,1.99-1.47c1.33,0,1.87,0.63,1.87,2.16v7.86h3.39v-8.53
			c0-2.83-1.74-4.66-4.42-4.66c-1.49,0-2.78,0.58-3.55,1.58l-0.17-1.27h-2.89v12.88h3.39V27.03z M24.44,39.91
			c1.04,0,1.92,0.36,2.42,0.98c0.45,0.55,0.66,1.04,0.73,1.7l0.02,0.17h3.56l-0.02-0.21c-0.11-1.07-0.5-2.6-1.69-3.81
			c-1.27-1.29-3.09-2.03-5.02-2.03c-1.95,0-3.67,0.68-4.96,1.98c-2,2-2.17,4.58-2.17,7.05c0,2.47,0.17,5.05,2.17,7.05
			c1.28,1.28,3,1.95,4.96,1.95c1.89,0,3.72-0.76,5.02-2.08c0.92-0.95,1.52-2.31,1.69-3.84l0.02-0.21h-3.56l-0.02,0.17
			c-0.07,0.68-0.3,1.25-0.73,1.77c-0.5,0.63-1.4,1.01-2.42,1.01c-0.94,0-1.84-0.39-2.48-1.07c-1.12-1.17-1.12-3.25-1.12-4.77
			c0-1.52,0-3.6,1.12-4.77C22.6,40.3,23.5,39.91,24.44,39.91z M44.57,51.64v2.59l-0.12,0.05c-0.52,0.22-0.82,0.35-1.57,0.35
			c-1.22,0-1.95-0.68-2.21-1.47c-0.68,0.84-2,1.59-3.7,1.59c-3.24,0-4.71-2.13-4.71-4.11c0-2.31,1.73-3.92,4.41-4.11l3.5-0.25v-0.59
			c0-1.06-0.33-1.77-1.92-1.77c-0.91,0-2.01,0.28-2.09,1.6l-0.01,0.18h-3.29l0.01-0.2c0.16-2.66,2.17-4.24,5.38-4.24
			c2.51,0,4.19,0.92,4.86,2.67c0.33,0.83,0.37,1.78,0.37,2.59v4.64c0,0.52,0.15,0.6,0.5,0.6c0.17,0,0.34-0.04,0.34-0.04L44.57,51.64
			z M37.21,49.13c-0.81,0.06-1.62,0.53-1.62,1.44c0,0.89,0.82,1.37,1.58,1.37c1.85,0,3-1.02,3-2.67V48.9L37.21,49.13z M50.97,51.52
			c-0.07,0.01-0.16,0.01-0.3,0.01c-0.86,0-1.01-0.33-1.01-1.01V36.68h-3.41v14.34c0,2.29,1.28,3.56,3.6,3.56
			c0.53,0,0.71-0.04,1.11-0.12l0.41-0.08v-2.87h-0.19C51.1,51.51,51.04,51.51,50.97,51.52z M60.78,36.71h3.39v17.73h-2.96
			l-0.15-1.07c-0.76,0.86-1.98,1.36-3.38,1.36c-1.19,0-2.29-0.38-3.17-1.1c-1.51-1.25-2.28-3.13-2.28-5.6c0-2.54,0.78-4.47,2.3-5.72
			c0.86-0.7,1.93-1.05,3.17-1.05c1.27,0,2.38,0.33,3.07,0.9V36.71z M60.93,47.97c0-1.74-0.46-3.82-2.64-3.82
			c-0.77,0-1.39,0.31-1.87,0.91c-0.51,0.66-0.75,1.61-0.75,2.91c0,1.29,0.25,2.28,0.75,2.93c0.47,0.6,1.1,0.91,1.86,0.91
			C60.47,51.82,60.93,49.73,60.93,47.97z M78.29,49.21l-2.47-7.52h-2.76l-2.45,7.55l-1.87-7.67h-3.31l3.27,12.88h3.08l2.65-8.01
			l2.69,8.01h3.08l3.15-12.88h-3.26L78.29,49.21z M94.21,43.64c0.83,1.24,1.17,2.62,1.11,4.46c0,0-0.02,0.57-0.02,0.83v0.19h-8.36
			c0.02,0.84,0.33,1.62,0.85,2.12c0.5,0.47,1.08,0.72,1.72,0.72c0.82,0,1.3-0.15,1.69-0.55c0.27-0.27,0.45-0.59,0.55-0.97l0.04-0.14
			h3.24l-0.02,0.21c-0.08,0.81-0.61,1.83-1.1,2.41c-0.99,1.18-2.54,1.82-4.35,1.82c-1.61,0-2.95-0.52-4.07-1.59
			c-1.28-1.23-1.98-3.05-1.98-5.14c0-2.09,0.66-3.91,1.86-5.13c1.05-1.07,2.48-1.64,4.13-1.64C91.51,41.25,93.19,42.1,94.21,43.64z
			 M86.93,46.56h5c-0.05-0.78-0.29-1.4-0.71-1.86c-0.4-0.43-1.01-0.66-1.75-0.66c-0.81,0-1.51,0.32-1.93,0.88
			C87.15,45.4,86.97,45.88,86.93,46.56z M101.55,51.52c-0.07,0.01-0.16,0.01-0.3,0.01c-0.86,0-1.01-0.33-1.01-1.01V36.68h-3.41
			v14.34c0,2.29,1.28,3.56,3.6,3.56c0.53,0,0.71-0.04,1.11-0.12l0.41-0.08v-2.87h-0.19C101.68,51.51,101.62,51.51,101.55,51.52z
			 M108.53,51.51c-0.08,0-0.14,0.01-0.21,0.01c-0.07,0.01-0.16,0.01-0.3,0.01c-0.86,0-1.01-0.33-1.01-1.01V36.68h-3.41v14.34
			c0,2.29,1.28,3.56,3.6,3.56c0.53,0,0.71-0.04,1.11-0.12l0.41-0.08v-2.87H108.53z"/>
	</g>
	<g>
		<g>
			<path class="st0" d="M130.92,69.69c-1.76,0-3.08-1.38-3.08-3.13c0-1.75,1.31-3.14,3.08-3.14c1.76,0,3.08,1.38,3.08,3.13
				C134,68.3,132.69,69.69,130.92,69.69z M130.92,63.97c-1.51,0-2.51,1.1-2.51,2.59c0,1.49,1,2.58,2.51,2.58
				c1.51,0,2.51-1.1,2.51-2.59C133.43,65.06,132.43,63.97,130.92,63.97z M131.61,68.14l-0.55-1.2h-0.64v1.2h-0.57v-3.26h1.2
				c0.62,0,1.16,0.36,1.16,1.02c0,0.43-0.19,0.77-0.59,0.95l0.61,1.29H131.61z M131.06,65.4h-0.64v1.01h0.64
				c0.34,0,0.56-0.15,0.56-0.51C131.62,65.56,131.37,65.4,131.06,65.4z"/>
		</g>
	</g>
</g>
</svg>
