<svg xmlns="http://www.w3.org/2000/svg" viewBox="0 0 292.16 51.61"><title>Asset 1</title><g id="Layer_2" data-name="Layer 2"><g id="Layer_1-2" data-name="Layer 1"><path d="M76.92,44.27H71.35v-10h5.57v1H72.51v3.22h4.15v1H72.51v3.68h4.41Z"/><path d="M84.26,44.27l-3.39-8.85h-.05c.06.7.09,1.53.09,2.5v6.35H79.84v-10h1.75l3.16,8.24h.06L88,34.28h1.74v10H88.58V37.84c0-.74,0-1.55.09-2.41h0L85.2,44.27Z"/><path d="M99.51,37.19a2.82,2.82,0,0,1-1,2.34,4.72,4.72,0,0,1-3,.81H94.34v3.93H93.18v-10h2.59C98.27,34.28,99.51,35.25,99.51,37.19Zm-5.17,2.16h1a3.89,3.89,0,0,0,2.23-.5,1.85,1.85,0,0,0,.69-1.6,1.71,1.71,0,0,0-.65-1.48,3.4,3.4,0,0,0-2-.48h-1.3Z"/><path d="M102.31,44.27v-10h1.16v8.94h4.41v1.05Z"/><path d="M119,39.26A5.52,5.52,0,0,1,117.73,43a4.26,4.26,0,0,1-3.37,1.37A4.33,4.33,0,0,1,111,43.06a5.54,5.54,0,0,1-1.2-3.81A5.42,5.42,0,0,1,111,35.47a4.33,4.33,0,0,1,3.41-1.35,4.28,4.28,0,0,1,3.37,1.37A5.52,5.52,0,0,1,119,39.26Zm-8,0a4.71,4.71,0,0,0,.87,3.08,3.54,3.54,0,0,0,5,0,4.86,4.86,0,0,0,.85-3.09,4.75,4.75,0,0,0-.85-3.06,3,3,0,0,0-2.5-1,3.09,3.09,0,0,0-2.52,1.05A4.68,4.68,0,0,0,111,39.26Z"/><path d="M124.42,39.28l2.67-5h1.25L125,40.4v3.87h-1.18V40.45l-3.33-6.17h1.27Z"/><path d="M136,44.27h-5.57v-10H136v1h-4.41v3.22h4.14v1h-4.14v3.68H136Z"/><path d="M144.47,44.27H138.9v-10h5.57v1h-4.4v3.22h4.14v1h-4.14v3.68h4.4Z"/><path d="M146.59,41V40H150v1Z"/><path d="M161.27,39.26A5.52,5.52,0,0,1,160.06,43a4.92,4.92,0,0,1-6.79,0,5.54,5.54,0,0,1-1.19-3.81,5.46,5.46,0,0,1,1.2-3.78,4.34,4.34,0,0,1,3.42-1.35,4.27,4.27,0,0,1,3.36,1.37A5.48,5.48,0,0,1,161.27,39.26Zm-8,0a4.71,4.71,0,0,0,.86,3.08,3.54,3.54,0,0,0,5,0,4.8,4.8,0,0,0,.85-3.09,4.75,4.75,0,0,0-.85-3.06,3,3,0,0,0-2.49-1,3.09,3.09,0,0,0-2.53,1.05A4.68,4.68,0,0,0,153.31,39.26Z"/><path d="M172.92,44.27h-1.15l-2-6.69c-.1-.29-.21-.67-.33-1.12a6.94,6.94,0,0,1-.18-.81,15.11,15.11,0,0,1-.48,2l-2,6.65h-1.15l-2.66-10h1.23l1.58,6.17a22.89,22.89,0,0,1,.48,2.35,16.57,16.57,0,0,1,.54-2.44l1.79-6.08h1.24l1.87,6.13a18.76,18.76,0,0,1,.56,2.39,21.83,21.83,0,0,1,.49-2.36l1.57-6.16h1.23Z"/><path d="M185.67,44.27h-1.33l-5.46-8.38h-.06c.08,1,.11,1.88.11,2.7v5.68h-1.07v-10h1.31l5.45,8.35h0c0-.12,0-.51-.06-1.18s0-1.15,0-1.43V34.28h1.09Z"/><path d="M194.68,44.27h-5.57v-10h5.57v1h-4.4v3.22h4.14v1h-4.14v3.68h4.4Z"/><path d="M205.58,39.18A5.06,5.06,0,0,1,204.23,43a5.3,5.3,0,0,1-3.86,1.3H197.6v-10h3.06a4.48,4.48,0,0,1,4.92,4.9Zm-1.23,0a4,4,0,0,0-1-2.94,4,4,0,0,0-2.92-1h-1.69v8h1.42a4.31,4.31,0,0,0,3.12-1A4,4,0,0,0,204.35,39.22Z"/><path d="M80.07,22.53c1.75,0,2.77-.59,2.77-2s-.88-2-2.91-2H75.27v4.08ZM78.91,15c1.89,0,2.91-.73,2.91-2v-.15c0-1.16-.87-1.89-2.62-1.89H75.27V15ZM71.34,7.24h8.44a6.55,6.55,0,0,1,4.8,1.6,4.28,4.28,0,0,1,1.31,3.21v.14a4.38,4.38,0,0,1-2.47,4.08c2.18.87,3.49,2.18,3.49,4.66v.14c0,3.49-2.76,5.24-6.84,5.24H71.34V7.24" style="fill:#231f20"/><polyline points="90.12 7.24 94.19 7.24 94.19 22.38 103.36 22.38 103.36 26.31 90.12 26.31 90.12 7.24" style="fill:#231f20"/><path d="M117.19,18.3l-2.47-6.25-2.48,6.25ZM113,7.1h3.64l7.86,19.21h-4.22l-1.6-4.37h-7.86l-1.61,4.37h-4.07L113,7.1" style="fill:#231f20"/><path d="M125.05,16.7c0-5.38,3.93-9.89,9.46-9.89a9.47,9.47,0,0,1,7.28,3.05l-2.62,3.06a6.41,6.41,0,0,0-4.66-2.18c-3,0-5.24,2.62-5.24,6s2,6,5.24,6a6.76,6.76,0,0,0,4.81-2.18l2.62,2.76a9.55,9.55,0,0,1-7.57,3.35c-5.39,0-9.32-4.37-9.32-9.9" style="fill:#231f20"/><polyline points="144.56 7.24 148.63 7.24 148.63 15.54 156.06 7.24 161 7.24 153.44 15.25 161.3 26.31 156.49 26.31 150.82 18.16 148.63 20.49 148.63 26.31 144.56 26.31 144.56 7.24" style="fill:#231f20"/><path d="M175.56,12.19a1.66,1.66,0,0,0-1.6-1.75c-1,0-1.6.73-1.6,1.9a3.85,3.85,0,0,0,.87,2.18c1.6-.58,2.33-1.31,2.33-2.33Zm-.14,9.32L172.07,18a2.66,2.66,0,0,0-1.46,2.33,2.11,2.11,0,0,0,2.33,2.19,4.58,4.58,0,0,0,2.48-1Zm2,2.18a7.7,7.7,0,0,1-4.95,1.89c-3.2,0-5.67-1.89-5.67-5.09a5.18,5.18,0,0,1,3.2-4.81,6.6,6.6,0,0,1-1.16-3.49v-.14A4.8,4.8,0,0,1,174,7.39a4.52,4.52,0,0,1,4.8,4.51c0,2.47-1.45,3.78-3.49,4.66l2.18,2.33a14.91,14.91,0,0,0,1.61-3.06l2.76,1.6a19.9,19.9,0,0,1-2.18,3.79l2.47,2.47-2.76,2-1.9-2" style="fill:#231f20"/><polyline points="185.9 7.24 190.41 7.24 195.21 20.63 200.02 7.24 204.24 7.24 196.96 26.46 193.32 26.46 185.9 7.24" style="fill:#231f20"/><polyline points="206.71 7.24 220.54 7.24 220.54 10.88 210.64 10.88 210.64 14.81 219.38 14.81 219.38 18.45 210.64 18.45 210.64 22.53 220.69 22.53 220.69 26.31 206.71 26.31 206.71 7.24" style="fill:#231f20"/><path d="M234.66,18.3l-2.33-6.25-2.47,6.25ZM230.44,7.1h3.78l7.86,19.21h-4.22l-1.74-4.37H228.4l-1.75,4.37h-4.07L230.44,7.1" style="fill:#231f20"/><polyline points="246.45 11.03 240.77 11.03 240.77 7.24 256.06 7.24 256.06 11.03 250.38 11.03 250.38 26.31 246.45 26.31 246.45 11.03" style="fill:#231f20"/><path d="M257.08,16.7c0-5.38,3.93-9.89,9.46-9.89a9.48,9.48,0,0,1,7.28,3.05l-2.62,3.06a6.43,6.43,0,0,0-4.66-2.18c-3.06,0-5.24,2.62-5.24,6s2.18,6,5.24,6c2.18,0,3.35-.87,4.8-2.18L274,23.25a9.32,9.32,0,0,1-7.57,3.35c-5.38,0-9.31-4.37-9.31-9.9" style="fill:#231f20"/><polyline points="276.73 7.24 280.66 7.24 280.66 14.67 288.08 14.67 288.08 7.24 292.16 7.24 292.16 26.31 288.08 26.31 288.08 18.6 280.66 18.6 280.66 26.31 276.73 26.31 276.73 7.24" style="fill:#231f20"/><path d="M0,3A3,3,0,0,1,3,0H54.07a3,3,0,0,1,3,3V48.43a2.88,2.88,0,0,1-3,3H3a2.88,2.88,0,0,1-3-3V3" style="fill:#005596"/><path d="M16.47,18.23V14.45H28.93a1.77,1.77,0,0,1,1.64,1.89,1.77,1.77,0,0,1-1.64,1.89Zm0,3.83H28.93A1.78,1.78,0,0,1,30.57,24a1.78,1.78,0,0,1-1.64,1.9H19.12l9.56,16.77h11L52.5,23.81h-8l-9.72,14c-3.69-6.83-4-7.46-4.07-7.52h3a5.55,5.55,0,0,0,5.77-5.49,5.07,5.07,0,0,0-1.78-4.31,5,5,0,0,0,1.78-4.3,5.55,5.55,0,0,0-5.77-5.49H8.62V30.23H18.81l-2.35-4.38V22.08" style="fill:#fff"/><path d="M60.67,48.8v-.71h.73c.3,0,.67,0,.67.33,0,.44-.59.38-.94.38Zm.92.39c.49,0,.86-.21.86-.76s-.47-.71-1-.71h-1.2v2.74h.39V49.19h.46L62,50.46h.45l-.82-1.27Zm-.37,2a2.13,2.13,0,1,1,2.12-2.13,2.14,2.14,0,0,1-2.12,2.13m0,.38a2.51,2.51,0,1,0-2.5-2.51,2.49,2.49,0,0,0,2.5,2.51" style="fill:#005596"/></g></g></svg>