<svg height="512" viewBox="0 0 60 60" width="512" xmlns="http://www.w3.org/2000/svg"><g id="Page-1" fill="none" fill-rule="evenodd"><g id="011---No-Email" fill-rule="nonzero"><path id="Shape" d="m11 13.67v14.92l-9.92-7.53c.12966917-.4408841.40454211-.8250014.78-1.09z" fill="#a4c2f7"/><path id="Shape" d="m58.92 21.06-9.92 7.53v-14.92l9.14 6.3c.3754579.2649986.6503308.6491159.78 1.09z" fill="#a4c2f7"/><path id="Shape" d="m58.14 19.97-9.14-6.3v2.068l6.14 4.232c.3754579.2649986.6503308.6491159.78 1.09l-6.92 5.253v2.277l9.92-7.53c-.1296692-.4408841-.4045421-.8250014-.78-1.09z" fill="#7facfa"/><path id="Shape" d="m59 21.62v35.38c.0038593.4302949-.1370164.8494002-.4 1.19l-24.31-18.44 14.71-11.16 9.92-7.53c.0518013.1822042.078712.3705796.08.56z" fill="#e8edfc"/><path id="Shape" d="m58.92 21.06-2.92 2.216v32.942l2.6 1.972c.2629836-.3405998.4038593-.7597051.4-1.19v-35.38c-.001288-.1894204-.0281987-.3777958-.08-.56z" fill="#cad9fc"/><path id="Shape" d="m25.71 39.75-24.31 18.44c-.2629836-.3405998-.40385931-.7597051-.4-1.19v-35.38c.00128798-.1894204.02819874-.3777958.08-.56l9.92 7.53z" fill="#e8edfc"/><path id="Shape" d="m58.6 58.19c-.3733736.5100237-.9679153.8110105-1.6.81h-54c-.63208466.0010105-1.22662642-.2999763-1.6-.81l24.31-18.44 3.08-2.34c.7129266-.5499708 1.7070734-.5499708 2.42 0l3.08 2.34z" fill="#e8edfc"/><path id="Shape" d="m34.29 39.75-3.08-2.34c-.7129266-.5499708-1.7070734-.5499708-2.42 0l-.29.22 2.79 2.12 24.31 18.44c-.3733736.5100237-.9679153.8110105-1.6.81h3c.6320847.0010105 1.2266264-.2999763 1.6-.81z" fill="#cad9fc"/><path id="Shape" d="m49 2v26.59l-14.71 11.16-3.08-2.34c-.7129266-.5499708-1.7070734-.5499708-2.42 0l-3.08 2.34-14.71-11.16v-26.59c0-.55228475.4477153-1 1-1h36c.5522847 0 1 .44771525 1 1z" fill="#e8edfc"/><path id="Shape" d="m48 1h-3c.5522847 0 1 .44771525 1 1v26.59l-13.209 10.021 1.5 1.139 14.709-11.16v-26.59c0-.55228475-.4477153-1-1-1z" fill="#cad9fc"/><path id="Shape" d="m30 5c-7.7319865 0-14 6.2680135-14 14s6.2680135 14 14 14 14-6.2680135 14-14c0-3.7130309-1.4749958-7.2739856-4.1005051-9.89949494-2.6255093-2.62550929-6.186464-4.10050506-9.8994949-4.10050506zm-9.01 18.34c-1.8455945-3.8293234-1.0685718-8.4069269 1.9372506-11.4127494 3.0058225-3.00582238 7.583426-3.78284508 11.4127494-1.9372506.2854523.145772.4837315.4195401.5332123.7362168.0494807.3166767-.0558341.6378814-.2832123.8637832l-12 12c-.2259018.2273782-.5471065.332693-.8637832.2832123-.3166767-.0494808-.5904448-.24776-.7362168-.5332123zm10.22 5.59c-1.8998901.2293417-3.8257296-.0898966-5.55-.92-.2854523-.145772-.4837315-.4195401-.5332123-.7362168-.0494807-.3166767.0558341-.6378814.2832123-.8637832l12-12c.2259018-.2273782.5471065-.332693.8637832-.2832123.3166767.0494808.5904448.24776.7362168.5332123 1.4010484 2.9057213 1.3143368 6.3088565-.2328727 9.1394564s-4.3648778 4.7409907-7.5671273 5.1305436z" fill="#a4c2f7"/><path id="Shape" d="m3 59h3c-1.10274818-.0043847-1.99561526-.8972518-2-2v-35.38c.00222053-.656897.32279116-1.2719453.86-1.65l9.14-6.3v-11.67c0-.55228475.4477153-1 1-1h-3c-.5522847 0-1 .44771525-1 1v11.67l-9.14 6.3c-.53720884.3780547-.85777947.993103-.86 1.65v35.38c.00438474 1.1027482.89725182 1.9956153 2 2z" fill="#fff"/><path id="Rectangle-path" d="m0 44.778h2v8h-2z" fill="#fff"/><g fill="#428dff"><path id="Shape" d="m1.02 49.778c-.55228475.0027614-1.00223858-.4427153-1.005-.995s.44271525-1.0022386.995-1.005h.01c.55228475 0 1 .4477153 1 1s-.44771525 1-1 1z"/><path id="Shape" d="m59.843 20.718c-.195933-.6339061-.5947156-1.1858774-1.135-1.571l-8.708-6v-11.147c0-1.1045695-.8954305-2-2-2h-36c-1.1045695 0-2 .8954305-2 2v11.145l-8.715 6.007c-.53831327.3845025-.93506943.9355332-1.129 1.568-.01800629.0404083-.03369833.0818085-.047.124-.070105.2527885-.10675088.5136802-.109.776v23.158c0 .5522847.44771525 1 1 1s1-.4477153 1-1v-21.765l22.054 16.735-22.054 16.731v-3.7c0-.5522847-.44771525-1-1-1s-1 .4477153-1 1v4.221c.00200623.6389002.20957149 1.2601935.592 1.772.005.007.006.016.011.022s.02.015.028.025c.56240338.7414197 1.4384128 1.1781302 2.369 1.181h54c.9331096-.0029616 1.8112631-.4416685 2.374-1.186.006-.008.017-.011.023-.02s.006-.015.011-.022c.3824285-.5118065.5899938-1.1330998.592-1.772v-35.38c-.0024323-.2623062-.0390749-.5231741-.109-.776-.0130271-.0430731-.0290667-.0851769-.048-.126zm-30.443 17.487c.3549187-.2773195.8530813-.2773195 1.208 0l26.092 19.795h-53.395zm6.549 1.543 22.051-16.735v33.466zm21.619-18.96c.01.007.017.017.027.025l-7.595 5.761v-11zm-47.568-5.214v11l-7.593-5.762.02-.019zm2 12.517v-26.091h36v26.091l-13.708 10.4-2.475-1.877c-1.0731312-.8161117-2.5588688-.8161117-3.632 0l-2.477 1.879z"/><path id="Shape" d="m45 19c0-8.2842712-6.7157288-15-15-15s-15 6.7157288-15 15 6.7157288 15 15 15c8.2803876-.0093685 14.9906315-6.7196124 15-15zm-28 0c0-7.1797017 5.8202983-13 13-13s13 5.8202983 13 13-5.8202983 13-13 13c-7.1762751-.008266-12.991734-5.8237249-13-13z"/><path id="Shape" d="m31.322 29.922c3.5240872-.42529 6.6263653-2.5250336 8.3308775-5.6386648 1.7045123-3.1136313 1.8017499-6.8584407.2611225-10.0563352-.2794456-.5742606-.8192056-.9780562-1.449-1.084-.6434365-.1107351-1.3005553.0981108-1.762.56l-12 12c-.4610037.4619832-.6697012 1.118635-.56 1.762.1059438.6297944.5097394 1.1695544 1.084 1.449 1.4909611.7170688 3.1245674 1.0882963 4.779 1.086.4398177-.0001382.8792454-.0261833 1.316-.078zm-5.2-2.8 12-12.021c1.6573945 3.4442215.9585029 7.5596221-1.7430002 10.2636005s-6.8162618 3.4066388-10.2619998 1.7523995z"/><path id="Shape" d="m35.857 10.535c-.1059438-.62979439-.5097394-1.16955438-1.084-1.449-4.2128823-2.03248009-9.2503687-1.17840497-12.5578868 2.1291132-3.3075182 3.3075181-4.1615933 8.3450045-2.1291132 12.5578868.2795116.574627.8197655.9785134 1.45 1.084.6436002.1123622 1.3016286-.0954166 1.764-.557l12-12c.4608626-.46322.6684943-1.1211552.557-1.765zm-1.974.348-11.995 12.017c-1.2601815-2.6154103-1.1813461-5.6781006.2117217-8.2252148 1.3930677-2.5471142 3.9292733-4.2658196 6.8112783-4.6157852.3595617-.0405166.7211648-.0602161 1.083-.059 1.3467415-.00362111 2.6768835.2972077 3.891.88z"/><path id="Shape" d="m6 49v-18c0-.5522847-.44771525-1-1-1s-1 .4477153-1 1v18c0 .5522847.44771525 1 1 1s1-.4477153 1-1z"/><path id="Shape" d="m55 30c-.5522847 0-1 .4477153-1 1v18c0 .5522847.4477153 1 1 1s1-.4477153 1-1v-18c0-.5522847-.4477153-1-1-1z"/><path id="Shape" d="m15 56h30c.5522847 0 1-.4477153 1-1s-.4477153-1-1-1h-30c-.5522847 0-1 .4477153-1 1s.4477153 1 1 1z"/></g></g></g></svg>